G04 Layer_Physical_Order=1*
G04 Layer_Color=255*
%FSLAX42Y42*%
%MOMM*%
G71*
G01*
G75*
%ADD10R,0.52X0.52*%
%ADD11R,0.45X0.55*%
%ADD12R,1.78X0.72*%
%ADD13C,0.50*%
%ADD14C,0.51*%
%ADD15C,1.50*%
%ADD16R,1.50X1.50*%
%ADD17C,0.90*%
G36*
X2695Y1375D02*
Y445D01*
X2413D01*
Y610D01*
X2464Y660D01*
X2502Y699D01*
X2578D01*
Y725D01*
X2594Y732D01*
X2616Y749D01*
X2633Y772D01*
X2644Y798D01*
X2648Y826D01*
X2644Y853D01*
X2633Y879D01*
X2616Y902D01*
X2594Y919D01*
X2578Y926D01*
Y973D01*
X2647D01*
Y1186D01*
X2578D01*
Y1206D01*
X2464D01*
Y1270D01*
X2578Y1270D01*
X2368D01*
Y1274D01*
X2126D01*
Y1270D01*
X2095D01*
X1943Y1270D01*
X1811D01*
Y1274D01*
X1569D01*
Y1270D01*
X1460D01*
Y1265D01*
X1443D01*
Y1207D01*
X1442Y1206D01*
X1443Y1206D01*
Y1168D01*
X1352D01*
Y1274D01*
X1110D01*
Y1270D01*
X1080D01*
X1080Y1016D01*
X1110D01*
Y1011D01*
X1352D01*
Y1016D01*
X1569D01*
Y1011D01*
X1811D01*
Y1016D01*
X1842D01*
Y889D01*
X1811D01*
Y894D01*
X1569D01*
Y889D01*
X1352D01*
Y894D01*
X1110D01*
Y889D01*
X1080D01*
Y749D01*
X1460D01*
Y648D01*
Y630D01*
X1443D01*
Y572D01*
X1442Y572D01*
X1443Y571D01*
Y533D01*
X1384D01*
Y648D01*
X1080D01*
X1080Y381D01*
X1110D01*
Y377D01*
X1352D01*
Y381D01*
X1569Y381D01*
Y377D01*
X1811D01*
Y381D01*
X1842D01*
Y254D01*
X1811D01*
Y259D01*
X1569D01*
Y254D01*
X1352D01*
Y259D01*
X1110D01*
Y254D01*
X952D01*
Y1375D01*
X2695Y1375D01*
D02*
G37*
G36*
X2545Y926D02*
X2548Y913D01*
X2555Y902D01*
X2566Y895D01*
X2578Y890D01*
X2593Y879D01*
X2605Y863D01*
X2612Y845D01*
X2615Y826D01*
X2612Y806D01*
X2605Y788D01*
X2593Y772D01*
X2578Y761D01*
X2566Y756D01*
X2555Y749D01*
X2548Y738D01*
X2547Y731D01*
X2502D01*
X2489Y729D01*
X2479Y722D01*
X2441Y683D01*
X2390Y633D01*
X2383Y622D01*
X2380Y610D01*
Y602D01*
X2350Y572D01*
Y127D01*
X2095D01*
Y635D01*
X2223D01*
X2345Y757D01*
X2368D01*
Y780D01*
X2413Y826D01*
Y952D01*
X2545D01*
Y926D01*
D02*
G37*
G36*
X920Y1375D02*
Y254D01*
X922Y242D01*
X929Y231D01*
X940Y224D01*
X952Y221D01*
X1110D01*
Y123D01*
X1352D01*
Y123D01*
X1361Y131D01*
X1560D01*
X1569Y123D01*
Y123D01*
X1811D01*
Y221D01*
X1842D01*
X1854Y224D01*
X1865Y231D01*
X1872Y242D01*
X1874Y254D01*
Y381D01*
X1872Y393D01*
X1865Y404D01*
X1854Y411D01*
X1842Y414D01*
X1811D01*
Y503D01*
Y551D01*
X1690D01*
Y572D01*
X1670D01*
Y639D01*
X1569D01*
Y635D01*
X1559Y630D01*
X1493D01*
Y749D01*
X1492Y753D01*
X1502Y766D01*
X1560D01*
X1569Y757D01*
Y757D01*
X1811D01*
Y856D01*
X1842D01*
X1854Y859D01*
X1865Y866D01*
X1872Y877D01*
X1874Y889D01*
Y1016D01*
X1872Y1028D01*
X1865Y1039D01*
X1854Y1046D01*
X1842Y1049D01*
X1811D01*
Y1139D01*
Y1186D01*
X1690D01*
Y1227D01*
X1811D01*
Y1237D01*
X1943D01*
X2063Y1237D01*
Y762D01*
X2065Y750D01*
X2072Y739D01*
X2083Y732D01*
X2095Y729D01*
X2254D01*
X2259Y718D01*
X2209Y668D01*
X2095D01*
X2083Y665D01*
X2072Y658D01*
X2065Y647D01*
X2063Y635D01*
Y127D01*
X2065Y115D01*
X2072Y104D01*
X2083Y97D01*
X2095Y94D01*
X2350D01*
X2362Y97D01*
X2373Y104D01*
X2380Y115D01*
X2382Y127D01*
Y412D01*
X2395Y418D01*
X2401Y414D01*
X2413Y412D01*
X2695D01*
Y35D01*
X35Y35D01*
Y1375D01*
X920D01*
D02*
G37*
G36*
X2356Y1240D02*
X2368Y1237D01*
X2431D01*
Y1206D01*
X2434Y1194D01*
X2441Y1183D01*
X2451Y1176D01*
X2464Y1174D01*
X2548D01*
X2555Y1163D01*
X2566Y1156D01*
X2578Y1154D01*
X2614D01*
Y1005D01*
X2578D01*
X2566Y1003D01*
X2555Y996D01*
X2548Y985D01*
X2548Y985D01*
X2545Y985D01*
X2413D01*
X2401Y983D01*
X2390Y976D01*
X2383Y965D01*
X2380Y952D01*
Y839D01*
X2345Y804D01*
X2338Y793D01*
X2337Y789D01*
X2333Y788D01*
X2322Y781D01*
X2303Y762D01*
X2095D01*
Y1237D01*
X2126D01*
X2138Y1240D01*
X2142Y1242D01*
X2352D01*
X2356Y1240D01*
D02*
G37*
%LPC*%
G36*
X795Y1274D02*
X553D01*
Y1148D01*
X544Y1139D01*
X345D01*
Y1138D01*
X297D01*
Y1186D01*
X83D01*
Y973D01*
X297D01*
Y1021D01*
X336D01*
X345Y1012D01*
Y973D01*
X399D01*
Y932D01*
X345D01*
Y893D01*
X337Y884D01*
X281D01*
X267Y902D01*
X244Y919D01*
X218Y930D01*
X190Y933D01*
X163Y930D01*
X137Y919D01*
X114Y902D01*
X97Y879D01*
X86Y853D01*
X83Y826D01*
X86Y798D01*
X97Y772D01*
X114Y749D01*
X137Y732D01*
X163Y721D01*
X190Y718D01*
X218Y721D01*
X244Y732D01*
X267Y749D01*
X281Y767D01*
X345D01*
Y766D01*
X544D01*
X553Y757D01*
Y757D01*
X795D01*
Y885D01*
Y932D01*
X674D01*
Y973D01*
X795D01*
Y1011D01*
Y1139D01*
Y1274D01*
D02*
G37*
G36*
X1811Y639D02*
X1710D01*
Y591D01*
X1811D01*
Y639D01*
D02*
G37*
G36*
X190Y679D02*
X163Y676D01*
X137Y665D01*
X114Y648D01*
X97Y625D01*
X86Y599D01*
X83Y572D01*
X86Y544D01*
X97Y518D01*
X114Y495D01*
X137Y478D01*
X163Y467D01*
X190Y464D01*
X218Y467D01*
X244Y478D01*
X267Y495D01*
X281Y513D01*
X337D01*
X345Y504D01*
Y464D01*
X399D01*
Y424D01*
X345D01*
Y385D01*
X336Y376D01*
X280D01*
X267Y394D01*
X244Y411D01*
X218Y422D01*
X190Y425D01*
X163Y422D01*
X137Y411D01*
X114Y394D01*
X97Y371D01*
X86Y345D01*
X83Y317D01*
X86Y290D01*
X97Y264D01*
X114Y241D01*
X137Y224D01*
X163Y213D01*
X190Y210D01*
X218Y213D01*
X244Y224D01*
X267Y241D01*
X280Y259D01*
X345D01*
Y258D01*
X431D01*
Y234D01*
X435Y212D01*
X448Y193D01*
X492Y149D01*
X511Y136D01*
X533Y132D01*
X553D01*
Y123D01*
X795D01*
Y249D01*
Y297D01*
X674D01*
Y338D01*
X795D01*
Y377D01*
Y503D01*
Y639D01*
X553D01*
Y639D01*
X544Y631D01*
X345D01*
Y630D01*
X281D01*
X267Y648D01*
X244Y665D01*
X218Y676D01*
X190Y679D01*
D02*
G37*
%LPD*%
D10*
X1420Y572D02*
D03*
X1501D02*
D03*
X1420Y1206D02*
D03*
X1501D02*
D03*
D11*
X1506Y190D02*
D03*
X1415D02*
D03*
X489Y317D02*
D03*
X399D02*
D03*
X1506Y445D02*
D03*
X1415D02*
D03*
X489Y572D02*
D03*
X399D02*
D03*
X489Y445D02*
D03*
X399D02*
D03*
X1506Y826D02*
D03*
X1415D02*
D03*
X489D02*
D03*
X399D02*
D03*
X1506Y1080D02*
D03*
X1415D02*
D03*
X489D02*
D03*
X399D02*
D03*
X489Y952D02*
D03*
X399D02*
D03*
D12*
X674Y572D02*
D03*
Y445D02*
D03*
Y317D02*
D03*
Y190D02*
D03*
X1231Y572D02*
D03*
Y445D02*
D03*
Y317D02*
D03*
Y190D02*
D03*
X1690Y572D02*
D03*
Y445D02*
D03*
Y317D02*
D03*
Y190D02*
D03*
X2247Y572D02*
D03*
Y445D02*
D03*
Y317D02*
D03*
Y190D02*
D03*
X674Y1206D02*
D03*
Y1080D02*
D03*
Y952D02*
D03*
Y826D02*
D03*
X1231Y1206D02*
D03*
Y1080D02*
D03*
Y952D02*
D03*
Y826D02*
D03*
X1690Y1206D02*
D03*
Y1080D02*
D03*
Y952D02*
D03*
Y826D02*
D03*
X2247Y1206D02*
D03*
Y1080D02*
D03*
Y952D02*
D03*
Y826D02*
D03*
D13*
X1501Y572D02*
X1690D01*
X1501Y1206D02*
X1690D01*
X489Y445D02*
X674D01*
X489D02*
Y572D01*
Y952D02*
Y1080D01*
X190Y826D02*
X399D01*
X190Y572D02*
X399D01*
D14*
X190Y1080D02*
X399D01*
X489D02*
X674D01*
X489Y826D02*
X674D01*
X489Y234D02*
Y317D01*
Y234D02*
X533Y190D01*
X674D01*
X190Y317D02*
X399D01*
X1231Y826D02*
X1415D01*
X1506D02*
X1690D01*
X1231Y445D02*
X1415D01*
X1506D02*
X1690D01*
X1231Y190D02*
X1415D01*
X1506D02*
X1690D01*
X1231Y1080D02*
X1415D01*
X1506D02*
X1690D01*
D15*
X190Y317D02*
D03*
Y572D02*
D03*
Y826D02*
D03*
X2540Y317D02*
D03*
Y572D02*
D03*
Y826D02*
D03*
D16*
X190Y1080D02*
D03*
X2540D02*
D03*
D17*
X381Y1308D02*
D03*
X190D02*
D03*
X2540D02*
D03*
X1397D02*
D03*
X1016Y699D02*
D03*
X2540Y89D02*
D03*
X952D02*
D03*
X190D02*
D03*
X381D02*
D03*
M02*
