G04 Layer_Color=32768*
%FSLAX23Y23*%
%MOIN*%
G70*
G01*
G75*
%ADD38C,0.002*%
%ADD39C,0.004*%
%ADD40C,0.005*%
D38*
X1814Y-685D02*
Y-654D01*
X1876Y-685D02*
Y-654D01*
X1814D02*
X1876D01*
X1814Y-685D02*
X1876D01*
X1833Y-669D02*
X1857D01*
X1845Y-681D02*
Y-658D01*
X1969Y526D02*
X1991D01*
X1980Y515D02*
Y537D01*
X1964Y557D02*
X1996D01*
X1964Y494D02*
X1996D01*
Y557D01*
X1964Y494D02*
Y557D01*
X2011Y460D02*
Y740D01*
X2149Y460D02*
Y740D01*
X2011Y460D02*
X2149D01*
X2011Y740D02*
X2149D01*
X1789Y459D02*
Y743D01*
X1951Y459D02*
Y743D01*
X1789Y459D02*
X1951D01*
X1789Y743D02*
X1951D01*
X1809Y416D02*
Y447D01*
X1871Y416D02*
Y447D01*
X1809D02*
X1871D01*
X1809Y416D02*
X1871D01*
X1828Y431D02*
X1852D01*
X1840Y420D02*
Y443D01*
X1964Y569D02*
X1996D01*
X1964Y632D02*
X1996D01*
X1964Y569D02*
Y632D01*
X1996Y569D02*
Y632D01*
X1980Y589D02*
Y613D01*
X1968Y601D02*
X1992D01*
X1969Y676D02*
X1991D01*
X1980Y665D02*
Y687D01*
X1964Y644D02*
X1996D01*
X1964Y707D02*
X1996D01*
X1964Y644D02*
Y707D01*
X1996Y644D02*
Y707D01*
X-862Y-416D02*
X-838D01*
X-850Y-428D02*
Y-404D01*
X-834Y-447D02*
Y-384D01*
X-866Y-447D02*
Y-384D01*
X-834D01*
X-866Y-447D02*
X-834D01*
X-602Y-1366D02*
Y-1083D01*
X-260Y-1366D02*
Y-1083D01*
X-602D02*
X-260D01*
X-602Y-1366D02*
X-260D01*
X838Y-1266D02*
X862D01*
X850Y-1278D02*
Y-1254D01*
X866Y-1297D02*
Y-1234D01*
X834Y-1297D02*
Y-1234D01*
X866D01*
X834Y-1297D02*
X866D01*
X1138Y-1266D02*
X1162D01*
X1150Y-1278D02*
Y-1254D01*
X1134Y-1297D02*
Y-1234D01*
X1166Y-1297D02*
Y-1234D01*
X1134Y-1297D02*
X1166D01*
X1134Y-1234D02*
X1166D01*
X1938Y-1700D02*
X1962D01*
X1950Y-1712D02*
Y-1688D01*
X1966Y-1731D02*
Y-1669D01*
X1934Y-1731D02*
Y-1669D01*
X1966D01*
X1934Y-1731D02*
X1966D01*
X1283Y-1308D02*
X1304D01*
X1293Y-1319D02*
Y-1297D01*
X1278Y-1276D02*
X1309D01*
X1278Y-1339D02*
X1309D01*
Y-1276D01*
X1278Y-1339D02*
Y-1276D01*
X1239Y-1307D02*
X1261D01*
X1250Y-1318D02*
Y-1296D01*
X1234Y-1339D02*
X1266D01*
X1234Y-1276D02*
X1266D01*
X1234Y-1339D02*
Y-1276D01*
X1266Y-1339D02*
Y-1276D01*
X-1999Y-1169D02*
X-1968D01*
X-1999Y-1231D02*
X-1968D01*
Y-1169D01*
X-1999Y-1231D02*
Y-1169D01*
X-1984Y-1212D02*
Y-1188D01*
X-1996Y-1200D02*
X-1972D01*
X1969Y-1231D02*
X2000D01*
X1969Y-1169D02*
X2000D01*
X1969Y-1231D02*
Y-1169D01*
X2000Y-1231D02*
Y-1169D01*
X1985Y-1212D02*
Y-1188D01*
X1973Y-1200D02*
X1997D01*
X1969Y-531D02*
X2000D01*
X1969Y-469D02*
X2000D01*
X1969Y-531D02*
Y-469D01*
X2000Y-531D02*
Y-469D01*
X1985Y-512D02*
Y-488D01*
X1973Y-500D02*
X1997D01*
X-1814Y-1046D02*
Y-1015D01*
X-1876Y-1046D02*
Y-1015D01*
Y-1046D02*
X-1814D01*
X-1876Y-1015D02*
X-1814D01*
X-1857Y-1031D02*
X-1833D01*
X-1845Y-1042D02*
Y-1019D01*
X-1814Y-346D02*
Y-315D01*
X-1876Y-346D02*
Y-315D01*
Y-346D02*
X-1814D01*
X-1876Y-315D02*
X-1814D01*
X-1857Y-331D02*
X-1833D01*
X-1845Y-342D02*
Y-319D01*
X1814Y-1385D02*
Y-1354D01*
X1876Y-1385D02*
Y-1354D01*
X1814D02*
X1876D01*
X1814Y-1385D02*
X1876D01*
X1833Y-1369D02*
X1857D01*
X1845Y-1381D02*
Y-1358D01*
X-1795Y-1342D02*
Y-1058D01*
X-1956Y-1342D02*
Y-1058D01*
X-1795D01*
X-1956Y-1342D02*
X-1795D01*
X-1796Y-642D02*
Y-358D01*
X-1957Y-642D02*
Y-358D01*
X-1796D01*
X-1957Y-642D02*
X-1796D01*
X1796Y-1342D02*
Y-1058D01*
X1957Y-1342D02*
Y-1058D01*
X1796Y-1342D02*
X1957D01*
X1796Y-1058D02*
X1957D01*
X1796Y-642D02*
Y-358D01*
X1957Y-642D02*
Y-358D01*
X1796Y-642D02*
X1957D01*
X1796Y-358D02*
X1957D01*
X-2011Y-1340D02*
Y-1060D01*
X-2149Y-1340D02*
Y-1060D01*
X-2011D01*
X-2149Y-1340D02*
X-2011D01*
X-2012Y-640D02*
Y-360D01*
X-2150Y-640D02*
Y-360D01*
X-2012D01*
X-2150Y-640D02*
X-2012D01*
X2012Y-1340D02*
Y-1060D01*
X2150Y-1340D02*
Y-1060D01*
X2012Y-1340D02*
X2150D01*
X2012Y-1060D02*
X2150D01*
X2012Y-640D02*
Y-360D01*
X2150Y-640D02*
Y-360D01*
X2012Y-640D02*
X2150D01*
X2012Y-360D02*
X2150D01*
X-1995Y-1125D02*
X-1973D01*
X-1984Y-1136D02*
Y-1114D01*
X-1999Y-1157D02*
X-1968D01*
X-1999Y-1094D02*
X-1968D01*
X-1999Y-1157D02*
Y-1094D01*
X-1968Y-1157D02*
Y-1094D01*
X-1996Y-425D02*
X-1974D01*
X-1985Y-436D02*
Y-414D01*
X-2000Y-457D02*
X-1969D01*
X-2000Y-394D02*
X-1969D01*
X-2000Y-457D02*
Y-394D01*
X-1969Y-457D02*
Y-394D01*
X1974Y-1275D02*
X1996D01*
X1985Y-1286D02*
Y-1264D01*
X1969Y-1244D02*
X2000D01*
X1969Y-1306D02*
X2000D01*
Y-1244D01*
X1969Y-1306D02*
Y-1244D01*
X1974Y-575D02*
X1996D01*
X1985Y-586D02*
Y-564D01*
X1969Y-544D02*
X2000D01*
X1969Y-606D02*
X2000D01*
Y-544D01*
X1969Y-606D02*
Y-544D01*
X1985Y904D02*
Y1396D01*
X2615Y904D02*
Y1396D01*
X1985D02*
X2615D01*
X1985Y904D02*
X2615D01*
X-1996Y-575D02*
X-1974D01*
X-1985Y-586D02*
Y-564D01*
X-2000Y-543D02*
X-1969D01*
X-2000Y-606D02*
X-1969D01*
Y-543D01*
X-2000Y-606D02*
Y-543D01*
Y-469D02*
X-1969D01*
X-2000Y-531D02*
X-1969D01*
Y-469D01*
X-2000Y-531D02*
Y-469D01*
X-1985Y-512D02*
Y-488D01*
X-1997Y-500D02*
X-1973D01*
X-1995Y-1275D02*
X-1973D01*
X-1984Y-1286D02*
Y-1264D01*
X-1999Y-1243D02*
X-1968D01*
X-1999Y-1306D02*
X-1968D01*
Y-1243D01*
X-1999Y-1306D02*
Y-1243D01*
X1974Y-425D02*
X1996D01*
X1985Y-436D02*
Y-414D01*
X1969Y-457D02*
X2000D01*
X1969Y-394D02*
X2000D01*
X1969Y-457D02*
Y-394D01*
X2000Y-457D02*
Y-394D01*
X1974Y-1125D02*
X1996D01*
X1985Y-1136D02*
Y-1114D01*
X1969Y-1156D02*
X2000D01*
X1969Y-1094D02*
X2000D01*
X1969Y-1156D02*
Y-1094D01*
X2000Y-1156D02*
Y-1094D01*
X123Y-1346D02*
X210D01*
X123Y-1153D02*
X210D01*
X123Y-1346D02*
Y-1153D01*
X210Y-1346D02*
Y-1153D01*
X222Y-1346D02*
X308D01*
X222Y-1153D02*
X308D01*
X222Y-1346D02*
Y-1153D01*
X308Y-1346D02*
Y-1153D01*
X331Y-1515D02*
Y-1385D01*
X499Y-1515D02*
Y-1385D01*
X331D02*
X499D01*
X331Y-1515D02*
X499D01*
X132Y-1543D02*
Y-1357D01*
X258Y-1543D02*
Y-1357D01*
X132Y-1543D02*
X258D01*
X132Y-1357D02*
X258D01*
X549Y-1461D02*
Y-1399D01*
X581Y-1461D02*
Y-1399D01*
X549Y-1461D02*
X581D01*
X549Y-1399D02*
X581D01*
X565Y-1441D02*
Y-1419D01*
X554Y-1430D02*
X576D01*
X624Y-1461D02*
Y-1399D01*
X593Y-1461D02*
Y-1399D01*
X624D01*
X593Y-1461D02*
X624D01*
X608Y-1441D02*
Y-1419D01*
X598Y-1430D02*
X619D01*
X460Y-1347D02*
Y-1323D01*
X448Y-1335D02*
X472D01*
X429Y-1319D02*
X491D01*
X429Y-1351D02*
X491D01*
X429D02*
Y-1319D01*
X491Y-1351D02*
Y-1319D01*
X-1985Y-1996D02*
Y-1504D01*
X-2615Y-1996D02*
Y-1504D01*
Y-1996D02*
X-1985D01*
X-2615Y-1504D02*
X-1985D01*
Y-205D02*
Y287D01*
X-2615Y-205D02*
Y287D01*
Y-205D02*
X-1985D01*
X-2615Y287D02*
X-1985D01*
X1985Y-2046D02*
Y-1554D01*
X2615Y-2046D02*
Y-1554D01*
X1985D02*
X2615D01*
X1985Y-2046D02*
X2615D01*
X1985Y-198D02*
Y295D01*
X2615Y-198D02*
Y295D01*
X1985D02*
X2615D01*
X1985Y-198D02*
X2615D01*
D39*
X2060Y600D02*
X2100D01*
X2080Y580D02*
Y620D01*
X1850Y601D02*
X1890D01*
X1870Y581D02*
Y621D01*
X-1912Y-1465D02*
X-1888D01*
X-1900Y-1477D02*
Y-1453D01*
X-1914Y-1500D02*
Y-1430D01*
X-1886Y-1500D02*
Y-1430D01*
X-1914Y-1500D02*
X-1886D01*
X-1914Y-1430D02*
X-1886D01*
X-1847Y-1465D02*
X-1823D01*
X-1835Y-1477D02*
Y-1453D01*
X-1849Y-1500D02*
Y-1430D01*
X-1821Y-1500D02*
Y-1430D01*
X-1849Y-1500D02*
X-1821D01*
X-1849Y-1430D02*
X-1821D01*
X188Y-2450D02*
X212D01*
X200Y-2462D02*
Y-2438D01*
X186Y-2485D02*
Y-2415D01*
X214Y-2485D02*
Y-2415D01*
X186Y-2485D02*
X214D01*
X186Y-2415D02*
X214D01*
X438Y-2450D02*
X462D01*
X450Y-2462D02*
Y-2438D01*
X436Y-2485D02*
Y-2415D01*
X464Y-2485D02*
Y-2415D01*
X436Y-2485D02*
X464D01*
X436Y-2415D02*
X464D01*
X-451Y-1224D02*
X-411D01*
X-431Y-1244D02*
Y-1205D01*
X-1895Y-1200D02*
X-1856D01*
X-1875Y-1220D02*
Y-1180D01*
X-1896Y-500D02*
X-1857D01*
X-1876Y-520D02*
Y-480D01*
X1857Y-1200D02*
X1896D01*
X1876Y-1220D02*
Y-1180D01*
X1857Y-500D02*
X1896D01*
X1876Y-520D02*
Y-480D01*
X-2100Y-1200D02*
X-2061D01*
X-2080Y-1220D02*
Y-1180D01*
X-2101Y-500D02*
X-2062D01*
X-2081Y-520D02*
Y-480D01*
X2062Y-1200D02*
X2101D01*
X2081Y-1220D02*
Y-1180D01*
X2062Y-500D02*
X2101D01*
X2081Y-520D02*
Y-480D01*
X2280Y1150D02*
X2320D01*
X2300Y1130D02*
Y1170D01*
X166Y-1269D02*
Y-1229D01*
X147Y-1249D02*
X186D01*
X265Y-1269D02*
Y-1229D01*
X245Y-1249D02*
X285D01*
X395Y-1450D02*
X435D01*
X415Y-1470D02*
Y-1430D01*
X195Y-1470D02*
Y-1430D01*
X175Y-1450D02*
X215D01*
X-2320Y-1750D02*
X-2280D01*
X-2300Y-1770D02*
Y-1730D01*
X-2320Y41D02*
X-2280D01*
X-2300Y21D02*
Y60D01*
X2280Y-1800D02*
X2320D01*
X2300Y-1820D02*
Y-1780D01*
X2280Y48D02*
X2320D01*
X2300Y29D02*
Y68D01*
X-764Y-1205D02*
X-736D01*
X-764Y-1134D02*
X-736D01*
X-764Y-1205D02*
Y-1134D01*
X-736Y-1205D02*
Y-1134D01*
X-750Y-1181D02*
Y-1158D01*
X-762Y-1170D02*
X-738D01*
X-814Y-1205D02*
X-786D01*
X-814Y-1134D02*
X-786D01*
X-814Y-1205D02*
Y-1134D01*
X-786Y-1205D02*
Y-1134D01*
X-800Y-1181D02*
Y-1158D01*
X-812Y-1170D02*
X-788D01*
D40*
X-1935Y-1855D02*
X-1565D01*
X-1935D02*
Y-1645D01*
X-1565D01*
Y-1855D02*
Y-1645D01*
X-1760Y-1750D02*
X-1740D01*
X-1750Y-1760D02*
Y-1740D01*
M02*
