G04 Layer_Physical_Order=1*
G04 Layer_Color=255*
%FSLAX23Y23*%
%MOIN*%
%TF.FileFunction,Copper,L1,Top,Signal*%
%TF.Part,Single*%
G01*
G75*
%TA.AperFunction,SMDPad,CuDef*%
%ADD10R,0.050X0.030*%
%ADD11R,0.020X0.020*%
%ADD12R,0.022X0.018*%
%ADD13R,0.128X0.041*%
%ADD14O,0.012X0.079*%
%ADD15R,0.020X0.020*%
%ADD16R,0.020X0.024*%
%ADD17R,0.116X0.066*%
%ADD18R,0.094X0.039*%
%ADD19R,0.094X0.130*%
%ADD20R,0.185X0.091*%
%ADD21R,0.087X0.067*%
%ADD22R,0.075X0.053*%
%ADD23R,0.045X0.024*%
%ADD24R,0.106X0.045*%
%TA.AperFunction,Conductor*%
%ADD25C,0.012*%
%ADD26C,0.013*%
%TA.AperFunction,ComponentPad*%
%ADD27C,0.083*%
%ADD28C,0.059*%
%ADD29R,0.059X0.059*%
%TA.AperFunction,ViaPad*%
%ADD30C,0.318*%
%ADD31C,0.118*%
%TA.AperFunction,ComponentPad*%
%ADD32C,0.047*%
%ADD33R,0.047X0.047*%
%ADD34C,0.236*%
%ADD35R,0.059X0.059*%
%TA.AperFunction,ViaPad*%
%ADD36C,0.031*%
%ADD37C,0.024*%
G36*
X1305Y3037D02*
X1411Y2990D01*
X1515Y2938D01*
X1617Y2883D01*
X1718Y2824D01*
X1816Y2762D01*
X1912Y2697D01*
X2006Y2628D01*
X2097Y2556D01*
X2185Y2480D01*
X2271Y2402D01*
X2354Y2320D01*
X2434Y2236D01*
X2512Y2149D01*
X2586Y2060D01*
X2656Y1967D01*
X2724Y1873D01*
X2788Y1776D01*
X2849Y1677D01*
X2906Y1575D01*
X2960Y1472D01*
X3010Y1367D01*
X3056Y1261D01*
X3098Y1152D01*
X3137Y1043D01*
X3172Y932D01*
X3202Y820D01*
X3229Y707D01*
X3252Y593D01*
X3271Y478D01*
X3286Y363D01*
X3296Y247D01*
X3303Y131D01*
X3306Y14D01*
X3304Y-102D01*
X3299Y-218D01*
X3289Y-334D01*
X3275Y-449D01*
X3257Y-564D01*
X3235Y-678D01*
X3210Y-792D01*
X3180Y-904D01*
X3146Y-1015D01*
X3108Y-1125D01*
X3067Y-1234D01*
X3022Y-1341D01*
X2973Y-1446D01*
X2920Y-1550D01*
X2864Y-1652D01*
X2804Y-1751D01*
X2740Y-1849D01*
X2674Y-1944D01*
X2604Y-2037D01*
X2530Y-2127D01*
X2454Y-2215D01*
X2375Y-2300D01*
X2292Y-2382D01*
X2207Y-2461D01*
X2119Y-2537D01*
X2029Y-2610D01*
X1936Y-2680D01*
X1840Y-2746D01*
X1747Y-2806D01*
X-1747D01*
X-1840Y-2746D01*
X-1935Y-2680D01*
X-2027Y-2611D01*
X-2118Y-2538D01*
X-2205Y-2463D01*
X-2290Y-2384D01*
X-2372Y-2302D01*
X-2451Y-2218D01*
X-2527Y-2131D01*
X-2601Y-2041D01*
X-2670Y-1948D01*
X-2737Y-1854D01*
X-2800Y-1757D01*
X-2860Y-1658D01*
X-2916Y-1557D01*
X-2969Y-1454D01*
X-3018Y-1349D01*
X-3063Y-1242D01*
X-3105Y-1134D01*
X-3143Y-1025D01*
X-3177Y-914D01*
X-3207Y-802D01*
X-3233Y-689D01*
X-3255Y-576D01*
X-3273Y-462D01*
X-3287Y-347D01*
X-3298Y-231D01*
X-3304Y-116D01*
X-3306Y-0D01*
X-3304Y117D01*
X-3297Y233D01*
X-3287Y349D01*
X-3273Y465D01*
X-3254Y580D01*
X-3232Y695D01*
X-3205Y809D01*
X-3175Y921D01*
X-3140Y1033D01*
X-3102Y1143D01*
X-3060Y1252D01*
X-3014Y1359D01*
X-2964Y1464D01*
X-2910Y1568D01*
X-2853Y1670D01*
X-2792Y1769D01*
X-2728Y1867D01*
X-2661Y1962D01*
X-2590Y2055D01*
X-2516Y2145D01*
X-2438Y2232D01*
X-2358Y2317D01*
X-2275Y2399D01*
X-2189Y2477D01*
X-2100Y2553D01*
X-2008Y2626D01*
X-1915Y2695D01*
X-1818Y2761D01*
X-1720Y2823D01*
X-1619Y2882D01*
X-1516Y2937D01*
X-1412Y2989D01*
X-1305Y3037D01*
X-1201Y3080D01*
X1201D01*
X1305Y3037D01*
D02*
G37*
%LPC*%
G36*
X-2600Y-406D02*
X-2611Y-408D01*
X-2622Y-412D01*
X-2631Y-419D01*
X-2638Y-428D01*
X-2642Y-439D01*
X-2644Y-450D01*
X-2642Y-461D01*
X-2638Y-472D01*
X-2631Y-481D01*
X-2622Y-488D01*
X-2611Y-492D01*
X-2600Y-494D01*
X-2589Y-492D01*
X-2578Y-488D01*
X-2569Y-481D01*
X-2562Y-472D01*
X-2558Y-461D01*
X-2556Y-450D01*
X-2558Y-439D01*
X-2562Y-428D01*
X-2569Y-419D01*
X-2578Y-412D01*
X-2589Y-408D01*
X-2600Y-406D01*
D02*
G37*
G36*
X2600Y-506D02*
X2589Y-508D01*
X2578Y-512D01*
X2569Y-519D01*
X2562Y-528D01*
X2558Y-539D01*
X2556Y-550D01*
X2558Y-561D01*
X2562Y-572D01*
X2569Y-581D01*
X2578Y-588D01*
X2589Y-592D01*
X2600Y-594D01*
X2611Y-592D01*
X2622Y-588D01*
X2631Y-581D01*
X2638Y-572D01*
X2642Y-561D01*
X2644Y-550D01*
X2642Y-539D01*
X2638Y-528D01*
X2631Y-519D01*
X2622Y-512D01*
X2611Y-508D01*
X2600Y-506D01*
D02*
G37*
G36*
X1050Y-406D02*
X1039Y-408D01*
X1028Y-412D01*
X1019Y-419D01*
X1012Y-428D01*
X1008Y-439D01*
X1006Y-450D01*
X1008Y-461D01*
X1012Y-472D01*
X1019Y-481D01*
X1028Y-488D01*
X1039Y-492D01*
X1050Y-494D01*
X1061Y-492D01*
X1072Y-488D01*
X1081Y-481D01*
X1088Y-472D01*
X1092Y-461D01*
X1094Y-450D01*
X1092Y-439D01*
X1088Y-428D01*
X1081Y-419D01*
X1072Y-412D01*
X1061Y-408D01*
X1050Y-406D01*
D02*
G37*
G36*
X950D02*
X939Y-408D01*
X928Y-412D01*
X919Y-419D01*
X912Y-428D01*
X908Y-439D01*
X906Y-450D01*
X908Y-461D01*
X912Y-472D01*
X919Y-481D01*
X928Y-488D01*
X939Y-492D01*
X950Y-494D01*
X961Y-492D01*
X972Y-488D01*
X981Y-481D01*
X988Y-472D01*
X992Y-461D01*
X994Y-450D01*
X992Y-439D01*
X988Y-428D01*
X981Y-419D01*
X972Y-412D01*
X961Y-408D01*
X950Y-406D01*
D02*
G37*
G36*
X2600Y-606D02*
X2589Y-608D01*
X2578Y-612D01*
X2569Y-619D01*
X2562Y-628D01*
X2558Y-639D01*
X2556Y-650D01*
X2558Y-661D01*
X2562Y-672D01*
X2569Y-681D01*
X2578Y-688D01*
X2589Y-692D01*
X2600Y-694D01*
X2611Y-692D01*
X2622Y-688D01*
X2631Y-681D01*
X2638Y-672D01*
X2642Y-661D01*
X2644Y-650D01*
X2642Y-639D01*
X2638Y-628D01*
X2631Y-619D01*
X2622Y-612D01*
X2611Y-608D01*
X2600Y-606D01*
D02*
G37*
G36*
Y-706D02*
X2589Y-708D01*
X2578Y-712D01*
X2569Y-719D01*
X2562Y-728D01*
X2558Y-739D01*
X2556Y-750D01*
X2558Y-761D01*
X2562Y-772D01*
X2569Y-781D01*
X2578Y-788D01*
X2589Y-792D01*
X2600Y-794D01*
X2611Y-792D01*
X2622Y-788D01*
X2631Y-781D01*
X2638Y-772D01*
X2642Y-761D01*
X2644Y-750D01*
X2642Y-739D01*
X2638Y-728D01*
X2631Y-719D01*
X2622Y-712D01*
X2611Y-708D01*
X2600Y-706D01*
D02*
G37*
G36*
X1050Y-506D02*
X1039Y-508D01*
X1028Y-512D01*
X1019Y-519D01*
X1012Y-528D01*
X1008Y-539D01*
X1006Y-550D01*
X1008Y-561D01*
X1012Y-572D01*
X1019Y-581D01*
X1028Y-588D01*
X1039Y-592D01*
X1050Y-594D01*
X1061Y-592D01*
X1072Y-588D01*
X1081Y-581D01*
X1088Y-572D01*
X1092Y-561D01*
X1094Y-550D01*
X1092Y-539D01*
X1088Y-528D01*
X1081Y-519D01*
X1072Y-512D01*
X1061Y-508D01*
X1050Y-506D01*
D02*
G37*
G36*
X950D02*
X939Y-508D01*
X928Y-512D01*
X919Y-519D01*
X912Y-528D01*
X908Y-539D01*
X906Y-550D01*
X908Y-561D01*
X912Y-572D01*
X919Y-581D01*
X928Y-588D01*
X939Y-592D01*
X950Y-594D01*
X961Y-592D01*
X972Y-588D01*
X981Y-581D01*
X988Y-572D01*
X992Y-561D01*
X994Y-550D01*
X992Y-539D01*
X988Y-528D01*
X981Y-519D01*
X972Y-512D01*
X961Y-508D01*
X950Y-506D01*
D02*
G37*
G36*
Y-106D02*
X939Y-108D01*
X928Y-112D01*
X919Y-119D01*
X912Y-128D01*
X908Y-139D01*
X906Y-150D01*
X908Y-161D01*
X912Y-172D01*
X919Y-181D01*
X928Y-188D01*
X939Y-192D01*
X950Y-194D01*
X961Y-192D01*
X972Y-188D01*
X981Y-181D01*
X988Y-172D01*
X992Y-161D01*
X994Y-150D01*
X992Y-139D01*
X988Y-128D01*
X981Y-119D01*
X972Y-112D01*
X961Y-108D01*
X950Y-106D01*
D02*
G37*
G36*
X-1050D02*
X-1061Y-108D01*
X-1072Y-112D01*
X-1081Y-119D01*
X-1088Y-128D01*
X-1092Y-139D01*
X-1094Y-150D01*
X-1092Y-161D01*
X-1088Y-172D01*
X-1081Y-181D01*
X-1072Y-188D01*
X-1061Y-192D01*
X-1050Y-194D01*
X-1039Y-192D01*
X-1028Y-188D01*
X-1019Y-181D01*
X-1012Y-172D01*
X-1008Y-161D01*
X-1006Y-150D01*
X-1008Y-139D01*
X-1012Y-128D01*
X-1019Y-119D01*
X-1028Y-112D01*
X-1039Y-108D01*
X-1050Y-106D01*
D02*
G37*
G36*
X-3087Y179D02*
X-3110Y178D01*
X-3133Y173D01*
X-3156Y166D01*
X-3177Y155D01*
X-3196Y142D01*
X-3214Y127D01*
X-3229Y109D01*
X-3242Y90D01*
X-3252Y69D01*
X-3260Y46D01*
X-3265Y23D01*
X-3266Y-0D01*
X-3265Y-23D01*
X-3260Y-46D01*
X-3252Y-69D01*
X-3242Y-90D01*
X-3229Y-109D01*
X-3214Y-127D01*
X-3196Y-142D01*
X-3177Y-155D01*
X-3156Y-166D01*
X-3133Y-173D01*
X-3110Y-178D01*
X-3087Y-179D01*
X-3064Y-178D01*
X-3041Y-173D01*
X-3018Y-166D01*
X-2997Y-155D01*
X-2978Y-142D01*
X-2960Y-127D01*
X-2945Y-109D01*
X-2932Y-90D01*
X-2921Y-69D01*
X-2914Y-46D01*
X-2909Y-23D01*
X-2908Y-0D01*
X-2909Y23D01*
X-2914Y46D01*
X-2921Y69D01*
X-2932Y90D01*
X-2945Y109D01*
X-2960Y127D01*
X-2978Y142D01*
X-2997Y155D01*
X-3018Y166D01*
X-3041Y173D01*
X-3064Y178D01*
X-3087Y179D01*
D02*
G37*
G36*
X1050Y-106D02*
X1039Y-108D01*
X1028Y-112D01*
X1019Y-119D01*
X1012Y-128D01*
X1008Y-139D01*
X1006Y-150D01*
X1008Y-161D01*
X1012Y-172D01*
X1019Y-181D01*
X1028Y-188D01*
X1039Y-192D01*
X1050Y-194D01*
X1061Y-192D01*
X1072Y-188D01*
X1081Y-181D01*
X1088Y-172D01*
X1092Y-161D01*
X1094Y-150D01*
X1092Y-139D01*
X1088Y-128D01*
X1081Y-119D01*
X1072Y-112D01*
X1061Y-108D01*
X1050Y-106D01*
D02*
G37*
G36*
X-2600Y-206D02*
X-2611Y-208D01*
X-2622Y-212D01*
X-2631Y-219D01*
X-2638Y-228D01*
X-2642Y-239D01*
X-2644Y-250D01*
X-2642Y-261D01*
X-2638Y-272D01*
X-2631Y-281D01*
X-2622Y-288D01*
X-2611Y-292D01*
X-2600Y-294D01*
X-2589Y-292D01*
X-2578Y-288D01*
X-2569Y-281D01*
X-2562Y-272D01*
X-2558Y-261D01*
X-2556Y-250D01*
X-2558Y-239D01*
X-2562Y-228D01*
X-2569Y-219D01*
X-2578Y-212D01*
X-2589Y-208D01*
X-2600Y-206D01*
D02*
G37*
G36*
Y-306D02*
X-2611Y-308D01*
X-2622Y-312D01*
X-2631Y-319D01*
X-2638Y-328D01*
X-2642Y-339D01*
X-2644Y-350D01*
X-2642Y-361D01*
X-2638Y-372D01*
X-2631Y-381D01*
X-2622Y-388D01*
X-2611Y-392D01*
X-2600Y-394D01*
X-2589Y-392D01*
X-2578Y-388D01*
X-2569Y-381D01*
X-2562Y-372D01*
X-2558Y-361D01*
X-2556Y-350D01*
X-2558Y-339D01*
X-2562Y-328D01*
X-2569Y-319D01*
X-2578Y-312D01*
X-2589Y-308D01*
X-2600Y-306D01*
D02*
G37*
G36*
X-950Y-206D02*
X-961Y-208D01*
X-972Y-212D01*
X-981Y-219D01*
X-988Y-228D01*
X-992Y-239D01*
X-994Y-250D01*
X-992Y-261D01*
X-988Y-272D01*
X-981Y-281D01*
X-972Y-288D01*
X-961Y-292D01*
X-950Y-294D01*
X-939Y-292D01*
X-928Y-288D01*
X-919Y-281D01*
X-912Y-272D01*
X-908Y-261D01*
X-906Y-250D01*
X-908Y-239D01*
X-912Y-228D01*
X-919Y-219D01*
X-928Y-212D01*
X-939Y-208D01*
X-950Y-206D01*
D02*
G37*
G36*
X-1050D02*
X-1061Y-208D01*
X-1072Y-212D01*
X-1081Y-219D01*
X-1088Y-228D01*
X-1092Y-239D01*
X-1094Y-250D01*
X-1092Y-261D01*
X-1088Y-272D01*
X-1081Y-281D01*
X-1072Y-288D01*
X-1061Y-292D01*
X-1050Y-294D01*
X-1039Y-292D01*
X-1028Y-288D01*
X-1019Y-281D01*
X-1012Y-272D01*
X-1008Y-261D01*
X-1006Y-250D01*
X-1008Y-239D01*
X-1012Y-228D01*
X-1019Y-219D01*
X-1028Y-212D01*
X-1039Y-208D01*
X-1050Y-206D01*
D02*
G37*
G36*
X-950Y-906D02*
X-961Y-908D01*
X-972Y-912D01*
X-981Y-919D01*
X-988Y-928D01*
X-992Y-939D01*
X-994Y-950D01*
X-992Y-961D01*
X-988Y-972D01*
X-981Y-981D01*
X-972Y-988D01*
X-961Y-992D01*
X-950Y-994D01*
X-939Y-992D01*
X-928Y-988D01*
X-919Y-981D01*
X-912Y-972D01*
X-908Y-961D01*
X-906Y-950D01*
X-908Y-939D01*
X-912Y-928D01*
X-919Y-919D01*
X-928Y-912D01*
X-939Y-908D01*
X-950Y-906D01*
D02*
G37*
G36*
X2600Y-1406D02*
X2589Y-1408D01*
X2578Y-1412D01*
X2569Y-1419D01*
X2562Y-1428D01*
X2558Y-1439D01*
X2556Y-1450D01*
X2558Y-1461D01*
X2562Y-1472D01*
X2569Y-1481D01*
X2578Y-1488D01*
X2589Y-1492D01*
X2600Y-1494D01*
X2611Y-1492D01*
X2622Y-1488D01*
X2631Y-1481D01*
X2638Y-1472D01*
X2642Y-1461D01*
X2644Y-1450D01*
X2642Y-1439D01*
X2638Y-1428D01*
X2631Y-1419D01*
X2622Y-1412D01*
X2611Y-1408D01*
X2600Y-1406D01*
D02*
G37*
G36*
X-650Y-2085D02*
X-1650D01*
X-1658Y-2086D01*
X-1664Y-2091D01*
X-1669Y-2097D01*
X-1670Y-2105D01*
Y-2500D01*
X-1669Y-2508D01*
X-1664Y-2514D01*
X-1658Y-2519D01*
X-1650Y-2520D01*
X-1350D01*
X-1342Y-2519D01*
X-1336Y-2514D01*
X-1142Y-2320D01*
X-650Y-2320D01*
X-642Y-2319D01*
X-636Y-2314D01*
X-631Y-2308D01*
X-630Y-2300D01*
Y-2105D01*
X-631Y-2097D01*
X-636Y-2091D01*
X-642Y-2086D01*
X-650Y-2085D01*
D02*
G37*
G36*
X-1050Y-1206D02*
X-1061Y-1208D01*
X-1072Y-1212D01*
X-1081Y-1219D01*
X-1088Y-1228D01*
X-1092Y-1239D01*
X-1094Y-1250D01*
X-1092Y-1261D01*
X-1088Y-1272D01*
X-1081Y-1281D01*
X-1072Y-1288D01*
X-1061Y-1292D01*
X-1050Y-1294D01*
X-1039Y-1292D01*
X-1028Y-1288D01*
X-1019Y-1281D01*
X-1012Y-1272D01*
X-1008Y-1261D01*
X-1006Y-1250D01*
X-1008Y-1239D01*
X-1012Y-1228D01*
X-1019Y-1219D01*
X-1028Y-1212D01*
X-1039Y-1208D01*
X-1050Y-1206D01*
D02*
G37*
G36*
X2600Y-1306D02*
X2589Y-1308D01*
X2578Y-1312D01*
X2569Y-1319D01*
X2562Y-1328D01*
X2558Y-1339D01*
X2556Y-1350D01*
X2558Y-1361D01*
X2562Y-1372D01*
X2569Y-1381D01*
X2578Y-1388D01*
X2589Y-1392D01*
X2600Y-1394D01*
X2611Y-1392D01*
X2622Y-1388D01*
X2631Y-1381D01*
X2638Y-1372D01*
X2642Y-1361D01*
X2644Y-1350D01*
X2642Y-1339D01*
X2638Y-1328D01*
X2631Y-1319D01*
X2622Y-1312D01*
X2611Y-1308D01*
X2600Y-1306D01*
D02*
G37*
G36*
X800Y-2550D02*
X787Y-2552D01*
X775Y-2557D01*
X765Y-2565D01*
X757Y-2575D01*
X752Y-2587D01*
X750Y-2600D01*
X752Y-2613D01*
X757Y-2625D01*
X765Y-2635D01*
X775Y-2643D01*
X787Y-2648D01*
X800Y-2650D01*
X813Y-2648D01*
X825Y-2643D01*
X835Y-2635D01*
X843Y-2625D01*
X848Y-2613D01*
X850Y-2600D01*
X848Y-2587D01*
X843Y-2575D01*
X835Y-2565D01*
X825Y-2557D01*
X813Y-2552D01*
X800Y-2550D01*
D02*
G37*
G36*
X1050Y-2555D02*
X1037Y-2557D01*
X1025Y-2562D01*
X1015Y-2570D01*
X1007Y-2580D01*
X1002Y-2592D01*
X1000Y-2605D01*
X1002Y-2618D01*
X1007Y-2630D01*
X1015Y-2640D01*
X1025Y-2648D01*
X1037Y-2653D01*
X1050Y-2655D01*
X1063Y-2653D01*
X1075Y-2648D01*
X1085Y-2640D01*
X1093Y-2630D01*
X1098Y-2618D01*
X1100Y-2605D01*
X1098Y-2592D01*
X1093Y-2580D01*
X1085Y-2570D01*
X1075Y-2562D01*
X1063Y-2557D01*
X1050Y-2555D01*
D02*
G37*
G36*
X1937Y-2267D02*
X1922Y-2269D01*
X1907Y-2273D01*
X1893Y-2281D01*
X1881Y-2290D01*
X1871Y-2302D01*
X1864Y-2316D01*
X1859Y-2331D01*
X1858Y-2346D01*
X1859Y-2362D01*
X1864Y-2377D01*
X1871Y-2390D01*
X1881Y-2402D01*
X1893Y-2412D01*
X1907Y-2419D01*
X1922Y-2424D01*
X1937Y-2426D01*
X1953Y-2424D01*
X1967Y-2419D01*
X1981Y-2412D01*
X1993Y-2402D01*
X2003Y-2390D01*
X2010Y-2377D01*
X2015Y-2362D01*
X2016Y-2346D01*
X2015Y-2331D01*
X2010Y-2316D01*
X2003Y-2302D01*
X1993Y-2290D01*
X1981Y-2281D01*
X1967Y-2273D01*
X1953Y-2269D01*
X1937Y-2267D01*
D02*
G37*
G36*
X-1937D02*
X-1953Y-2269D01*
X-1967Y-2273D01*
X-1981Y-2281D01*
X-1993Y-2290D01*
X-2003Y-2302D01*
X-2010Y-2316D01*
X-2015Y-2331D01*
X-2016Y-2346D01*
X-2015Y-2362D01*
X-2010Y-2377D01*
X-2003Y-2390D01*
X-1993Y-2402D01*
X-1981Y-2412D01*
X-1967Y-2419D01*
X-1953Y-2424D01*
X-1937Y-2426D01*
X-1922Y-2424D01*
X-1907Y-2419D01*
X-1893Y-2412D01*
X-1881Y-2402D01*
X-1871Y-2390D01*
X-1864Y-2377D01*
X-1859Y-2362D01*
X-1858Y-2346D01*
X-1859Y-2331D01*
X-1864Y-2316D01*
X-1871Y-2302D01*
X-1881Y-2290D01*
X-1893Y-2281D01*
X-1907Y-2273D01*
X-1922Y-2269D01*
X-1937Y-2267D01*
D02*
G37*
G36*
X-950Y-1006D02*
X-961Y-1008D01*
X-972Y-1012D01*
X-981Y-1019D01*
X-988Y-1028D01*
X-992Y-1039D01*
X-994Y-1050D01*
X-992Y-1061D01*
X-988Y-1072D01*
X-981Y-1081D01*
X-972Y-1088D01*
X-961Y-1092D01*
X-950Y-1094D01*
X-939Y-1092D01*
X-928Y-1088D01*
X-919Y-1081D01*
X-912Y-1072D01*
X-908Y-1061D01*
X-906Y-1050D01*
X-908Y-1039D01*
X-912Y-1028D01*
X-919Y-1019D01*
X-928Y-1012D01*
X-939Y-1008D01*
X-950Y-1006D01*
D02*
G37*
G36*
X-1050D02*
X-1061Y-1008D01*
X-1072Y-1012D01*
X-1081Y-1019D01*
X-1088Y-1028D01*
X-1092Y-1039D01*
X-1094Y-1050D01*
X-1092Y-1061D01*
X-1088Y-1072D01*
X-1081Y-1081D01*
X-1072Y-1088D01*
X-1061Y-1092D01*
X-1050Y-1094D01*
X-1039Y-1092D01*
X-1028Y-1088D01*
X-1019Y-1081D01*
X-1012Y-1072D01*
X-1008Y-1061D01*
X-1006Y-1050D01*
X-1008Y-1039D01*
X-1012Y-1028D01*
X-1019Y-1019D01*
X-1028Y-1012D01*
X-1039Y-1008D01*
X-1050Y-1006D01*
D02*
G37*
G36*
Y-906D02*
X-1061Y-908D01*
X-1072Y-912D01*
X-1081Y-919D01*
X-1088Y-928D01*
X-1092Y-939D01*
X-1094Y-950D01*
X-1092Y-961D01*
X-1088Y-972D01*
X-1081Y-981D01*
X-1072Y-988D01*
X-1061Y-992D01*
X-1050Y-994D01*
X-1039Y-992D01*
X-1028Y-988D01*
X-1019Y-981D01*
X-1012Y-972D01*
X-1008Y-961D01*
X-1006Y-950D01*
X-1008Y-939D01*
X-1012Y-928D01*
X-1019Y-919D01*
X-1028Y-912D01*
X-1039Y-908D01*
X-1050Y-906D01*
D02*
G37*
G36*
X-2600D02*
X-2611Y-908D01*
X-2622Y-912D01*
X-2631Y-919D01*
X-2638Y-928D01*
X-2642Y-939D01*
X-2644Y-950D01*
X-2642Y-961D01*
X-2638Y-972D01*
X-2631Y-981D01*
X-2622Y-988D01*
X-2611Y-992D01*
X-2600Y-994D01*
X-2589Y-992D01*
X-2578Y-988D01*
X-2569Y-981D01*
X-2562Y-972D01*
X-2558Y-961D01*
X-2556Y-950D01*
X-2558Y-939D01*
X-2562Y-928D01*
X-2569Y-919D01*
X-2578Y-912D01*
X-2589Y-908D01*
X-2600Y-906D01*
D02*
G37*
G36*
X2600Y-1206D02*
X2589Y-1208D01*
X2578Y-1212D01*
X2569Y-1219D01*
X2562Y-1228D01*
X2558Y-1239D01*
X2556Y-1250D01*
X2558Y-1261D01*
X2562Y-1272D01*
X2569Y-1281D01*
X2578Y-1288D01*
X2589Y-1292D01*
X2600Y-1294D01*
X2611Y-1292D01*
X2622Y-1288D01*
X2631Y-1281D01*
X2638Y-1272D01*
X2642Y-1261D01*
X2644Y-1250D01*
X2642Y-1239D01*
X2638Y-1228D01*
X2631Y-1219D01*
X2622Y-1212D01*
X2611Y-1208D01*
X2600Y-1206D01*
D02*
G37*
G36*
X-950D02*
X-961Y-1208D01*
X-972Y-1212D01*
X-981Y-1219D01*
X-988Y-1228D01*
X-992Y-1239D01*
X-994Y-1250D01*
X-992Y-1261D01*
X-988Y-1272D01*
X-981Y-1281D01*
X-972Y-1288D01*
X-961Y-1292D01*
X-950Y-1294D01*
X-939Y-1292D01*
X-928Y-1288D01*
X-919Y-1281D01*
X-912Y-1272D01*
X-908Y-1261D01*
X-906Y-1250D01*
X-908Y-1239D01*
X-912Y-1228D01*
X-919Y-1219D01*
X-928Y-1212D01*
X-939Y-1208D01*
X-950Y-1206D01*
D02*
G37*
G36*
X-2600Y-1006D02*
X-2611Y-1008D01*
X-2622Y-1012D01*
X-2631Y-1019D01*
X-2638Y-1028D01*
X-2642Y-1039D01*
X-2644Y-1050D01*
X-2642Y-1061D01*
X-2638Y-1072D01*
X-2631Y-1081D01*
X-2622Y-1088D01*
X-2611Y-1092D01*
X-2600Y-1094D01*
X-2589Y-1092D01*
X-2578Y-1088D01*
X-2569Y-1081D01*
X-2562Y-1072D01*
X-2558Y-1061D01*
X-2556Y-1050D01*
X-2558Y-1039D01*
X-2562Y-1028D01*
X-2569Y-1019D01*
X-2578Y-1012D01*
X-2589Y-1008D01*
X-2600Y-1006D01*
D02*
G37*
G36*
Y-1106D02*
X-2611Y-1108D01*
X-2622Y-1112D01*
X-2631Y-1119D01*
X-2638Y-1128D01*
X-2642Y-1139D01*
X-2644Y-1150D01*
X-2642Y-1161D01*
X-2638Y-1172D01*
X-2631Y-1181D01*
X-2622Y-1188D01*
X-2611Y-1192D01*
X-2600Y-1194D01*
X-2589Y-1192D01*
X-2578Y-1188D01*
X-2569Y-1181D01*
X-2562Y-1172D01*
X-2558Y-1161D01*
X-2556Y-1150D01*
X-2558Y-1139D01*
X-2562Y-1128D01*
X-2569Y-1119D01*
X-2578Y-1112D01*
X-2589Y-1108D01*
X-2600Y-1106D01*
D02*
G37*
G36*
X1050Y694D02*
X1039Y692D01*
X1028Y688D01*
X1019Y681D01*
X1012Y672D01*
X1008Y661D01*
X1006Y650D01*
X1008Y639D01*
X1012Y628D01*
X1019Y619D01*
X1028Y612D01*
X1039Y608D01*
X1050Y606D01*
X1061Y608D01*
X1072Y612D01*
X1081Y619D01*
X1088Y628D01*
X1092Y639D01*
X1094Y650D01*
X1092Y661D01*
X1088Y672D01*
X1081Y681D01*
X1072Y688D01*
X1061Y692D01*
X1050Y694D01*
D02*
G37*
G36*
X1509Y799D02*
X1411D01*
Y701D01*
X1441D01*
X1442Y696D01*
X1435Y693D01*
X1425Y685D01*
X1417Y675D01*
X1412Y663D01*
X1410Y650D01*
X1412Y637D01*
X1417Y625D01*
X1425Y615D01*
X1435Y607D01*
X1447Y602D01*
X1460Y600D01*
X1473Y602D01*
X1485Y607D01*
X1495Y615D01*
X1503Y625D01*
X1508Y637D01*
X1510Y650D01*
X1508Y663D01*
X1503Y675D01*
X1495Y685D01*
X1485Y693D01*
X1478Y696D01*
X1479Y701D01*
X1509D01*
Y799D01*
D02*
G37*
G36*
X1050Y794D02*
X1039Y792D01*
X1028Y788D01*
X1019Y781D01*
X1012Y772D01*
X1008Y761D01*
X1006Y750D01*
X1008Y739D01*
X1012Y728D01*
X1019Y719D01*
X1028Y712D01*
X1039Y708D01*
X1050Y706D01*
X1061Y708D01*
X1072Y712D01*
X1081Y719D01*
X1088Y728D01*
X1092Y739D01*
X1094Y750D01*
X1092Y761D01*
X1088Y772D01*
X1081Y781D01*
X1072Y788D01*
X1061Y792D01*
X1050Y794D01*
D02*
G37*
G36*
X950D02*
X939Y792D01*
X928Y788D01*
X919Y781D01*
X912Y772D01*
X908Y761D01*
X906Y750D01*
X908Y739D01*
X912Y728D01*
X919Y719D01*
X928Y712D01*
X939Y708D01*
X950Y706D01*
X961Y708D01*
X972Y712D01*
X981Y719D01*
X988Y728D01*
X992Y739D01*
X994Y750D01*
X992Y761D01*
X988Y772D01*
X981Y781D01*
X972Y788D01*
X961Y792D01*
X950Y794D01*
D02*
G37*
G36*
X-950Y494D02*
X-961Y492D01*
X-972Y488D01*
X-981Y481D01*
X-988Y472D01*
X-992Y461D01*
X-994Y450D01*
X-992Y439D01*
X-988Y428D01*
X-981Y419D01*
X-972Y412D01*
X-961Y408D01*
X-950Y406D01*
X-939Y408D01*
X-928Y412D01*
X-919Y419D01*
X-912Y428D01*
X-908Y439D01*
X-906Y450D01*
X-908Y461D01*
X-912Y472D01*
X-919Y481D01*
X-928Y488D01*
X-939Y492D01*
X-950Y494D01*
D02*
G37*
G36*
X-1050D02*
X-1061Y492D01*
X-1072Y488D01*
X-1081Y481D01*
X-1088Y472D01*
X-1092Y461D01*
X-1094Y450D01*
X-1092Y439D01*
X-1088Y428D01*
X-1081Y419D01*
X-1072Y412D01*
X-1061Y408D01*
X-1050Y406D01*
X-1039Y408D01*
X-1028Y412D01*
X-1019Y419D01*
X-1012Y428D01*
X-1008Y439D01*
X-1006Y450D01*
X-1008Y461D01*
X-1012Y472D01*
X-1019Y481D01*
X-1028Y488D01*
X-1039Y492D01*
X-1050Y494D01*
D02*
G37*
G36*
X-950Y594D02*
X-961Y592D01*
X-972Y588D01*
X-981Y581D01*
X-988Y572D01*
X-992Y561D01*
X-994Y550D01*
X-992Y539D01*
X-988Y528D01*
X-981Y519D01*
X-972Y512D01*
X-961Y508D01*
X-950Y506D01*
X-939Y508D01*
X-928Y512D01*
X-919Y519D01*
X-912Y528D01*
X-908Y539D01*
X-906Y550D01*
X-908Y561D01*
X-912Y572D01*
X-919Y581D01*
X-928Y588D01*
X-939Y592D01*
X-950Y594D01*
D02*
G37*
G36*
X-1050D02*
X-1061Y592D01*
X-1072Y588D01*
X-1081Y581D01*
X-1088Y572D01*
X-1092Y561D01*
X-1094Y550D01*
X-1092Y539D01*
X-1088Y528D01*
X-1081Y519D01*
X-1072Y512D01*
X-1061Y508D01*
X-1050Y506D01*
X-1039Y508D01*
X-1028Y512D01*
X-1019Y519D01*
X-1012Y528D01*
X-1008Y539D01*
X-1006Y550D01*
X-1008Y561D01*
X-1012Y572D01*
X-1019Y581D01*
X-1028Y588D01*
X-1039Y592D01*
X-1050Y594D01*
D02*
G37*
G36*
X-1250Y2220D02*
X-1258Y2219D01*
X-1264Y2214D01*
X-1269Y2208D01*
X-1270Y2200D01*
X-1270Y1663D01*
X-1313Y1620D01*
X-1650Y1620D01*
X-1658Y1619D01*
X-1664Y1614D01*
X-1764Y1514D01*
X-1769Y1508D01*
X-1770Y1500D01*
X-1770Y120D01*
X-2250Y120D01*
X-2258Y119D01*
X-2264Y114D01*
X-2269Y108D01*
X-2270Y100D01*
X-2270Y-20D01*
X-2269Y-28D01*
X-2264Y-34D01*
X-2258Y-39D01*
X-2250Y-40D01*
X-1798Y-40D01*
X-1770Y-68D01*
X-1770Y-92D01*
X-1808Y-130D01*
X-2000D01*
X-2008Y-131D01*
X-2014Y-136D01*
X-2108Y-230D01*
X-2150D01*
X-2158Y-231D01*
X-2164Y-236D01*
X-2169Y-242D01*
X-2170Y-250D01*
X-2170Y-300D01*
Y-330D01*
X-2300D01*
X-2308Y-331D01*
X-2314Y-336D01*
X-2350Y-372D01*
X-2354Y-378D01*
X-2355Y-380D01*
X-2450D01*
X-2458Y-381D01*
X-2464Y-386D01*
X-2469Y-392D01*
X-2470Y-400D01*
Y-480D01*
X-2469Y-488D01*
X-2468Y-489D01*
X-2558Y-580D01*
X-2650D01*
X-2658Y-581D01*
X-2664Y-586D01*
X-2669Y-592D01*
X-2670Y-600D01*
Y-680D01*
X-2669Y-688D01*
X-2667Y-690D01*
X-2669Y-692D01*
X-2670Y-700D01*
Y-800D01*
X-2669Y-808D01*
X-2664Y-814D01*
X-2658Y-819D01*
X-2650Y-820D01*
X-2550D01*
X-2542Y-819D01*
X-2536Y-814D01*
X-2442Y-720D01*
X-2335D01*
X-2327Y-719D01*
X-2321Y-714D01*
X-2316Y-708D01*
X-2315Y-700D01*
Y-600D01*
X-2316Y-592D01*
X-2318Y-590D01*
X-2316Y-588D01*
X-2315Y-580D01*
Y-500D01*
X-2316Y-494D01*
X-2292Y-470D01*
X-2160Y-470D01*
X-2152Y-469D01*
X-2149Y-466D01*
X-2147Y-468D01*
X-2145Y-470D01*
X-2144Y-470D01*
X-2143Y-470D01*
X-2140Y-471D01*
X-2137Y-472D01*
X-2136Y-472D01*
X-2135Y-472D01*
X-2019Y-470D01*
X-2015Y-475D01*
Y-529D01*
X-2015D01*
Y-574D01*
X-2147D01*
Y-541D01*
X-2303D01*
Y-647D01*
X-2165D01*
Y-655D01*
X-1998D01*
Y-638D01*
X-1993Y-637D01*
X-1988Y-632D01*
X-1977Y-621D01*
X-1954D01*
Y-586D01*
Y-542D01*
X-1946D01*
X-1939Y-541D01*
X-1933Y-538D01*
X-1927Y-534D01*
X-1878Y-484D01*
X-1874Y-479D01*
X-1872Y-476D01*
X-1870Y-476D01*
X-1863Y-473D01*
X-1860Y-471D01*
X-1857Y-470D01*
X-1853Y-471D01*
X-1850Y-473D01*
X-1844Y-476D01*
X-1837Y-477D01*
X-1830Y-476D01*
X-1824Y-473D01*
X-1819Y-469D01*
X-1815Y-464D01*
X-1812Y-457D01*
X-1811Y-451D01*
Y-428D01*
X-1811Y-428D01*
X-1807Y-423D01*
X-1806Y-420D01*
X-1801Y-421D01*
Y-674D01*
X-1805Y-676D01*
X-1810Y-674D01*
Y-584D01*
X-1811Y-577D01*
X-1811Y-576D01*
Y-549D01*
X-1812Y-543D01*
X-1815Y-536D01*
X-1819Y-531D01*
X-1824Y-527D01*
X-1830Y-524D01*
X-1837Y-523D01*
X-1844Y-524D01*
X-1847Y-526D01*
X-1850Y-524D01*
X-1857Y-523D01*
X-1863Y-524D01*
X-1866Y-526D01*
X-1870Y-524D01*
X-1876Y-523D01*
X-1883Y-524D01*
X-1886Y-526D01*
X-1889Y-524D01*
X-1896Y-523D01*
X-1903Y-524D01*
X-1909Y-527D01*
X-1914Y-531D01*
X-1918Y-536D01*
X-1921Y-543D01*
X-1922Y-549D01*
Y-583D01*
Y-616D01*
Y-719D01*
X-1921Y-726D01*
X-1918Y-732D01*
X-1914Y-737D01*
X-1883Y-768D01*
X-1878Y-772D01*
X-1872Y-775D01*
X-1865Y-776D01*
X-1793D01*
X-1791Y-778D01*
X-1783Y-781D01*
X-1775Y-782D01*
X-1774Y-782D01*
X-1770Y-785D01*
Y-880D01*
X-1800Y-880D01*
X-2000Y-880D01*
X-2008Y-881D01*
X-2014Y-886D01*
X-2108Y-980D01*
X-2150Y-980D01*
X-2158Y-981D01*
X-2164Y-986D01*
X-2169Y-992D01*
X-2170Y-1000D01*
X-2170Y-1030D01*
X-2300D01*
X-2308Y-1031D01*
X-2314Y-1036D01*
X-2350Y-1072D01*
X-2354Y-1078D01*
X-2355Y-1080D01*
X-2450D01*
X-2458Y-1081D01*
X-2464Y-1086D01*
X-2469Y-1092D01*
X-2470Y-1100D01*
Y-1180D01*
X-2469Y-1188D01*
X-2468Y-1189D01*
X-2558Y-1280D01*
X-2650D01*
X-2658Y-1281D01*
X-2664Y-1286D01*
X-2669Y-1292D01*
X-2670Y-1300D01*
Y-1380D01*
X-2669Y-1388D01*
X-2667Y-1390D01*
X-2669Y-1392D01*
X-2670Y-1400D01*
Y-1500D01*
X-2669Y-1508D01*
X-2664Y-1514D01*
X-2658Y-1519D01*
X-2650Y-1520D01*
X-2550D01*
X-2542Y-1519D01*
X-2536Y-1514D01*
X-2442Y-1420D01*
X-2335D01*
X-2327Y-1419D01*
X-2321Y-1414D01*
X-2316Y-1408D01*
X-2315Y-1400D01*
Y-1380D01*
X-2310Y-1377D01*
X-2308Y-1379D01*
X-2300Y-1380D01*
X-2005D01*
X-1998Y-1379D01*
X-1991Y-1374D01*
X-1987Y-1368D01*
X-1985Y-1360D01*
Y-1331D01*
X-1976Y-1321D01*
X-1953D01*
Y-1286D01*
Y-1242D01*
X-1943D01*
X-1937Y-1241D01*
X-1930Y-1238D01*
X-1925Y-1234D01*
X-1877Y-1186D01*
X-1873Y-1180D01*
X-1871Y-1176D01*
X-1869Y-1176D01*
X-1862Y-1173D01*
X-1859Y-1171D01*
X-1856Y-1170D01*
X-1852Y-1171D01*
X-1849Y-1173D01*
X-1843Y-1176D01*
X-1836Y-1177D01*
X-1829Y-1176D01*
X-1823Y-1173D01*
X-1821Y-1171D01*
X-1816Y-1174D01*
Y-1226D01*
X-1821Y-1229D01*
X-1823Y-1227D01*
X-1829Y-1224D01*
X-1836Y-1223D01*
X-1843Y-1224D01*
X-1846Y-1226D01*
X-1849Y-1224D01*
X-1856Y-1223D01*
X-1862Y-1224D01*
X-1865Y-1226D01*
X-1869Y-1224D01*
X-1875Y-1223D01*
X-1882Y-1224D01*
X-1888Y-1227D01*
X-1894Y-1231D01*
X-1898Y-1236D01*
X-1900Y-1243D01*
X-1901Y-1249D01*
Y-1316D01*
X-1900Y-1323D01*
X-1898Y-1329D01*
X-1894Y-1334D01*
X-1888Y-1338D01*
X-1883Y-1341D01*
X-1882Y-1345D01*
X-1883Y-1346D01*
X-1905Y-1369D01*
X-1908Y-1369D01*
X-1916Y-1372D01*
X-1922Y-1378D01*
X-1928Y-1384D01*
X-1931Y-1392D01*
X-1932Y-1400D01*
X-1931Y-1408D01*
X-1929Y-1413D01*
X-1930Y-1414D01*
X-1930D01*
Y-1477D01*
Y-1516D01*
X-1870D01*
Y-1510D01*
X-1865D01*
Y-1516D01*
X-1821D01*
X-1819Y-1521D01*
X-1828Y-1530D01*
X-2150Y-1530D01*
X-2158Y-1531D01*
X-2164Y-1536D01*
X-2264Y-1636D01*
X-2269Y-1642D01*
X-2270Y-1650D01*
X-2270Y-1800D01*
X-2269Y-1808D01*
X-2264Y-1814D01*
X-2258Y-1819D01*
X-2250Y-1820D01*
X-2000Y-1820D01*
X-1992Y-1819D01*
X-1986Y-1814D01*
X-1982Y-1808D01*
X-1980Y-1800D01*
Y-1728D01*
X-1939Y-1687D01*
X-1937Y-1687D01*
X-1935Y-1685D01*
X-1865D01*
X-1863Y-1687D01*
X-1855Y-1688D01*
X-1650Y-1688D01*
X-1649Y-1688D01*
X-1645Y-1691D01*
Y-1735D01*
Y-1785D01*
Y-1835D01*
X-1555D01*
Y-1826D01*
X-1450D01*
X-1443Y-1825D01*
X-1437Y-1822D01*
X-1432Y-1818D01*
X-1299Y-1686D01*
X-1291Y-1685D01*
X-1282Y-1681D01*
X-1275Y-1675D01*
X-1269Y-1668D01*
X-1265Y-1659D01*
X-1264Y-1650D01*
X-1265Y-1641D01*
X-1269Y-1632D01*
X-1274Y-1625D01*
X-1274Y-1623D01*
X-1273Y-1620D01*
X-658Y-1620D01*
X-620Y-1658D01*
X-620Y-2296D01*
X-620Y-2296D01*
X-620Y-2296D01*
X-620Y-2300D01*
X-619Y-2304D01*
X-619Y-2304D01*
Y-2304D01*
X-617Y-2307D01*
X-614Y-2311D01*
X-614Y-2311D01*
X-614Y-2311D01*
X-611Y-2314D01*
X-611Y-2314D01*
X-611Y-2314D01*
X-608Y-2316D01*
X-604Y-2319D01*
X-604Y-2319D01*
X-604Y-2319D01*
X-597Y-2320D01*
X-597Y-2320D01*
X-597Y-2320D01*
X-400Y-2320D01*
X-392Y-2319D01*
X-386Y-2314D01*
X-382Y-2308D01*
X-380Y-2300D01*
X-380Y-2170D01*
X424Y-2170D01*
Y-2399D01*
X420D01*
Y-2405D01*
X230D01*
Y-2399D01*
X170D01*
Y-2462D01*
Y-2501D01*
X174D01*
Y-2558D01*
X165Y-2565D01*
X157Y-2575D01*
X152Y-2587D01*
X150Y-2600D01*
X152Y-2613D01*
X157Y-2625D01*
X165Y-2635D01*
X175Y-2643D01*
X187Y-2648D01*
X200Y-2650D01*
X213Y-2648D01*
X225Y-2643D01*
X235Y-2635D01*
X243Y-2625D01*
X248Y-2613D01*
X250Y-2600D01*
X248Y-2587D01*
X243Y-2575D01*
X235Y-2565D01*
X226Y-2558D01*
Y-2501D01*
X230D01*
Y-2456D01*
X420D01*
Y-2501D01*
X424D01*
Y-2558D01*
X415Y-2565D01*
X407Y-2575D01*
X402Y-2587D01*
X400Y-2600D01*
X402Y-2613D01*
X407Y-2625D01*
X415Y-2635D01*
X425Y-2643D01*
X437Y-2648D01*
X450Y-2650D01*
X463Y-2648D01*
X475Y-2643D01*
X485Y-2635D01*
X493Y-2625D01*
X498Y-2613D01*
X500Y-2600D01*
X498Y-2587D01*
X493Y-2575D01*
X485Y-2565D01*
X476Y-2558D01*
Y-2501D01*
X480D01*
Y-2462D01*
Y-2399D01*
X476D01*
Y-2170D01*
X953D01*
X953Y-2170D01*
X953Y-2170D01*
X957Y-2169D01*
X961Y-2169D01*
X961Y-2169D01*
X961Y-2169D01*
X964Y-2166D01*
X967Y-2164D01*
X967Y-2164D01*
X967Y-2164D01*
X1501Y-1628D01*
X1505Y-1630D01*
X1502Y-1637D01*
X1500Y-1650D01*
X1502Y-1663D01*
X1507Y-1675D01*
X1515Y-1685D01*
X1525Y-1693D01*
X1536Y-1697D01*
X1536Y-1697D01*
Y-1703D01*
X1536Y-1703D01*
X1525Y-1707D01*
X1515Y-1715D01*
X1507Y-1725D01*
X1502Y-1737D01*
X1500Y-1750D01*
X1502Y-1763D01*
X1507Y-1775D01*
X1515Y-1785D01*
X1525Y-1793D01*
X1537Y-1798D01*
X1550Y-1800D01*
X1563Y-1798D01*
X1575Y-1793D01*
X1585Y-1785D01*
X1593Y-1775D01*
X1597Y-1764D01*
X1597Y-1764D01*
X1603D01*
X1603Y-1764D01*
X1607Y-1775D01*
X1615Y-1785D01*
X1625Y-1793D01*
X1637Y-1798D01*
X1650Y-1800D01*
X1663Y-1798D01*
X1675Y-1793D01*
X1685Y-1785D01*
X1693Y-1775D01*
X1697Y-1764D01*
X1697Y-1764D01*
X1703D01*
X1703Y-1764D01*
X1707Y-1775D01*
X1715Y-1785D01*
X1725Y-1793D01*
X1737Y-1798D01*
X1750Y-1800D01*
X1763Y-1798D01*
X1775Y-1793D01*
X1785Y-1785D01*
X1793Y-1775D01*
X1796Y-1768D01*
X1801Y-1769D01*
Y-1799D01*
X1899D01*
Y-1776D01*
X1916D01*
X1923Y-1775D01*
X1929Y-1773D01*
X1934Y-1769D01*
X1957Y-1746D01*
X1980D01*
Y-1866D01*
X1981Y-1873D01*
X1986Y-1880D01*
X1992Y-1884D01*
X2000Y-1886D01*
X2224D01*
X2232Y-1884D01*
X2238Y-1880D01*
X2243Y-1873D01*
X2244Y-1866D01*
Y-1736D01*
X2244Y-1736D01*
X2244Y-1736D01*
X2243Y-1732D01*
X2243Y-1728D01*
X2243Y-1728D01*
X2243Y-1728D01*
X2240Y-1725D01*
X2238Y-1722D01*
X2238Y-1722D01*
X2238Y-1722D01*
X2170Y-1655D01*
X2170Y-1550D01*
X2170Y-1370D01*
X2300D01*
X2308Y-1369D01*
X2314Y-1364D01*
X2350Y-1328D01*
X2354Y-1322D01*
X2355Y-1320D01*
X2450D01*
X2458Y-1319D01*
X2464Y-1314D01*
X2469Y-1308D01*
X2470Y-1300D01*
Y-1205D01*
X2472Y-1204D01*
X2474Y-1203D01*
X2475Y-1202D01*
X2477Y-1201D01*
X2478Y-1200D01*
X2558Y-1120D01*
X2650D01*
X2658Y-1119D01*
X2664Y-1114D01*
X2669Y-1108D01*
X2670Y-1100D01*
Y-1000D01*
X2669Y-992D01*
X2667Y-990D01*
X2669Y-988D01*
X2670Y-980D01*
Y-900D01*
X2669Y-892D01*
X2664Y-886D01*
X2658Y-881D01*
X2650Y-880D01*
X2550D01*
X2542Y-881D01*
X2536Y-886D01*
X2442Y-980D01*
X2340D01*
X2332Y-981D01*
X2326Y-986D01*
X2321Y-992D01*
X2320Y-1000D01*
Y-1080D01*
X2321Y-1088D01*
X2323Y-1090D01*
X2321Y-1092D01*
X2320Y-1100D01*
Y-1177D01*
X2321Y-1181D01*
X2321Y-1185D01*
X2321Y-1185D01*
X2321Y-1185D01*
X2324Y-1188D01*
X2326Y-1191D01*
X2327Y-1193D01*
X2327Y-1195D01*
X2292Y-1230D01*
X2155D01*
X2147Y-1231D01*
X2145Y-1233D01*
X2143Y-1232D01*
X2135Y-1230D01*
X2015Y-1230D01*
Y-1229D01*
X2015D01*
Y-1214D01*
Y-1171D01*
X2015D01*
Y-1126D01*
X2147D01*
Y-1159D01*
X2303D01*
Y-1053D01*
X2165D01*
Y-1045D01*
X1998D01*
Y-1062D01*
X1993Y-1063D01*
X1988Y-1068D01*
X1977Y-1079D01*
X1954D01*
Y-1136D01*
Y-1158D01*
X1944D01*
X1938Y-1159D01*
X1931Y-1162D01*
X1926Y-1166D01*
X1878Y-1214D01*
X1874Y-1220D01*
X1872Y-1224D01*
X1870Y-1224D01*
X1863Y-1227D01*
X1860Y-1229D01*
X1857Y-1230D01*
X1853Y-1229D01*
X1850Y-1227D01*
X1844Y-1224D01*
X1837Y-1223D01*
X1830Y-1224D01*
X1824Y-1227D01*
X1819Y-1231D01*
X1815Y-1236D01*
X1812Y-1243D01*
X1811Y-1249D01*
Y-1272D01*
X1811Y-1272D01*
X1807Y-1277D01*
X1804Y-1284D01*
X1803Y-1290D01*
Y-1301D01*
X1799Y-1303D01*
X1786Y-1290D01*
Y-1109D01*
X1790Y-1107D01*
X1811Y-1128D01*
Y-1151D01*
X1812Y-1157D01*
X1815Y-1164D01*
X1819Y-1169D01*
X1824Y-1173D01*
X1830Y-1176D01*
X1837Y-1177D01*
X1844Y-1176D01*
X1847Y-1174D01*
X1850Y-1176D01*
X1857Y-1177D01*
X1863Y-1176D01*
X1866Y-1174D01*
X1870Y-1176D01*
X1876Y-1177D01*
X1883Y-1176D01*
X1886Y-1174D01*
X1889Y-1176D01*
X1896Y-1177D01*
X1903Y-1176D01*
X1909Y-1173D01*
X1914Y-1169D01*
X1918Y-1164D01*
X1921Y-1157D01*
X1922Y-1151D01*
Y-1075D01*
X1924Y-1073D01*
X1928Y-1067D01*
X1931Y-1061D01*
X1931Y-1054D01*
Y-1022D01*
X1933Y-1021D01*
X1936Y-1013D01*
X1937Y-1005D01*
X1936Y-997D01*
X1933Y-989D01*
X1931Y-987D01*
X1931Y-983D01*
X1928Y-976D01*
X1924Y-971D01*
X1904Y-952D01*
X1899Y-948D01*
X1893Y-945D01*
X1886Y-944D01*
X1815D01*
X1808Y-945D01*
X1802Y-948D01*
X1797Y-952D01*
X1775Y-974D01*
X1770Y-972D01*
Y-958D01*
X1808Y-920D01*
X2049Y-920D01*
X2054Y-919D01*
X2057Y-919D01*
X2057Y-919D01*
X2064Y-914D01*
X2164Y-814D01*
X2168Y-807D01*
X2170Y-799D01*
X2170Y-670D01*
X2280Y-670D01*
X2288Y-669D01*
X2294Y-664D01*
X2338Y-620D01*
X2450Y-620D01*
X2458Y-619D01*
X2464Y-614D01*
X2469Y-608D01*
X2470Y-600D01*
Y-520D01*
X2469Y-512D01*
X2468Y-511D01*
X2558Y-420D01*
X2650D01*
X2658Y-419D01*
X2664Y-414D01*
X2669Y-408D01*
X2670Y-400D01*
Y-300D01*
X2669Y-292D01*
X2667Y-290D01*
X2669Y-288D01*
X2670Y-280D01*
Y-200D01*
X2669Y-192D01*
X2664Y-186D01*
X2658Y-181D01*
X2650Y-180D01*
X2550D01*
X2542Y-181D01*
X2536Y-186D01*
X2442Y-280D01*
X2340D01*
X2332Y-281D01*
X2326Y-286D01*
X2321Y-292D01*
X2320Y-300D01*
Y-380D01*
X2321Y-388D01*
X2323Y-390D01*
X2321Y-392D01*
X2320Y-400D01*
Y-500D01*
X2320Y-502D01*
X2319Y-503D01*
X2318Y-504D01*
X2292Y-530D01*
X2155D01*
X2147Y-531D01*
X2141Y-536D01*
X2136Y-542D01*
X2135Y-550D01*
X2134Y-551D01*
X2019Y-548D01*
X2019Y-548D01*
X2015Y-544D01*
Y-529D01*
X2015D01*
Y-471D01*
X2015D01*
Y-426D01*
X2147D01*
Y-459D01*
X2303D01*
Y-353D01*
X2165D01*
Y-345D01*
X1998D01*
Y-362D01*
X1993Y-363D01*
X1988Y-368D01*
X1977Y-379D01*
X1954D01*
Y-436D01*
Y-458D01*
X1953D01*
X1946Y-459D01*
X1945Y-460D01*
X1943Y-459D01*
X1941Y-456D01*
X1941Y-451D01*
Y-384D01*
X1941Y-377D01*
X1938Y-371D01*
X1934Y-366D01*
X1931Y-363D01*
X1930Y-357D01*
X1993Y-293D01*
X1997Y-288D01*
X2000Y-282D01*
X2001Y-275D01*
Y-160D01*
X2000Y-153D01*
X1997Y-147D01*
X1993Y-142D01*
X1951Y-99D01*
X1950Y-91D01*
X1946Y-82D01*
X1940Y-75D01*
X1933Y-69D01*
X1924Y-65D01*
X1915Y-64D01*
X1906Y-65D01*
X1897Y-69D01*
X1890Y-75D01*
X1883Y-69D01*
X1874Y-65D01*
X1865Y-64D01*
X1856Y-65D01*
X1847Y-69D01*
X1840Y-75D01*
X1836Y-80D01*
X1835Y-81D01*
X1830D01*
X1829Y-80D01*
X1825Y-75D01*
X1818Y-69D01*
X1809Y-65D01*
X1800Y-64D01*
X1791Y-65D01*
X1782Y-69D01*
X1775Y-75D01*
X1769Y-82D01*
X1765Y-91D01*
X1764Y-100D01*
X1765Y-109D01*
X1769Y-118D01*
X1774Y-125D01*
Y-274D01*
X1737Y-312D01*
X1733Y-317D01*
X1730Y-323D01*
X1729Y-330D01*
Y-595D01*
X1730Y-602D01*
X1733Y-608D01*
X1737Y-613D01*
X1799Y-676D01*
Y-699D01*
X1859D01*
Y-659D01*
X1864Y-657D01*
X1895Y-688D01*
X1901Y-692D01*
X1907Y-695D01*
X1913Y-696D01*
X1969D01*
X1971Y-700D01*
X1942Y-730D01*
X1720D01*
X1720Y-78D01*
X1758Y-40D01*
X2250D01*
X2258Y-39D01*
X2264Y-34D01*
X2268Y-28D01*
X2270Y-20D01*
X2270Y117D01*
X2268Y125D01*
X2264Y132D01*
X2258Y136D01*
X2250Y137D01*
X1720D01*
X1720Y215D01*
X2052D01*
X2060Y216D01*
X2066Y220D01*
X2164Y318D01*
X2168Y325D01*
X2170Y333D01*
X2170Y427D01*
X2174Y430D01*
X2175Y430D01*
X2300D01*
X2308Y431D01*
X2314Y436D01*
X2358Y480D01*
X2435D01*
X2443Y481D01*
X2449Y486D01*
X2454Y492D01*
X2455Y500D01*
Y580D01*
X2650D01*
X2658Y581D01*
X2664Y586D01*
X2669Y592D01*
X2670Y600D01*
Y680D01*
X2669Y688D01*
X2667Y690D01*
X2669Y692D01*
X2670Y700D01*
Y800D01*
X2669Y808D01*
X2664Y814D01*
X2658Y819D01*
X2650Y820D01*
X2350D01*
X2342Y819D01*
X2336Y814D01*
X2331Y808D01*
X2330Y800D01*
Y700D01*
X2331Y692D01*
X2333Y690D01*
X2331Y688D01*
X2330Y680D01*
Y620D01*
X2331Y612D01*
X2332Y611D01*
X2292Y570D01*
X2175D01*
X2167Y569D01*
X2161Y564D01*
X2157Y559D01*
X2147D01*
Y545D01*
X2011D01*
Y572D01*
X2010D01*
Y630D01*
X2011D01*
Y674D01*
X2147D01*
Y641D01*
X2303D01*
Y747D01*
X2164D01*
Y755D01*
X1996D01*
Y739D01*
X1994Y739D01*
X1988Y737D01*
X1982Y732D01*
X1972Y722D01*
X1949D01*
Y665D01*
Y642D01*
X1922D01*
X1919Y642D01*
X1915Y645D01*
Y684D01*
Y717D01*
X1915Y724D01*
X1912Y730D01*
X1908Y735D01*
X1903Y739D01*
X1899Y741D01*
X1898Y741D01*
X1898Y741D01*
X1897Y746D01*
X1897Y747D01*
X1901Y752D01*
X1905Y761D01*
X1906Y770D01*
X1905Y779D01*
X1901Y788D01*
X1895Y795D01*
X1889Y800D01*
X1891Y805D01*
X2180Y805D01*
X2188Y806D01*
X2194Y811D01*
X2238Y855D01*
X2243Y861D01*
X2244Y869D01*
X2244Y1245D01*
X2243Y1253D01*
X2238Y1259D01*
X2232Y1264D01*
X2224Y1265D01*
X2000D01*
X1992Y1264D01*
X1986Y1259D01*
X1981Y1253D01*
X1980Y1245D01*
X1980Y1008D01*
X1942Y970D01*
X1755Y970D01*
X1747Y969D01*
X1741Y964D01*
X1536Y759D01*
X1531Y753D01*
X1530Y745D01*
Y-287D01*
X1525Y-289D01*
X1503Y-267D01*
X1498Y-263D01*
X1492Y-260D01*
X1485Y-259D01*
X1381D01*
X1355Y-234D01*
Y36D01*
X1354Y42D01*
X1352Y48D01*
X1348Y54D01*
X1185Y217D01*
Y316D01*
X1184Y323D01*
X1181Y329D01*
X1177Y334D01*
X1093Y418D01*
X1088Y422D01*
X1088Y428D01*
X1088Y428D01*
X1092Y439D01*
X1094Y450D01*
X1092Y461D01*
X1090Y466D01*
X1094Y469D01*
X1132Y432D01*
X1137Y428D01*
X1143Y425D01*
X1150Y424D01*
X1418D01*
X1425Y415D01*
X1435Y407D01*
X1447Y402D01*
X1460Y400D01*
X1473Y402D01*
X1485Y407D01*
X1495Y415D01*
X1503Y425D01*
X1508Y437D01*
X1510Y450D01*
X1508Y463D01*
X1503Y475D01*
X1495Y485D01*
X1485Y493D01*
X1473Y498D01*
X1460Y500D01*
X1447Y498D01*
X1435Y493D01*
X1425Y485D01*
X1418Y476D01*
X1161D01*
X1093Y544D01*
X1094Y550D01*
X1092Y561D01*
X1088Y572D01*
X1081Y581D01*
X1072Y588D01*
X1061Y592D01*
X1050Y594D01*
X1039Y592D01*
X1028Y588D01*
X1019Y581D01*
X1012Y572D01*
X1008Y561D01*
X1006Y550D01*
X1008Y539D01*
X1012Y528D01*
X1019Y519D01*
X1028Y512D01*
X1039Y508D01*
X1050Y506D01*
X1056Y507D01*
X1069Y494D01*
X1066Y490D01*
X1061Y492D01*
X1050Y494D01*
X1039Y492D01*
X1028Y488D01*
X1019Y481D01*
X1012Y472D01*
X1008Y461D01*
X1006Y450D01*
X1008Y439D01*
X1011Y431D01*
X1008Y426D01*
X1000D01*
X993Y425D01*
X991Y424D01*
X988Y428D01*
X988Y428D01*
X992Y439D01*
X994Y450D01*
X992Y461D01*
X988Y472D01*
X981Y481D01*
X972Y488D01*
X961Y492D01*
X950Y494D01*
X939Y492D01*
X928Y488D01*
X919Y481D01*
X912Y472D01*
X908Y461D01*
X906Y450D01*
X908Y439D01*
X912Y428D01*
X919Y419D01*
X928Y412D01*
X939Y408D01*
X950Y406D01*
X961Y408D01*
X966Y410D01*
X969Y406D01*
X956Y393D01*
X950Y394D01*
X939Y392D01*
X928Y388D01*
X919Y381D01*
X912Y372D01*
X908Y361D01*
X906Y350D01*
X908Y339D01*
X912Y328D01*
X919Y319D01*
X928Y312D01*
X939Y308D01*
X950Y306D01*
X961Y308D01*
X972Y312D01*
X981Y319D01*
X988Y328D01*
X992Y339D01*
X994Y350D01*
X993Y356D01*
X1006Y369D01*
X1010Y366D01*
X1008Y361D01*
X1006Y350D01*
X1008Y339D01*
X1012Y328D01*
X1019Y319D01*
X1028Y312D01*
X1039Y308D01*
X1050Y306D01*
X1061Y308D01*
X1072Y312D01*
X1081Y319D01*
X1086Y319D01*
X1110Y296D01*
Y176D01*
X1085D01*
X1081Y181D01*
X1072Y188D01*
X1061Y192D01*
X1050Y194D01*
X1039Y192D01*
X1028Y188D01*
X1019Y181D01*
X1012Y172D01*
X1008Y161D01*
X1006Y150D01*
X1008Y139D01*
X1010Y134D01*
X1006Y131D01*
X993Y144D01*
X994Y150D01*
X992Y161D01*
X988Y172D01*
X981Y181D01*
X972Y188D01*
X961Y192D01*
X950Y194D01*
X939Y192D01*
X928Y188D01*
X919Y181D01*
X912Y172D01*
X908Y161D01*
X906Y150D01*
X908Y139D01*
X912Y128D01*
X919Y119D01*
X928Y112D01*
X939Y108D01*
X950Y106D01*
X956Y107D01*
X969Y94D01*
X966Y90D01*
X961Y92D01*
X950Y94D01*
X939Y92D01*
X928Y88D01*
X919Y81D01*
X912Y72D01*
X908Y61D01*
X906Y50D01*
X908Y39D01*
X912Y28D01*
X919Y19D01*
X928Y12D01*
X939Y8D01*
X950Y6D01*
X961Y8D01*
X972Y12D01*
X981Y19D01*
X988Y28D01*
X992Y39D01*
X994Y50D01*
X992Y61D01*
X988Y72D01*
X988Y72D01*
X991Y76D01*
X993Y75D01*
X1000Y74D01*
X1008D01*
X1011Y69D01*
X1008Y61D01*
X1006Y50D01*
X1008Y39D01*
X1012Y28D01*
X1019Y19D01*
X1028Y12D01*
X1039Y8D01*
X1050Y6D01*
X1061Y8D01*
X1072Y12D01*
X1081Y19D01*
X1085Y24D01*
X1129D01*
X1209Y-56D01*
Y-286D01*
X1210Y-293D01*
X1213Y-299D01*
X1217Y-304D01*
X1232Y-319D01*
X1230Y-324D01*
X1084D01*
X1081Y-319D01*
X1072Y-312D01*
X1061Y-308D01*
X1050Y-306D01*
X1039Y-308D01*
X1028Y-312D01*
X1019Y-319D01*
X1012Y-328D01*
X1008Y-339D01*
X1006Y-350D01*
X1008Y-361D01*
X1012Y-372D01*
X1019Y-381D01*
X1028Y-388D01*
X1039Y-392D01*
X1050Y-394D01*
X1061Y-392D01*
X1072Y-388D01*
X1081Y-381D01*
X1084Y-376D01*
X1254D01*
X1334Y-456D01*
Y-950D01*
X1335Y-957D01*
X1337Y-963D01*
X1341Y-969D01*
X1411Y-1038D01*
Y-1099D01*
X1441D01*
X1442Y-1104D01*
X1435Y-1107D01*
X1425Y-1115D01*
X1417Y-1125D01*
X1412Y-1137D01*
X1410Y-1150D01*
X1412Y-1163D01*
X1415Y-1170D01*
X1412Y-1174D01*
X1381D01*
X1311Y-1104D01*
Y-885D01*
X1310Y-878D01*
X1307Y-872D01*
X1303Y-867D01*
X1118Y-682D01*
X1113Y-678D01*
X1107Y-675D01*
X1100Y-674D01*
X1092D01*
X1089Y-669D01*
X1092Y-661D01*
X1094Y-650D01*
X1092Y-639D01*
X1088Y-628D01*
X1081Y-619D01*
X1072Y-612D01*
X1061Y-608D01*
X1050Y-606D01*
X1039Y-608D01*
X1028Y-612D01*
X1019Y-619D01*
X1012Y-628D01*
X1008Y-639D01*
X1006Y-650D01*
X1008Y-661D01*
X1011Y-669D01*
X1008Y-674D01*
X992D01*
X989Y-669D01*
X992Y-661D01*
X994Y-650D01*
X992Y-639D01*
X988Y-628D01*
X981Y-619D01*
X972Y-612D01*
X961Y-608D01*
X950Y-606D01*
X939Y-608D01*
X928Y-612D01*
X919Y-619D01*
X912Y-628D01*
X908Y-639D01*
X906Y-650D01*
X908Y-661D01*
X911Y-669D01*
X908Y-674D01*
X761D01*
X-882Y968D01*
X-887Y972D01*
X-893Y975D01*
X-900Y976D01*
X-915D01*
X-919Y981D01*
X-928Y988D01*
X-939Y992D01*
X-950Y994D01*
X-961Y992D01*
X-972Y988D01*
X-981Y981D01*
X-988Y972D01*
X-992Y961D01*
X-994Y950D01*
X-992Y939D01*
X-988Y928D01*
X-981Y919D01*
X-972Y912D01*
X-961Y908D01*
X-950Y906D01*
X-939Y908D01*
X-928Y912D01*
X-919Y919D01*
X-916Y924D01*
X-910Y924D01*
X732Y-718D01*
X737Y-722D01*
X743Y-725D01*
X750Y-726D01*
X881D01*
X883Y-731D01*
X882Y-732D01*
X832Y-782D01*
X828Y-787D01*
X825Y-793D01*
X824Y-800D01*
Y-1050D01*
X825Y-1057D01*
X828Y-1063D01*
X832Y-1068D01*
X882Y-1118D01*
X887Y-1122D01*
X893Y-1125D01*
X900Y-1126D01*
X908D01*
X911Y-1131D01*
X908Y-1139D01*
X906Y-1150D01*
X908Y-1161D01*
X912Y-1172D01*
X919Y-1181D01*
X928Y-1188D01*
X939Y-1192D01*
X950Y-1194D01*
X961Y-1192D01*
X972Y-1188D01*
X981Y-1181D01*
X988Y-1172D01*
X992Y-1161D01*
X994Y-1150D01*
X992Y-1139D01*
X989Y-1131D01*
X992Y-1126D01*
X1134D01*
X1164Y-1156D01*
Y-1220D01*
X1120D01*
Y-1224D01*
X1085D01*
X1081Y-1219D01*
X1072Y-1212D01*
X1061Y-1208D01*
X1050Y-1206D01*
X1039Y-1208D01*
X1028Y-1212D01*
X1019Y-1219D01*
X1015Y-1224D01*
X985D01*
X981Y-1219D01*
X972Y-1212D01*
X961Y-1208D01*
X950Y-1206D01*
X939Y-1208D01*
X928Y-1212D01*
X919Y-1219D01*
X915Y-1224D01*
X880D01*
Y-1220D01*
X857D01*
X773Y-1137D01*
X768Y-1133D01*
X762Y-1130D01*
X755Y-1129D01*
X355D01*
X354Y-1122D01*
X349Y-1116D01*
X343Y-1111D01*
X335Y-1110D01*
X-79Y-1110D01*
Y-955D01*
X-80Y-948D01*
X-83Y-942D01*
X-87Y-937D01*
X-636Y-387D01*
X-635Y-382D01*
X-632Y-381D01*
X-625Y-375D01*
X-618Y-381D01*
X-609Y-385D01*
X-600Y-386D01*
X-591Y-385D01*
X-582Y-381D01*
X-575Y-375D01*
X-569Y-368D01*
X-565Y-359D01*
X-564Y-350D01*
X-565Y-341D01*
X-569Y-332D01*
X-575Y-325D01*
X-582Y-319D01*
X-591Y-315D01*
X-600Y-314D01*
X-602Y-314D01*
X-638Y-278D01*
X-643Y-274D01*
X-650Y-271D01*
X-656Y-271D01*
X-775D01*
X-819Y-226D01*
Y-55D01*
X-820Y-48D01*
X-823Y-42D01*
X-827Y-37D01*
X-882Y18D01*
X-887Y22D01*
X-893Y25D01*
X-900Y26D01*
X-908D01*
X-911Y31D01*
X-908Y39D01*
X-906Y50D01*
X-908Y61D01*
X-912Y72D01*
X-919Y81D01*
X-928Y88D01*
X-939Y92D01*
X-950Y94D01*
X-961Y92D01*
X-972Y88D01*
X-981Y81D01*
X-988Y72D01*
X-992Y61D01*
X-994Y50D01*
X-992Y39D01*
X-990Y34D01*
X-994Y31D01*
X-1007Y44D01*
X-1006Y50D01*
X-1008Y61D01*
X-1012Y72D01*
X-1019Y81D01*
X-1028Y88D01*
X-1039Y92D01*
X-1050Y94D01*
X-1061Y92D01*
X-1072Y88D01*
X-1081Y81D01*
X-1088Y72D01*
X-1092Y61D01*
X-1094Y50D01*
X-1092Y39D01*
X-1088Y28D01*
X-1081Y19D01*
X-1072Y12D01*
X-1061Y8D01*
X-1050Y6D01*
X-1044Y7D01*
X-1031Y-6D01*
X-1034Y-10D01*
X-1039Y-8D01*
X-1050Y-6D01*
X-1061Y-8D01*
X-1072Y-12D01*
X-1081Y-19D01*
X-1088Y-28D01*
X-1092Y-39D01*
X-1094Y-50D01*
X-1092Y-61D01*
X-1088Y-72D01*
X-1081Y-81D01*
X-1072Y-88D01*
X-1061Y-92D01*
X-1050Y-94D01*
X-1039Y-92D01*
X-1028Y-88D01*
X-1019Y-81D01*
X-1012Y-72D01*
X-1008Y-61D01*
X-1006Y-50D01*
X-1008Y-39D01*
X-1012Y-28D01*
X-1012Y-28D01*
X-1009Y-24D01*
X-1007Y-25D01*
X-1000Y-26D01*
X-992D01*
X-989Y-31D01*
X-992Y-39D01*
X-994Y-50D01*
X-992Y-61D01*
X-988Y-72D01*
X-981Y-81D01*
X-972Y-88D01*
X-961Y-92D01*
X-950Y-94D01*
X-944Y-93D01*
X-931Y-106D01*
X-934Y-110D01*
X-939Y-108D01*
X-950Y-106D01*
X-961Y-108D01*
X-972Y-112D01*
X-981Y-119D01*
X-988Y-128D01*
X-992Y-139D01*
X-994Y-150D01*
X-992Y-161D01*
X-988Y-172D01*
X-981Y-181D01*
X-972Y-188D01*
X-961Y-192D01*
X-950Y-194D01*
X-939Y-192D01*
X-928Y-188D01*
X-919Y-181D01*
X-912Y-172D01*
X-908Y-161D01*
X-906Y-150D01*
X-908Y-139D01*
X-910Y-134D01*
X-906Y-131D01*
X-894Y-142D01*
Y-246D01*
X-894Y-253D01*
X-891Y-259D01*
X-887Y-265D01*
X-813Y-338D01*
X-808Y-342D01*
X-802Y-345D01*
X-795Y-346D01*
X-691D01*
X-686Y-351D01*
X-685Y-359D01*
X-681Y-368D01*
X-680Y-370D01*
X-682Y-374D01*
X-820D01*
Y-370D01*
X-880D01*
Y-374D01*
X-908D01*
X-911Y-369D01*
X-908Y-361D01*
X-906Y-350D01*
X-908Y-339D01*
X-912Y-328D01*
X-919Y-319D01*
X-928Y-312D01*
X-939Y-308D01*
X-950Y-306D01*
X-961Y-308D01*
X-972Y-312D01*
X-981Y-319D01*
X-988Y-328D01*
X-992Y-339D01*
X-994Y-350D01*
X-992Y-361D01*
X-990Y-366D01*
X-994Y-369D01*
X-1007Y-356D01*
X-1006Y-350D01*
X-1008Y-339D01*
X-1012Y-328D01*
X-1019Y-319D01*
X-1028Y-312D01*
X-1039Y-308D01*
X-1050Y-306D01*
X-1061Y-308D01*
X-1072Y-312D01*
X-1081Y-319D01*
X-1088Y-328D01*
X-1092Y-339D01*
X-1094Y-350D01*
X-1092Y-361D01*
X-1088Y-372D01*
X-1081Y-381D01*
X-1072Y-388D01*
X-1061Y-392D01*
X-1050Y-394D01*
X-1044Y-393D01*
X-1031Y-406D01*
X-1034Y-410D01*
X-1039Y-408D01*
X-1050Y-406D01*
X-1061Y-408D01*
X-1072Y-412D01*
X-1081Y-419D01*
X-1088Y-428D01*
X-1092Y-439D01*
X-1094Y-450D01*
X-1092Y-461D01*
X-1088Y-472D01*
X-1081Y-481D01*
X-1072Y-488D01*
X-1061Y-492D01*
X-1050Y-494D01*
X-1039Y-492D01*
X-1028Y-488D01*
X-1019Y-481D01*
X-1012Y-472D01*
X-1008Y-461D01*
X-1006Y-450D01*
X-1008Y-439D01*
X-1012Y-428D01*
X-1012Y-428D01*
X-1009Y-424D01*
X-1007Y-425D01*
X-1000Y-426D01*
X-992D01*
X-989Y-431D01*
X-992Y-439D01*
X-994Y-450D01*
X-992Y-461D01*
X-988Y-472D01*
X-981Y-481D01*
X-972Y-488D01*
X-961Y-492D01*
X-950Y-494D01*
X-939Y-492D01*
X-928Y-488D01*
X-919Y-481D01*
X-912Y-472D01*
X-908Y-461D01*
X-906Y-450D01*
X-908Y-439D01*
X-911Y-431D01*
X-908Y-426D01*
X-880D01*
Y-430D01*
X-820D01*
Y-426D01*
X-671D01*
X-131Y-966D01*
Y-1110D01*
X-405D01*
X-413Y-1111D01*
X-419Y-1116D01*
X-424Y-1122D01*
X-425Y-1130D01*
Y-1150D01*
X-478D01*
X-486Y-1151D01*
X-488Y-1153D01*
X-612D01*
X-613Y-1153D01*
X-614Y-1153D01*
X-617Y-1154D01*
X-620Y-1155D01*
X-620Y-1155D01*
X-621Y-1156D01*
X-624Y-1157D01*
X-626Y-1159D01*
X-627Y-1160D01*
X-627Y-1161D01*
X-630Y-1164D01*
X-632Y-1167D01*
X-634Y-1169D01*
X-634Y-1170D01*
X-634Y-1171D01*
X-634Y-1172D01*
X-639Y-1174D01*
X-640Y-1174D01*
X-682Y-1132D01*
X-687Y-1128D01*
X-693Y-1125D01*
X-700Y-1124D01*
X-720D01*
Y-1119D01*
X-830D01*
Y-1124D01*
X-915D01*
X-919Y-1119D01*
X-928Y-1112D01*
X-939Y-1108D01*
X-950Y-1106D01*
X-961Y-1108D01*
X-972Y-1112D01*
X-981Y-1119D01*
X-985Y-1124D01*
X-1015D01*
X-1019Y-1119D01*
X-1028Y-1112D01*
X-1039Y-1108D01*
X-1050Y-1106D01*
X-1061Y-1108D01*
X-1072Y-1112D01*
X-1081Y-1119D01*
X-1088Y-1128D01*
X-1092Y-1139D01*
X-1094Y-1150D01*
X-1092Y-1161D01*
X-1088Y-1172D01*
X-1081Y-1181D01*
X-1072Y-1188D01*
X-1061Y-1192D01*
X-1050Y-1194D01*
X-1039Y-1192D01*
X-1028Y-1188D01*
X-1019Y-1181D01*
X-1015Y-1176D01*
X-985D01*
X-981Y-1181D01*
X-972Y-1188D01*
X-961Y-1192D01*
X-950Y-1194D01*
X-939Y-1192D01*
X-928Y-1188D01*
X-919Y-1181D01*
X-915Y-1176D01*
X-830D01*
Y-1181D01*
X-720D01*
Y-1176D01*
X-711D01*
X-644Y-1243D01*
X-638Y-1247D01*
X-635Y-1248D01*
X-635Y-1250D01*
Y-1250D01*
X-635Y-1250D01*
X-635Y-1253D01*
X-639Y-1256D01*
X-644Y-1262D01*
X-645Y-1270D01*
Y-1430D01*
X-1542D01*
X-1580Y-1392D01*
Y-1174D01*
X-1575Y-1171D01*
X-1508Y-1238D01*
X-1510Y-1250D01*
X-1508Y-1263D01*
X-1503Y-1275D01*
X-1495Y-1285D01*
X-1485Y-1293D01*
X-1478Y-1296D01*
X-1479Y-1301D01*
X-1509D01*
Y-1399D01*
X-1411D01*
Y-1374D01*
X-1407Y-1372D01*
X-1402Y-1368D01*
X-1367Y-1333D01*
X-1363Y-1328D01*
X-1360Y-1322D01*
X-1359Y-1315D01*
Y-1131D01*
X-1104Y-876D01*
X-1085D01*
X-1081Y-881D01*
X-1072Y-888D01*
X-1061Y-892D01*
X-1050Y-894D01*
X-1039Y-892D01*
X-1028Y-888D01*
X-1019Y-881D01*
X-1012Y-872D01*
X-1008Y-861D01*
X-1006Y-850D01*
X-1008Y-839D01*
X-1012Y-828D01*
X-1019Y-819D01*
X-1028Y-812D01*
X-1039Y-808D01*
X-1050Y-806D01*
X-1061Y-808D01*
X-1066Y-810D01*
X-1069Y-806D01*
X-1056Y-793D01*
X-1050Y-794D01*
X-1039Y-792D01*
X-1028Y-788D01*
X-1019Y-781D01*
X-1012Y-772D01*
X-1008Y-761D01*
X-1006Y-750D01*
X-1008Y-739D01*
X-1010Y-734D01*
X-1006Y-731D01*
X-993Y-744D01*
X-994Y-750D01*
X-992Y-761D01*
X-988Y-772D01*
X-981Y-781D01*
X-972Y-788D01*
X-961Y-792D01*
X-950Y-794D01*
X-939Y-792D01*
X-928Y-788D01*
X-919Y-781D01*
X-912Y-772D01*
X-908Y-761D01*
X-906Y-750D01*
X-908Y-739D01*
X-912Y-728D01*
X-919Y-719D01*
X-928Y-712D01*
X-939Y-708D01*
X-950Y-706D01*
X-956Y-707D01*
X-969Y-694D01*
X-966Y-690D01*
X-961Y-692D01*
X-950Y-694D01*
X-939Y-692D01*
X-928Y-688D01*
X-919Y-681D01*
X-912Y-672D01*
X-908Y-661D01*
X-906Y-650D01*
X-908Y-639D01*
X-910Y-633D01*
X-907Y-628D01*
X-904Y-628D01*
X-886Y-646D01*
Y-814D01*
X-896Y-824D01*
X-915D01*
X-919Y-819D01*
X-928Y-812D01*
X-939Y-808D01*
X-950Y-806D01*
X-961Y-808D01*
X-972Y-812D01*
X-981Y-819D01*
X-988Y-828D01*
X-992Y-839D01*
X-994Y-850D01*
X-992Y-861D01*
X-988Y-872D01*
X-981Y-881D01*
X-972Y-888D01*
X-961Y-892D01*
X-950Y-894D01*
X-939Y-892D01*
X-928Y-888D01*
X-919Y-881D01*
X-915Y-876D01*
X-885D01*
X-878Y-875D01*
X-872Y-872D01*
X-867Y-868D01*
X-842Y-843D01*
X-838Y-838D01*
X-835Y-832D01*
X-834Y-825D01*
Y-635D01*
X-835Y-628D01*
X-838Y-622D01*
X-842Y-617D01*
X-877Y-582D01*
X-882Y-578D01*
X-888Y-575D01*
X-895Y-574D01*
X-908D01*
X-911Y-569D01*
X-908Y-561D01*
X-906Y-550D01*
X-908Y-539D01*
X-912Y-528D01*
X-919Y-519D01*
X-928Y-512D01*
X-939Y-508D01*
X-950Y-506D01*
X-961Y-508D01*
X-972Y-512D01*
X-981Y-519D01*
X-988Y-528D01*
X-992Y-539D01*
X-994Y-550D01*
X-992Y-561D01*
X-989Y-569D01*
X-992Y-574D01*
X-1008D01*
X-1011Y-569D01*
X-1008Y-561D01*
X-1006Y-550D01*
X-1008Y-539D01*
X-1012Y-528D01*
X-1019Y-519D01*
X-1028Y-512D01*
X-1039Y-508D01*
X-1050Y-506D01*
X-1061Y-508D01*
X-1072Y-512D01*
X-1081Y-519D01*
X-1088Y-528D01*
X-1092Y-539D01*
X-1094Y-550D01*
X-1092Y-561D01*
X-1089Y-569D01*
X-1092Y-574D01*
X-1294D01*
X-1411Y-457D01*
X-1410Y-450D01*
X-1412Y-437D01*
X-1417Y-425D01*
X-1425Y-415D01*
X-1435Y-407D01*
X-1446Y-403D01*
X-1446Y-403D01*
Y-397D01*
X-1446Y-397D01*
X-1435Y-393D01*
X-1425Y-385D01*
X-1417Y-375D01*
X-1412Y-363D01*
X-1410Y-350D01*
X-1412Y-337D01*
X-1417Y-325D01*
X-1425Y-315D01*
X-1434Y-308D01*
Y-301D01*
X-1370Y-237D01*
X-1246D01*
X-1239Y-236D01*
X-1233Y-233D01*
X-1227Y-229D01*
X-1131Y-133D01*
X-1127Y-127D01*
X-1124Y-121D01*
X-1123Y-114D01*
Y620D01*
X-1098Y646D01*
X-1093Y644D01*
X-1092Y639D01*
X-1088Y628D01*
X-1081Y619D01*
X-1072Y612D01*
X-1061Y608D01*
X-1050Y606D01*
X-1039Y608D01*
X-1028Y612D01*
X-1019Y619D01*
X-1012Y628D01*
X-1008Y639D01*
X-1006Y650D01*
X-1008Y661D01*
X-1011Y669D01*
X-1008Y674D01*
X-1000D01*
X-993Y675D01*
X-991Y676D01*
X-990Y676D01*
X-988Y672D01*
X-992Y661D01*
X-994Y650D01*
X-992Y639D01*
X-988Y628D01*
X-981Y619D01*
X-972Y612D01*
X-961Y608D01*
X-950Y606D01*
X-939Y608D01*
X-928Y612D01*
X-919Y619D01*
X-912Y628D01*
X-908Y639D01*
X-906Y650D01*
X-908Y661D01*
X-912Y672D01*
X-919Y681D01*
X-928Y688D01*
X-939Y692D01*
X-950Y694D01*
X-961Y692D01*
X-966Y690D01*
X-969Y694D01*
X-956Y707D01*
X-950Y706D01*
X-939Y708D01*
X-928Y712D01*
X-919Y719D01*
X-912Y728D01*
X-908Y739D01*
X-906Y750D01*
X-908Y761D01*
X-912Y772D01*
X-919Y781D01*
X-928Y788D01*
X-939Y792D01*
X-950Y794D01*
X-959Y793D01*
X-961Y797D01*
X-952Y807D01*
X-950Y806D01*
X-939Y808D01*
X-928Y812D01*
X-919Y819D01*
X-912Y828D01*
X-908Y839D01*
X-906Y850D01*
X-908Y861D01*
X-912Y872D01*
X-919Y881D01*
X-928Y888D01*
X-939Y892D01*
X-950Y894D01*
X-961Y892D01*
X-972Y888D01*
X-981Y881D01*
X-988Y872D01*
X-992Y861D01*
X-994Y850D01*
X-992Y839D01*
X-1008Y824D01*
X-1009Y824D01*
X-1011Y826D01*
X-1012Y829D01*
X-1008Y839D01*
X-1006Y850D01*
X-1008Y861D01*
X-1012Y872D01*
X-1019Y881D01*
X-1028Y888D01*
X-1039Y892D01*
X-1050Y894D01*
X-1061Y892D01*
X-1072Y888D01*
X-1081Y881D01*
X-1085Y876D01*
X-1085D01*
X-1092Y875D01*
X-1098Y872D01*
X-1103Y868D01*
X-1190Y782D01*
X-1194Y784D01*
Y809D01*
X-1084Y919D01*
X-1081Y919D01*
X-1072Y912D01*
X-1061Y908D01*
X-1050Y906D01*
X-1039Y908D01*
X-1028Y912D01*
X-1019Y919D01*
X-1012Y928D01*
X-1008Y939D01*
X-1006Y950D01*
X-1008Y961D01*
X-1012Y972D01*
X-1019Y981D01*
X-1028Y988D01*
X-1039Y992D01*
X-1050Y994D01*
X-1061Y992D01*
X-1072Y988D01*
X-1081Y981D01*
X-1085Y976D01*
X-1090D01*
X-1097Y975D01*
X-1103Y972D01*
X-1108Y968D01*
X-1238Y838D01*
X-1242Y833D01*
X-1245Y827D01*
X-1246Y820D01*
Y-74D01*
X-1286Y-114D01*
X-1410D01*
X-1417Y-115D01*
X-1423Y-118D01*
X-1428Y-122D01*
X-1575Y-269D01*
X-1580Y-266D01*
Y-150D01*
X-1580Y1392D01*
X-1542Y1430D01*
X-1050Y1430D01*
X-1042Y1431D01*
X-1036Y1436D01*
X-1032Y1442D01*
X-1030Y1450D01*
X-1030Y2200D01*
X-1032Y2208D01*
X-1036Y2214D01*
X-1042Y2219D01*
X-1050Y2220D01*
X-1250Y2220D01*
D02*
G37*
G36*
X-2129Y1618D02*
X-2139Y1617D01*
X-2147Y1613D01*
X-2155Y1608D01*
X-2160Y1600D01*
X-2164Y1592D01*
X-2165Y1582D01*
X-2164Y1573D01*
X-2160Y1565D01*
X-2155Y1557D01*
X-2147Y1551D01*
X-2139Y1548D01*
X-2129Y1547D01*
X-2120Y1548D01*
X-2112Y1551D01*
X-2104Y1557D01*
X-2099Y1565D01*
X-2095Y1573D01*
X-2094Y1582D01*
X-2095Y1592D01*
X-2099Y1600D01*
X-2104Y1608D01*
X-2112Y1613D01*
X-2120Y1617D01*
X-2129Y1618D01*
D02*
G37*
G36*
X1260Y2922D02*
X1244Y2920D01*
X1230Y2916D01*
X1216Y2908D01*
X1204Y2898D01*
X1194Y2886D01*
X1187Y2873D01*
X1182Y2858D01*
X1181Y2842D01*
X1182Y2830D01*
X1178Y2826D01*
X1177Y2825D01*
X1175Y2826D01*
X1000D01*
X993Y2825D01*
X987Y2822D01*
X982Y2818D01*
X924Y2760D01*
X919Y2755D01*
X917Y2748D01*
X916Y2742D01*
Y1477D01*
X792Y1353D01*
X788Y1348D01*
X786Y1342D01*
X785Y1335D01*
Y579D01*
X786Y573D01*
X788Y567D01*
X792Y561D01*
X824Y529D01*
Y-250D01*
X825Y-257D01*
X828Y-263D01*
X832Y-268D01*
X907Y-344D01*
X906Y-350D01*
X908Y-361D01*
X912Y-372D01*
X919Y-381D01*
X928Y-388D01*
X939Y-392D01*
X950Y-394D01*
X961Y-392D01*
X972Y-388D01*
X981Y-381D01*
X988Y-372D01*
X992Y-361D01*
X994Y-350D01*
X992Y-339D01*
X988Y-328D01*
X981Y-319D01*
X972Y-312D01*
X961Y-308D01*
X950Y-306D01*
X944Y-307D01*
X931Y-294D01*
X934Y-290D01*
X939Y-292D01*
X950Y-294D01*
X961Y-292D01*
X972Y-288D01*
X981Y-281D01*
X988Y-272D01*
X992Y-261D01*
X994Y-250D01*
X992Y-239D01*
X988Y-228D01*
X981Y-219D01*
X972Y-212D01*
X961Y-208D01*
X950Y-206D01*
X939Y-208D01*
X928Y-212D01*
X919Y-219D01*
X912Y-228D01*
X908Y-239D01*
X906Y-250D01*
X908Y-261D01*
X910Y-266D01*
X906Y-269D01*
X876Y-239D01*
Y524D01*
X915D01*
X919Y519D01*
X928Y512D01*
X939Y508D01*
X950Y506D01*
X961Y508D01*
X972Y512D01*
X981Y519D01*
X988Y528D01*
X992Y539D01*
X994Y550D01*
X992Y561D01*
X988Y572D01*
X981Y581D01*
X972Y588D01*
X961Y592D01*
X950Y594D01*
X939Y592D01*
X928Y588D01*
X919Y581D01*
X915Y576D01*
X886D01*
X861Y601D01*
Y654D01*
X865Y656D01*
X889Y632D01*
X895Y628D01*
X901Y625D01*
X908Y624D01*
X915D01*
X919Y619D01*
X928Y612D01*
X939Y608D01*
X950Y606D01*
X961Y608D01*
X972Y612D01*
X981Y619D01*
X988Y628D01*
X992Y639D01*
X994Y650D01*
X992Y661D01*
X988Y672D01*
X981Y681D01*
X972Y688D01*
X961Y692D01*
X950Y694D01*
X939Y692D01*
X928Y688D01*
X919Y681D01*
X919Y681D01*
X914Y680D01*
X885Y709D01*
Y1304D01*
X1009Y1427D01*
X1013Y1433D01*
X1016Y1439D01*
X1016Y1446D01*
Y2580D01*
X1061Y2624D01*
X1108D01*
X1115Y2615D01*
X1125Y2607D01*
X1136Y2603D01*
X1136Y2603D01*
Y2597D01*
X1136Y2597D01*
X1125Y2593D01*
X1115Y2585D01*
X1107Y2575D01*
X1102Y2563D01*
X1100Y2550D01*
X1102Y2537D01*
X1107Y2525D01*
X1115Y2515D01*
X1125Y2507D01*
X1137Y2502D01*
X1150Y2500D01*
X1163Y2502D01*
X1175Y2507D01*
X1185Y2515D01*
X1192Y2525D01*
X1197Y2525D01*
X1203Y2528D01*
X1208Y2532D01*
X1223Y2547D01*
X1227Y2552D01*
X1230Y2558D01*
X1231Y2565D01*
Y2765D01*
X1235Y2768D01*
X1244Y2765D01*
X1260Y2763D01*
X1275Y2765D01*
X1290Y2769D01*
X1304Y2777D01*
X1316Y2787D01*
X1326Y2799D01*
X1333Y2812D01*
X1337Y2827D01*
X1339Y2842D01*
X1337Y2858D01*
X1333Y2873D01*
X1326Y2886D01*
X1316Y2898D01*
X1304Y2908D01*
X1290Y2916D01*
X1275Y2920D01*
X1260Y2922D01*
D02*
G37*
G36*
X-1260D02*
X-1275Y2920D01*
X-1290Y2916D01*
X-1304Y2908D01*
X-1316Y2898D01*
X-1326Y2886D01*
X-1333Y2873D01*
X-1337Y2858D01*
X-1339Y2842D01*
X-1337Y2827D01*
X-1333Y2812D01*
X-1326Y2799D01*
X-1316Y2787D01*
X-1304Y2777D01*
X-1290Y2769D01*
X-1275Y2765D01*
X-1260Y2763D01*
X-1244Y2765D01*
X-1230Y2769D01*
X-1216Y2777D01*
X-1204Y2787D01*
X-1194Y2799D01*
X-1187Y2812D01*
X-1182Y2827D01*
X-1181Y2842D01*
X-1182Y2858D01*
X-1187Y2873D01*
X-1194Y2886D01*
X-1204Y2898D01*
X-1216Y2908D01*
X-1230Y2916D01*
X-1244Y2920D01*
X-1260Y2922D01*
D02*
G37*
G36*
X1050Y894D02*
X1039Y892D01*
X1028Y888D01*
X1019Y881D01*
X1012Y872D01*
X1008Y861D01*
X1006Y850D01*
X1008Y839D01*
X1012Y828D01*
X1019Y819D01*
X1028Y812D01*
X1039Y808D01*
X1050Y806D01*
X1061Y808D01*
X1072Y812D01*
X1081Y819D01*
X1088Y828D01*
X1092Y839D01*
X1094Y850D01*
X1092Y861D01*
X1088Y872D01*
X1081Y881D01*
X1072Y888D01*
X1061Y892D01*
X1050Y894D01*
D02*
G37*
G36*
X950D02*
X939Y892D01*
X928Y888D01*
X919Y881D01*
X912Y872D01*
X908Y861D01*
X906Y850D01*
X908Y839D01*
X912Y828D01*
X919Y819D01*
X928Y812D01*
X939Y808D01*
X950Y806D01*
X961Y808D01*
X972Y812D01*
X981Y819D01*
X988Y828D01*
X992Y839D01*
X994Y850D01*
X992Y861D01*
X988Y872D01*
X981Y881D01*
X972Y888D01*
X961Y892D01*
X950Y894D01*
D02*
G37*
G36*
X1050Y994D02*
X1039Y992D01*
X1028Y988D01*
X1019Y981D01*
X1012Y972D01*
X1008Y961D01*
X1006Y950D01*
X1008Y939D01*
X1012Y928D01*
X1019Y919D01*
X1028Y912D01*
X1039Y908D01*
X1050Y906D01*
X1061Y908D01*
X1072Y912D01*
X1081Y919D01*
X1088Y928D01*
X1092Y939D01*
X1094Y950D01*
X1092Y961D01*
X1088Y972D01*
X1081Y981D01*
X1072Y988D01*
X1061Y992D01*
X1050Y994D01*
D02*
G37*
G36*
X950D02*
X939Y992D01*
X928Y988D01*
X919Y981D01*
X912Y972D01*
X908Y961D01*
X906Y950D01*
X908Y939D01*
X912Y928D01*
X919Y919D01*
X928Y912D01*
X939Y908D01*
X950Y906D01*
X961Y908D01*
X972Y912D01*
X981Y919D01*
X988Y928D01*
X992Y939D01*
X994Y950D01*
X992Y961D01*
X988Y972D01*
X981Y981D01*
X972Y988D01*
X961Y992D01*
X950Y994D01*
D02*
G37*
G36*
X1050Y294D02*
X1039Y292D01*
X1028Y288D01*
X1019Y281D01*
X1012Y272D01*
X1008Y261D01*
X1006Y250D01*
X1008Y239D01*
X1012Y228D01*
X1019Y219D01*
X1028Y212D01*
X1039Y208D01*
X1050Y206D01*
X1061Y208D01*
X1072Y212D01*
X1081Y219D01*
X1088Y228D01*
X1092Y239D01*
X1094Y250D01*
X1092Y261D01*
X1088Y272D01*
X1081Y281D01*
X1072Y288D01*
X1061Y292D01*
X1050Y294D01*
D02*
G37*
G36*
X-1050Y394D02*
X-1061Y392D01*
X-1072Y388D01*
X-1081Y381D01*
X-1088Y372D01*
X-1092Y361D01*
X-1094Y350D01*
X-1092Y339D01*
X-1088Y328D01*
X-1081Y319D01*
X-1072Y312D01*
X-1061Y308D01*
X-1050Y306D01*
X-1039Y308D01*
X-1028Y312D01*
X-1019Y319D01*
X-1012Y328D01*
X-1008Y339D01*
X-1006Y350D01*
X-1008Y361D01*
X-1012Y372D01*
X-1019Y381D01*
X-1028Y388D01*
X-1039Y392D01*
X-1050Y394D01*
D02*
G37*
G36*
X-950Y194D02*
X-961Y192D01*
X-972Y188D01*
X-981Y181D01*
X-988Y172D01*
X-992Y161D01*
X-994Y150D01*
X-992Y139D01*
X-988Y128D01*
X-981Y119D01*
X-972Y112D01*
X-961Y108D01*
X-950Y106D01*
X-939Y108D01*
X-928Y112D01*
X-919Y119D01*
X-912Y128D01*
X-908Y139D01*
X-906Y150D01*
X-908Y161D01*
X-912Y172D01*
X-919Y181D01*
X-928Y188D01*
X-939Y192D01*
X-950Y194D01*
D02*
G37*
G36*
X-1050Y294D02*
X-1061Y292D01*
X-1072Y288D01*
X-1081Y281D01*
X-1088Y272D01*
X-1092Y261D01*
X-1094Y250D01*
X-1092Y239D01*
X-1088Y228D01*
X-1081Y219D01*
X-1072Y212D01*
X-1061Y208D01*
X-1050Y206D01*
X-1039Y208D01*
X-1028Y212D01*
X-1019Y219D01*
X-1012Y228D01*
X-1008Y239D01*
X-1006Y250D01*
X-1008Y261D01*
X-1012Y272D01*
X-1019Y281D01*
X-1028Y288D01*
X-1039Y292D01*
X-1050Y294D01*
D02*
G37*
G36*
X-950D02*
X-961Y292D01*
X-972Y288D01*
X-981Y281D01*
X-988Y272D01*
X-992Y261D01*
X-994Y250D01*
X-992Y239D01*
X-988Y228D01*
X-981Y219D01*
X-972Y212D01*
X-961Y208D01*
X-950Y206D01*
X-939Y208D01*
X-928Y212D01*
X-919Y219D01*
X-912Y228D01*
X-908Y239D01*
X-906Y250D01*
X-908Y261D01*
X-912Y272D01*
X-919Y281D01*
X-928Y288D01*
X-939Y292D01*
X-950Y294D01*
D02*
G37*
G36*
X950D02*
X939Y292D01*
X928Y288D01*
X919Y281D01*
X912Y272D01*
X908Y261D01*
X906Y250D01*
X908Y239D01*
X912Y228D01*
X919Y219D01*
X928Y212D01*
X939Y208D01*
X950Y206D01*
X961Y208D01*
X972Y212D01*
X981Y219D01*
X988Y228D01*
X992Y239D01*
X994Y250D01*
X992Y261D01*
X988Y272D01*
X981Y281D01*
X972Y288D01*
X961Y292D01*
X950Y294D01*
D02*
G37*
G36*
X-950Y394D02*
X-961Y392D01*
X-972Y388D01*
X-981Y381D01*
X-988Y372D01*
X-992Y361D01*
X-994Y350D01*
X-992Y339D01*
X-988Y328D01*
X-981Y319D01*
X-972Y312D01*
X-961Y308D01*
X-950Y306D01*
X-939Y308D01*
X-928Y312D01*
X-919Y319D01*
X-912Y328D01*
X-908Y339D01*
X-906Y350D01*
X-908Y361D01*
X-912Y372D01*
X-919Y381D01*
X-928Y388D01*
X-939Y392D01*
X-950Y394D01*
D02*
G37*
G36*
X950Y-6D02*
X939Y-8D01*
X928Y-12D01*
X919Y-19D01*
X912Y-28D01*
X908Y-39D01*
X906Y-50D01*
X908Y-61D01*
X912Y-72D01*
X919Y-81D01*
X928Y-88D01*
X939Y-92D01*
X950Y-94D01*
X961Y-92D01*
X972Y-88D01*
X981Y-81D01*
X988Y-72D01*
X992Y-61D01*
X994Y-50D01*
X992Y-39D01*
X988Y-28D01*
X981Y-19D01*
X972Y-12D01*
X961Y-8D01*
X950Y-6D01*
D02*
G37*
G36*
X3087Y179D02*
X3064Y178D01*
X3041Y173D01*
X3018Y166D01*
X2997Y155D01*
X2978Y142D01*
X2960Y127D01*
X2945Y109D01*
X2932Y90D01*
X2921Y69D01*
X2914Y46D01*
X2909Y23D01*
X2908Y-0D01*
X2909Y-23D01*
X2914Y-46D01*
X2921Y-69D01*
X2932Y-90D01*
X2945Y-109D01*
X2960Y-127D01*
X2978Y-142D01*
X2997Y-155D01*
X3018Y-166D01*
X3041Y-173D01*
X3064Y-178D01*
X3087Y-179D01*
X3110Y-178D01*
X3133Y-173D01*
X3156Y-166D01*
X3177Y-155D01*
X3196Y-142D01*
X3214Y-127D01*
X3229Y-109D01*
X3242Y-90D01*
X3252Y-69D01*
X3260Y-46D01*
X3265Y-23D01*
X3266Y-0D01*
X3265Y23D01*
X3260Y46D01*
X3252Y69D01*
X3242Y90D01*
X3229Y109D01*
X3214Y127D01*
X3196Y142D01*
X3177Y155D01*
X3156Y166D01*
X3133Y173D01*
X3110Y178D01*
X3087Y179D01*
D02*
G37*
G36*
X1050Y-6D02*
X1039Y-8D01*
X1028Y-12D01*
X1019Y-19D01*
X1012Y-28D01*
X1008Y-39D01*
X1006Y-50D01*
X1008Y-61D01*
X1012Y-72D01*
X1019Y-81D01*
X1028Y-88D01*
X1039Y-92D01*
X1050Y-94D01*
X1061Y-92D01*
X1072Y-88D01*
X1081Y-81D01*
X1088Y-72D01*
X1092Y-61D01*
X1094Y-50D01*
X1092Y-39D01*
X1088Y-28D01*
X1081Y-19D01*
X1072Y-12D01*
X1061Y-8D01*
X1050Y-6D01*
D02*
G37*
G36*
X-1050Y194D02*
X-1061Y192D01*
X-1072Y188D01*
X-1081Y181D01*
X-1088Y172D01*
X-1092Y161D01*
X-1094Y150D01*
X-1092Y139D01*
X-1088Y128D01*
X-1081Y119D01*
X-1072Y112D01*
X-1061Y108D01*
X-1050Y106D01*
X-1039Y108D01*
X-1028Y112D01*
X-1019Y119D01*
X-1012Y128D01*
X-1008Y139D01*
X-1006Y150D01*
X-1008Y161D01*
X-1012Y172D01*
X-1019Y181D01*
X-1028Y188D01*
X-1039Y192D01*
X-1050Y194D01*
D02*
G37*
%LPD*%
G36*
X-650Y-2300D02*
X-1150Y-2300D01*
X-1350Y-2500D01*
X-1650D01*
Y-2105D01*
X-650D01*
Y-2300D01*
D02*
G37*
G36*
X583Y-1304D02*
Y-1384D01*
X578D01*
Y-1419D01*
X544D01*
X542Y-1415D01*
X548Y-1408D01*
X552Y-1403D01*
X555Y-1397D01*
X556Y-1390D01*
Y-1355D01*
X555Y-1348D01*
X552Y-1342D01*
X548Y-1337D01*
X528Y-1317D01*
X523Y-1313D01*
X517Y-1310D01*
X510Y-1309D01*
X506D01*
Y-1305D01*
X414D01*
Y-1309D01*
X403D01*
X401Y-1307D01*
X393Y-1304D01*
X385Y-1303D01*
X377Y-1304D01*
X369Y-1307D01*
X363Y-1313D01*
X357Y-1319D01*
X354Y-1327D01*
X353Y-1335D01*
X354Y-1343D01*
X357Y-1351D01*
X363Y-1357D01*
X369Y-1363D01*
X377Y-1366D01*
X385Y-1367D01*
X393Y-1366D01*
X395Y-1365D01*
X396Y-1365D01*
D01*
X401Y-1363D01*
X403Y-1361D01*
X414D01*
Y-1365D01*
X503D01*
X504Y-1366D01*
Y-1379D01*
X502Y-1381D01*
X424D01*
Y-1438D01*
X419Y-1438D01*
X419Y-1436D01*
X414Y-1430D01*
X408Y-1426D01*
X406Y-1425D01*
Y-1419D01*
X341D01*
X340Y-1412D01*
X336Y-1406D01*
X329Y-1401D01*
X321Y-1400D01*
X268Y-1400D01*
X260Y-1401D01*
X254Y-1406D01*
X249Y-1412D01*
X248Y-1420D01*
Y-1424D01*
X246Y-1426D01*
X245Y-1433D01*
Y-1450D01*
X244D01*
D01*
X242D01*
X145Y-1450D01*
Y-1445D01*
D01*
Y-1433D01*
X144Y-1426D01*
X144Y-1426D01*
X142Y-1424D01*
D01*
Y-1415D01*
X141Y-1407D01*
X136Y-1401D01*
X130Y-1396D01*
X122Y-1395D01*
X-95D01*
X-103Y-1396D01*
X-109Y-1401D01*
X-114Y-1407D01*
X-115Y-1415D01*
X-115Y-1515D01*
X-114Y-1523D01*
X-109Y-1529D01*
X-103Y-1534D01*
X-95Y-1535D01*
X110D01*
X110Y-1662D01*
X111Y-1670D01*
X116Y-1676D01*
X122Y-1681D01*
X130Y-1682D01*
X180D01*
Y-1980D01*
X-380D01*
X-380Y-1515D01*
X-382Y-1507D01*
X-386Y-1501D01*
X-445Y-1442D01*
X-445Y-1285D01*
X-425D01*
Y-1300D01*
X-424Y-1308D01*
X-419Y-1314D01*
X-413Y-1319D01*
X-405Y-1320D01*
X50Y-1320D01*
X58Y-1319D01*
X64Y-1314D01*
X69Y-1308D01*
X70Y-1300D01*
Y-1270D01*
X88D01*
X90Y-1270D01*
X92D01*
X94Y-1269D01*
X96Y-1269D01*
X97Y-1267D01*
X99Y-1267D01*
X101Y-1265D01*
X102Y-1264D01*
X103Y-1263D01*
X105Y-1261D01*
X105Y-1261D01*
Y-1260D01*
X107D01*
D01*
X335Y-1260D01*
X343Y-1258D01*
X349Y-1254D01*
X354Y-1248D01*
X355Y-1240D01*
Y-1226D01*
X504D01*
X583Y-1304D01*
D02*
G37*
G36*
X321Y-1444D02*
X400D01*
X400Y-1456D01*
X321D01*
Y-1480D01*
X268Y-1480D01*
Y-1467D01*
X265D01*
X265Y-1433D01*
X268D01*
Y-1420D01*
X321Y-1420D01*
Y-1444D01*
D02*
G37*
G36*
X2450Y-1300D02*
X2350D01*
X2349Y-1301D01*
X2336D01*
Y-1314D01*
X2300Y-1350D01*
X2165D01*
Y-1274D01*
X2155D01*
Y-1250D01*
X2300D01*
X2350Y-1200D01*
X2450D01*
Y-1300D01*
D02*
G37*
G36*
X-2014Y-1286D02*
X-2004D01*
Y-1325D01*
X-2005Y-1331D01*
Y-1350D01*
Y-1360D01*
X-2300D01*
Y-1240D01*
X-2014D01*
Y-1286D01*
D02*
G37*
G36*
X-2335Y-1280D02*
X-2450D01*
X-2458Y-1281D01*
X-2464Y-1286D01*
X-2558Y-1380D01*
X-2650D01*
Y-1300D01*
X-2550D01*
X-2450Y-1200D01*
X-2335D01*
Y-1280D01*
D02*
G37*
G36*
X820Y-1257D02*
Y-1280D01*
X880D01*
Y-1276D01*
X915D01*
X919Y-1281D01*
X928Y-1288D01*
X939Y-1292D01*
X950Y-1294D01*
X961Y-1292D01*
X972Y-1288D01*
X981Y-1281D01*
X985Y-1276D01*
X1015D01*
X1019Y-1281D01*
X1028Y-1288D01*
X1039Y-1292D01*
X1050Y-1294D01*
X1061Y-1292D01*
X1072Y-1288D01*
X1081Y-1281D01*
X1085Y-1276D01*
X1120D01*
Y-1280D01*
X1164D01*
Y-1399D01*
X777Y-1787D01*
X773Y-1792D01*
X770Y-1798D01*
X769Y-1805D01*
Y-1975D01*
X765Y-1981D01*
X764Y-1981D01*
X763Y-1980D01*
X761Y-1980D01*
X760Y-1980D01*
X759Y-1980D01*
X370Y-1980D01*
Y-1682D01*
X400D01*
X408Y-1681D01*
X414Y-1676D01*
X419Y-1670D01*
X420Y-1662D01*
X420Y-1522D01*
X424Y-1519D01*
X509D01*
Y-1513D01*
X569D01*
X575Y-1512D01*
X582Y-1510D01*
X587Y-1506D01*
X616Y-1476D01*
X639D01*
Y-1441D01*
Y-1384D01*
X634D01*
Y-1293D01*
X633Y-1287D01*
X631Y-1281D01*
X627Y-1275D01*
X537Y-1186D01*
X539Y-1181D01*
X744D01*
X820Y-1257D01*
D02*
G37*
G36*
X-1050Y2200D02*
X-1050Y1450D01*
X-1550Y1450D01*
X-1600Y1400D01*
X-1600Y-150D01*
X-1600Y-1400D01*
X-1550Y-1450D01*
X-625D01*
Y-1270D01*
X-465Y-1270D01*
X-465Y-1450D01*
X-400Y-1515D01*
X-400Y-2000D01*
X200D01*
Y-1662D01*
X130D01*
X130Y-1533D01*
X136Y-1529D01*
X141Y-1523D01*
X142Y-1515D01*
Y-1476D01*
X144Y-1474D01*
X144Y-1470D01*
X145Y-1470D01*
X245Y-1470D01*
X246Y-1470D01*
X246Y-1474D01*
X248Y-1476D01*
Y-1480D01*
X249Y-1488D01*
X254Y-1494D01*
X260Y-1499D01*
X268Y-1500D01*
X321Y-1500D01*
X329Y-1499D01*
X336Y-1494D01*
X340Y-1488D01*
X341Y-1481D01*
X400D01*
X400Y-1662D01*
X350D01*
Y-2000D01*
X759Y-2000D01*
X759Y-2000D01*
X760Y-2009D01*
X764Y-2018D01*
X770Y-2025D01*
X777Y-2031D01*
X786Y-2035D01*
X795Y-2036D01*
X804Y-2035D01*
X813Y-2031D01*
X820Y-2025D01*
X826Y-2018D01*
X830Y-2009D01*
X831Y-2000D01*
X831Y-2000D01*
X851D01*
X860Y-1990D01*
X865Y-1993D01*
X864Y-2000D01*
X865Y-2009D01*
X869Y-2018D01*
X875Y-2025D01*
X882Y-2031D01*
X891Y-2035D01*
X900Y-2036D01*
X909Y-2035D01*
X918Y-2031D01*
X925Y-2025D01*
X931Y-2018D01*
X935Y-2009D01*
X936Y-2000D01*
X935Y-1991D01*
X931Y-1982D01*
X926Y-1975D01*
Y-1925D01*
X1452Y-1399D01*
X1460Y-1400D01*
X1473Y-1398D01*
X1485Y-1393D01*
X1495Y-1385D01*
X1502Y-1376D01*
X1505D01*
X1512Y-1375D01*
X1518Y-1372D01*
X1523Y-1368D01*
X1548Y-1343D01*
X1552Y-1338D01*
X1555Y-1332D01*
X1556Y-1325D01*
Y-1230D01*
X1555Y-1223D01*
X1552Y-1217D01*
X1549Y-1213D01*
X1549Y-1133D01*
X1550Y-1132D01*
X1551Y-1125D01*
Y-1010D01*
X1550Y-1003D01*
X1549Y-1002D01*
X1549Y-901D01*
X1550Y-750D01*
Y-492D01*
X1550Y-492D01*
X1551Y-485D01*
Y-325D01*
X1550Y-318D01*
X1550Y-318D01*
Y745D01*
X1755Y950D01*
X1950Y950D01*
X2000Y1000D01*
X2000Y1245D01*
X2224D01*
X2224Y869D01*
X2180Y825D01*
X1844Y825D01*
X1814Y796D01*
X1806Y795D01*
X1797Y791D01*
X1790Y785D01*
X1784Y778D01*
X1780Y769D01*
X1779Y761D01*
X1700Y681D01*
X1700Y380D01*
X1950D01*
X2000Y430D01*
X2000Y515D01*
X2011D01*
Y525D01*
X2147D01*
Y453D01*
X2150D01*
X2150Y333D01*
X2052Y235D01*
X1700D01*
X1700Y117D01*
X2250D01*
X2250Y-20D01*
X1750D01*
X1700Y-70D01*
X1700Y-750D01*
X1950D01*
X2000Y-700D01*
Y-586D01*
X2015D01*
Y-572D01*
X2019Y-568D01*
X2135Y-571D01*
Y-574D01*
X2136Y-581D01*
X2141Y-588D01*
X2145Y-591D01*
Y-650D01*
X2146Y-658D01*
X2150Y-663D01*
X2150Y-799D01*
X2049Y-900D01*
X1800Y-900D01*
X1750Y-950D01*
Y-999D01*
X1742Y-1007D01*
X1738Y-1012D01*
X1735Y-1018D01*
X1734Y-1025D01*
Y-1300D01*
X1735Y-1307D01*
X1738Y-1313D01*
X1742Y-1318D01*
X1750Y-1327D01*
Y-1349D01*
X1699Y-1400D01*
X1950D01*
X2000Y-1350D01*
X2000Y-1286D01*
X2015D01*
Y-1250D01*
X2135Y-1250D01*
Y-1274D01*
X2136Y-1281D01*
X2141Y-1288D01*
X2145Y-1291D01*
Y-1350D01*
X2146Y-1358D01*
X2150Y-1363D01*
X2150Y-1550D01*
X2150Y-1664D01*
X2224Y-1736D01*
Y-1866D01*
X2000D01*
Y-1550D01*
X1549Y-1550D01*
X953Y-2150D01*
X-400Y-2150D01*
X-400Y-2300D01*
X-597Y-2300D01*
X-600Y-2296D01*
X-600Y-1650D01*
X-650Y-1600D01*
X-1582Y-1600D01*
X-1650Y-1668D01*
X-1855Y-1668D01*
Y-1665D01*
X-1945D01*
Y-1668D01*
X-1948D01*
X-2000Y-1720D01*
Y-1800D01*
X-2250Y-1800D01*
X-2250Y-1650D01*
X-2150Y-1550D01*
X-1820Y-1550D01*
X-1786Y-1516D01*
X-1782Y-1516D01*
X-1774Y-1513D01*
X-1768Y-1507D01*
X-1762Y-1501D01*
X-1759Y-1493D01*
X-1759Y-1489D01*
X-1750Y-1480D01*
X-1750Y-1050D01*
X-1799Y-1001D01*
X-1799Y-1001D01*
X-1800Y-1000D01*
X-1804Y-1000D01*
X-1952Y-1000D01*
X-2000Y-1048D01*
Y-1114D01*
X-2014D01*
Y-1150D01*
X-2140D01*
Y-1126D01*
X-2141Y-1118D01*
X-2144Y-1115D01*
Y-1050D01*
X-2145Y-1042D01*
X-2150Y-1036D01*
X-2150Y-1036D01*
X-2150Y-1000D01*
X-2100Y-1000D01*
X-2000Y-900D01*
X-1800Y-900D01*
X-1750Y-900D01*
Y-769D01*
X-1747Y-766D01*
X-1744Y-758D01*
X-1743Y-750D01*
X-1744Y-742D01*
X-1747Y-734D01*
X-1749Y-732D01*
Y-385D01*
X-1750Y-378D01*
X-1750Y-378D01*
Y-302D01*
X-1800Y-250D01*
X-1948D01*
X-2000Y-302D01*
X-2000Y-414D01*
X-2015D01*
Y-450D01*
X-2136Y-452D01*
X-2140Y-447D01*
Y-426D01*
X-2141Y-419D01*
X-2145Y-413D01*
Y-350D01*
X-2146Y-342D01*
X-2150Y-337D01*
Y-300D01*
X-2150Y-250D01*
X-2100D01*
X-2000Y-150D01*
X-1800D01*
X-1750Y-100D01*
X-1750Y-60D01*
X-1790Y-20D01*
X-2250Y-20D01*
X-2250Y100D01*
X-1750Y100D01*
X-1750Y1500D01*
X-1650Y1600D01*
X-1305Y1600D01*
X-1250Y1654D01*
X-1250Y2200D01*
X-1050Y2200D01*
D02*
G37*
G36*
X1263Y-1354D02*
X1268D01*
Y-1398D01*
X1269Y-1405D01*
X1271Y-1411D01*
X1275Y-1417D01*
X1341Y-1482D01*
X930Y-1892D01*
X926Y-1890D01*
Y-1811D01*
X1232Y-1504D01*
X1236Y-1499D01*
X1239Y-1493D01*
X1240Y-1486D01*
Y-1318D01*
X1263D01*
Y-1354D01*
D02*
G37*
G36*
X-2335Y-1400D02*
X-2450D01*
X-2550Y-1500D01*
X-2650D01*
Y-1400D01*
X-2550D01*
X-2450Y-1300D01*
X-2335D01*
Y-1400D01*
D02*
G37*
G36*
X122Y-1433D02*
X125D01*
X125Y-1467D01*
X122D01*
Y-1515D01*
X-95D01*
X-95Y-1415D01*
X122D01*
Y-1433D01*
D02*
G37*
G36*
X1980Y-1686D02*
X1920D01*
Y-1709D01*
X1905Y-1724D01*
X1899D01*
Y-1701D01*
X1801D01*
Y-1731D01*
X1796Y-1732D01*
X1793Y-1725D01*
X1785Y-1715D01*
X1775Y-1707D01*
X1764Y-1703D01*
X1764Y-1703D01*
Y-1697D01*
X1764Y-1697D01*
X1775Y-1693D01*
X1785Y-1685D01*
X1793Y-1675D01*
X1798Y-1663D01*
X1800Y-1650D01*
X1798Y-1637D01*
X1793Y-1625D01*
X1785Y-1615D01*
X1775Y-1607D01*
X1763Y-1602D01*
X1750Y-1600D01*
X1737Y-1602D01*
X1725Y-1607D01*
X1715Y-1615D01*
X1707Y-1625D01*
X1703Y-1636D01*
X1703Y-1636D01*
X1697D01*
X1697Y-1636D01*
X1693Y-1625D01*
X1685Y-1615D01*
X1675Y-1607D01*
X1663Y-1602D01*
X1650Y-1600D01*
X1637Y-1602D01*
X1625Y-1607D01*
X1615Y-1615D01*
X1607Y-1625D01*
X1603Y-1636D01*
X1603Y-1636D01*
X1597D01*
X1597Y-1636D01*
X1593Y-1625D01*
X1585Y-1615D01*
X1575Y-1607D01*
X1563Y-1602D01*
X1550Y-1600D01*
X1537Y-1602D01*
X1530Y-1605D01*
X1527Y-1601D01*
X1558Y-1570D01*
X1980Y-1570D01*
Y-1686D01*
D02*
G37*
G36*
X335Y-1240D02*
X105Y-1240D01*
X97Y-1241D01*
X91Y-1246D01*
X88Y-1250D01*
X50D01*
Y-1300D01*
X-405Y-1300D01*
Y-1265D01*
X-446D01*
X-446Y-1262D01*
X-451Y-1256D01*
X-457Y-1251D01*
X-465Y-1250D01*
X-615Y-1250D01*
Y-1177D01*
X-612Y-1173D01*
X-478D01*
Y-1170D01*
X-405D01*
Y-1130D01*
X335Y-1130D01*
Y-1240D01*
D02*
G37*
G36*
X-2335Y-700D02*
X-2450D01*
X-2550Y-800D01*
X-2650D01*
Y-700D01*
X-2550D01*
X-2450Y-600D01*
X-2335D01*
Y-700D01*
D02*
G37*
G36*
X2435Y500D02*
X2350D01*
X2300Y450D01*
X2175D01*
Y550D01*
X2300D01*
X2350Y600D01*
X2435D01*
Y500D01*
D02*
G37*
G36*
X2650Y600D02*
X2455D01*
X2454Y608D01*
X2449Y614D01*
X2443Y619D01*
X2435Y620D01*
X2350D01*
Y680D01*
X2650D01*
Y600D01*
D02*
G37*
G36*
X1789Y736D02*
X1790Y735D01*
X1797Y729D01*
X1805Y726D01*
Y684D01*
Y650D01*
Y624D01*
X1806Y618D01*
X1808Y611D01*
X1812Y606D01*
X1822Y597D01*
X1827Y593D01*
X1833Y590D01*
X1840Y589D01*
X1861D01*
X1864Y585D01*
X1864Y585D01*
Y577D01*
X1863Y577D01*
X1857Y574D01*
X1854Y572D01*
X1850Y570D01*
X1847Y572D01*
X1844Y574D01*
X1837Y577D01*
X1831Y577D01*
X1824Y577D01*
X1818Y574D01*
X1812Y570D01*
X1808Y565D01*
X1806Y558D01*
X1805Y552D01*
Y548D01*
X1802Y546D01*
X1800Y546D01*
X1793Y551D01*
X1784Y555D01*
X1775Y556D01*
X1766Y555D01*
X1757Y551D01*
X1750Y545D01*
X1744Y538D01*
X1740Y529D01*
X1739Y520D01*
X1740Y511D01*
X1744Y502D01*
X1750Y495D01*
X1757Y489D01*
X1766Y485D01*
X1775Y484D01*
X1784Y485D01*
X1793Y489D01*
X1793Y489D01*
X1798Y487D01*
Y461D01*
X1794D01*
Y401D01*
X1790Y400D01*
X1720D01*
X1720Y673D01*
X1784Y736D01*
X1789Y736D01*
D02*
G37*
G36*
X-2335Y-580D02*
X-2450D01*
X-2458Y-581D01*
X-2464Y-586D01*
X-2558Y-680D01*
X-2650D01*
Y-600D01*
X-2550D01*
X-2450Y-500D01*
X-2335D01*
Y-580D01*
D02*
G37*
G36*
X2650Y-400D02*
X2550D01*
X2450Y-500D01*
X2340D01*
Y-400D01*
X2450D01*
X2550Y-300D01*
X2650D01*
Y-400D01*
D02*
G37*
G36*
X1877Y427D02*
X1882Y423D01*
X1888Y420D01*
X1895Y419D01*
X1940D01*
X1947Y420D01*
X1953Y423D01*
X1958Y427D01*
X1973Y442D01*
X1978Y440D01*
X1979Y437D01*
X1942Y400D01*
X1859D01*
X1854Y401D01*
Y443D01*
X1859Y445D01*
X1877Y427D01*
D02*
G37*
G36*
X-2167Y-574D02*
X-2166Y-581D01*
X-2161Y-588D01*
X-2155Y-592D01*
X-2147Y-594D01*
X-2015D01*
X-2010Y-593D01*
X-2005Y-596D01*
Y-620D01*
X-2005Y-620D01*
X-2012Y-624D01*
X-2016Y-631D01*
X-2017Y-634D01*
X-2150D01*
X-2151Y-633D01*
X-2157Y-628D01*
X-2165Y-627D01*
X-2283D01*
Y-561D01*
X-2167D01*
Y-574D01*
D02*
G37*
G36*
X2332Y-519D02*
X2340Y-520D01*
X2450D01*
Y-600D01*
X2330Y-600D01*
X2280Y-650D01*
X2165Y-650D01*
Y-574D01*
X2155D01*
Y-550D01*
X2300D01*
X2332Y-518D01*
X2332Y-519D01*
D02*
G37*
G36*
X2650Y-980D02*
X2550D01*
X2542Y-981D01*
X2536Y-986D01*
X2442Y-1080D01*
X2340D01*
Y-1000D01*
X2450D01*
X2550Y-900D01*
X2650D01*
Y-980D01*
D02*
G37*
G36*
Y700D02*
X2350D01*
Y800D01*
X2650D01*
Y700D01*
D02*
G37*
G36*
Y-1100D02*
X2550D01*
X2464Y-1186D01*
X2458Y-1181D01*
X2450Y-1180D01*
X2350D01*
X2345Y-1181D01*
X2341Y-1179D01*
X2340Y-1177D01*
Y-1100D01*
X2450D01*
X2550Y-1000D01*
X2650D01*
Y-1100D01*
D02*
G37*
G36*
X-1770Y-310D02*
Y-347D01*
X-1775Y-349D01*
X-1799Y-324D01*
Y-301D01*
X-1859D01*
Y-341D01*
X-1864Y-343D01*
X-1880Y-327D01*
X-1886Y-323D01*
X-1892Y-320D01*
X-1898Y-319D01*
X-1980D01*
Y-310D01*
X-1940Y-270D01*
X-1809D01*
X-1770Y-310D01*
D02*
G37*
G36*
X2650Y-280D02*
X2550D01*
X2542Y-281D01*
X2536Y-286D01*
X2442Y-380D01*
X2340D01*
Y-300D01*
X2450D01*
X2550Y-200D01*
X2650D01*
Y-280D01*
D02*
G37*
G36*
X-2164Y-1126D02*
X-2160D01*
Y-1150D01*
X-2300Y-1150D01*
X-2331Y-1181D01*
X-2335Y-1180D01*
X-2450D01*
Y-1100D01*
X-2350D01*
X-2349Y-1099D01*
X-2336D01*
Y-1086D01*
X-2300Y-1050D01*
X-2164D01*
Y-1126D01*
D02*
G37*
G36*
X2151Y-367D02*
X2157Y-372D01*
X2165Y-373D01*
X2283D01*
Y-439D01*
X2167D01*
Y-426D01*
X2166Y-419D01*
X2161Y-412D01*
X2155Y-408D01*
X2147Y-406D01*
X2015D01*
X2010Y-407D01*
X2005Y-404D01*
Y-380D01*
X2005Y-380D01*
X2012Y-376D01*
X2012Y-376D01*
X2016Y-369D01*
X2017Y-366D01*
X2150D01*
X2151Y-367D01*
D02*
G37*
G36*
X-2165Y-426D02*
X-2160D01*
Y-450D01*
X-2300Y-450D01*
X-2331Y-481D01*
X-2335Y-480D01*
X-2450D01*
Y-400D01*
X-2350D01*
X-2349Y-399D01*
X-2336D01*
Y-386D01*
X-2300Y-350D01*
X-2165D01*
Y-426D01*
D02*
G37*
G36*
X2151Y-1067D02*
X2157Y-1072D01*
X2165Y-1073D01*
X2283D01*
Y-1139D01*
X2167D01*
Y-1126D01*
X2166Y-1118D01*
X2161Y-1112D01*
X2155Y-1108D01*
X2147Y-1106D01*
X2015D01*
X2010Y-1107D01*
X2005Y-1104D01*
Y-1080D01*
X2005Y-1080D01*
X2012Y-1076D01*
X2016Y-1069D01*
X2017Y-1066D01*
X2150D01*
X2151Y-1067D01*
D02*
G37*
G36*
X2149Y733D02*
X2156Y728D01*
X2164Y727D01*
X2283D01*
Y661D01*
X2167D01*
Y674D01*
X2166Y682D01*
X2161Y688D01*
X2155Y692D01*
X2147Y694D01*
X2011D01*
X2008Y693D01*
X2004Y696D01*
Y721D01*
X2004Y721D01*
X2005Y722D01*
X2006Y722D01*
X2008Y724D01*
X2011Y725D01*
X2011Y726D01*
X2012Y727D01*
X2013Y730D01*
X2015Y732D01*
X2015Y733D01*
X2016Y734D01*
X2016Y734D01*
X2148D01*
X2149Y733D01*
D02*
G37*
D10*
X-1900Y-1700D02*
D03*
Y-1750D02*
D03*
Y-1800D02*
D03*
X-1600D02*
D03*
Y-1750D02*
D03*
Y-1700D02*
D03*
D11*
X1829Y-669D02*
D03*
X1861D02*
D03*
X1824Y431D02*
D03*
X1856D02*
D03*
X-1829Y-1031D02*
D03*
X-1861D02*
D03*
X-1829Y-331D02*
D03*
X-1861D02*
D03*
X1829Y-1369D02*
D03*
X1861D02*
D03*
X444Y-1335D02*
D03*
X476D02*
D03*
D12*
X1980Y508D02*
D03*
Y544D02*
D03*
Y694D02*
D03*
Y658D02*
D03*
X1293Y-1325D02*
D03*
Y-1290D02*
D03*
X1250Y-1290D02*
D03*
Y-1325D02*
D03*
X-1984Y-1107D02*
D03*
Y-1143D02*
D03*
X-1985Y-407D02*
D03*
Y-443D02*
D03*
X1985Y-1293D02*
D03*
Y-1257D02*
D03*
Y-593D02*
D03*
Y-557D02*
D03*
X-1985Y-593D02*
D03*
Y-557D02*
D03*
X-1984Y-1293D02*
D03*
Y-1257D02*
D03*
X1985Y-407D02*
D03*
Y-443D02*
D03*
Y-1107D02*
D03*
Y-1143D02*
D03*
X565Y-1412D02*
D03*
Y-1448D02*
D03*
X608Y-1448D02*
D03*
Y-1412D02*
D03*
D13*
X2080Y486D02*
D03*
Y714D02*
D03*
X-2080Y-1086D02*
D03*
Y-1314D02*
D03*
X-2081Y-386D02*
D03*
Y-614D02*
D03*
X2081Y-1314D02*
D03*
Y-1086D02*
D03*
Y-614D02*
D03*
Y-386D02*
D03*
D14*
X1831Y518D02*
D03*
X1850D02*
D03*
X1870D02*
D03*
X1890D02*
D03*
X1909D02*
D03*
X1831Y684D02*
D03*
X1850D02*
D03*
X1870D02*
D03*
X1890D02*
D03*
X1909D02*
D03*
X-1836Y-1117D02*
D03*
X-1856D02*
D03*
X-1875D02*
D03*
X-1895D02*
D03*
X-1915D02*
D03*
X-1836Y-1283D02*
D03*
X-1856D02*
D03*
X-1875D02*
D03*
X-1895D02*
D03*
X-1915D02*
D03*
X-1837Y-417D02*
D03*
X-1857D02*
D03*
X-1876D02*
D03*
X-1896D02*
D03*
X-1916D02*
D03*
X-1837Y-583D02*
D03*
X-1857D02*
D03*
X-1876D02*
D03*
X-1896D02*
D03*
X-1916D02*
D03*
X1837Y-1283D02*
D03*
X1857D02*
D03*
X1876D02*
D03*
X1896D02*
D03*
X1916D02*
D03*
X1837Y-1117D02*
D03*
X1857D02*
D03*
X1876D02*
D03*
X1896D02*
D03*
X1916D02*
D03*
X1837Y-583D02*
D03*
X1857D02*
D03*
X1876D02*
D03*
X1896D02*
D03*
X1916D02*
D03*
X1837Y-417D02*
D03*
X1857D02*
D03*
X1876D02*
D03*
X1896D02*
D03*
X1916D02*
D03*
D15*
X1980Y585D02*
D03*
Y617D02*
D03*
X-850Y-400D02*
D03*
Y-431D02*
D03*
X850Y-1250D02*
D03*
Y-1281D02*
D03*
X1150D02*
D03*
Y-1250D02*
D03*
X1950Y-1684D02*
D03*
Y-1716D02*
D03*
X-1984Y-1184D02*
D03*
Y-1216D02*
D03*
X1985Y-1216D02*
D03*
Y-1184D02*
D03*
Y-516D02*
D03*
Y-484D02*
D03*
X-1985D02*
D03*
Y-516D02*
D03*
D16*
X-1900Y-1485D02*
D03*
Y-1445D02*
D03*
X-1835Y-1485D02*
D03*
Y-1445D02*
D03*
X200Y-2470D02*
D03*
Y-2430D02*
D03*
X450Y-2470D02*
D03*
Y-2430D02*
D03*
X-750Y-1189D02*
D03*
Y-1150D02*
D03*
X-800Y-1189D02*
D03*
Y-1150D02*
D03*
D17*
X2225Y694D02*
D03*
Y506D02*
D03*
X-2225Y-594D02*
D03*
Y-406D02*
D03*
X-2224Y-1106D02*
D03*
Y-1294D02*
D03*
X2225Y-594D02*
D03*
Y-406D02*
D03*
Y-1294D02*
D03*
Y-1106D02*
D03*
D18*
X-545Y-1134D02*
D03*
Y-1224D02*
D03*
Y-1315D02*
D03*
D19*
X-317Y-1224D02*
D03*
D20*
X2117Y1150D02*
D03*
X2483D02*
D03*
X-2117Y-1750D02*
D03*
X-2483D02*
D03*
X-2117Y41D02*
D03*
X-2483D02*
D03*
X2117Y-1800D02*
D03*
X2483D02*
D03*
X2117Y48D02*
D03*
X2483D02*
D03*
D21*
X-35Y-1465D02*
D03*
Y-1225D02*
D03*
D22*
X166Y-1312D02*
D03*
Y-1186D02*
D03*
X265Y-1312D02*
D03*
Y-1186D02*
D03*
D23*
X364Y-1413D02*
D03*
Y-1450D02*
D03*
Y-1487D02*
D03*
X466D02*
D03*
Y-1450D02*
D03*
Y-1413D02*
D03*
D24*
X195Y-1391D02*
D03*
Y-1509D02*
D03*
D25*
X1800Y-245D02*
Y-100D01*
Y-285D02*
Y-245D01*
X-1835Y-1485D02*
X-1790D01*
X-1900D02*
X-1835D01*
X-785Y-296D02*
X-656D01*
X-845Y-237D02*
Y-55D01*
Y-237D02*
X-785Y-296D01*
X-795Y-320D02*
X-680D01*
X-869Y-246D02*
X-795Y-320D01*
X-869Y-246D02*
Y-131D01*
X-656Y-296D02*
X-603Y-350D01*
X-600D01*
X-680Y-320D02*
X-650Y-350D01*
X-950Y-50D02*
X-869Y-131D01*
X-900Y0D02*
X-845Y-55D01*
X-1000Y0D02*
X-900D01*
X-1050Y50D02*
X-1000Y0D01*
X-105Y-1145D02*
Y-955D01*
X-660Y-400D02*
X-105Y-955D01*
X-850Y-400D02*
X-660D01*
X-1450Y-1800D02*
X-1300Y-1650D01*
X-1600Y-1800D02*
X-1450D01*
Y-1750D02*
X-1350Y-1650D01*
X-1600Y-1750D02*
X-1450D01*
Y-1700D02*
X-1400Y-1650D01*
X-1600Y-1700D02*
X-1450D01*
X-1090Y950D02*
X-1050D01*
X-1220Y820D02*
X-1090Y950D01*
X-1220Y-85D02*
Y820D01*
X-1080Y700D02*
X-1000D01*
X-1149Y631D02*
X-1080Y700D01*
X-1149Y-114D02*
Y631D01*
X-1381Y-211D02*
X-1246D01*
X-1173Y-105D02*
Y726D01*
X-1390Y-187D02*
X-1255D01*
X-1196Y-95D02*
Y739D01*
X-1400Y-164D02*
X-1265D01*
X-1246Y-211D02*
X-1149Y-114D01*
X-1255Y-187D02*
X-1173Y-105D01*
X-1265Y-164D02*
X-1196Y-95D01*
X-1275Y-140D02*
X-1220Y-85D01*
X-1410Y-140D02*
X-1275D01*
X-1460Y-290D02*
X-1381Y-211D01*
X-1510Y-307D02*
X-1390Y-187D01*
X-1534Y-297D02*
X-1400Y-164D01*
X-1560Y-290D02*
X-1410Y-140D01*
X-1460Y-350D02*
Y-290D01*
X-1510Y-500D02*
Y-307D01*
X-1534Y-976D02*
Y-297D01*
X-1560Y-1150D02*
Y-290D01*
X-1173Y726D02*
X-1103Y795D01*
X-1196Y739D02*
X-1085Y850D01*
X-1560Y-1150D02*
X-1460Y-1250D01*
X-1534Y-976D02*
X-1460Y-1050D01*
X-1510Y-500D02*
X-1460Y-550D01*
X-1085Y850D02*
X-1050D01*
X-1103Y795D02*
X-1000D01*
X-1460Y-650D02*
X-1200D01*
X-1457Y-447D02*
X-1305Y-600D01*
X-895D01*
X-1450Y-1150D02*
X-1050Y-750D01*
X-1385Y-1120D02*
X-1115Y-850D01*
X-1385Y-1315D02*
Y-1120D01*
X-1150Y-700D02*
X-1000D01*
X-1200Y-650D02*
X-1150Y-700D01*
X1803Y-1827D02*
Y-1697D01*
X1850Y-1650D01*
X-950Y845D02*
Y850D01*
X-1000Y795D02*
X-950Y845D01*
X-1000Y700D02*
X-950Y750D01*
X-860Y-825D02*
Y-635D01*
X-950Y-850D02*
X-885D01*
X-860Y-825D01*
X-1000Y-700D02*
X-950Y-750D01*
X1840Y580D02*
X1850Y570D01*
Y518D02*
Y570D01*
X1934Y684D02*
X1935Y685D01*
X1909Y684D02*
X1934D01*
X1975Y-275D02*
Y-160D01*
X1900Y-350D02*
X1975Y-275D01*
X1850Y-350D02*
X1900D01*
X1915Y-100D02*
X1975Y-160D01*
X1800Y-350D02*
X1850Y-300D01*
X1900D01*
X1925Y-275D01*
Y-200D01*
X1910Y-185D02*
X1925Y-200D01*
X1875Y-185D02*
X1910D01*
X1865Y-175D02*
X1875Y-185D01*
X1865Y-175D02*
Y-100D01*
X1800Y-245D02*
X1880D01*
X1829Y-590D02*
X1837Y-583D01*
X1833D02*
X1837D01*
X1825Y-575D02*
X1833Y-583D01*
X1825Y-575D02*
Y-525D01*
X1855Y-495D01*
X1880D01*
X1896Y-479D01*
Y-417D01*
X1775Y520D02*
X1777Y518D01*
X1831D01*
X1880Y615D02*
X1890Y625D01*
X1840Y615D02*
X1880D01*
X1831Y624D02*
X1840Y615D01*
X1831Y624D02*
Y684D01*
X1890Y625D02*
Y684D01*
X1870Y750D02*
Y770D01*
X1850Y730D02*
X1870Y750D01*
X1850Y684D02*
Y730D01*
X1815Y760D02*
X1831Y744D01*
Y684D02*
Y744D01*
X1922Y617D02*
X1980D01*
X1890Y585D02*
X1922Y617D01*
X1890Y518D02*
Y585D01*
X1980Y485D02*
Y508D01*
X1940Y445D02*
X1980Y485D01*
X1895Y445D02*
X1940D01*
X1870Y470D02*
X1895Y445D01*
X1870Y470D02*
Y518D01*
X1909D02*
Y564D01*
X1930Y585D01*
X1980D01*
Y617D02*
Y658D01*
Y544D02*
Y585D01*
X2002Y486D02*
X2080D01*
X1980Y508D02*
X2002Y486D01*
X2001Y714D02*
X2080D01*
X1980Y694D02*
X2001Y714D01*
X1850Y437D02*
X1856Y431D01*
X1850Y437D02*
Y518D01*
X1824Y431D02*
Y512D01*
X1831Y518D01*
X-1865Y-750D02*
X-1775D01*
Y-385D01*
X-1896Y-719D02*
X-1865Y-750D01*
X-1896Y-719D02*
Y-583D01*
X1755Y-330D02*
X1800Y-285D01*
X1755Y-595D02*
Y-330D01*
X1886Y-970D02*
X1906Y-989D01*
X1815Y-970D02*
X1886D01*
X1760Y-1025D02*
X1815Y-970D01*
X1760Y-1300D02*
Y-1025D01*
X850Y-1050D02*
X900Y-1100D01*
X850Y-1050D02*
Y-800D01*
X900Y-750D01*
X950D01*
Y-950D02*
X1000Y-900D01*
X950Y-1050D02*
X1000Y-1000D01*
X1342Y-1250D02*
X1460D01*
X850Y-250D02*
Y540D01*
X811Y579D02*
X850Y540D01*
X811Y579D02*
Y1335D01*
X835Y590D02*
X875Y550D01*
X835Y590D02*
Y1325D01*
X875Y550D02*
X950D01*
X811Y1335D02*
X942Y1466D01*
X908Y650D02*
X950D01*
X859Y698D02*
X908Y650D01*
X859Y698D02*
Y1314D01*
X991Y1446D01*
X835Y1325D02*
X966Y1456D01*
X850Y-250D02*
X950Y-350D01*
Y350D02*
X1000Y400D01*
X950Y150D02*
X1000Y100D01*
X-1000Y-400D02*
X-850D01*
X-1050Y-350D02*
X-1000Y-400D01*
X608Y-1412D02*
Y-1293D01*
X515Y-1200D02*
X608Y-1293D01*
X565Y-1412D02*
Y-1325D01*
X510Y-1270D02*
X565Y-1325D01*
X390Y-1270D02*
X510D01*
X1250Y-1290D02*
X1250Y-1290D01*
X1293D01*
Y-1398D02*
X1375Y-1480D01*
X1293Y-1398D02*
Y-1325D01*
X1050Y-1250D02*
X1150D01*
X950D02*
X1050D01*
X850D02*
X950D01*
X755Y-1155D02*
X850Y-1250D01*
X325Y-1155D02*
X755D01*
X325Y-1200D02*
X515D01*
X-900Y950D02*
X750Y-700D01*
X-950Y950D02*
X-900D01*
X1800Y-1080D02*
X1837Y-1117D01*
X1800Y-1045D02*
X1800Y-1080D01*
X1857Y-1117D02*
Y-1057D01*
X1850Y-1050D02*
X1857Y-1057D01*
X1896Y-1064D02*
X1906Y-1054D01*
X1896Y-1117D02*
Y-1064D01*
X1850Y-350D02*
X1857Y-357D01*
Y-417D02*
Y-357D01*
X1800Y-386D02*
X1834Y-420D01*
X1800Y-386D02*
Y-350D01*
X1896Y-417D02*
X1916D01*
X1913Y-670D02*
X2075D01*
X1876Y-633D02*
X1913Y-670D01*
X1876Y-633D02*
Y-583D01*
X1913Y-1370D02*
X2065D01*
X1876Y-1333D02*
X1913Y-1370D01*
X1876Y-1333D02*
Y-1283D01*
X-2070Y-1086D02*
X-2005D01*
X-2070D02*
X-2014Y-1030D01*
X-1915D01*
X-1875Y-1070D01*
Y-1117D02*
Y-1070D01*
X-1898Y-345D02*
X-1876Y-367D01*
X-2041Y-345D02*
X-1898D01*
X-2081Y-386D02*
X-2041Y-345D01*
X-1876Y-417D02*
Y-367D01*
X466Y-1450D02*
X515D01*
X466Y-1487D02*
X569D01*
X608Y-1448D01*
X565Y-1448D02*
X565Y-1448D01*
X608D01*
X466Y-1413D02*
X507D01*
X530Y-1390D01*
Y-1355D01*
X510Y-1335D02*
X530Y-1355D01*
X476Y-1335D02*
X510D01*
X385D02*
X444D01*
X-1836Y-1364D02*
X-1835Y-1405D01*
X-1836Y-1364D02*
Y-1283D01*
X-1900Y-1400D02*
X-1856Y-1356D01*
Y-1283D01*
X1834Y-420D02*
X1837Y-417D01*
X1857Y-665D02*
X1861Y-669D01*
X1857Y-665D02*
Y-583D01*
X-2005Y-1086D02*
X-1984Y-1107D01*
Y-1184D02*
Y-1143D01*
Y-1257D02*
Y-1216D01*
X-1984Y-1257D02*
X-1984Y-1257D01*
X-2005Y-1314D02*
X-1984Y-1293D01*
X-2080Y-1314D02*
X-2005D01*
X-1984Y-1216D02*
X-1943D01*
X-1895Y-1167D02*
Y-1117D01*
X-1943Y-1216D02*
X-1895Y-1167D01*
X-1984Y-1184D02*
X-1982D01*
X-1915Y-1117D01*
X-1856D02*
Y-1036D01*
X-1861Y-1031D02*
X-1856Y-1036D01*
X-2081Y-614D02*
X-2006D01*
X-1985Y-593D01*
Y-557D02*
Y-516D01*
X-1985Y-516D01*
X-1946D01*
X-1896Y-466D01*
Y-417D01*
X-1985Y-484D02*
X-1918Y-417D01*
X-1916D01*
X-2081Y-386D02*
X-2006D01*
X-1985Y-407D01*
Y-484D02*
Y-443D01*
X1857Y-1365D02*
Y-1283D01*
Y-1365D02*
X1861Y-1369D01*
X2006Y-1086D02*
X2081D01*
X1985Y-1107D02*
X2006Y-1086D01*
X1985Y-1184D02*
Y-1143D01*
X1985Y-1293D02*
X2006Y-1314D01*
X2081D01*
X2006Y-614D02*
X2081D01*
X1985Y-593D02*
X2006Y-614D01*
X1985Y-557D02*
Y-516D01*
Y-484D02*
Y-443D01*
X1985Y-443D01*
Y-407D02*
X2006Y-386D01*
X2081D01*
X1953Y-484D02*
X1985D01*
X1896Y-541D02*
X1953Y-484D01*
X1896Y-583D02*
Y-541D01*
Y-583D02*
X1896Y-583D01*
X1916D02*
X1983Y-516D01*
X1985D01*
X-1861Y-331D02*
X-1857Y-335D01*
Y-417D02*
Y-335D01*
X1985Y-1257D02*
Y-1216D01*
X1983D02*
X1985D01*
X1896Y-1283D02*
Y-1233D01*
X1944Y-1184D01*
X1985D01*
X1861Y-669D02*
X1881Y-690D01*
X-1857Y-657D02*
Y-583D01*
X-1865Y-665D02*
X-1857Y-657D01*
X-1865Y-670D02*
Y-665D01*
X-1837Y-583D02*
X-1835Y-584D01*
X-1915Y-1283D02*
X-1895D01*
X-1856Y-1189D02*
Y-1117D01*
Y-1189D02*
X-1850Y-1195D01*
X-1896Y-295D02*
X-1861Y-331D01*
X-1910Y-295D02*
X-1896D01*
X-1943Y-583D02*
X-1916D01*
X-1945Y-585D02*
X-1943Y-583D01*
X1916Y-1117D02*
X1918Y-1115D01*
X1916Y-1174D02*
Y-1117D01*
X1900Y-1190D02*
X1916Y-1174D01*
X1875Y-1190D02*
X1900D01*
X1857Y-1208D02*
X1875Y-1190D01*
X1857Y-1283D02*
Y-1208D01*
Y-1283D02*
X1857Y-1283D01*
X750Y-700D02*
X1100D01*
X1000Y400D02*
X1075D01*
X1050Y350D02*
X1092D01*
X1135Y306D01*
X1075Y400D02*
X1159Y316D01*
X1050Y50D02*
X1140D01*
X1000Y100D02*
X1123D01*
X1050Y150D02*
X1115D01*
X1135Y175D02*
Y306D01*
X1159Y206D02*
Y316D01*
X1829Y-1369D02*
Y-1290D01*
X1837Y-1283D01*
X1829Y-669D02*
Y-590D01*
X-1836Y-1117D02*
X-1829Y-1111D01*
Y-1031D01*
Y-410D02*
Y-331D01*
X-1837Y-417D02*
X-1829Y-410D01*
X450Y-2600D02*
Y-2470D01*
X450Y-2470D01*
X200Y-2600D02*
Y-2470D01*
X200Y-2470D01*
Y-2430D02*
X450D01*
Y-2090D01*
X445Y-2085D02*
X450Y-2090D01*
X-626Y-1224D02*
X-545D01*
X-700Y-1150D02*
X-626Y-1224D01*
X-1050Y-1150D02*
X-950D01*
X-800D01*
X-750D01*
X-700D01*
X-1829Y-1031D02*
X-1790Y-1070D01*
Y-1485D02*
Y-1070D01*
X-1790Y-1485D02*
X-1790Y-1485D01*
X-1900Y-1445D02*
Y-1400D01*
X-1900Y-1400D02*
X-1900Y-1400D01*
X-1835Y-1445D02*
Y-1405D01*
X-1835Y-1445D02*
X-1835Y-1445D01*
X-1835Y-690D02*
Y-584D01*
Y-690D02*
X-1820Y-705D01*
X-1829Y-331D02*
X-1775Y-385D01*
X1760Y-1300D02*
X1829Y-1369D01*
X1755Y-595D02*
X1829Y-669D01*
X-1895Y-1283D02*
Y-1220D01*
Y-1283D02*
X-1895Y-1283D01*
X900Y-2000D02*
Y-1800D01*
X795Y-2000D02*
Y-1805D01*
X-1460Y-1150D02*
X-1450D01*
X-1115Y-850D02*
X-1050D01*
X-1460Y-1350D02*
X-1420D01*
X-1385Y-1315D01*
X-895Y-600D02*
X-860Y-635D01*
X1140Y50D02*
X1235Y-45D01*
X1123Y100D02*
X1259Y-35D01*
X1159Y206D02*
X1329Y36D01*
X1135Y175D02*
X1306Y4D01*
X1115Y150D02*
X1282Y-17D01*
X1460Y-1150D02*
X1500D01*
X1370Y-1200D02*
X1500D01*
X1460Y-1350D02*
X1505D01*
X1530Y-1325D01*
Y-1230D01*
X1500Y-1200D02*
X1530Y-1230D01*
X1500Y-1150D02*
X1525Y-1125D01*
X1430Y-980D02*
X1495D01*
X1525Y-1010D01*
Y-1125D02*
Y-1010D01*
X1460Y-550D02*
X1525Y-485D01*
Y-325D01*
X1485Y-285D02*
X1525Y-325D01*
X1460Y-450D02*
Y-444D01*
X1384Y-934D02*
X1430Y-980D01*
X1384Y-934D02*
Y-435D01*
X1235Y-286D02*
Y-45D01*
X1259Y-276D02*
Y-35D01*
X1282Y-266D02*
Y-17D01*
X1235Y-286D02*
X1384Y-435D01*
X1259Y-276D02*
X1408Y-425D01*
X1282Y-266D02*
X1460Y-444D01*
X1329Y-244D02*
Y36D01*
Y-244D02*
X1370Y-285D01*
X1485D01*
X1306Y-254D02*
Y4D01*
Y-254D02*
X1402Y-350D01*
X1460D01*
X1408Y-598D02*
Y-425D01*
Y-598D02*
X1460Y-650D01*
X1238Y-1277D02*
X1250Y-1290D01*
X1261Y-1170D02*
X1342Y-1250D01*
X1000Y-900D02*
X1225D01*
X1000Y-1000D02*
X1200D01*
X900Y-1800D02*
X1214Y-1486D01*
X1050Y-1050D02*
X1128D01*
X795Y-1805D02*
X1190Y-1410D01*
X900Y-1100D02*
X1145D01*
X1190Y-1145D01*
Y-1410D02*
Y-1145D01*
X1128Y-1050D02*
X1214Y-1136D01*
Y-1486D02*
Y-1136D01*
X1238Y-1277D02*
Y-1038D01*
X1200Y-1000D02*
X1238Y-1038D01*
X1261Y-1170D02*
Y-936D01*
X1225Y-900D02*
X1261Y-936D01*
X1285Y-1115D02*
X1370Y-1200D01*
X1285Y-1115D02*
Y-885D01*
X1100Y-700D02*
X1285Y-885D01*
X1050Y550D02*
X1150Y450D01*
X1460D01*
X942Y1466D02*
Y2742D01*
X966Y1456D02*
Y2689D01*
X991Y1446D02*
Y2591D01*
X1050Y2650D01*
X1150D01*
X966Y2689D02*
X1027Y2750D01*
X1150D01*
Y2550D02*
X1190D01*
X942Y2742D02*
X1000Y2800D01*
X1190Y2550D02*
X1205Y2565D01*
X1000Y2800D02*
X1175D01*
X1205Y2770D01*
Y2565D02*
Y2770D01*
X1906Y-1054D02*
Y-989D01*
X1918Y-1115D02*
X1945D01*
X1916Y-1283D02*
X1983Y-1216D01*
D26*
X1916Y-1750D02*
X1950Y-1716D01*
X1850Y-1750D02*
X1916D01*
X1360Y-950D02*
X1460Y-1050D01*
X1360Y-950D02*
Y-445D01*
X1050Y-350D02*
X1265D01*
X1360Y-445D01*
D27*
X-500Y-2200D02*
D03*
X-776D02*
D03*
D28*
X1150Y2750D02*
D03*
Y2650D02*
D03*
Y2550D02*
D03*
Y2450D02*
D03*
Y2350D02*
D03*
Y2250D02*
D03*
Y2150D02*
D03*
Y2050D02*
D03*
Y1950D02*
D03*
Y1850D02*
D03*
Y1750D02*
D03*
X-1150Y2750D02*
D03*
Y2650D02*
D03*
Y2550D02*
D03*
Y2450D02*
D03*
Y2350D02*
D03*
Y2250D02*
D03*
Y2150D02*
D03*
Y2050D02*
D03*
Y1950D02*
D03*
Y1850D02*
D03*
Y1750D02*
D03*
X2385Y-550D02*
D03*
Y-450D02*
D03*
Y-350D02*
D03*
Y-1250D02*
D03*
Y-1150D02*
D03*
Y-1050D02*
D03*
X1460Y-1150D02*
D03*
Y-1250D02*
D03*
Y-1350D02*
D03*
X-2385Y-450D02*
D03*
Y-550D02*
D03*
Y-650D02*
D03*
X-1460Y-550D02*
D03*
Y-450D02*
D03*
Y-350D02*
D03*
X-2385Y-1150D02*
D03*
Y-1250D02*
D03*
Y-1350D02*
D03*
X-1460Y-1250D02*
D03*
Y-1150D02*
D03*
Y-1050D02*
D03*
X1460Y-450D02*
D03*
Y-550D02*
D03*
Y-650D02*
D03*
X2385Y450D02*
D03*
Y550D02*
D03*
Y650D02*
D03*
X1460Y450D02*
D03*
Y550D02*
D03*
Y650D02*
D03*
X950Y-2605D02*
D03*
X1050D02*
D03*
X700Y-2600D02*
D03*
X800D02*
D03*
X550D02*
D03*
X450D02*
D03*
X300D02*
D03*
X200D02*
D03*
X2594Y750D02*
D03*
Y650D02*
D03*
X1550Y-1650D02*
D03*
X1650D02*
D03*
X1750D02*
D03*
Y-1750D02*
D03*
X1650D02*
D03*
X1550D02*
D03*
D29*
X1150Y1650D02*
D03*
X-1150D02*
D03*
X2385Y-650D02*
D03*
Y-1350D02*
D03*
X1460Y-1050D02*
D03*
X-2385Y-350D02*
D03*
X-1460Y-650D02*
D03*
X-2385Y-1050D02*
D03*
X-1460Y-1350D02*
D03*
X1460Y-350D02*
D03*
X2385Y750D02*
D03*
X1460D02*
D03*
D30*
X3087Y-0D02*
D03*
X-3087D02*
D03*
D31*
X-1937Y-2346D02*
D03*
X-1260Y2842D02*
D03*
X1260D02*
D03*
X1937Y-2346D02*
D03*
D32*
X-1050Y1050D02*
D03*
X-950D02*
D03*
X-1050Y950D02*
D03*
X-950D02*
D03*
X-1050Y850D02*
D03*
X-950D02*
D03*
X-1050Y750D02*
D03*
X-950D02*
D03*
X-1050Y650D02*
D03*
X-950D02*
D03*
X-1050Y550D02*
D03*
X-950D02*
D03*
X-1050Y450D02*
D03*
X-950D02*
D03*
X-1050Y350D02*
D03*
X-950D02*
D03*
X-1050Y250D02*
D03*
X-950D02*
D03*
X-1050Y150D02*
D03*
X-950D02*
D03*
X-1050Y50D02*
D03*
X-950D02*
D03*
X-1050Y-50D02*
D03*
X-950D02*
D03*
X-1050Y-150D02*
D03*
X-950D02*
D03*
X-1050Y-250D02*
D03*
X-950D02*
D03*
X-1050Y-350D02*
D03*
X-950D02*
D03*
X-1050Y-450D02*
D03*
X-950D02*
D03*
X-1050Y-550D02*
D03*
X-950D02*
D03*
X-1050Y-650D02*
D03*
X-950D02*
D03*
X-1050Y-750D02*
D03*
X-950D02*
D03*
X-1050Y-850D02*
D03*
X-950D02*
D03*
X-1050Y-950D02*
D03*
X-950D02*
D03*
X-1050Y-1050D02*
D03*
X-950D02*
D03*
X-1050Y-1150D02*
D03*
X-950D02*
D03*
X-1050Y-1250D02*
D03*
X-950D02*
D03*
X-1050Y-1350D02*
D03*
X950Y1050D02*
D03*
X1050D02*
D03*
X950Y950D02*
D03*
X1050D02*
D03*
X950Y850D02*
D03*
X1050D02*
D03*
X950Y750D02*
D03*
X1050D02*
D03*
X950Y650D02*
D03*
X1050D02*
D03*
X950Y550D02*
D03*
X1050D02*
D03*
X950Y450D02*
D03*
X1050D02*
D03*
X950Y350D02*
D03*
X1050D02*
D03*
X950Y250D02*
D03*
X1050D02*
D03*
X950Y150D02*
D03*
X1050D02*
D03*
X950Y50D02*
D03*
X1050D02*
D03*
X950Y-50D02*
D03*
X1050D02*
D03*
X950Y-150D02*
D03*
X1050D02*
D03*
X950Y-250D02*
D03*
X1050D02*
D03*
X950Y-350D02*
D03*
X1050D02*
D03*
X950Y-450D02*
D03*
X1050D02*
D03*
X950Y-550D02*
D03*
X1050D02*
D03*
X950Y-650D02*
D03*
X1050D02*
D03*
X950Y-750D02*
D03*
X1050D02*
D03*
X950Y-850D02*
D03*
X1050D02*
D03*
X950Y-950D02*
D03*
X1050D02*
D03*
X950Y-1050D02*
D03*
X1050D02*
D03*
X950Y-1150D02*
D03*
X1050D02*
D03*
X950Y-1250D02*
D03*
X1050D02*
D03*
X950Y-1350D02*
D03*
X2600Y-950D02*
D03*
Y-1050D02*
D03*
Y-1150D02*
D03*
Y-1250D02*
D03*
Y-1350D02*
D03*
Y-1450D02*
D03*
Y-250D02*
D03*
Y-350D02*
D03*
Y-450D02*
D03*
Y-550D02*
D03*
Y-650D02*
D03*
Y-750D02*
D03*
X-2600D02*
D03*
Y-650D02*
D03*
Y-550D02*
D03*
Y-450D02*
D03*
Y-350D02*
D03*
Y-250D02*
D03*
Y-1450D02*
D03*
Y-1350D02*
D03*
Y-1250D02*
D03*
Y-1150D02*
D03*
Y-1050D02*
D03*
Y-950D02*
D03*
D33*
X-950Y-1350D02*
D03*
X1050D02*
D03*
D34*
X-1500Y-2359D02*
D03*
Y-2641D02*
D03*
D35*
X1850Y-1650D02*
D03*
Y-1750D02*
D03*
D36*
X-600Y-350D02*
D03*
X-650D02*
D03*
X-1300Y-1650D02*
D03*
X-1350D02*
D03*
X-1400D02*
D03*
X2792Y1189D02*
D03*
X2989Y795D02*
D03*
X2792Y401D02*
D03*
Y-386D02*
D03*
X2989Y-780D02*
D03*
X2398Y1976D02*
D03*
X2595Y1582D02*
D03*
X2398Y-1961D02*
D03*
X2201Y2370D02*
D03*
X2004Y1976D02*
D03*
X2201Y1582D02*
D03*
Y-780D02*
D03*
X2004Y-1961D02*
D03*
X2201Y-2355D02*
D03*
X1611Y2764D02*
D03*
X1808Y2370D02*
D03*
X1611Y1976D02*
D03*
X1808Y1582D02*
D03*
X1611Y1189D02*
D03*
X1808Y-2355D02*
D03*
X1611Y-2748D02*
D03*
X1414Y2370D02*
D03*
Y1582D02*
D03*
X1217Y1189D02*
D03*
Y401D02*
D03*
X1414Y8D02*
D03*
Y-2355D02*
D03*
X1217Y-2748D02*
D03*
X823Y2764D02*
D03*
Y1976D02*
D03*
X1020Y-2355D02*
D03*
X823Y-2748D02*
D03*
X430Y2764D02*
D03*
X626Y2370D02*
D03*
X430Y1976D02*
D03*
X626Y1582D02*
D03*
X430Y1189D02*
D03*
X626Y795D02*
D03*
X430Y401D02*
D03*
X626Y8D02*
D03*
Y-780D02*
D03*
X430Y-1961D02*
D03*
X626Y-2355D02*
D03*
X430Y-2748D02*
D03*
X36Y2764D02*
D03*
X233Y2370D02*
D03*
X36Y1976D02*
D03*
X233Y1582D02*
D03*
X36Y1189D02*
D03*
X233Y795D02*
D03*
X36Y401D02*
D03*
X233Y8D02*
D03*
X36Y-386D02*
D03*
X233Y-780D02*
D03*
X36Y-1961D02*
D03*
X233Y-2355D02*
D03*
X36Y-2748D02*
D03*
X-358Y2764D02*
D03*
X-161Y2370D02*
D03*
X-358Y1976D02*
D03*
X-161Y1582D02*
D03*
X-358Y1189D02*
D03*
X-161Y795D02*
D03*
Y8D02*
D03*
X-358Y-386D02*
D03*
Y-1961D02*
D03*
X-161Y-2355D02*
D03*
X-358Y-2748D02*
D03*
X-752Y2764D02*
D03*
X-555Y2370D02*
D03*
X-752Y1976D02*
D03*
X-555Y1582D02*
D03*
X-752Y1189D02*
D03*
X-555Y795D02*
D03*
X-752Y401D02*
D03*
X-555Y8D02*
D03*
Y-780D02*
D03*
X-752Y-1961D02*
D03*
X-555Y-2355D02*
D03*
X-752Y-2748D02*
D03*
X-948Y2370D02*
D03*
Y1582D02*
D03*
X-1145Y1189D02*
D03*
Y-1174D02*
D03*
Y-1961D02*
D03*
X-948Y-2355D02*
D03*
X-1145Y-2748D02*
D03*
X-1539Y2764D02*
D03*
X-1342Y2370D02*
D03*
X-1539Y1976D02*
D03*
Y1189D02*
D03*
Y-1961D02*
D03*
X-1736Y2370D02*
D03*
X-1933Y1976D02*
D03*
X-1736Y1582D02*
D03*
X-1933Y1189D02*
D03*
Y401D02*
D03*
Y-1961D02*
D03*
X-1736Y-2355D02*
D03*
X-2129Y2370D02*
D03*
X-2326Y1976D02*
D03*
X-2129Y1582D02*
D03*
X-2326Y1189D02*
D03*
X-2129Y795D02*
D03*
X-2326Y401D02*
D03*
Y-1961D02*
D03*
X-2129Y-2355D02*
D03*
X-2523Y1582D02*
D03*
X-2720Y1189D02*
D03*
X-2523Y795D02*
D03*
X-2720Y401D02*
D03*
Y-386D02*
D03*
X-2523Y-1567D02*
D03*
X-2917Y795D02*
D03*
X-3114Y401D02*
D03*
Y-386D02*
D03*
X1745Y425D02*
D03*
X1750Y-700D02*
D03*
X1915Y-100D02*
D03*
X1865D02*
D03*
X1775Y520D02*
D03*
X1870Y770D02*
D03*
X1815Y760D02*
D03*
X1800Y-100D02*
D03*
X900Y-2000D02*
D03*
X795D02*
D03*
X1035Y-1750D02*
D03*
X960Y-1825D02*
D03*
X-2225Y-740D02*
D03*
D37*
X1880Y-245D02*
D03*
X-1775Y-750D02*
D03*
X1905Y-1005D02*
D03*
X-185Y-1174D02*
D03*
Y-1268D02*
D03*
X-232Y-1174D02*
D03*
X-208Y-1221D02*
D03*
X-232Y-1268D02*
D03*
X1800Y-1045D02*
D03*
X1850Y-1050D02*
D03*
Y-350D02*
D03*
X1800D02*
D03*
X365Y-1550D02*
D03*
X515Y-1450D02*
D03*
X-1900Y-1400D02*
D03*
X-1835Y-1405D02*
D03*
X385Y-1335D02*
D03*
X310Y-1435D02*
D03*
X280D02*
D03*
Y-1465D02*
D03*
X310D02*
D03*
X100Y-1475D02*
D03*
Y-1445D02*
D03*
X70D02*
D03*
Y-1475D02*
D03*
X-1910Y-295D02*
D03*
X-1865Y-670D02*
D03*
X-1790Y-1485D02*
D03*
X-1820Y-705D02*
D03*
%TF.MD5,d5ecf49e12ac9063238dd3947028f6db*%
M02*
