G04 Layer_Color=32896*
%FSLAX23Y23*%
%MOIN*%
%TF.FileFunction,Legend,Bot*%
%TF.Part,Single*%
G01*
G75*
%TA.AperFunction,NonConductor*%
%ADD38C,0.010*%
D38*
X2480Y-1586D02*
X2489Y-1596D01*
X2509D01*
X2519Y-1586D01*
Y-1546D01*
X2509Y-1536D01*
X2489D01*
X2480Y-1546D01*
Y-1586D01*
X2579Y-1596D02*
X2559Y-1586D01*
X2539Y-1566D01*
Y-1546D01*
X2549Y-1536D01*
X2569D01*
X2579Y-1546D01*
Y-1556D01*
X2569Y-1566D01*
X2539D01*
X2599Y-1576D02*
X2639Y-1536D01*
X2619Y-1556D01*
X2639Y-1576D01*
X2599Y-1536D01*
X2659Y-1586D02*
X2669Y-1596D01*
X2689D01*
X2699Y-1586D01*
Y-1546D01*
X2689Y-1536D01*
X2669D01*
X2659Y-1546D01*
Y-1586D01*
X2719Y-1536D02*
X2739D01*
X2729D01*
Y-1596D01*
X2719Y-1586D01*
X2769Y-1527D02*
X2809D01*
X2869Y-1586D02*
X2859Y-1596D01*
X2839D01*
X2829Y-1586D01*
Y-1546D01*
X2839Y-1536D01*
X2859D01*
X2869Y-1546D01*
X2899Y-1536D02*
X2919D01*
X2929Y-1546D01*
Y-1566D01*
X2919Y-1576D01*
X2899D01*
X2889Y-1566D01*
Y-1546D01*
X2899Y-1536D01*
X2949D02*
Y-1576D01*
X2979D01*
X2989Y-1566D01*
Y-1536D01*
X3039D02*
X3019D01*
X3009Y-1546D01*
Y-1566D01*
X3019Y-1576D01*
X3039D01*
X3049Y-1566D01*
Y-1556D01*
X3009D01*
X3109Y-1576D02*
X3079D01*
X3069Y-1566D01*
Y-1546D01*
X3079Y-1536D01*
X3109D01*
X3139Y-1586D02*
Y-1576D01*
X3129D01*
X3149D01*
X3139D01*
Y-1546D01*
X3149Y-1536D01*
X3189D02*
X3209D01*
X3219Y-1546D01*
Y-1566D01*
X3209Y-1576D01*
X3189D01*
X3179Y-1566D01*
Y-1546D01*
X3189Y-1536D01*
X3239Y-1576D02*
Y-1536D01*
Y-1556D01*
X3249Y-1566D01*
X3259Y-1576D01*
X3269D01*
X3299Y-1527D02*
X3339D01*
X3359Y-1536D02*
Y-1596D01*
X3379Y-1576D01*
X3399Y-1596D01*
Y-1536D01*
X3429Y-1576D02*
X3449D01*
X3459Y-1566D01*
Y-1536D01*
X3429D01*
X3419Y-1546D01*
X3429Y-1556D01*
X3459D01*
X3479Y-1536D02*
X3499D01*
X3489D01*
Y-1596D01*
X3479D01*
X3559Y-1536D02*
X3539D01*
X3529Y-1546D01*
Y-1566D01*
X3539Y-1576D01*
X3559D01*
X3569Y-1566D01*
Y-1556D01*
X3529D01*
X3589Y-1527D02*
X3629D01*
X3649Y-1536D02*
Y-1596D01*
X3669Y-1576D01*
X3689Y-1596D01*
Y-1536D01*
X3749D02*
X3709D01*
X3749Y-1576D01*
Y-1586D01*
X3739Y-1596D01*
X3719D01*
X3709Y-1586D01*
X-2480Y-114D02*
X-2489Y-104D01*
X-2509D01*
X-2519Y-114D01*
Y-154D01*
X-2509Y-163D01*
X-2489D01*
X-2480Y-154D01*
Y-114D01*
X-2579Y-104D02*
X-2559Y-114D01*
X-2539Y-134D01*
Y-154D01*
X-2549Y-163D01*
X-2569D01*
X-2579Y-154D01*
Y-144D01*
X-2569Y-134D01*
X-2539D01*
X-2599Y-124D02*
X-2639Y-163D01*
X-2619Y-144D01*
X-2639Y-124D01*
X-2599Y-163D01*
X-2659Y-114D02*
X-2669Y-104D01*
X-2689D01*
X-2699Y-114D01*
Y-154D01*
X-2689Y-163D01*
X-2669D01*
X-2659Y-154D01*
Y-114D01*
X-2719Y-163D02*
X-2739D01*
X-2729D01*
Y-104D01*
X-2719Y-114D01*
X-2769Y-173D02*
X-2809D01*
X-2869Y-114D02*
X-2859Y-104D01*
X-2839D01*
X-2829Y-114D01*
Y-154D01*
X-2839Y-163D01*
X-2859D01*
X-2869Y-154D01*
X-2899Y-163D02*
X-2919D01*
X-2929Y-154D01*
Y-134D01*
X-2919Y-124D01*
X-2899D01*
X-2889Y-134D01*
Y-154D01*
X-2899Y-163D01*
X-2949D02*
Y-124D01*
X-2979D01*
X-2989Y-134D01*
Y-163D01*
X-3039D02*
X-3019D01*
X-3009Y-154D01*
Y-134D01*
X-3019Y-124D01*
X-3039D01*
X-3049Y-134D01*
Y-144D01*
X-3009D01*
X-3109Y-124D02*
X-3079D01*
X-3069Y-134D01*
Y-154D01*
X-3079Y-163D01*
X-3109D01*
X-3139Y-114D02*
Y-124D01*
X-3129D01*
X-3149D01*
X-3139D01*
Y-154D01*
X-3149Y-163D01*
X-3189D02*
X-3209D01*
X-3219Y-154D01*
Y-134D01*
X-3209Y-124D01*
X-3189D01*
X-3179Y-134D01*
Y-154D01*
X-3189Y-163D01*
X-3239Y-124D02*
Y-163D01*
Y-144D01*
X-3249Y-134D01*
X-3259Y-124D01*
X-3269D01*
X-3299Y-173D02*
X-3339D01*
X-3359Y-163D02*
Y-104D01*
X-3379Y-124D01*
X-3399Y-104D01*
Y-163D01*
X-3429Y-124D02*
X-3449D01*
X-3459Y-134D01*
Y-163D01*
X-3429D01*
X-3419Y-154D01*
X-3429Y-144D01*
X-3459D01*
X-3479Y-163D02*
X-3499D01*
X-3489D01*
Y-104D01*
X-3479D01*
X-3559Y-163D02*
X-3539D01*
X-3529Y-154D01*
Y-134D01*
X-3539Y-124D01*
X-3559D01*
X-3569Y-134D01*
Y-144D01*
X-3529D01*
X-3589Y-173D02*
X-3629D01*
X-3649Y-163D02*
Y-104D01*
X-3669Y-124D01*
X-3689Y-104D01*
Y-163D01*
X-3709D02*
X-3729D01*
X-3719D01*
Y-104D01*
X-3709Y-114D01*
X-2480Y-814D02*
X-2489Y-804D01*
X-2509D01*
X-2519Y-814D01*
Y-854D01*
X-2509Y-863D01*
X-2489D01*
X-2480Y-854D01*
Y-814D01*
X-2579Y-804D02*
X-2559Y-814D01*
X-2539Y-834D01*
Y-854D01*
X-2549Y-863D01*
X-2569D01*
X-2579Y-854D01*
Y-844D01*
X-2569Y-834D01*
X-2539D01*
X-2599Y-824D02*
X-2639Y-863D01*
X-2619Y-844D01*
X-2639Y-824D01*
X-2599Y-863D01*
X-2659Y-814D02*
X-2669Y-804D01*
X-2689D01*
X-2699Y-814D01*
Y-854D01*
X-2689Y-863D01*
X-2669D01*
X-2659Y-854D01*
Y-814D01*
X-2719Y-863D02*
X-2739D01*
X-2729D01*
Y-804D01*
X-2719Y-814D01*
X-2769Y-873D02*
X-2809D01*
X-2869Y-814D02*
X-2859Y-804D01*
X-2839D01*
X-2829Y-814D01*
Y-854D01*
X-2839Y-863D01*
X-2859D01*
X-2869Y-854D01*
X-2899Y-863D02*
X-2919D01*
X-2929Y-854D01*
Y-834D01*
X-2919Y-824D01*
X-2899D01*
X-2889Y-834D01*
Y-854D01*
X-2899Y-863D01*
X-2949D02*
Y-824D01*
X-2979D01*
X-2989Y-834D01*
Y-863D01*
X-3039D02*
X-3019D01*
X-3009Y-854D01*
Y-834D01*
X-3019Y-824D01*
X-3039D01*
X-3049Y-834D01*
Y-844D01*
X-3009D01*
X-3109Y-824D02*
X-3079D01*
X-3069Y-834D01*
Y-854D01*
X-3079Y-863D01*
X-3109D01*
X-3139Y-814D02*
Y-824D01*
X-3129D01*
X-3149D01*
X-3139D01*
Y-854D01*
X-3149Y-863D01*
X-3189D02*
X-3209D01*
X-3219Y-854D01*
Y-834D01*
X-3209Y-824D01*
X-3189D01*
X-3179Y-834D01*
Y-854D01*
X-3189Y-863D01*
X-3239Y-824D02*
Y-863D01*
Y-844D01*
X-3249Y-834D01*
X-3259Y-824D01*
X-3269D01*
X-3299Y-873D02*
X-3339D01*
X-3359Y-863D02*
Y-804D01*
X-3379Y-824D01*
X-3399Y-804D01*
Y-863D01*
X-3429Y-824D02*
X-3449D01*
X-3459Y-834D01*
Y-863D01*
X-3429D01*
X-3419Y-854D01*
X-3429Y-844D01*
X-3459D01*
X-3479Y-863D02*
X-3499D01*
X-3489D01*
Y-804D01*
X-3479D01*
X-3559Y-863D02*
X-3539D01*
X-3529Y-854D01*
Y-834D01*
X-3539Y-824D01*
X-3559D01*
X-3569Y-834D01*
Y-844D01*
X-3529D01*
X-3589Y-873D02*
X-3629D01*
X-3649Y-863D02*
Y-804D01*
X-3669Y-824D01*
X-3689Y-804D01*
Y-863D01*
X-3709Y-814D02*
X-3719Y-804D01*
X-3739D01*
X-3749Y-814D01*
Y-854D01*
X-3739Y-863D01*
X-3719D01*
X-3709Y-854D01*
Y-814D01*
X2521Y513D02*
X2511Y503D01*
X2492D01*
X2482Y513D01*
Y553D01*
X2492Y562D01*
X2511D01*
X2521Y553D01*
X2571Y503D02*
X2551D01*
X2541Y513D01*
Y553D01*
X2551Y562D01*
X2571D01*
X2581Y553D01*
Y513D01*
X2571Y503D01*
X2601Y562D02*
Y503D01*
X2641Y562D01*
Y503D01*
X2661Y572D02*
X2701D01*
X2721Y503D02*
Y562D01*
X2751D01*
X2761Y553D01*
Y513D01*
X2751Y503D01*
X2721D01*
X2781Y562D02*
Y503D01*
X2811D01*
X2821Y513D01*
Y533D01*
X2811Y543D01*
X2781D01*
X2801D02*
X2821Y562D01*
X2841Y503D02*
X2861D01*
X2851D01*
Y562D01*
X2841D01*
X2861D01*
X2891Y503D02*
Y562D01*
X2921D01*
X2931Y553D01*
Y543D01*
X2921Y533D01*
X2891D01*
X2921D01*
X2931Y523D01*
Y513D01*
X2921Y503D01*
X2891D01*
X2951D02*
Y562D01*
X2991D01*
X3051Y503D02*
X3011D01*
Y562D01*
X3051D01*
X3011Y533D02*
X3031D01*
%TF.MD5,82b4982cf338a8ebdf8babf921976e09*%
M02*
