G04 Layer_Color=16711935*
%FSLAX23Y23*%
%MOIN*%
%TF.FileFunction,Other,Mechanical_29*%
%TF.Part,Single*%
G01*
G75*
%TA.AperFunction,NonConductor*%
%ADD50C,0.002*%
%ADD53R,0.020X0.020*%
D50*
X1814Y-685D02*
X1876D01*
X1814Y-654D02*
X1876D01*
Y-685D02*
Y-654D01*
X1814Y-685D02*
Y-654D01*
X1964Y494D02*
Y557D01*
X1996Y494D02*
Y557D01*
X1964Y494D02*
X1996D01*
X1964Y557D02*
X1996D01*
X2011Y740D02*
X2149D01*
X2011Y460D02*
X2149D01*
Y740D01*
X2011Y460D02*
Y740D01*
X1809Y662D02*
X1931D01*
X1809Y540D02*
X1931D01*
Y662D01*
X1809Y540D02*
Y662D01*
X1809Y416D02*
X1871D01*
X1809Y447D02*
X1871D01*
Y416D02*
Y447D01*
X1809Y416D02*
Y447D01*
X1996Y569D02*
Y632D01*
X1964Y569D02*
Y632D01*
X1996D01*
X1964Y569D02*
X1996D01*
X1996Y644D02*
Y707D01*
X1964Y644D02*
Y707D01*
X1996D01*
X1964Y644D02*
X1996D01*
X-866Y-447D02*
X-834D01*
X-866Y-384D02*
X-834D01*
X-866Y-447D02*
Y-384D01*
X-834Y-447D02*
Y-384D01*
X834Y-1297D02*
X866D01*
X834Y-1234D02*
X866D01*
X834Y-1297D02*
Y-1234D01*
X866Y-1297D02*
Y-1234D01*
X1134D02*
X1166D01*
X1134Y-1297D02*
X1166D01*
Y-1234D01*
X1134Y-1297D02*
Y-1234D01*
X1934Y-1731D02*
X1966D01*
X1934Y-1669D02*
X1966D01*
X1934Y-1731D02*
Y-1669D01*
X1966Y-1731D02*
Y-1669D01*
X1278Y-1339D02*
Y-1276D01*
X1309Y-1339D02*
Y-1276D01*
X1278Y-1339D02*
X1309D01*
X1278Y-1276D02*
X1309D01*
X1266Y-1339D02*
Y-1276D01*
X1234Y-1339D02*
Y-1276D01*
X1266D01*
X1234Y-1339D02*
X1266D01*
X-1999Y-1231D02*
Y-1169D01*
X-1968Y-1231D02*
Y-1169D01*
X-1999Y-1231D02*
X-1968D01*
X-1999Y-1169D02*
X-1968D01*
X2000Y-1231D02*
Y-1169D01*
X1969Y-1231D02*
Y-1169D01*
X2000D01*
X1969Y-1231D02*
X2000D01*
Y-531D02*
Y-469D01*
X1969Y-531D02*
Y-469D01*
X2000D01*
X1969Y-531D02*
X2000D01*
X-1876Y-1015D02*
X-1814D01*
X-1876Y-1046D02*
X-1814D01*
X-1876D02*
Y-1015D01*
X-1814Y-1046D02*
Y-1015D01*
X-1876Y-315D02*
X-1814D01*
X-1876Y-346D02*
X-1814D01*
X-1876D02*
Y-315D01*
X-1814Y-346D02*
Y-315D01*
X1814Y-1385D02*
X1876D01*
X1814Y-1354D02*
X1876D01*
Y-1385D02*
Y-1354D01*
X1814Y-1385D02*
Y-1354D01*
X-1936Y-1261D02*
X-1814D01*
X-1936Y-1139D02*
X-1814D01*
X-1936Y-1261D02*
Y-1139D01*
X-1814Y-1261D02*
Y-1139D01*
X-1937Y-561D02*
X-1815D01*
X-1937Y-439D02*
X-1815D01*
X-1937Y-561D02*
Y-439D01*
X-1815Y-561D02*
Y-439D01*
X1815Y-1139D02*
X1937D01*
X1815Y-1261D02*
X1937D01*
Y-1139D01*
X1815Y-1261D02*
Y-1139D01*
Y-439D02*
X1937D01*
X1815Y-561D02*
X1937D01*
Y-439D01*
X1815Y-561D02*
Y-439D01*
X-2149Y-1340D02*
X-2011D01*
X-2149Y-1060D02*
X-2011D01*
X-2149Y-1340D02*
Y-1060D01*
X-2011Y-1340D02*
Y-1060D01*
X-2150Y-640D02*
X-2012D01*
X-2150Y-360D02*
X-2012D01*
X-2150Y-640D02*
Y-360D01*
X-2012Y-640D02*
Y-360D01*
X2012Y-1060D02*
X2150D01*
X2012Y-1340D02*
X2150D01*
Y-1060D01*
X2012Y-1340D02*
Y-1060D01*
Y-360D02*
X2150D01*
X2012Y-640D02*
X2150D01*
Y-360D01*
X2012Y-640D02*
Y-360D01*
X-1968Y-1157D02*
Y-1094D01*
X-1999Y-1157D02*
Y-1094D01*
X-1968D01*
X-1999Y-1157D02*
X-1968D01*
X-1969Y-457D02*
Y-394D01*
X-2000Y-457D02*
Y-394D01*
X-1969D01*
X-2000Y-457D02*
X-1969D01*
X1969Y-1306D02*
Y-1244D01*
X2000Y-1306D02*
Y-1244D01*
X1969Y-1306D02*
X2000D01*
X1969Y-1244D02*
X2000D01*
X1969Y-606D02*
Y-544D01*
X2000Y-606D02*
Y-544D01*
X1969Y-606D02*
X2000D01*
X1969Y-544D02*
X2000D01*
X-2000Y-606D02*
Y-543D01*
X-1969Y-606D02*
Y-543D01*
X-2000Y-606D02*
X-1969D01*
X-2000Y-543D02*
X-1969D01*
X-2000Y-531D02*
Y-469D01*
X-1969Y-531D02*
Y-469D01*
X-2000Y-531D02*
X-1969D01*
X-2000Y-469D02*
X-1969D01*
X-1999Y-1306D02*
Y-1243D01*
X-1968Y-1306D02*
Y-1243D01*
X-1999Y-1306D02*
X-1968D01*
X-1999Y-1243D02*
X-1968D01*
X2000Y-457D02*
Y-394D01*
X1969Y-457D02*
Y-394D01*
X2000D01*
X1969Y-457D02*
X2000D01*
Y-1156D02*
Y-1094D01*
X1969Y-1156D02*
Y-1094D01*
X2000D01*
X1969Y-1156D02*
X2000D01*
X105Y-1490D02*
Y-1200D01*
X-175Y-1490D02*
X105D01*
X-175D02*
Y-1200D01*
X105D01*
X210Y-1346D02*
Y-1153D01*
X123Y-1346D02*
Y-1153D01*
X210D01*
X123Y-1346D02*
X210D01*
X308D02*
Y-1153D01*
X222Y-1346D02*
Y-1153D01*
X308D01*
X222Y-1346D02*
X308D01*
X258Y-1543D02*
Y-1357D01*
X132D02*
X258D01*
X132Y-1543D02*
X258D01*
X132D02*
Y-1357D01*
X549Y-1399D02*
X581D01*
X549Y-1461D02*
X581D01*
Y-1399D01*
X549Y-1461D02*
Y-1399D01*
X593Y-1461D02*
X624D01*
X593Y-1399D02*
X624D01*
X593Y-1461D02*
Y-1399D01*
X624Y-1461D02*
Y-1399D01*
X491Y-1351D02*
Y-1319D01*
X429Y-1351D02*
Y-1319D01*
Y-1351D02*
X491D01*
X429Y-1319D02*
X491D01*
D53*
X1921Y652D02*
D03*
X-1926Y-1251D02*
D03*
X-1927Y-551D02*
D03*
X1928Y-1149D02*
D03*
X1928Y-449D02*
D03*
%TF.MD5,df2d7463afeac64cf6be429dc946eceb*%
M02*
