G04 Layer_Color=16711935*
%FSLAX23Y23*%
%MOIN*%
%TF.FileFunction,Soldermask,Bot*%
%TF.Part,Single*%
G01*
G75*
%TA.AperFunction,ComponentPad*%
%ADD39C,0.091*%
%ADD40C,0.067*%
%ADD41R,0.067X0.067*%
%TA.AperFunction,ViaPad*%
%ADD42C,0.326*%
%ADD43C,0.126*%
%TA.AperFunction,ComponentPad*%
%ADD44C,0.055*%
%ADD45R,0.055X0.055*%
%ADD46C,0.244*%
%ADD47R,0.067X0.067*%
%TA.AperFunction,ViaPad*%
%ADD48C,0.039*%
%ADD49C,0.032*%
D39*
X-500Y-2200D02*
D03*
X-776D02*
D03*
D40*
X1150Y2750D02*
D03*
Y2650D02*
D03*
Y2550D02*
D03*
Y2450D02*
D03*
Y2350D02*
D03*
Y2250D02*
D03*
Y2150D02*
D03*
Y2050D02*
D03*
Y1950D02*
D03*
Y1850D02*
D03*
Y1750D02*
D03*
X-1150Y2750D02*
D03*
Y2650D02*
D03*
Y2550D02*
D03*
Y2450D02*
D03*
Y2350D02*
D03*
Y2250D02*
D03*
Y2150D02*
D03*
Y2050D02*
D03*
Y1950D02*
D03*
Y1850D02*
D03*
Y1750D02*
D03*
X2385Y-550D02*
D03*
Y-450D02*
D03*
Y-350D02*
D03*
Y-1250D02*
D03*
Y-1150D02*
D03*
Y-1050D02*
D03*
X1460Y-1150D02*
D03*
Y-1250D02*
D03*
Y-1350D02*
D03*
X-2385Y-450D02*
D03*
Y-550D02*
D03*
Y-650D02*
D03*
X-1460Y-550D02*
D03*
Y-450D02*
D03*
Y-350D02*
D03*
X-2385Y-1150D02*
D03*
Y-1250D02*
D03*
Y-1350D02*
D03*
X-1460Y-1250D02*
D03*
Y-1150D02*
D03*
Y-1050D02*
D03*
X1460Y-450D02*
D03*
Y-550D02*
D03*
Y-650D02*
D03*
X2385Y450D02*
D03*
Y550D02*
D03*
Y650D02*
D03*
X1460Y450D02*
D03*
Y550D02*
D03*
Y650D02*
D03*
X950Y-2605D02*
D03*
X1050D02*
D03*
X700Y-2600D02*
D03*
X800D02*
D03*
X550D02*
D03*
X450D02*
D03*
X300D02*
D03*
X200D02*
D03*
X2594Y750D02*
D03*
Y650D02*
D03*
X1550Y-1650D02*
D03*
X1650D02*
D03*
X1750D02*
D03*
Y-1750D02*
D03*
X1650D02*
D03*
X1550D02*
D03*
D41*
X1150Y1650D02*
D03*
X-1150D02*
D03*
X2385Y-650D02*
D03*
Y-1350D02*
D03*
X1460Y-1050D02*
D03*
X-2385Y-350D02*
D03*
X-1460Y-650D02*
D03*
X-2385Y-1050D02*
D03*
X-1460Y-1350D02*
D03*
X1460Y-350D02*
D03*
X2385Y750D02*
D03*
X1460D02*
D03*
D42*
X3087Y-0D02*
D03*
X-3087D02*
D03*
D43*
X-1937Y-2346D02*
D03*
X-1260Y2842D02*
D03*
X1260D02*
D03*
X1937Y-2346D02*
D03*
D44*
X-1050Y1050D02*
D03*
X-950D02*
D03*
X-1050Y950D02*
D03*
X-950D02*
D03*
X-1050Y850D02*
D03*
X-950D02*
D03*
X-1050Y750D02*
D03*
X-950D02*
D03*
X-1050Y650D02*
D03*
X-950D02*
D03*
X-1050Y550D02*
D03*
X-950D02*
D03*
X-1050Y450D02*
D03*
X-950D02*
D03*
X-1050Y350D02*
D03*
X-950D02*
D03*
X-1050Y250D02*
D03*
X-950D02*
D03*
X-1050Y150D02*
D03*
X-950D02*
D03*
X-1050Y50D02*
D03*
X-950D02*
D03*
X-1050Y-50D02*
D03*
X-950D02*
D03*
X-1050Y-150D02*
D03*
X-950D02*
D03*
X-1050Y-250D02*
D03*
X-950D02*
D03*
X-1050Y-350D02*
D03*
X-950D02*
D03*
X-1050Y-450D02*
D03*
X-950D02*
D03*
X-1050Y-550D02*
D03*
X-950D02*
D03*
X-1050Y-650D02*
D03*
X-950D02*
D03*
X-1050Y-750D02*
D03*
X-950D02*
D03*
X-1050Y-850D02*
D03*
X-950D02*
D03*
X-1050Y-950D02*
D03*
X-950D02*
D03*
X-1050Y-1050D02*
D03*
X-950D02*
D03*
X-1050Y-1150D02*
D03*
X-950D02*
D03*
X-1050Y-1250D02*
D03*
X-950D02*
D03*
X-1050Y-1350D02*
D03*
X950Y1050D02*
D03*
X1050D02*
D03*
X950Y950D02*
D03*
X1050D02*
D03*
X950Y850D02*
D03*
X1050D02*
D03*
X950Y750D02*
D03*
X1050D02*
D03*
X950Y650D02*
D03*
X1050D02*
D03*
X950Y550D02*
D03*
X1050D02*
D03*
X950Y450D02*
D03*
X1050D02*
D03*
X950Y350D02*
D03*
X1050D02*
D03*
X950Y250D02*
D03*
X1050D02*
D03*
X950Y150D02*
D03*
X1050D02*
D03*
X950Y50D02*
D03*
X1050D02*
D03*
X950Y-50D02*
D03*
X1050D02*
D03*
X950Y-150D02*
D03*
X1050D02*
D03*
X950Y-250D02*
D03*
X1050D02*
D03*
X950Y-350D02*
D03*
X1050D02*
D03*
X950Y-450D02*
D03*
X1050D02*
D03*
X950Y-550D02*
D03*
X1050D02*
D03*
X950Y-650D02*
D03*
X1050D02*
D03*
X950Y-750D02*
D03*
X1050D02*
D03*
X950Y-850D02*
D03*
X1050D02*
D03*
X950Y-950D02*
D03*
X1050D02*
D03*
X950Y-1050D02*
D03*
X1050D02*
D03*
X950Y-1150D02*
D03*
X1050D02*
D03*
X950Y-1250D02*
D03*
X1050D02*
D03*
X950Y-1350D02*
D03*
X2600Y-950D02*
D03*
Y-1050D02*
D03*
Y-1150D02*
D03*
Y-1250D02*
D03*
Y-1350D02*
D03*
Y-1450D02*
D03*
Y-250D02*
D03*
Y-350D02*
D03*
Y-450D02*
D03*
Y-550D02*
D03*
Y-650D02*
D03*
Y-750D02*
D03*
X-2600D02*
D03*
Y-650D02*
D03*
Y-550D02*
D03*
Y-450D02*
D03*
Y-350D02*
D03*
Y-250D02*
D03*
Y-1450D02*
D03*
Y-1350D02*
D03*
Y-1250D02*
D03*
Y-1150D02*
D03*
Y-1050D02*
D03*
Y-950D02*
D03*
D45*
X-950Y-1350D02*
D03*
X1050D02*
D03*
D46*
X-1500Y-2359D02*
D03*
Y-2641D02*
D03*
D47*
X1850Y-1650D02*
D03*
Y-1750D02*
D03*
D48*
X-600Y-350D02*
D03*
X-650D02*
D03*
X-1300Y-1650D02*
D03*
X-1350D02*
D03*
X-1400D02*
D03*
X2792Y1189D02*
D03*
X2989Y795D02*
D03*
X2792Y401D02*
D03*
Y-386D02*
D03*
X2989Y-780D02*
D03*
X2398Y1976D02*
D03*
X2595Y1582D02*
D03*
X2398Y-1961D02*
D03*
X2201Y2370D02*
D03*
X2004Y1976D02*
D03*
X2201Y1582D02*
D03*
Y-780D02*
D03*
X2004Y-1961D02*
D03*
X2201Y-2355D02*
D03*
X1611Y2764D02*
D03*
X1808Y2370D02*
D03*
X1611Y1976D02*
D03*
X1808Y1582D02*
D03*
X1611Y1189D02*
D03*
X1808Y-2355D02*
D03*
X1611Y-2748D02*
D03*
X1414Y2370D02*
D03*
Y1582D02*
D03*
X1217Y1189D02*
D03*
Y401D02*
D03*
X1414Y8D02*
D03*
Y-2355D02*
D03*
X1217Y-2748D02*
D03*
X823Y2764D02*
D03*
Y1976D02*
D03*
X1020Y-2355D02*
D03*
X823Y-2748D02*
D03*
X430Y2764D02*
D03*
X626Y2370D02*
D03*
X430Y1976D02*
D03*
X626Y1582D02*
D03*
X430Y1189D02*
D03*
X626Y795D02*
D03*
X430Y401D02*
D03*
X626Y8D02*
D03*
Y-780D02*
D03*
X430Y-1961D02*
D03*
X626Y-2355D02*
D03*
X430Y-2748D02*
D03*
X36Y2764D02*
D03*
X233Y2370D02*
D03*
X36Y1976D02*
D03*
X233Y1582D02*
D03*
X36Y1189D02*
D03*
X233Y795D02*
D03*
X36Y401D02*
D03*
X233Y8D02*
D03*
X36Y-386D02*
D03*
X233Y-780D02*
D03*
X36Y-1961D02*
D03*
X233Y-2355D02*
D03*
X36Y-2748D02*
D03*
X-358Y2764D02*
D03*
X-161Y2370D02*
D03*
X-358Y1976D02*
D03*
X-161Y1582D02*
D03*
X-358Y1189D02*
D03*
X-161Y795D02*
D03*
Y8D02*
D03*
X-358Y-386D02*
D03*
Y-1961D02*
D03*
X-161Y-2355D02*
D03*
X-358Y-2748D02*
D03*
X-752Y2764D02*
D03*
X-555Y2370D02*
D03*
X-752Y1976D02*
D03*
X-555Y1582D02*
D03*
X-752Y1189D02*
D03*
X-555Y795D02*
D03*
X-752Y401D02*
D03*
X-555Y8D02*
D03*
Y-780D02*
D03*
X-752Y-1961D02*
D03*
X-555Y-2355D02*
D03*
X-752Y-2748D02*
D03*
X-948Y2370D02*
D03*
Y1582D02*
D03*
X-1145Y1189D02*
D03*
Y-1174D02*
D03*
Y-1961D02*
D03*
X-948Y-2355D02*
D03*
X-1145Y-2748D02*
D03*
X-1539Y2764D02*
D03*
X-1342Y2370D02*
D03*
X-1539Y1976D02*
D03*
Y1189D02*
D03*
Y-1961D02*
D03*
X-1736Y2370D02*
D03*
X-1933Y1976D02*
D03*
X-1736Y1582D02*
D03*
X-1933Y1189D02*
D03*
Y401D02*
D03*
Y-1961D02*
D03*
X-1736Y-2355D02*
D03*
X-2129Y2370D02*
D03*
X-2326Y1976D02*
D03*
X-2129Y1582D02*
D03*
X-2326Y1189D02*
D03*
X-2129Y795D02*
D03*
X-2326Y401D02*
D03*
Y-1961D02*
D03*
X-2129Y-2355D02*
D03*
X-2523Y1582D02*
D03*
X-2720Y1189D02*
D03*
X-2523Y795D02*
D03*
X-2720Y401D02*
D03*
Y-386D02*
D03*
X-2523Y-1567D02*
D03*
X-2917Y795D02*
D03*
X-3114Y401D02*
D03*
Y-386D02*
D03*
X1745Y425D02*
D03*
X1750Y-700D02*
D03*
X1915Y-100D02*
D03*
X1865D02*
D03*
X1775Y520D02*
D03*
X1870Y770D02*
D03*
X1815Y760D02*
D03*
X1800Y-100D02*
D03*
X900Y-2000D02*
D03*
X795D02*
D03*
X1035Y-1750D02*
D03*
X960Y-1825D02*
D03*
X-2225Y-740D02*
D03*
D49*
X1880Y-245D02*
D03*
X-1775Y-750D02*
D03*
X1905Y-1005D02*
D03*
X-185Y-1174D02*
D03*
Y-1268D02*
D03*
X-232Y-1174D02*
D03*
X-208Y-1221D02*
D03*
X-232Y-1268D02*
D03*
X1800Y-1045D02*
D03*
X1850Y-1050D02*
D03*
Y-350D02*
D03*
X1800D02*
D03*
X365Y-1550D02*
D03*
X515Y-1450D02*
D03*
X-1900Y-1400D02*
D03*
X-1835Y-1405D02*
D03*
X385Y-1335D02*
D03*
X310Y-1435D02*
D03*
X280D02*
D03*
Y-1465D02*
D03*
X310D02*
D03*
X100Y-1475D02*
D03*
Y-1445D02*
D03*
X70D02*
D03*
Y-1475D02*
D03*
X-1910Y-295D02*
D03*
X-1865Y-670D02*
D03*
X-1790Y-1485D02*
D03*
X-1820Y-705D02*
D03*
%TF.MD5,3fb374ca4fad4e24dcdc71318f675891*%
M02*
