M48
;Layer_Color=9474304
;FILE_FORMAT=2:5
INCH,LZ
;TYPE=PLATED
T1F00S00C0.03150
T2F00S00C0.03543
T3F00S00C0.05906
T4F00S00C0.11811
T5F00S00C0.18189
T6F00S00C0.31822
%
T01
X-026Y-0145
Y-0135
Y-0125
X-0105
Y-0135
X-0095
Y-0125
X0095
Y-0135
X0105
Y-0125
X026
Y-0135
Y-0145
Y-0115
Y-0105
Y-0095
Y-0075
Y-0065
Y-0055
Y-0045
Y-0035
Y-0025
X0105
Y-0035
Y-0045
Y-0055
Y-0065
Y-0075
Y-0085
Y-0095
Y-0105
Y-0115
X0095
Y-0105
Y-0095
Y-0085
Y-0075
Y-0065
Y-0055
Y-0045
Y-0035
Y-0025
Y-0015
X0105
Y-0005
X0095
Y0005
X0105
Y0015
X0095
Y0025
X0105
Y0035
X0095
X-0095
Y0025
Y0015
Y0005
Y-0005
Y-0015
Y-0025
Y-0035
Y-0045
Y-0055
Y-0065
Y-0075
Y-0085
Y-0095
Y-0105
Y-0115
X-0105
Y-0105
Y-0095
Y-0085
Y-0075
Y-0065
Y-0055
Y-0045
Y-0035
Y-0025
Y-0015
Y-0005
Y0005
Y0015
Y0025
Y0035
X-026Y-0025
Y-0035
Y-0045
Y-0055
Y-0065
Y-0075
Y-0095
Y-0105
Y-0115
X-0105Y0045
X-0095
Y0055
X-0105
Y0065
X-0095
Y0075
X-0105
Y0085
X-0095
Y0095
X-0105
Y0105
X-0095
X0095
Y0095
Y0085
Y0075
Y0065
Y0055
Y0045
X0105
Y0055
Y0065
Y0075
Y0085
Y0095
Y0105
T02
X-026Y-0157
X-027Y-0145
X-0275Y-0135
X-02385
Y-0125
X-019Y-014
X-01835Y-01405
X-014Y-0135
Y-0125
X-00415Y-01515
X-00345
X-0023185Y-0126799
X-0018461
X-0020823Y-0122075
X0005Y-0144
Y-0149
X001
Y-0144
X003Y-0145
X00365Y-0155
X00385Y-01335
X00535Y-0144
X0085Y-0125
X0115
X014
Y-0135
X0155Y-0165
X0165
X0175
X0185
Y-0175
X0175
X0165
X0155
X02385Y-0135
Y-0125
X0246Y-0127
X02525Y-0133
X0251Y-01445
X0245Y-01395
X0274Y-00905
X0265Y-009
X0249
X0252Y-00745
Y-00625
X0246Y-00565
X02385Y-0055
Y-0065
X02445Y-00695
X02385Y-0045
Y-0035
X0235Y-00155
X02345Y-00075
X0225Y-00235
X0191Y-00285
X0185659Y-0033158
X0179Y-0036
X014Y-0035
Y-0045
Y-0055
Y-0065
Y-0105
Y-0115
X01525Y-0116
X0179Y-0105
X01835Y-01
X019
X01965Y-00955
X02385Y-0105
Y-0115
X0125Y-0105
X012Y0
X0112Y-011
X00235Y-0076
X0032Y-00515
X-0013Y-0054
X-0018461Y-011735
X-0023185
X-00425Y-00815
X-0058Y-0059
X-00865Y-007
X-008Y-008
Y-003
X-013Y-004
Y-0055
X-014
Y-0065
Y-0045
Y-0035
X-0191Y-00295
X-0185659Y-0075
X-0179Y-007
X-0172Y-008
X-0178Y-01105
X-01475Y-012
X-014Y-0115
Y-0105
X-0151Y-0096
X-02205Y-01025
X-02275
X-02385Y-0105
Y-0115
X-02465Y-0114
X-0247Y-0102
X-02535Y-0107
Y-0096
X-02385Y-0065
Y-0055
Y-0045
X-02465Y-00435
X-0246Y-0033
X-02385Y-0035
X-02535Y-0037
Y-00265
X-0275Y-0055
X-0227Y-0075
X-02185Y-00695
X-0189Y01045
X-0125Y0082
X-012Y007
X-0075Y008
X-00955Y01285
X-0011Y01615
X008Y01465
X0033Y00885
X01275Y02035
T03
X-0077559Y-022
X-005
T04
X-019371Y-0234638
X019371
X0125984Y0284248
X-0125984
T05
X-015Y-0264094
Y-0235906
T06
X0308694Y-0
X-0308694
M30
