G04 Layer_Color=16711935*
%FSLAX23Y23*%
%MOIN*%
G70*
G01*
G75*
%ADD35C,0.002*%
D35*
X-1205Y3101D02*
X1205D01*
X1313Y3057D01*
X1420Y3009D01*
X1525Y2957D01*
X1628Y2901D01*
X1729Y2842D01*
X1828Y2780D01*
X1924Y2714D01*
X2018Y2644D01*
X2110Y2572D01*
X2199Y2496D01*
X2286Y2417D01*
X2369Y2335D01*
X2450Y2251D01*
X2528Y2163D01*
X2602Y2073D01*
X2673Y1980D01*
X2741Y1885D01*
X2806Y1787D01*
X2867Y1687D01*
X2925Y1586D01*
X2979Y1482D01*
X3029Y1376D01*
X3075Y1269D01*
X3118Y1160D01*
X3157Y1049D01*
X3192Y938D01*
X3223Y825D01*
X3250Y711D01*
X3273Y596D01*
X3292Y481D01*
X3307Y365D01*
X3317Y248D01*
X3324Y132D01*
X3327Y15D01*
X3325Y-102D02*
X3327Y15D01*
X3320Y-219D02*
X3325Y-102D01*
X3310Y-336D02*
X3320Y-219D01*
X3296Y-452D02*
X3310Y-336D01*
X3278Y-568D02*
X3296Y-452D01*
X3256Y-683D02*
X3278Y-568D01*
X3230Y-797D02*
X3256Y-683D01*
X3200Y-910D02*
X3230Y-797D01*
X3166Y-1022D02*
X3200Y-910D01*
X3128Y-1132D02*
X3166Y-1022D01*
X3086Y-1242D02*
X3128Y-1132D01*
X3041Y-1349D02*
X3086Y-1242D01*
X2991Y-1456D02*
X3041Y-1349D01*
X2938Y-1560D02*
X2991Y-1456D01*
X2882Y-1662D02*
X2938Y-1560D01*
X2822Y-1762D02*
X2882Y-1662D01*
X2758Y-1861D02*
X2822Y-1762D01*
X2691Y-1956D02*
X2758Y-1861D01*
X2620Y-2050D02*
X2691Y-1956D01*
X2547Y-2141D02*
X2620Y-2050D01*
X2470Y-2229D02*
X2547Y-2141D01*
X2390Y-2314D02*
X2470Y-2229D01*
X2307Y-2397D02*
X2390Y-2314D01*
X2221Y-2477D02*
X2307Y-2397D01*
X2133Y-2553D02*
X2221Y-2477D01*
X2042Y-2627D02*
X2133Y-2553D01*
X1948Y-2697D02*
X2042Y-2627D01*
X1852Y-2764D02*
X1948Y-2697D01*
X1754Y-2827D02*
X1852Y-2764D01*
X-1754Y-2827D02*
X1754D01*
X-1852Y-2764D02*
X-1754Y-2827D01*
X-1947Y-2697D02*
X-1852Y-2764D01*
X-2040Y-2628D02*
X-1947Y-2697D01*
X-2131Y-2555D02*
X-2040Y-2628D01*
X-2219Y-2478D02*
X-2131Y-2555D01*
X-2305Y-2399D02*
X-2219Y-2478D01*
X-2387Y-2317D02*
X-2305Y-2399D01*
X-2467Y-2232D02*
X-2387Y-2317D01*
X-2544Y-2144D02*
X-2467Y-2232D01*
X-2617Y-2054D02*
X-2544Y-2144D01*
X-2687Y-1961D02*
X-2617Y-2054D01*
X-2754Y-1866D02*
X-2687Y-1961D01*
X-2818Y-1768D02*
X-2754Y-1866D01*
X-2878Y-1668D02*
X-2818Y-1768D01*
X-2935Y-1566D02*
X-2878Y-1668D01*
X-2988Y-1463D02*
X-2935Y-1566D01*
X-3037Y-1357D02*
X-2988Y-1463D01*
X-3083Y-1250D02*
X-3037Y-1357D01*
X-3125Y-1141D02*
X-3083Y-1250D01*
X-3163Y-1031D02*
X-3125Y-1141D01*
X-3197Y-920D02*
X-3163Y-1031D01*
X-3227Y-807D02*
X-3197Y-920D01*
X-3254Y-694D02*
X-3227Y-807D01*
X-3276Y-580D02*
X-3254Y-694D01*
X-3294Y-464D02*
X-3276Y-580D01*
X-3308Y-349D02*
X-3294Y-464D01*
X-3319Y-233D02*
X-3308Y-349D01*
X-3325Y-116D02*
X-3319Y-233D01*
X-3327Y-0D02*
X-3325Y-116D01*
X-3327Y-0D02*
X-3325Y117D01*
X-3318Y235D01*
X-3308Y352D01*
X-3294Y468D01*
X-3275Y584D01*
X-3252Y699D01*
X-3226Y814D01*
X-3195Y927D01*
X-3160Y1039D01*
X-3122Y1150D01*
X-3079Y1260D01*
X-3033Y1367D01*
X-2983Y1474D01*
X-2929Y1578D01*
X-2871Y1680D01*
X-2810Y1781D01*
X-2746Y1879D01*
X-2677Y1974D01*
X-2606Y2068D01*
X-2532Y2158D01*
X-2454Y2246D01*
X-2373Y2332D01*
X-2289Y2414D01*
X-2203Y2493D01*
X-2113Y2569D01*
X-2021Y2642D01*
X-1927Y2712D01*
X-1830Y2778D01*
X-1731Y2841D01*
X-1629Y2901D01*
X-1526Y2956D01*
X-1421Y3008D01*
X-1314Y3056D01*
X-1205Y3101D01*
M02*
