G04 Layer_Color=16711935*
%FSLAX23Y23*%
%MOIN*%
G70*
G01*
G75*
%ADD39C,0.004*%
D39*
X1915Y626D02*
G03*
X1915Y626I-20J0D01*
G01*
X-1881Y-1226D02*
G03*
X-1881Y-1226I-20J0D01*
G01*
X-1882Y-526D02*
G03*
X-1882Y-526I-20J0D01*
G01*
X1922Y-1174D02*
G03*
X1922Y-1174I-20J0D01*
G01*
Y-474D02*
G03*
X1922Y-474I-20J0D01*
G01*
X1823Y-681D02*
Y-658D01*
X1867Y-681D02*
Y-658D01*
X1823D02*
X1867D01*
X1823Y-681D02*
X1867D01*
X1969Y505D02*
Y546D01*
X1991Y505D02*
Y546D01*
X1969Y505D02*
X1991D01*
X1969Y546D02*
X1991D01*
X2013Y472D02*
Y728D01*
X2147Y472D02*
Y728D01*
X2013Y472D02*
X2147D01*
X2013Y728D02*
X2147D01*
X1809Y540D02*
Y662D01*
X1931Y540D02*
Y662D01*
X1809Y540D02*
X1931D01*
X1809Y662D02*
X1931D01*
X1818Y420D02*
Y443D01*
X1862Y420D02*
Y443D01*
X1818D02*
X1862D01*
X1818Y420D02*
X1862D01*
X1968Y579D02*
X1992D01*
X1968Y622D02*
X1992D01*
X1968Y579D02*
Y622D01*
X1992Y579D02*
Y622D01*
X1991Y655D02*
Y696D01*
X1969Y655D02*
Y696D01*
X1991D01*
X1969Y655D02*
X1991D01*
X-1912Y-1487D02*
Y-1443D01*
X-1888Y-1487D02*
Y-1443D01*
X-1912Y-1487D02*
X-1888D01*
X-1912Y-1443D02*
X-1888D01*
X-1847Y-1487D02*
Y-1443D01*
X-1823Y-1487D02*
Y-1443D01*
X-1847Y-1487D02*
X-1823D01*
X-1847Y-1443D02*
X-1823D01*
X188Y-2472D02*
Y-2428D01*
X212Y-2472D02*
Y-2428D01*
X188Y-2472D02*
X212D01*
X188Y-2428D02*
X212D01*
X438Y-2472D02*
Y-2428D01*
X462Y-2472D02*
Y-2428D01*
X438Y-2472D02*
X462D01*
X438Y-2428D02*
X462D01*
X-838Y-437D02*
Y-394D01*
X-862Y-437D02*
Y-394D01*
X-838D01*
X-862Y-437D02*
X-838D01*
X-504Y-1356D02*
Y-1093D01*
X-358Y-1356D02*
Y-1093D01*
X-504D02*
X-358D01*
X-504Y-1356D02*
X-358D01*
X862Y-1287D02*
Y-1244D01*
X838Y-1287D02*
Y-1244D01*
X862D01*
X838Y-1287D02*
X862D01*
X1138D02*
Y-1244D01*
X1162Y-1287D02*
Y-1244D01*
X1138Y-1287D02*
X1162D01*
X1138Y-1244D02*
X1162D01*
X1962Y-1722D02*
Y-1678D01*
X1938Y-1722D02*
Y-1678D01*
X1962D01*
X1938Y-1722D02*
X1962D01*
X1283Y-1328D02*
Y-1287D01*
X1304Y-1328D02*
Y-1287D01*
X1283Y-1328D02*
X1304D01*
X1283Y-1287D02*
X1304D01*
X1261Y-1328D02*
Y-1287D01*
X1239Y-1328D02*
Y-1287D01*
X1261D01*
X1239Y-1328D02*
X1261D01*
X-1996Y-1178D02*
X-1972D01*
X-1996Y-1222D02*
X-1972D01*
Y-1178D01*
X-1996Y-1222D02*
Y-1178D01*
X1973Y-1222D02*
X1997D01*
X1973Y-1178D02*
X1997D01*
X1973Y-1222D02*
Y-1178D01*
X1997Y-1222D02*
Y-1178D01*
X1973Y-522D02*
X1997D01*
X1973Y-478D02*
X1997D01*
X1973Y-522D02*
Y-478D01*
X1997Y-522D02*
Y-478D01*
X-1823Y-1042D02*
Y-1019D01*
X-1867Y-1042D02*
Y-1019D01*
Y-1042D02*
X-1823D01*
X-1867Y-1019D02*
X-1823D01*
Y-342D02*
Y-319D01*
X-1867Y-342D02*
Y-319D01*
Y-342D02*
X-1823D01*
X-1867Y-319D02*
X-1823D01*
X1823Y-1381D02*
Y-1358D01*
X1867Y-1381D02*
Y-1358D01*
X1823D02*
X1867D01*
X1823Y-1381D02*
X1867D01*
X-1814Y-1261D02*
Y-1139D01*
X-1936Y-1261D02*
Y-1139D01*
X-1814D01*
X-1936Y-1261D02*
X-1814D01*
X-1815Y-561D02*
Y-439D01*
X-1937Y-561D02*
Y-439D01*
X-1815D01*
X-1937Y-561D02*
X-1815D01*
X1815Y-1261D02*
Y-1139D01*
X1937Y-1261D02*
Y-1139D01*
X1815Y-1261D02*
X1937D01*
X1815Y-1139D02*
X1937D01*
X1815Y-561D02*
Y-439D01*
X1937Y-561D02*
Y-439D01*
X1815Y-561D02*
X1937D01*
X1815Y-439D02*
X1937D01*
X-2013Y-1328D02*
Y-1072D01*
X-2147Y-1328D02*
Y-1072D01*
X-2013D01*
X-2147Y-1328D02*
X-2013D01*
X-2014Y-628D02*
Y-372D01*
X-2148Y-628D02*
Y-372D01*
X-2014D01*
X-2148Y-628D02*
X-2014D01*
X2014Y-1328D02*
Y-1072D01*
X2148Y-1328D02*
Y-1072D01*
X2014Y-1328D02*
X2148D01*
X2014Y-1072D02*
X2148D01*
X2014Y-628D02*
Y-372D01*
X2148Y-628D02*
Y-372D01*
X2014Y-628D02*
X2148D01*
X2014Y-372D02*
X2148D01*
X-1973Y-1146D02*
Y-1104D01*
X-1995Y-1146D02*
Y-1104D01*
X-1973D01*
X-1995Y-1146D02*
X-1973D01*
X-1974Y-446D02*
Y-404D01*
X-1996Y-446D02*
Y-404D01*
X-1974D01*
X-1996Y-446D02*
X-1974D01*
X1974Y-1296D02*
Y-1254D01*
X1996Y-1296D02*
Y-1254D01*
X1974Y-1296D02*
X1996D01*
X1974Y-1254D02*
X1996D01*
X1974Y-596D02*
Y-554D01*
X1996Y-596D02*
Y-554D01*
X1974Y-596D02*
X1996D01*
X1974Y-554D02*
X1996D01*
X2093Y1276D02*
X2174Y1357D01*
X2507D01*
Y943D02*
Y1357D01*
X2174Y943D02*
X2507D01*
X2093Y1024D02*
X2174Y943D01*
X2093Y1024D02*
Y1276D01*
X-1996Y-596D02*
Y-554D01*
X-1974Y-596D02*
Y-554D01*
X-1996Y-596D02*
X-1974D01*
X-1996Y-554D02*
X-1974D01*
X-1997Y-478D02*
X-1973D01*
X-1997Y-522D02*
X-1973D01*
Y-478D01*
X-1997Y-522D02*
Y-478D01*
X-1995Y-1296D02*
Y-1254D01*
X-1973Y-1296D02*
Y-1254D01*
X-1995Y-1296D02*
X-1973D01*
X-1995Y-1254D02*
X-1973D01*
X1996Y-446D02*
Y-404D01*
X1974Y-446D02*
Y-404D01*
X1996D01*
X1974Y-446D02*
X1996D01*
Y-1146D02*
Y-1104D01*
X1974Y-1146D02*
Y-1104D01*
X1996D01*
X1974Y-1146D02*
X1996D01*
X131Y-1316D02*
X202D01*
X131Y-1182D02*
X202D01*
X131Y-1316D02*
Y-1182D01*
X202Y-1316D02*
Y-1182D01*
X230Y-1316D02*
X300D01*
X230Y-1182D02*
X300D01*
X230Y-1316D02*
Y-1182D01*
X300Y-1316D02*
Y-1182D01*
X386Y-1504D02*
Y-1396D01*
X444Y-1504D02*
Y-1396D01*
X386D02*
X444D01*
X386Y-1504D02*
X444D01*
X140Y-1383D02*
X250D01*
X140Y-1517D02*
X250D01*
Y-1383D01*
X140Y-1517D02*
Y-1383D01*
X554Y-1409D02*
X576D01*
X554Y-1451D02*
X576D01*
Y-1409D01*
X554Y-1451D02*
Y-1409D01*
X598Y-1451D02*
X619D01*
X598Y-1409D02*
X619D01*
X598Y-1451D02*
Y-1409D01*
X619Y-1451D02*
Y-1409D01*
X438Y-1323D02*
X482D01*
X438Y-1347D02*
X482D01*
X438D02*
Y-1323D01*
X482Y-1347D02*
Y-1323D01*
X-2174Y-1957D02*
X-2093Y-1876D01*
X-2507Y-1957D02*
X-2174D01*
X-2507D02*
Y-1543D01*
X-2174D01*
X-2093Y-1624D01*
Y-1876D02*
Y-1624D01*
X-2174Y-166D02*
X-2093Y-85D01*
X-2507Y-166D02*
X-2174D01*
X-2507D02*
Y248D01*
X-2174D01*
X-2093Y167D01*
Y-85D02*
Y167D01*
X2093Y-1674D02*
X2174Y-1593D01*
X2507D01*
Y-2007D02*
Y-1593D01*
X2174Y-2007D02*
X2507D01*
X2093Y-1926D02*
X2174Y-2007D01*
X2093Y-1926D02*
Y-1674D01*
Y174D02*
X2174Y255D01*
X2507D01*
Y-158D02*
Y255D01*
X2174Y-158D02*
X2507D01*
X2093Y-78D02*
X2174Y-158D01*
X2093Y-78D02*
Y174D01*
X-762Y-1191D02*
X-738D01*
X-762Y-1148D02*
X-738D01*
X-762Y-1191D02*
Y-1148D01*
X-738Y-1191D02*
Y-1148D01*
X-812Y-1191D02*
X-788D01*
X-812Y-1148D02*
X-788D01*
X-812Y-1191D02*
Y-1148D01*
X-788Y-1191D02*
Y-1148D01*
M02*
