G04 Layer_Color=16711935*
%FSLAX23Y23*%
%MOIN*%
G70*
G01*
G75*
%ADD29C,0.004*%
%ADD30R,0.177X0.040*%
D29*
X708Y-212D02*
G03*
X708Y-212I-20J0D01*
G01*
X272D02*
G03*
X272Y-212I-20J0D01*
G01*
X708Y38D02*
G03*
X708Y38I-20J0D01*
G01*
X272D02*
G03*
X272Y38I-20J0D01*
G01*
X131Y-266D02*
Y-244D01*
X89Y-266D02*
Y-244D01*
Y-266D02*
X131D01*
X89Y-244D02*
X131D01*
X89Y-211D02*
Y-189D01*
X131Y-211D02*
Y-189D01*
X89D02*
X131D01*
X89Y-211D02*
X131D01*
X475Y39D02*
Y61D01*
X516Y39D02*
Y61D01*
X475D02*
X516D01*
X475Y39D02*
X516D01*
X475Y-61D02*
Y-39D01*
X516Y-61D02*
Y-39D01*
X475D02*
X516D01*
X475Y-61D02*
X516D01*
X475Y-211D02*
Y-189D01*
X516Y-211D02*
Y-189D01*
X475D02*
X516D01*
X475Y-211D02*
X516D01*
X475Y-311D02*
Y-289D01*
X516Y-311D02*
Y-289D01*
X475D02*
X516D01*
X475Y-311D02*
X516D01*
X89Y-321D02*
Y-299D01*
X131Y-321D02*
Y-299D01*
X89D02*
X131D01*
X89Y-321D02*
X131D01*
Y-61D02*
Y-39D01*
X89Y-61D02*
Y-39D01*
Y-61D02*
X131D01*
X89Y-39D02*
X131D01*
X89Y-111D02*
Y-89D01*
X131Y-111D02*
Y-89D01*
X89D02*
X131D01*
X89Y-111D02*
X131D01*
X89Y-11D02*
Y11D01*
X131Y-11D02*
Y11D01*
X89D02*
X131D01*
X89Y-11D02*
X131D01*
X653Y-373D02*
X810D01*
X653Y-177D02*
X810D01*
Y-373D02*
Y-177D01*
X653Y-373D02*
Y-177D01*
X217Y-373D02*
X374D01*
X217Y-177D02*
X374D01*
Y-373D02*
Y-177D01*
X217Y-373D02*
Y-177D01*
X516Y-2D02*
X694D01*
X516Y-298D02*
X694D01*
X516D02*
Y-2D01*
X694Y-298D02*
Y-2D01*
X474Y-262D02*
X517D01*
X474Y-238D02*
X517D01*
Y-262D02*
Y-238D01*
X474Y-262D02*
Y-238D01*
X726Y-2D02*
X904D01*
X726Y-298D02*
X904D01*
X726D02*
Y-2D01*
X904Y-298D02*
Y-2D01*
X474Y-12D02*
X517D01*
X474Y12D02*
X517D01*
Y-12D02*
Y12D01*
X474Y-12D02*
Y12D01*
X653Y-123D02*
X810D01*
X653Y73D02*
X810D01*
Y-123D02*
Y73D01*
X653Y-123D02*
Y73D01*
X217Y-123D02*
X374D01*
X217Y73D02*
X374D01*
Y-123D02*
Y73D01*
X217Y-123D02*
Y73D01*
D30*
X605Y-22D02*
D03*
X815Y-22D02*
D03*
M02*
