G04 Layer_Color=16711935*
%FSLAX23Y23*%
%MOIN*%
G70*
G01*
G75*
%ADD31C,0.002*%
D31*
X141Y-271D02*
Y-239D01*
X79Y-271D02*
Y-239D01*
Y-271D02*
X141D01*
X79Y-239D02*
X141D01*
X79Y-216D02*
Y-184D01*
X141Y-216D02*
Y-184D01*
X79D02*
X141D01*
X79Y-216D02*
X141D01*
X464Y34D02*
Y66D01*
X527Y34D02*
Y66D01*
X464D02*
X527D01*
X464Y34D02*
X527D01*
X464Y-66D02*
Y-34D01*
X527Y-66D02*
Y-34D01*
X464D02*
X527D01*
X464Y-66D02*
X527D01*
X464Y-216D02*
Y-184D01*
X527Y-216D02*
Y-184D01*
X464D02*
X527D01*
X464Y-216D02*
X527D01*
X464Y-316D02*
Y-284D01*
X527Y-316D02*
Y-284D01*
X464D02*
X527D01*
X464Y-316D02*
X527D01*
X79Y-326D02*
Y-294D01*
X141Y-326D02*
Y-294D01*
X79D02*
X141D01*
X79Y-326D02*
X141D01*
X141Y-66D02*
Y-34D01*
X79Y-66D02*
Y-34D01*
Y-66D02*
X141D01*
X79Y-34D02*
X141D01*
X79Y-116D02*
Y-84D01*
X141Y-116D02*
Y-84D01*
X79D02*
X141D01*
X79Y-116D02*
X141D01*
X79Y-16D02*
Y16D01*
X141Y-16D02*
Y16D01*
X79D02*
X141D01*
X79Y-16D02*
X141D01*
X464Y-266D02*
Y-234D01*
X527Y-266D02*
Y-234D01*
X464D02*
X527D01*
X464Y-266D02*
X527D01*
X464Y-16D02*
Y16D01*
X527Y-16D02*
Y16D01*
X464D02*
X527D01*
X464Y-16D02*
X527D01*
M02*
