G04 Layer_Physical_Order=1*
G04 Layer_Color=255*
%FSLAX23Y23*%
%MOIN*%
G70*
G01*
G75*
%ADD10R,0.018X0.022*%
%ADD11R,0.057X0.024*%
%ADD12R,0.020X0.020*%
%ADD13C,0.020*%
%ADD14C,0.012*%
%ADD15C,0.059*%
%ADD16R,0.059X0.059*%
%ADD17C,0.024*%
G36*
X1045Y125D02*
Y-430D01*
X-59Y-430D01*
Y125D01*
X1045Y125D01*
D02*
G37*
%LPC*%
G36*
X225Y70D02*
X152D01*
Y30D01*
X225D01*
Y70D01*
D02*
G37*
G36*
X439D02*
X366D01*
Y30D01*
X439D01*
Y32D01*
X461D01*
Y31D01*
X495D01*
Y31D01*
X497D01*
Y31D01*
X507D01*
X511Y28D01*
X518Y27D01*
X518Y27D01*
X527D01*
X527Y26D01*
X535Y25D01*
X543Y26D01*
X549Y31D01*
X554Y37D01*
X555Y45D01*
X554Y53D01*
X549Y59D01*
X543Y64D01*
X535Y65D01*
X534Y65D01*
X530Y68D01*
Y69D01*
X497D01*
Y69D01*
X495D01*
Y69D01*
X461D01*
Y68D01*
X439D01*
Y70D01*
D02*
G37*
G36*
X532Y20D02*
X516D01*
Y5D01*
X532D01*
Y20D01*
D02*
G37*
G36*
X711Y83D02*
X581D01*
X578Y82D01*
X576Y81D01*
X574Y78D01*
X573Y75D01*
Y29D01*
X572Y27D01*
X569Y23D01*
X568Y18D01*
Y1D01*
X556Y-10D01*
X532D01*
Y-5D01*
X511D01*
Y0D01*
X506D01*
Y20D01*
X491D01*
Y18D01*
X471D01*
X471Y18D01*
X439D01*
Y20D01*
X366D01*
Y-20D01*
X439D01*
Y-18D01*
X466D01*
Y-18D01*
X467Y-24D01*
X469Y-26D01*
X466Y-31D01*
X461D01*
Y-32D01*
X439D01*
Y-30D01*
X366D01*
Y-70D01*
X439D01*
Y-68D01*
X461D01*
Y-69D01*
X492D01*
X495Y-69D01*
Y-69D01*
X497D01*
Y-69D01*
X530D01*
Y-64D01*
X574D01*
X579Y-63D01*
X584Y-60D01*
X587Y-57D01*
X587Y-57D01*
X592Y-54D01*
X595Y-49D01*
X596Y-44D01*
Y-38D01*
X600D01*
X605Y-37D01*
X610Y-34D01*
X624Y-20D01*
X660D01*
Y17D01*
X711D01*
X714Y18D01*
X716Y19D01*
X718Y22D01*
X719Y25D01*
Y75D01*
X718Y78D01*
X716Y81D01*
X714Y82D01*
X711Y83D01*
D02*
G37*
G36*
X0Y38D02*
X-10Y36D01*
X-19Y33D01*
X-27Y27D01*
X-33Y19D01*
X-36Y10D01*
X-38Y0D01*
X-36Y-10D01*
X-33Y-19D01*
X-27Y-27D01*
X-19Y-33D01*
X-10Y-36D01*
X0Y-38D01*
X10Y-36D01*
X19Y-33D01*
X27Y-27D01*
X33Y-19D01*
X33Y-18D01*
X76D01*
Y-19D01*
X109D01*
Y-19D01*
X111D01*
Y-19D01*
X144D01*
Y-18D01*
X152D01*
Y-20D01*
X225D01*
Y20D01*
X152D01*
Y18D01*
X144D01*
Y19D01*
X111D01*
Y19D01*
X109D01*
Y19D01*
X76D01*
Y18D01*
X33D01*
X33Y19D01*
X27Y27D01*
X19Y33D01*
X10Y36D01*
X0Y38D01*
D02*
G37*
G36*
X183Y-28D02*
X150D01*
Y-40D01*
X145Y-42D01*
X144Y-41D01*
Y-31D01*
X111D01*
Y-29D01*
X97D01*
Y-50D01*
Y-71D01*
X109D01*
Y-76D01*
X109Y-81D01*
X76D01*
Y-82D01*
X33D01*
X33Y-81D01*
X27Y-73D01*
X19Y-67D01*
X10Y-64D01*
X0Y-62D01*
X-10Y-64D01*
X-19Y-67D01*
X-27Y-73D01*
X-33Y-81D01*
X-36Y-90D01*
X-38Y-100D01*
X-36Y-110D01*
X-33Y-119D01*
X-27Y-127D01*
X-19Y-133D01*
X-10Y-136D01*
X0Y-138D01*
X10Y-136D01*
X19Y-133D01*
X27Y-127D01*
X33Y-119D01*
X33Y-118D01*
X76D01*
Y-119D01*
X109D01*
X109Y-119D01*
X111D01*
Y-119D01*
X114Y-119D01*
X144D01*
Y-118D01*
X152D01*
Y-120D01*
X225D01*
Y-80D01*
X152D01*
Y-82D01*
X146D01*
Y-74D01*
X150Y-72D01*
X151Y-72D01*
X183D01*
Y-50D01*
Y-28D01*
D02*
G37*
G36*
X227D02*
X193D01*
Y-45D01*
X227D01*
Y-28D01*
D02*
G37*
G36*
X87Y-29D02*
X73D01*
Y-45D01*
X87D01*
Y-29D01*
D02*
G37*
G36*
Y-55D02*
X73D01*
Y-71D01*
X87D01*
Y-55D01*
D02*
G37*
G36*
X227D02*
X193D01*
Y-72D01*
X227D01*
Y-55D01*
D02*
G37*
G36*
X439Y-80D02*
X366D01*
Y-120D01*
X439D01*
Y-80D01*
D02*
G37*
G36*
X576Y-80D02*
X569Y-81D01*
X562Y-86D01*
X558Y-92D01*
X556Y-100D01*
X558Y-108D01*
X562Y-114D01*
X569Y-119D01*
X576Y-120D01*
X583Y-119D01*
X588Y-120D01*
Y-120D01*
X660D01*
Y-80D01*
X588D01*
X588Y-80D01*
X583Y-81D01*
X576Y-80D01*
D02*
G37*
G36*
X806Y83D02*
X803Y82D01*
X801Y81D01*
X799Y78D01*
X798Y75D01*
X798Y-155D01*
X799Y-158D01*
X801Y-160D01*
X803Y-162D01*
X806Y-163D01*
X882Y-163D01*
X886Y-167D01*
X886Y-169D01*
X881Y-171D01*
X880Y-171D01*
X877Y-170D01*
X809D01*
X806Y-171D01*
X803Y-172D01*
X801Y-174D01*
X799Y-176D01*
X798Y-180D01*
Y-191D01*
X797Y-193D01*
X795Y-200D01*
X797Y-207D01*
X798Y-209D01*
Y-365D01*
X799Y-368D01*
X801Y-371D01*
X803Y-372D01*
X806Y-373D01*
X1021Y-373D01*
X1024Y-372D01*
X1027Y-371D01*
X1029Y-368D01*
X1029Y-365D01*
X1029Y-245D01*
X1029Y-242D01*
X1027Y-239D01*
X1026Y-239D01*
X1027Y-238D01*
X1028Y-235D01*
Y-185D01*
X1027Y-182D01*
X1025Y-179D01*
X989Y-142D01*
X990Y-137D01*
X994Y-136D01*
X1003Y-133D01*
X1011Y-127D01*
X1017Y-119D01*
X1021Y-110D01*
X1022Y-100D01*
X1021Y-90D01*
X1017Y-81D01*
X1011Y-73D01*
X1003Y-67D01*
X994Y-64D01*
X984Y-62D01*
X974Y-64D01*
X965Y-67D01*
X958Y-73D01*
X952Y-81D01*
X948Y-90D01*
X947Y-94D01*
X942Y-96D01*
X888Y-42D01*
X889Y71D01*
X889Y71D01*
X889Y71D01*
X888Y73D01*
X888Y74D01*
X888Y74D01*
X888Y74D01*
X887Y76D01*
X886Y77D01*
X886Y77D01*
X886Y77D01*
X883Y81D01*
X883Y81D01*
X883Y81D01*
X882Y82D01*
X880Y82D01*
X880Y82D01*
X880Y82D01*
X879Y83D01*
X877Y83D01*
X877Y83D01*
X877Y83D01*
X806Y83D01*
D02*
G37*
G36*
X536Y-180D02*
X529Y-181D01*
X497D01*
Y-181D01*
X495D01*
Y-181D01*
X461D01*
Y-182D01*
X439D01*
Y-180D01*
X366D01*
Y-220D01*
X439D01*
Y-218D01*
X461D01*
Y-219D01*
X495D01*
Y-219D01*
X497D01*
Y-219D01*
X529D01*
X536Y-220D01*
X543Y-219D01*
X550Y-214D01*
X554Y-208D01*
X556Y-200D01*
X554Y-192D01*
X550Y-186D01*
X543Y-181D01*
X536Y-180D01*
D02*
G37*
G36*
X0Y-162D02*
X-10Y-164D01*
X-19Y-167D01*
X-27Y-173D01*
X-33Y-181D01*
X-36Y-190D01*
X-38Y-200D01*
X-36Y-210D01*
X-33Y-219D01*
X-27Y-227D01*
X-19Y-233D01*
X-10Y-236D01*
X0Y-238D01*
X10Y-236D01*
X19Y-233D01*
X27Y-227D01*
X33Y-219D01*
X33Y-218D01*
X76D01*
Y-219D01*
X105D01*
X109Y-219D01*
X111Y-223D01*
X111Y-225D01*
X113Y-228D01*
X112Y-234D01*
X111Y-234D01*
X111Y-234D01*
X111Y-234D01*
X111Y-234D01*
X97D01*
Y-255D01*
Y-276D01*
X109D01*
Y-286D01*
X109Y-291D01*
X76D01*
Y-292D01*
X37D01*
Y-263D01*
X-37D01*
Y-337D01*
X37D01*
Y-328D01*
X76D01*
Y-329D01*
X105D01*
X109Y-329D01*
X111Y-333D01*
X111Y-334D01*
X115Y-340D01*
X138Y-363D01*
X144Y-367D01*
X148Y-368D01*
X152Y-370D01*
X152Y-370D01*
X152Y-370D01*
X225D01*
Y-330D01*
X157D01*
X153Y-327D01*
X155Y-322D01*
X183D01*
Y-300D01*
Y-278D01*
X151D01*
X150Y-278D01*
X146Y-275D01*
Y-273D01*
X151Y-269D01*
X152Y-270D01*
Y-270D01*
X225D01*
Y-230D01*
X172D01*
X168Y-225D01*
X168Y-225D01*
X168Y-224D01*
X170Y-220D01*
X225D01*
Y-180D01*
X152D01*
Y-200D01*
X147Y-203D01*
X146Y-203D01*
Y-200D01*
X145Y-193D01*
X144Y-193D01*
Y-181D01*
X111D01*
Y-181D01*
X109D01*
Y-181D01*
X76D01*
Y-182D01*
X33D01*
X33Y-181D01*
X27Y-173D01*
X19Y-167D01*
X10Y-164D01*
X0Y-162D01*
D02*
G37*
G36*
X532Y-230D02*
X516D01*
Y-245D01*
X532D01*
Y-230D01*
D02*
G37*
G36*
X87Y-234D02*
X73D01*
Y-250D01*
X87D01*
Y-234D01*
D02*
G37*
G36*
X711Y-167D02*
X581D01*
X578Y-168D01*
X576Y-169D01*
X574Y-172D01*
X573Y-175D01*
Y-220D01*
X565Y-228D01*
X562Y-232D01*
X561Y-238D01*
Y-255D01*
X555Y-261D01*
X532D01*
Y-255D01*
X511D01*
Y-250D01*
X506D01*
Y-230D01*
X491D01*
Y-232D01*
X471D01*
X471Y-232D01*
X439D01*
Y-230D01*
X366D01*
Y-270D01*
X439D01*
Y-268D01*
X466D01*
Y-269D01*
X467Y-275D01*
X468Y-276D01*
X465Y-281D01*
X461D01*
Y-286D01*
X439D01*
Y-280D01*
X366D01*
Y-320D01*
X439D01*
Y-314D01*
X461D01*
Y-319D01*
X495D01*
Y-319D01*
X497D01*
Y-319D01*
X530D01*
Y-314D01*
X564D01*
X570Y-313D01*
X574Y-310D01*
X605Y-279D01*
X608Y-275D01*
X608Y-273D01*
X611Y-270D01*
X660D01*
Y-233D01*
X711D01*
X714Y-232D01*
X716Y-231D01*
X718Y-228D01*
X719Y-225D01*
Y-175D01*
X718Y-172D01*
X716Y-169D01*
X714Y-168D01*
X711Y-167D01*
D02*
G37*
G36*
X87Y-260D02*
X73D01*
Y-276D01*
X87D01*
Y-260D01*
D02*
G37*
G36*
X193Y-278D02*
Y-295D01*
X227D01*
Y-278D01*
X193D01*
D02*
G37*
G36*
X227Y-305D02*
X193D01*
Y-322D01*
X227D01*
Y-305D01*
D02*
G37*
G36*
X439Y-330D02*
X366D01*
Y-370D01*
X439D01*
Y-330D01*
D02*
G37*
G36*
X576Y-330D02*
X569Y-331D01*
X562Y-336D01*
X558Y-342D01*
X556Y-350D01*
X558Y-358D01*
X562Y-364D01*
X569Y-369D01*
X576Y-370D01*
X583Y-369D01*
X588Y-370D01*
Y-370D01*
X660D01*
Y-330D01*
X588D01*
X588Y-330D01*
X583Y-331D01*
X576Y-330D01*
D02*
G37*
%LPD*%
G36*
X711Y25D02*
X581D01*
Y75D01*
X711D01*
Y25D01*
D02*
G37*
G36*
X877Y75D02*
X881Y71D01*
X880Y-45D01*
X950Y-115D01*
X952Y-119D01*
X958Y-127D01*
X965Y-133D01*
X969Y-134D01*
X1020Y-185D01*
Y-235D01*
X898D01*
X894Y-231D01*
X895Y-155D01*
X806Y-155D01*
X806Y75D01*
X877Y75D01*
D02*
G37*
G36*
X877Y-245D02*
X1021Y-245D01*
X1021Y-365D01*
X806Y-365D01*
Y-180D01*
X809Y-178D01*
X877D01*
X877Y-245D01*
D02*
G37*
G36*
X711Y-225D02*
X581D01*
Y-175D01*
X711D01*
Y-225D01*
D02*
G37*
D10*
X128Y-255D02*
D03*
X92D02*
D03*
X92Y-200D02*
D03*
X128D02*
D03*
X478Y50D02*
D03*
X513D02*
D03*
X478Y-50D02*
D03*
X513D02*
D03*
X478Y-200D02*
D03*
X513D02*
D03*
X478Y-300D02*
D03*
X513D02*
D03*
X92Y-310D02*
D03*
X128D02*
D03*
X128Y-50D02*
D03*
X92D02*
D03*
X92Y-100D02*
D03*
X128D02*
D03*
X92Y0D02*
D03*
X128D02*
D03*
D11*
X839Y-350D02*
D03*
Y-300D02*
D03*
Y-250D02*
D03*
Y-200D02*
D03*
X624Y-350D02*
D03*
Y-300D02*
D03*
Y-250D02*
D03*
Y-200D02*
D03*
X403Y-350D02*
D03*
Y-300D02*
D03*
Y-250D02*
D03*
Y-200D02*
D03*
X188Y-350D02*
D03*
Y-300D02*
D03*
Y-250D02*
D03*
Y-200D02*
D03*
X839Y-100D02*
D03*
Y-50D02*
D03*
Y0D02*
D03*
Y50D02*
D03*
X624Y-100D02*
D03*
Y-50D02*
D03*
Y0D02*
D03*
Y50D02*
D03*
X403Y-100D02*
D03*
Y-50D02*
D03*
Y0D02*
D03*
Y50D02*
D03*
X188Y-100D02*
D03*
Y-50D02*
D03*
Y0D02*
D03*
Y50D02*
D03*
D12*
X511Y-250D02*
D03*
X480D02*
D03*
X511Y0D02*
D03*
X480D02*
D03*
D13*
X518Y45D02*
X535D01*
X156Y-246D02*
Y-238D01*
X144Y-226D02*
X156Y-238D01*
Y-246D02*
X160Y-250D01*
X136Y-226D02*
X144D01*
X128Y-218D02*
X136Y-226D01*
X128Y-218D02*
Y-200D01*
X0Y0D02*
X92D01*
X0Y-200D02*
X92D01*
X0Y-100D02*
X92D01*
X814Y-200D02*
X839D01*
X128Y0D02*
X187D01*
X403D02*
X471D01*
X403Y50D02*
X478D01*
X403Y-250D02*
X471D01*
X403Y-50D02*
X478D01*
X403Y-200D02*
X478D01*
X576Y-100D02*
X624D01*
X601Y-200D02*
X624D01*
X55Y-50D02*
X92D01*
X10Y-310D02*
X92D01*
X128Y-310D02*
Y-255D01*
X60D02*
X92D01*
X128Y-100D02*
X188D01*
X127Y-100D02*
Y-50D01*
X128Y-327D02*
Y-310D01*
Y-327D02*
X151Y-350D01*
X188D01*
X513Y50D02*
X518Y45D01*
X615Y-200D02*
X624D01*
X513D02*
X536D01*
X576Y-350D02*
X624D01*
D14*
X486Y-24D02*
X562D01*
X582Y-32D02*
X590Y-24D01*
X582Y-44D02*
Y-32D01*
X580Y-44D02*
X582D01*
X590Y-24D02*
X600D01*
X574Y-50D02*
X580Y-44D01*
X582Y-5D02*
Y18D01*
X582Y-5D02*
X582D01*
X562Y-24D02*
X582Y-5D01*
X480Y-18D02*
X486Y-24D01*
X480Y-18D02*
Y0D01*
X600Y-24D02*
X624Y0D01*
X513Y-50D02*
X574D01*
X582Y18D02*
X590Y26D01*
X591D01*
X575Y-261D02*
Y-238D01*
X613Y-200D01*
X611Y-250D02*
X624D01*
X595Y-266D02*
X611Y-250D01*
X595Y-269D02*
Y-266D01*
X564Y-300D02*
X595Y-269D01*
X513Y-300D02*
X564D01*
X561Y-275D02*
X575Y-261D01*
X486Y-275D02*
X561D01*
X613Y-200D02*
X615D01*
X591Y26D02*
X615Y50D01*
X403Y-300D02*
X478D01*
X480Y-269D02*
Y-250D01*
Y-269D02*
X486Y-275D01*
X511Y0D02*
X532D01*
X511Y-250D02*
X536D01*
D15*
X984Y0D02*
D03*
Y-100D02*
D03*
Y-200D02*
D03*
X0Y0D02*
D03*
Y-100D02*
D03*
Y-200D02*
D03*
D16*
X984Y-300D02*
D03*
X0D02*
D03*
D17*
X535Y45D02*
D03*
X676Y-190D02*
D03*
X696Y-210D02*
D03*
Y-190D02*
D03*
X576Y-100D02*
D03*
X696Y60D02*
D03*
Y40D02*
D03*
X676D02*
D03*
Y60D02*
D03*
Y-210D02*
D03*
X576Y-350D02*
D03*
X536Y-200D02*
D03*
M02*
