G04 Layer_Color=8388736*
%FSLAX23Y23*%
%MOIN*%
G70*
G01*
G75*
%ADD22R,0.026X0.030*%
%ADD23R,0.065X0.032*%
%ADD24R,0.028X0.028*%
%ADD25C,0.067*%
%ADD26R,0.067X0.067*%
D22*
X128Y-255D02*
D03*
X92D02*
D03*
X92Y-200D02*
D03*
X128D02*
D03*
X478Y50D02*
D03*
X513D02*
D03*
X478Y-50D02*
D03*
X513D02*
D03*
X478Y-200D02*
D03*
X513D02*
D03*
X478Y-300D02*
D03*
X513D02*
D03*
X92Y-310D02*
D03*
X128D02*
D03*
X128Y-50D02*
D03*
X92D02*
D03*
X92Y-100D02*
D03*
X128D02*
D03*
X92Y0D02*
D03*
X128D02*
D03*
D23*
X839Y-350D02*
D03*
Y-300D02*
D03*
Y-250D02*
D03*
Y-200D02*
D03*
X624Y-350D02*
D03*
Y-300D02*
D03*
Y-250D02*
D03*
Y-200D02*
D03*
X403Y-350D02*
D03*
Y-300D02*
D03*
Y-250D02*
D03*
Y-200D02*
D03*
X188Y-350D02*
D03*
Y-300D02*
D03*
Y-250D02*
D03*
Y-200D02*
D03*
X839Y-100D02*
D03*
Y-50D02*
D03*
Y0D02*
D03*
Y50D02*
D03*
X624Y-100D02*
D03*
Y-50D02*
D03*
Y0D02*
D03*
Y50D02*
D03*
X403Y-100D02*
D03*
Y-50D02*
D03*
Y0D02*
D03*
Y50D02*
D03*
X188Y-100D02*
D03*
Y-50D02*
D03*
Y0D02*
D03*
Y50D02*
D03*
D24*
X511Y-250D02*
D03*
X480D02*
D03*
X511Y0D02*
D03*
X480D02*
D03*
D25*
X984D02*
D03*
Y-100D02*
D03*
Y-200D02*
D03*
X0Y0D02*
D03*
Y-100D02*
D03*
Y-200D02*
D03*
D26*
X984Y-300D02*
D03*
X0D02*
D03*
M02*
