G04 Layer_Physical_Order=2*
G04 Layer_Color=16711680*
%FSLAX23Y23*%
%MOIN*%
G70*
G01*
G75*
%ADD13C,0.020*%
%ADD15C,0.059*%
%ADD16R,0.059X0.059*%
%ADD17C,0.024*%
%ADD18R,0.098X0.096*%
G36*
X1045Y125D02*
X1045Y-430D01*
X-55Y-430D01*
X-55Y125D01*
X1045Y125D01*
D02*
G37*
%LPC*%
G36*
X711Y81D02*
X666D01*
X663Y81D01*
X661Y80D01*
X660Y77D01*
X659Y75D01*
Y70D01*
X658Y68D01*
X656Y60D01*
X658Y52D01*
X659Y50D01*
Y50D01*
X658Y48D01*
X656Y40D01*
X658Y32D01*
X658Y31D01*
X656Y26D01*
X571Y26D01*
X568Y26D01*
X567Y25D01*
X553D01*
Y37D01*
X554Y37D01*
X555Y45D01*
X554Y53D01*
X549Y59D01*
X543Y64D01*
X535Y65D01*
X527Y64D01*
X521Y59D01*
X516Y53D01*
X515Y45D01*
X516Y37D01*
X517Y37D01*
Y-100D01*
X518Y-107D01*
X522Y-113D01*
X528Y-117D01*
X535Y-118D01*
X568D01*
X569Y-119D01*
X576Y-120D01*
X584Y-119D01*
X590Y-114D01*
X595Y-108D01*
X596Y-100D01*
X595Y-92D01*
X594Y-91D01*
X597Y-87D01*
X659D01*
Y-180D01*
X658Y-182D01*
X656Y-190D01*
X658Y-198D01*
X659Y-200D01*
Y-200D01*
X658Y-202D01*
X656Y-210D01*
X658Y-218D01*
X659Y-220D01*
Y-220D01*
X660Y-222D01*
X661Y-225D01*
X663Y-226D01*
X665Y-226D01*
X669Y-229D01*
X676Y-230D01*
X684Y-229D01*
X686Y-227D01*
X689Y-229D01*
X696Y-230D01*
X704Y-229D01*
X707Y-226D01*
X711D01*
X713Y-226D01*
X715Y-225D01*
X717Y-222D01*
X717Y-220D01*
X717Y-183D01*
X748Y-151D01*
X1015Y-151D01*
X1017Y-151D01*
X1020Y-150D01*
X1021Y-147D01*
X1021Y-145D01*
Y-104D01*
X1022Y-100D01*
X1021Y-96D01*
Y-55D01*
X1021Y-53D01*
X1020Y-50D01*
X1017Y-49D01*
X1015Y-49D01*
X872Y-49D01*
Y25D01*
X758D01*
Y-22D01*
X753Y-24D01*
X717Y13D01*
Y75D01*
X717Y77D01*
X715Y80D01*
X713Y81D01*
X711Y81D01*
D02*
G37*
G36*
X0Y38D02*
X-10Y36D01*
X-19Y33D01*
X-27Y27D01*
X-33Y19D01*
X-36Y10D01*
X-38Y0D01*
X-36Y-10D01*
X-33Y-19D01*
X-27Y-27D01*
X-19Y-33D01*
X-10Y-36D01*
X0Y-38D01*
X10Y-36D01*
X19Y-33D01*
X27Y-27D01*
X33Y-19D01*
X36Y-10D01*
X38Y0D01*
X36Y10D01*
X33Y19D01*
X27Y27D01*
X19Y33D01*
X10Y36D01*
X0Y38D01*
D02*
G37*
G36*
Y-62D02*
X-10Y-64D01*
X-19Y-67D01*
X-27Y-73D01*
X-33Y-81D01*
X-36Y-90D01*
X-38Y-100D01*
X-36Y-110D01*
X-33Y-119D01*
X-27Y-127D01*
X-19Y-133D01*
X-10Y-136D01*
X0Y-138D01*
X10Y-136D01*
X19Y-133D01*
X27Y-127D01*
X33Y-119D01*
X36Y-110D01*
X38Y-100D01*
X36Y-90D01*
X33Y-81D01*
X27Y-73D01*
X19Y-67D01*
X10Y-64D01*
X0Y-62D01*
D02*
G37*
G36*
X984Y-162D02*
X974Y-164D01*
X965Y-167D01*
X958Y-173D01*
X952Y-181D01*
X948Y-190D01*
X947Y-200D01*
X948Y-210D01*
X952Y-219D01*
X958Y-227D01*
X965Y-233D01*
X974Y-236D01*
X984Y-238D01*
X994Y-236D01*
X1003Y-233D01*
X1011Y-227D01*
X1017Y-219D01*
X1021Y-210D01*
X1022Y-200D01*
X1021Y-190D01*
X1017Y-181D01*
X1011Y-173D01*
X1003Y-167D01*
X994Y-164D01*
X984Y-162D01*
D02*
G37*
G36*
X0D02*
X-10Y-164D01*
X-19Y-167D01*
X-27Y-173D01*
X-33Y-181D01*
X-36Y-190D01*
X-38Y-200D01*
X-36Y-210D01*
X-33Y-219D01*
X-27Y-227D01*
X-19Y-233D01*
X-10Y-236D01*
X0Y-238D01*
X10Y-236D01*
X19Y-233D01*
X27Y-227D01*
X33Y-219D01*
X36Y-210D01*
X38Y-200D01*
X36Y-190D01*
X33Y-181D01*
X27Y-173D01*
X19Y-167D01*
X10Y-164D01*
X0Y-162D01*
D02*
G37*
G36*
X1022Y-263D02*
X947D01*
Y-337D01*
X1022D01*
Y-263D01*
D02*
G37*
G36*
X37D02*
X-37D01*
Y-337D01*
X37D01*
Y-263D01*
D02*
G37*
G36*
X536Y-180D02*
X528Y-181D01*
X521Y-186D01*
X517Y-192D01*
X516Y-200D01*
X517Y-208D01*
X517Y-208D01*
Y-328D01*
X517Y-328D01*
X519Y-335D01*
X523Y-341D01*
X545Y-363D01*
X545Y-363D01*
X551Y-367D01*
X558Y-368D01*
X568D01*
X569Y-369D01*
X576Y-370D01*
X584Y-369D01*
X590Y-364D01*
X595Y-358D01*
X596Y-350D01*
X595Y-342D01*
X590Y-336D01*
X584Y-331D01*
X576Y-330D01*
X569Y-331D01*
X568Y-332D01*
X565D01*
X554Y-320D01*
Y-208D01*
X554Y-208D01*
X556Y-200D01*
X554Y-192D01*
X550Y-186D01*
X543Y-181D01*
X536Y-180D01*
D02*
G37*
%LPD*%
G36*
X711Y10D02*
X776Y-55D01*
X781D01*
X1015Y-55D01*
Y-145D01*
X746Y-145D01*
X711Y-180D01*
X711Y-220D01*
X666Y-220D01*
Y-80D01*
X571D01*
Y20D01*
X666Y20D01*
Y75D01*
X711D01*
Y10D01*
D02*
G37*
D13*
X535Y-100D02*
Y45D01*
Y-100D02*
X574D01*
X558Y-350D02*
X576D01*
X536Y-328D02*
X558Y-350D01*
X536Y-328D02*
Y-200D01*
D15*
X984Y0D02*
D03*
Y-100D02*
D03*
Y-200D02*
D03*
X0Y0D02*
D03*
Y-100D02*
D03*
Y-200D02*
D03*
D16*
X984Y-300D02*
D03*
X0D02*
D03*
D17*
X535Y45D02*
D03*
X676Y-190D02*
D03*
X696Y-210D02*
D03*
Y-190D02*
D03*
X576Y-100D02*
D03*
X696Y60D02*
D03*
Y40D02*
D03*
X676D02*
D03*
Y60D02*
D03*
Y-210D02*
D03*
X576Y-350D02*
D03*
X536Y-200D02*
D03*
D18*
X605Y-31D02*
D03*
Y-269D02*
D03*
X815Y-31D02*
D03*
Y-269D02*
D03*
M02*
