G04 Layer_Color=8388736*
%FSLAX44Y44*%
%MOMM*%
G71*
G01*
G75*
%ADD10R,0.6532X0.7532*%
%ADD11R,1.6532X0.8032*%
%ADD12R,0.7232X0.7232*%
%ADD13C,1.7032*%
%ADD14R,1.7032X1.7032*%
D10*
X170710Y297180D02*
D03*
X161710D02*
D03*
X161710Y311150D02*
D03*
X170710D02*
D03*
X259660Y374650D02*
D03*
X268660D02*
D03*
X259660Y349250D02*
D03*
X268660D02*
D03*
X259660Y311150D02*
D03*
X268660D02*
D03*
X259660Y285750D02*
D03*
X268660D02*
D03*
X161710Y283210D02*
D03*
X170710D02*
D03*
X170710Y349250D02*
D03*
X161710D02*
D03*
X161710Y336550D02*
D03*
X170710D02*
D03*
X161710Y361950D02*
D03*
X170710D02*
D03*
X492490Y297180D02*
D03*
X483490D02*
D03*
X483490Y311150D02*
D03*
X492490D02*
D03*
X581440Y374650D02*
D03*
X590440D02*
D03*
X581440Y349250D02*
D03*
X590440D02*
D03*
X581440Y311150D02*
D03*
X590440D02*
D03*
X581440Y285750D02*
D03*
X590440D02*
D03*
X483490Y283210D02*
D03*
X492490D02*
D03*
X492490Y349250D02*
D03*
X483490D02*
D03*
X483490Y336550D02*
D03*
X492490D02*
D03*
X483490Y361950D02*
D03*
X492490D02*
D03*
X814270Y297180D02*
D03*
X805270D02*
D03*
X805270Y311150D02*
D03*
X814270D02*
D03*
X903220Y374650D02*
D03*
X912220D02*
D03*
X903220Y349250D02*
D03*
X912220D02*
D03*
X903220Y311150D02*
D03*
X912220D02*
D03*
X903220Y285750D02*
D03*
X912220D02*
D03*
X805270Y283210D02*
D03*
X814270D02*
D03*
X814270Y349250D02*
D03*
X805270D02*
D03*
X805270Y336550D02*
D03*
X814270D02*
D03*
X805270Y361950D02*
D03*
X814270D02*
D03*
X1136050Y297180D02*
D03*
X1127050D02*
D03*
X1127050Y311150D02*
D03*
X1136050D02*
D03*
X1225000Y374650D02*
D03*
X1234000D02*
D03*
X1225000Y349250D02*
D03*
X1234000D02*
D03*
X1225000Y311150D02*
D03*
X1234000D02*
D03*
X1225000Y285750D02*
D03*
X1234000D02*
D03*
X1127050Y283210D02*
D03*
X1136050D02*
D03*
X1136050Y349250D02*
D03*
X1127050D02*
D03*
X1127050Y336550D02*
D03*
X1136050D02*
D03*
X1127050Y361950D02*
D03*
X1136050D02*
D03*
X1457830Y297180D02*
D03*
X1448830D02*
D03*
X1448830Y311150D02*
D03*
X1457830D02*
D03*
X1546780Y374650D02*
D03*
X1555780D02*
D03*
X1546780Y349250D02*
D03*
X1555780D02*
D03*
X1546780Y311150D02*
D03*
X1555780D02*
D03*
X1546780Y285750D02*
D03*
X1555780D02*
D03*
X1448830Y283210D02*
D03*
X1457830D02*
D03*
X1457830Y349250D02*
D03*
X1448830D02*
D03*
X1448830Y336550D02*
D03*
X1457830D02*
D03*
X1448830Y361950D02*
D03*
X1457830D02*
D03*
X1779610Y297180D02*
D03*
X1770610D02*
D03*
X1770610Y311150D02*
D03*
X1779610D02*
D03*
X1868560Y374650D02*
D03*
X1877560D02*
D03*
X1868560Y349250D02*
D03*
X1877560D02*
D03*
X1868560Y311150D02*
D03*
X1877560D02*
D03*
X1868560Y285750D02*
D03*
X1877560D02*
D03*
X1770610Y283210D02*
D03*
X1779610D02*
D03*
X1779610Y349250D02*
D03*
X1770610D02*
D03*
X1770610Y336550D02*
D03*
X1779610D02*
D03*
X1770610Y361950D02*
D03*
X1779610D02*
D03*
X2101390Y297180D02*
D03*
X2092390D02*
D03*
X2092390Y311150D02*
D03*
X2101390D02*
D03*
X2190340Y374650D02*
D03*
X2199340D02*
D03*
X2190340Y349250D02*
D03*
X2199340D02*
D03*
X2190340Y311150D02*
D03*
X2199340D02*
D03*
X2190340Y285750D02*
D03*
X2199340D02*
D03*
X2092390Y283210D02*
D03*
X2101390D02*
D03*
X2101390Y349250D02*
D03*
X2092390D02*
D03*
X2092390Y336550D02*
D03*
X2101390D02*
D03*
X2092390Y361950D02*
D03*
X2101390D02*
D03*
X170710Y478150D02*
D03*
X161710D02*
D03*
X161710Y492120D02*
D03*
X170710D02*
D03*
X259660Y555620D02*
D03*
X268660D02*
D03*
X259660Y530220D02*
D03*
X268660D02*
D03*
X259660Y492120D02*
D03*
X268660D02*
D03*
X259660Y466720D02*
D03*
X268660D02*
D03*
X161710Y464180D02*
D03*
X170710D02*
D03*
X170710Y530220D02*
D03*
X161710D02*
D03*
X161710Y517520D02*
D03*
X170710D02*
D03*
X161710Y542920D02*
D03*
X170710D02*
D03*
X492490Y478150D02*
D03*
X483490D02*
D03*
X483490Y492120D02*
D03*
X492490D02*
D03*
X581440Y555620D02*
D03*
X590440D02*
D03*
X581440Y530220D02*
D03*
X590440D02*
D03*
X581440Y492120D02*
D03*
X590440D02*
D03*
X581440Y466720D02*
D03*
X590440D02*
D03*
X483490Y464180D02*
D03*
X492490D02*
D03*
X492490Y530220D02*
D03*
X483490D02*
D03*
X483490Y517520D02*
D03*
X492490D02*
D03*
X483490Y542920D02*
D03*
X492490D02*
D03*
X814270Y478150D02*
D03*
X805270D02*
D03*
X805270Y492120D02*
D03*
X814270D02*
D03*
X903220Y555620D02*
D03*
X912220D02*
D03*
X903220Y530220D02*
D03*
X912220D02*
D03*
X903220Y492120D02*
D03*
X912220D02*
D03*
X903220Y466720D02*
D03*
X912220D02*
D03*
X805270Y464180D02*
D03*
X814270D02*
D03*
X814270Y530220D02*
D03*
X805270D02*
D03*
X805270Y517520D02*
D03*
X814270D02*
D03*
X805270Y542920D02*
D03*
X814270D02*
D03*
X1136050Y478150D02*
D03*
X1127050D02*
D03*
X1127050Y492120D02*
D03*
X1136050D02*
D03*
X1225000Y555620D02*
D03*
X1234000D02*
D03*
X1225000Y530220D02*
D03*
X1234000D02*
D03*
X1225000Y492120D02*
D03*
X1234000D02*
D03*
X1225000Y466720D02*
D03*
X1234000D02*
D03*
X1127050Y464180D02*
D03*
X1136050D02*
D03*
X1136050Y530220D02*
D03*
X1127050D02*
D03*
X1127050Y517520D02*
D03*
X1136050D02*
D03*
X1127050Y542920D02*
D03*
X1136050D02*
D03*
X1457830Y478150D02*
D03*
X1448830D02*
D03*
X1448830Y492120D02*
D03*
X1457830D02*
D03*
X1546780Y555620D02*
D03*
X1555780D02*
D03*
X1546780Y530220D02*
D03*
X1555780D02*
D03*
X1546780Y492120D02*
D03*
X1555780D02*
D03*
X1546780Y466720D02*
D03*
X1555780D02*
D03*
X1448830Y464180D02*
D03*
X1457830D02*
D03*
X1457830Y530220D02*
D03*
X1448830D02*
D03*
X1448830Y517520D02*
D03*
X1457830D02*
D03*
X1448830Y542920D02*
D03*
X1457830D02*
D03*
X1779610Y478150D02*
D03*
X1770610D02*
D03*
X1770610Y492120D02*
D03*
X1779610D02*
D03*
X1868560Y555620D02*
D03*
X1877560D02*
D03*
X1868560Y530220D02*
D03*
X1877560D02*
D03*
X1868560Y492120D02*
D03*
X1877560D02*
D03*
X1868560Y466720D02*
D03*
X1877560D02*
D03*
X1770610Y464180D02*
D03*
X1779610D02*
D03*
X1779610Y530220D02*
D03*
X1770610D02*
D03*
X1770610Y517520D02*
D03*
X1779610D02*
D03*
X1770610Y542920D02*
D03*
X1779610D02*
D03*
X2101390Y478150D02*
D03*
X2092390D02*
D03*
X2092390Y492120D02*
D03*
X2101390D02*
D03*
X2190340Y555620D02*
D03*
X2199340D02*
D03*
X2190340Y530220D02*
D03*
X2199340D02*
D03*
X2190340Y492120D02*
D03*
X2199340D02*
D03*
X2190340Y466720D02*
D03*
X2199340D02*
D03*
X2092390Y464180D02*
D03*
X2101390D02*
D03*
X2101390Y530220D02*
D03*
X2092390D02*
D03*
X2092390Y517520D02*
D03*
X2101390D02*
D03*
X2092390Y542920D02*
D03*
X2101390D02*
D03*
X170710Y659120D02*
D03*
X161710D02*
D03*
X161710Y673090D02*
D03*
X170710D02*
D03*
X259660Y736590D02*
D03*
X268660D02*
D03*
X259660Y711190D02*
D03*
X268660D02*
D03*
X259660Y673090D02*
D03*
X268660D02*
D03*
X259660Y647690D02*
D03*
X268660D02*
D03*
X161710Y645150D02*
D03*
X170710D02*
D03*
X170710Y711190D02*
D03*
X161710D02*
D03*
X161710Y698490D02*
D03*
X170710D02*
D03*
X161710Y723890D02*
D03*
X170710D02*
D03*
X492490Y659120D02*
D03*
X483490D02*
D03*
X483490Y673090D02*
D03*
X492490D02*
D03*
X581440Y736590D02*
D03*
X590440D02*
D03*
X581440Y711190D02*
D03*
X590440D02*
D03*
X581440Y673090D02*
D03*
X590440D02*
D03*
X581440Y647690D02*
D03*
X590440D02*
D03*
X483490Y645150D02*
D03*
X492490D02*
D03*
X492490Y711190D02*
D03*
X483490D02*
D03*
X483490Y698490D02*
D03*
X492490D02*
D03*
X483490Y723890D02*
D03*
X492490D02*
D03*
X814270Y659120D02*
D03*
X805270D02*
D03*
X805270Y673090D02*
D03*
X814270D02*
D03*
X903220Y736590D02*
D03*
X912220D02*
D03*
X903220Y711190D02*
D03*
X912220D02*
D03*
X903220Y673090D02*
D03*
X912220D02*
D03*
X903220Y647690D02*
D03*
X912220D02*
D03*
X805270Y645150D02*
D03*
X814270D02*
D03*
X814270Y711190D02*
D03*
X805270D02*
D03*
X805270Y698490D02*
D03*
X814270D02*
D03*
X805270Y723890D02*
D03*
X814270D02*
D03*
X1136050Y659120D02*
D03*
X1127050D02*
D03*
X1127050Y673090D02*
D03*
X1136050D02*
D03*
X1225000Y736590D02*
D03*
X1234000D02*
D03*
X1225000Y711190D02*
D03*
X1234000D02*
D03*
X1225000Y673090D02*
D03*
X1234000D02*
D03*
X1225000Y647690D02*
D03*
X1234000D02*
D03*
X1127050Y645150D02*
D03*
X1136050D02*
D03*
X1136050Y711190D02*
D03*
X1127050D02*
D03*
X1127050Y698490D02*
D03*
X1136050D02*
D03*
X1127050Y723890D02*
D03*
X1136050D02*
D03*
X1457830Y659120D02*
D03*
X1448830D02*
D03*
X1448830Y673090D02*
D03*
X1457830D02*
D03*
X1546780Y736590D02*
D03*
X1555780D02*
D03*
X1546780Y711190D02*
D03*
X1555780D02*
D03*
X1546780Y673090D02*
D03*
X1555780D02*
D03*
X1546780Y647690D02*
D03*
X1555780D02*
D03*
X1448830Y645150D02*
D03*
X1457830D02*
D03*
X1457830Y711190D02*
D03*
X1448830D02*
D03*
X1448830Y698490D02*
D03*
X1457830D02*
D03*
X1448830Y723890D02*
D03*
X1457830D02*
D03*
X1779610Y659120D02*
D03*
X1770610D02*
D03*
X1770610Y673090D02*
D03*
X1779610D02*
D03*
X1868560Y736590D02*
D03*
X1877560D02*
D03*
X1868560Y711190D02*
D03*
X1877560D02*
D03*
X1868560Y673090D02*
D03*
X1877560D02*
D03*
X1868560Y647690D02*
D03*
X1877560D02*
D03*
X1770610Y645150D02*
D03*
X1779610D02*
D03*
X1779610Y711190D02*
D03*
X1770610D02*
D03*
X1770610Y698490D02*
D03*
X1779610D02*
D03*
X1770610Y723890D02*
D03*
X1779610D02*
D03*
X2101390Y659120D02*
D03*
X2092390D02*
D03*
X2092390Y673090D02*
D03*
X2101390D02*
D03*
X2190340Y736590D02*
D03*
X2199340D02*
D03*
X2190340Y711190D02*
D03*
X2199340D02*
D03*
X2190340Y673090D02*
D03*
X2199340D02*
D03*
X2190340Y647690D02*
D03*
X2199340D02*
D03*
X2092390Y645150D02*
D03*
X2101390D02*
D03*
X2101390Y711190D02*
D03*
X2092390D02*
D03*
X2092390Y698490D02*
D03*
X2101390D02*
D03*
X2092390Y723890D02*
D03*
X2101390D02*
D03*
X170710Y840090D02*
D03*
X161710D02*
D03*
X161710Y854060D02*
D03*
X170710D02*
D03*
X259660Y917560D02*
D03*
X268660D02*
D03*
X259660Y892160D02*
D03*
X268660D02*
D03*
X259660Y854060D02*
D03*
X268660D02*
D03*
X259660Y828660D02*
D03*
X268660D02*
D03*
X161710Y826120D02*
D03*
X170710D02*
D03*
X170710Y892160D02*
D03*
X161710D02*
D03*
X161710Y879460D02*
D03*
X170710D02*
D03*
X161710Y904860D02*
D03*
X170710D02*
D03*
X492490Y840090D02*
D03*
X483490D02*
D03*
X483490Y854060D02*
D03*
X492490D02*
D03*
X581440Y917560D02*
D03*
X590440D02*
D03*
X581440Y892160D02*
D03*
X590440D02*
D03*
X581440Y854060D02*
D03*
X590440D02*
D03*
X581440Y828660D02*
D03*
X590440D02*
D03*
X483490Y826120D02*
D03*
X492490D02*
D03*
X492490Y892160D02*
D03*
X483490D02*
D03*
X483490Y879460D02*
D03*
X492490D02*
D03*
X483490Y904860D02*
D03*
X492490D02*
D03*
X814270Y840090D02*
D03*
X805270D02*
D03*
X805270Y854060D02*
D03*
X814270D02*
D03*
X903220Y917560D02*
D03*
X912220D02*
D03*
X903220Y892160D02*
D03*
X912220D02*
D03*
X903220Y854060D02*
D03*
X912220D02*
D03*
X903220Y828660D02*
D03*
X912220D02*
D03*
X805270Y826120D02*
D03*
X814270D02*
D03*
X814270Y892160D02*
D03*
X805270D02*
D03*
X805270Y879460D02*
D03*
X814270D02*
D03*
X805270Y904860D02*
D03*
X814270D02*
D03*
X1136050Y840090D02*
D03*
X1127050D02*
D03*
X1127050Y854060D02*
D03*
X1136050D02*
D03*
X1225000Y917560D02*
D03*
X1234000D02*
D03*
X1225000Y892160D02*
D03*
X1234000D02*
D03*
X1225000Y854060D02*
D03*
X1234000D02*
D03*
X1225000Y828660D02*
D03*
X1234000D02*
D03*
X1127050Y826120D02*
D03*
X1136050D02*
D03*
X1136050Y892160D02*
D03*
X1127050D02*
D03*
X1127050Y879460D02*
D03*
X1136050D02*
D03*
X1127050Y904860D02*
D03*
X1136050D02*
D03*
X1457830Y840090D02*
D03*
X1448830D02*
D03*
X1448830Y854060D02*
D03*
X1457830D02*
D03*
X1546780Y917560D02*
D03*
X1555780D02*
D03*
X1546780Y892160D02*
D03*
X1555780D02*
D03*
X1546780Y854060D02*
D03*
X1555780D02*
D03*
X1546780Y828660D02*
D03*
X1555780D02*
D03*
X1448830Y826120D02*
D03*
X1457830D02*
D03*
X1457830Y892160D02*
D03*
X1448830D02*
D03*
X1448830Y879460D02*
D03*
X1457830D02*
D03*
X1448830Y904860D02*
D03*
X1457830D02*
D03*
X1779610Y840090D02*
D03*
X1770610D02*
D03*
X1770610Y854060D02*
D03*
X1779610D02*
D03*
X1868560Y917560D02*
D03*
X1877560D02*
D03*
X1868560Y892160D02*
D03*
X1877560D02*
D03*
X1868560Y854060D02*
D03*
X1877560D02*
D03*
X1868560Y828660D02*
D03*
X1877560D02*
D03*
X1770610Y826120D02*
D03*
X1779610D02*
D03*
X1779610Y892160D02*
D03*
X1770610D02*
D03*
X1770610Y879460D02*
D03*
X1779610D02*
D03*
X1770610Y904860D02*
D03*
X1779610D02*
D03*
X2101390Y840090D02*
D03*
X2092390D02*
D03*
X2092390Y854060D02*
D03*
X2101390D02*
D03*
X2190340Y917560D02*
D03*
X2199340D02*
D03*
X2190340Y892160D02*
D03*
X2199340D02*
D03*
X2190340Y854060D02*
D03*
X2199340D02*
D03*
X2190340Y828660D02*
D03*
X2199340D02*
D03*
X2092390Y826120D02*
D03*
X2101390D02*
D03*
X2101390Y892160D02*
D03*
X2092390D02*
D03*
X2092390Y879460D02*
D03*
X2101390D02*
D03*
X2092390Y904860D02*
D03*
X2101390D02*
D03*
X170710Y1021060D02*
D03*
X161710D02*
D03*
X161710Y1035030D02*
D03*
X170710D02*
D03*
X259660Y1098530D02*
D03*
X268660D02*
D03*
X259660Y1073130D02*
D03*
X268660D02*
D03*
X259660Y1035030D02*
D03*
X268660D02*
D03*
X259660Y1009630D02*
D03*
X268660D02*
D03*
X161710Y1007090D02*
D03*
X170710D02*
D03*
X170710Y1073130D02*
D03*
X161710D02*
D03*
X161710Y1060430D02*
D03*
X170710D02*
D03*
X161710Y1085830D02*
D03*
X170710D02*
D03*
X492490Y1021060D02*
D03*
X483490D02*
D03*
X483490Y1035030D02*
D03*
X492490D02*
D03*
X581440Y1098530D02*
D03*
X590440D02*
D03*
X581440Y1073130D02*
D03*
X590440D02*
D03*
X581440Y1035030D02*
D03*
X590440D02*
D03*
X581440Y1009630D02*
D03*
X590440D02*
D03*
X483490Y1007090D02*
D03*
X492490D02*
D03*
X492490Y1073130D02*
D03*
X483490D02*
D03*
X483490Y1060430D02*
D03*
X492490D02*
D03*
X483490Y1085830D02*
D03*
X492490D02*
D03*
X814270Y1021060D02*
D03*
X805270D02*
D03*
X805270Y1035030D02*
D03*
X814270D02*
D03*
X903220Y1098530D02*
D03*
X912220D02*
D03*
X903220Y1073130D02*
D03*
X912220D02*
D03*
X903220Y1035030D02*
D03*
X912220D02*
D03*
X903220Y1009630D02*
D03*
X912220D02*
D03*
X805270Y1007090D02*
D03*
X814270D02*
D03*
X814270Y1073130D02*
D03*
X805270D02*
D03*
X805270Y1060430D02*
D03*
X814270D02*
D03*
X805270Y1085830D02*
D03*
X814270D02*
D03*
X1136050Y1021060D02*
D03*
X1127050D02*
D03*
X1127050Y1035030D02*
D03*
X1136050D02*
D03*
X1225000Y1098530D02*
D03*
X1234000D02*
D03*
X1225000Y1073130D02*
D03*
X1234000D02*
D03*
X1225000Y1035030D02*
D03*
X1234000D02*
D03*
X1225000Y1009630D02*
D03*
X1234000D02*
D03*
X1127050Y1007090D02*
D03*
X1136050D02*
D03*
X1136050Y1073130D02*
D03*
X1127050D02*
D03*
X1127050Y1060430D02*
D03*
X1136050D02*
D03*
X1127050Y1085830D02*
D03*
X1136050D02*
D03*
X1457830Y1021060D02*
D03*
X1448830D02*
D03*
X1448830Y1035030D02*
D03*
X1457830D02*
D03*
X1546780Y1098530D02*
D03*
X1555780D02*
D03*
X1546780Y1073130D02*
D03*
X1555780D02*
D03*
X1546780Y1035030D02*
D03*
X1555780D02*
D03*
X1546780Y1009630D02*
D03*
X1555780D02*
D03*
X1448830Y1007090D02*
D03*
X1457830D02*
D03*
X1457830Y1073130D02*
D03*
X1448830D02*
D03*
X1448830Y1060430D02*
D03*
X1457830D02*
D03*
X1448830Y1085830D02*
D03*
X1457830D02*
D03*
X1779610Y1021060D02*
D03*
X1770610D02*
D03*
X1770610Y1035030D02*
D03*
X1779610D02*
D03*
X1868560Y1098530D02*
D03*
X1877560D02*
D03*
X1868560Y1073130D02*
D03*
X1877560D02*
D03*
X1868560Y1035030D02*
D03*
X1877560D02*
D03*
X1868560Y1009630D02*
D03*
X1877560D02*
D03*
X1770610Y1007090D02*
D03*
X1779610D02*
D03*
X1779610Y1073130D02*
D03*
X1770610D02*
D03*
X1770610Y1060430D02*
D03*
X1779610D02*
D03*
X1770610Y1085830D02*
D03*
X1779610D02*
D03*
X2101390Y1021060D02*
D03*
X2092390D02*
D03*
X2092390Y1035030D02*
D03*
X2101390D02*
D03*
X2190340Y1098530D02*
D03*
X2199340D02*
D03*
X2190340Y1073130D02*
D03*
X2199340D02*
D03*
X2190340Y1035030D02*
D03*
X2199340D02*
D03*
X2190340Y1009630D02*
D03*
X2199340D02*
D03*
X2092390Y1007090D02*
D03*
X2101390D02*
D03*
X2101390Y1073130D02*
D03*
X2092390D02*
D03*
X2092390Y1060430D02*
D03*
X2101390D02*
D03*
X2092390Y1085830D02*
D03*
X2101390D02*
D03*
X170710Y1202030D02*
D03*
X161710D02*
D03*
X161710Y1216000D02*
D03*
X170710D02*
D03*
X259660Y1279500D02*
D03*
X268660D02*
D03*
X259660Y1254100D02*
D03*
X268660D02*
D03*
X259660Y1216000D02*
D03*
X268660D02*
D03*
X259660Y1190600D02*
D03*
X268660D02*
D03*
X161710Y1188060D02*
D03*
X170710D02*
D03*
X170710Y1254100D02*
D03*
X161710D02*
D03*
X161710Y1241400D02*
D03*
X170710D02*
D03*
X161710Y1266800D02*
D03*
X170710D02*
D03*
X492490Y1202030D02*
D03*
X483490D02*
D03*
X483490Y1216000D02*
D03*
X492490D02*
D03*
X581440Y1279500D02*
D03*
X590440D02*
D03*
X581440Y1254100D02*
D03*
X590440D02*
D03*
X581440Y1216000D02*
D03*
X590440D02*
D03*
X581440Y1190600D02*
D03*
X590440D02*
D03*
X483490Y1188060D02*
D03*
X492490D02*
D03*
X492490Y1254100D02*
D03*
X483490D02*
D03*
X483490Y1241400D02*
D03*
X492490D02*
D03*
X483490Y1266800D02*
D03*
X492490D02*
D03*
X814270Y1202030D02*
D03*
X805270D02*
D03*
X805270Y1216000D02*
D03*
X814270D02*
D03*
X903220Y1279500D02*
D03*
X912220D02*
D03*
X903220Y1254100D02*
D03*
X912220D02*
D03*
X903220Y1216000D02*
D03*
X912220D02*
D03*
X903220Y1190600D02*
D03*
X912220D02*
D03*
X805270Y1188060D02*
D03*
X814270D02*
D03*
X814270Y1254100D02*
D03*
X805270D02*
D03*
X805270Y1241400D02*
D03*
X814270D02*
D03*
X805270Y1266800D02*
D03*
X814270D02*
D03*
X1136050Y1202030D02*
D03*
X1127050D02*
D03*
X1127050Y1216000D02*
D03*
X1136050D02*
D03*
X1225000Y1279500D02*
D03*
X1234000D02*
D03*
X1225000Y1254100D02*
D03*
X1234000D02*
D03*
X1225000Y1216000D02*
D03*
X1234000D02*
D03*
X1225000Y1190600D02*
D03*
X1234000D02*
D03*
X1127050Y1188060D02*
D03*
X1136050D02*
D03*
X1136050Y1254100D02*
D03*
X1127050D02*
D03*
X1127050Y1241400D02*
D03*
X1136050D02*
D03*
X1127050Y1266800D02*
D03*
X1136050D02*
D03*
X1457830Y1202030D02*
D03*
X1448830D02*
D03*
X1448830Y1216000D02*
D03*
X1457830D02*
D03*
X1546780Y1279500D02*
D03*
X1555780D02*
D03*
X1546780Y1254100D02*
D03*
X1555780D02*
D03*
X1546780Y1216000D02*
D03*
X1555780D02*
D03*
X1546780Y1190600D02*
D03*
X1555780D02*
D03*
X1448830Y1188060D02*
D03*
X1457830D02*
D03*
X1457830Y1254100D02*
D03*
X1448830D02*
D03*
X1448830Y1241400D02*
D03*
X1457830D02*
D03*
X1448830Y1266800D02*
D03*
X1457830D02*
D03*
X1779610Y1202030D02*
D03*
X1770610D02*
D03*
X1770610Y1216000D02*
D03*
X1779610D02*
D03*
X1868560Y1279500D02*
D03*
X1877560D02*
D03*
X1868560Y1254100D02*
D03*
X1877560D02*
D03*
X1868560Y1216000D02*
D03*
X1877560D02*
D03*
X1868560Y1190600D02*
D03*
X1877560D02*
D03*
X1770610Y1188060D02*
D03*
X1779610D02*
D03*
X1779610Y1254100D02*
D03*
X1770610D02*
D03*
X1770610Y1241400D02*
D03*
X1779610D02*
D03*
X1770610Y1266800D02*
D03*
X1779610D02*
D03*
X2101390Y1202030D02*
D03*
X2092390D02*
D03*
X2092390Y1216000D02*
D03*
X2101390D02*
D03*
X2190340Y1279500D02*
D03*
X2199340D02*
D03*
X2190340Y1254100D02*
D03*
X2199340D02*
D03*
X2190340Y1216000D02*
D03*
X2199340D02*
D03*
X2190340Y1190600D02*
D03*
X2199340D02*
D03*
X2092390Y1188060D02*
D03*
X2101390D02*
D03*
X2101390Y1254100D02*
D03*
X2092390D02*
D03*
X2092390Y1241400D02*
D03*
X2101390D02*
D03*
X2092390Y1266800D02*
D03*
X2101390D02*
D03*
X170710Y1383000D02*
D03*
X161710D02*
D03*
X161710Y1396970D02*
D03*
X170710D02*
D03*
X259660Y1460470D02*
D03*
X268660D02*
D03*
X259660Y1435070D02*
D03*
X268660D02*
D03*
X259660Y1396970D02*
D03*
X268660D02*
D03*
X259660Y1371570D02*
D03*
X268660D02*
D03*
X161710Y1369030D02*
D03*
X170710D02*
D03*
X170710Y1435070D02*
D03*
X161710D02*
D03*
X161710Y1422370D02*
D03*
X170710D02*
D03*
X161710Y1447770D02*
D03*
X170710D02*
D03*
X492490Y1383000D02*
D03*
X483490D02*
D03*
X483490Y1396970D02*
D03*
X492490D02*
D03*
X581440Y1460470D02*
D03*
X590440D02*
D03*
X581440Y1435070D02*
D03*
X590440D02*
D03*
X581440Y1396970D02*
D03*
X590440D02*
D03*
X581440Y1371570D02*
D03*
X590440D02*
D03*
X483490Y1369030D02*
D03*
X492490D02*
D03*
X492490Y1435070D02*
D03*
X483490D02*
D03*
X483490Y1422370D02*
D03*
X492490D02*
D03*
X483490Y1447770D02*
D03*
X492490D02*
D03*
X814270Y1383000D02*
D03*
X805270D02*
D03*
X805270Y1396970D02*
D03*
X814270D02*
D03*
X903220Y1460470D02*
D03*
X912220D02*
D03*
X903220Y1435070D02*
D03*
X912220D02*
D03*
X903220Y1396970D02*
D03*
X912220D02*
D03*
X903220Y1371570D02*
D03*
X912220D02*
D03*
X805270Y1369030D02*
D03*
X814270D02*
D03*
X814270Y1435070D02*
D03*
X805270D02*
D03*
X805270Y1422370D02*
D03*
X814270D02*
D03*
X805270Y1447770D02*
D03*
X814270D02*
D03*
X1136050Y1383000D02*
D03*
X1127050D02*
D03*
X1127050Y1396970D02*
D03*
X1136050D02*
D03*
X1225000Y1460470D02*
D03*
X1234000D02*
D03*
X1225000Y1435070D02*
D03*
X1234000D02*
D03*
X1225000Y1396970D02*
D03*
X1234000D02*
D03*
X1225000Y1371570D02*
D03*
X1234000D02*
D03*
X1127050Y1369030D02*
D03*
X1136050D02*
D03*
X1136050Y1435070D02*
D03*
X1127050D02*
D03*
X1127050Y1422370D02*
D03*
X1136050D02*
D03*
X1127050Y1447770D02*
D03*
X1136050D02*
D03*
X1457830Y1383000D02*
D03*
X1448830D02*
D03*
X1448830Y1396970D02*
D03*
X1457830D02*
D03*
X1546780Y1460470D02*
D03*
X1555780D02*
D03*
X1546780Y1435070D02*
D03*
X1555780D02*
D03*
X1546780Y1396970D02*
D03*
X1555780D02*
D03*
X1546780Y1371570D02*
D03*
X1555780D02*
D03*
X1448830Y1369030D02*
D03*
X1457830D02*
D03*
X1457830Y1435070D02*
D03*
X1448830D02*
D03*
X1448830Y1422370D02*
D03*
X1457830D02*
D03*
X1448830Y1447770D02*
D03*
X1457830D02*
D03*
X1779610Y1383000D02*
D03*
X1770610D02*
D03*
X1770610Y1396970D02*
D03*
X1779610D02*
D03*
X1868560Y1460470D02*
D03*
X1877560D02*
D03*
X1868560Y1435070D02*
D03*
X1877560D02*
D03*
X1868560Y1396970D02*
D03*
X1877560D02*
D03*
X1868560Y1371570D02*
D03*
X1877560D02*
D03*
X1770610Y1369030D02*
D03*
X1779610D02*
D03*
X1779610Y1435070D02*
D03*
X1770610D02*
D03*
X1770610Y1422370D02*
D03*
X1779610D02*
D03*
X1770610Y1447770D02*
D03*
X1779610D02*
D03*
X2101390Y1383000D02*
D03*
X2092390D02*
D03*
X2092390Y1396970D02*
D03*
X2101390D02*
D03*
X2190340Y1460470D02*
D03*
X2199340D02*
D03*
X2190340Y1435070D02*
D03*
X2199340D02*
D03*
X2190340Y1396970D02*
D03*
X2199340D02*
D03*
X2190340Y1371570D02*
D03*
X2199340D02*
D03*
X2092390Y1369030D02*
D03*
X2101390D02*
D03*
X2101390Y1435070D02*
D03*
X2092390D02*
D03*
X2092390Y1422370D02*
D03*
X2101390D02*
D03*
X2092390Y1447770D02*
D03*
X2101390D02*
D03*
X170710Y1563970D02*
D03*
X161710D02*
D03*
X161710Y1577940D02*
D03*
X170710D02*
D03*
X259660Y1641440D02*
D03*
X268660D02*
D03*
X259660Y1616040D02*
D03*
X268660D02*
D03*
X259660Y1577940D02*
D03*
X268660D02*
D03*
X259660Y1552540D02*
D03*
X268660D02*
D03*
X161710Y1550000D02*
D03*
X170710D02*
D03*
X170710Y1616040D02*
D03*
X161710D02*
D03*
X161710Y1603340D02*
D03*
X170710D02*
D03*
X161710Y1628740D02*
D03*
X170710D02*
D03*
X492490Y1563970D02*
D03*
X483490D02*
D03*
X483490Y1577940D02*
D03*
X492490D02*
D03*
X581440Y1641440D02*
D03*
X590440D02*
D03*
X581440Y1616040D02*
D03*
X590440D02*
D03*
X581440Y1577940D02*
D03*
X590440D02*
D03*
X581440Y1552540D02*
D03*
X590440D02*
D03*
X483490Y1550000D02*
D03*
X492490D02*
D03*
X492490Y1616040D02*
D03*
X483490D02*
D03*
X483490Y1603340D02*
D03*
X492490D02*
D03*
X483490Y1628740D02*
D03*
X492490D02*
D03*
X814270Y1563970D02*
D03*
X805270D02*
D03*
X805270Y1577940D02*
D03*
X814270D02*
D03*
X903220Y1641440D02*
D03*
X912220D02*
D03*
X903220Y1616040D02*
D03*
X912220D02*
D03*
X903220Y1577940D02*
D03*
X912220D02*
D03*
X903220Y1552540D02*
D03*
X912220D02*
D03*
X805270Y1550000D02*
D03*
X814270D02*
D03*
X814270Y1616040D02*
D03*
X805270D02*
D03*
X805270Y1603340D02*
D03*
X814270D02*
D03*
X805270Y1628740D02*
D03*
X814270D02*
D03*
X1136050Y1563970D02*
D03*
X1127050D02*
D03*
X1127050Y1577940D02*
D03*
X1136050D02*
D03*
X1225000Y1641440D02*
D03*
X1234000D02*
D03*
X1225000Y1616040D02*
D03*
X1234000D02*
D03*
X1225000Y1577940D02*
D03*
X1234000D02*
D03*
X1225000Y1552540D02*
D03*
X1234000D02*
D03*
X1127050Y1550000D02*
D03*
X1136050D02*
D03*
X1136050Y1616040D02*
D03*
X1127050D02*
D03*
X1127050Y1603340D02*
D03*
X1136050D02*
D03*
X1127050Y1628740D02*
D03*
X1136050D02*
D03*
X1457830Y1563970D02*
D03*
X1448830D02*
D03*
X1448830Y1577940D02*
D03*
X1457830D02*
D03*
X1546780Y1641440D02*
D03*
X1555780D02*
D03*
X1546780Y1616040D02*
D03*
X1555780D02*
D03*
X1546780Y1577940D02*
D03*
X1555780D02*
D03*
X1546780Y1552540D02*
D03*
X1555780D02*
D03*
X1448830Y1550000D02*
D03*
X1457830D02*
D03*
X1457830Y1616040D02*
D03*
X1448830D02*
D03*
X1448830Y1603340D02*
D03*
X1457830D02*
D03*
X1448830Y1628740D02*
D03*
X1457830D02*
D03*
X1779610Y1563970D02*
D03*
X1770610D02*
D03*
X1770610Y1577940D02*
D03*
X1779610D02*
D03*
X1868560Y1641440D02*
D03*
X1877560D02*
D03*
X1868560Y1616040D02*
D03*
X1877560D02*
D03*
X1868560Y1577940D02*
D03*
X1877560D02*
D03*
X1868560Y1552540D02*
D03*
X1877560D02*
D03*
X1770610Y1550000D02*
D03*
X1779610D02*
D03*
X1779610Y1616040D02*
D03*
X1770610D02*
D03*
X1770610Y1603340D02*
D03*
X1779610D02*
D03*
X1770610Y1628740D02*
D03*
X1779610D02*
D03*
X2101390Y1563970D02*
D03*
X2092390D02*
D03*
X2092390Y1577940D02*
D03*
X2101390D02*
D03*
X2190340Y1641440D02*
D03*
X2199340D02*
D03*
X2190340Y1616040D02*
D03*
X2199340D02*
D03*
X2190340Y1577940D02*
D03*
X2199340D02*
D03*
X2190340Y1552540D02*
D03*
X2199340D02*
D03*
X2092390Y1550000D02*
D03*
X2101390D02*
D03*
X2101390Y1616040D02*
D03*
X2092390D02*
D03*
X2092390Y1603340D02*
D03*
X2101390D02*
D03*
X2092390Y1628740D02*
D03*
X2101390D02*
D03*
X170710Y1744940D02*
D03*
X161710D02*
D03*
X161710Y1758910D02*
D03*
X170710D02*
D03*
X259660Y1822410D02*
D03*
X268660D02*
D03*
X259660Y1797010D02*
D03*
X268660D02*
D03*
X259660Y1758910D02*
D03*
X268660D02*
D03*
X259660Y1733510D02*
D03*
X268660D02*
D03*
X161710Y1730970D02*
D03*
X170710D02*
D03*
X170710Y1797010D02*
D03*
X161710D02*
D03*
X161710Y1784310D02*
D03*
X170710D02*
D03*
X161710Y1809710D02*
D03*
X170710D02*
D03*
X492490Y1744940D02*
D03*
X483490D02*
D03*
X483490Y1758910D02*
D03*
X492490D02*
D03*
X581440Y1822410D02*
D03*
X590440D02*
D03*
X581440Y1797010D02*
D03*
X590440D02*
D03*
X581440Y1758910D02*
D03*
X590440D02*
D03*
X581440Y1733510D02*
D03*
X590440D02*
D03*
X483490Y1730970D02*
D03*
X492490D02*
D03*
X492490Y1797010D02*
D03*
X483490D02*
D03*
X483490Y1784310D02*
D03*
X492490D02*
D03*
X483490Y1809710D02*
D03*
X492490D02*
D03*
X814270Y1744940D02*
D03*
X805270D02*
D03*
X805270Y1758910D02*
D03*
X814270D02*
D03*
X903220Y1822410D02*
D03*
X912220D02*
D03*
X903220Y1797010D02*
D03*
X912220D02*
D03*
X903220Y1758910D02*
D03*
X912220D02*
D03*
X903220Y1733510D02*
D03*
X912220D02*
D03*
X805270Y1730970D02*
D03*
X814270D02*
D03*
X814270Y1797010D02*
D03*
X805270D02*
D03*
X805270Y1784310D02*
D03*
X814270D02*
D03*
X805270Y1809710D02*
D03*
X814270D02*
D03*
X1136050Y1744940D02*
D03*
X1127050D02*
D03*
X1127050Y1758910D02*
D03*
X1136050D02*
D03*
X1225000Y1822410D02*
D03*
X1234000D02*
D03*
X1225000Y1797010D02*
D03*
X1234000D02*
D03*
X1225000Y1758910D02*
D03*
X1234000D02*
D03*
X1225000Y1733510D02*
D03*
X1234000D02*
D03*
X1127050Y1730970D02*
D03*
X1136050D02*
D03*
X1136050Y1797010D02*
D03*
X1127050D02*
D03*
X1127050Y1784310D02*
D03*
X1136050D02*
D03*
X1127050Y1809710D02*
D03*
X1136050D02*
D03*
X1457830Y1744940D02*
D03*
X1448830D02*
D03*
X1448830Y1758910D02*
D03*
X1457830D02*
D03*
X1546780Y1822410D02*
D03*
X1555780D02*
D03*
X1546780Y1797010D02*
D03*
X1555780D02*
D03*
X1546780Y1758910D02*
D03*
X1555780D02*
D03*
X1546780Y1733510D02*
D03*
X1555780D02*
D03*
X1448830Y1730970D02*
D03*
X1457830D02*
D03*
X1457830Y1797010D02*
D03*
X1448830D02*
D03*
X1448830Y1784310D02*
D03*
X1457830D02*
D03*
X1448830Y1809710D02*
D03*
X1457830D02*
D03*
X1779610Y1744940D02*
D03*
X1770610D02*
D03*
X1770610Y1758910D02*
D03*
X1779610D02*
D03*
X1868560Y1822410D02*
D03*
X1877560D02*
D03*
X1868560Y1797010D02*
D03*
X1877560D02*
D03*
X1868560Y1758910D02*
D03*
X1877560D02*
D03*
X1868560Y1733510D02*
D03*
X1877560D02*
D03*
X1770610Y1730970D02*
D03*
X1779610D02*
D03*
X1779610Y1797010D02*
D03*
X1770610D02*
D03*
X1770610Y1784310D02*
D03*
X1779610D02*
D03*
X1770610Y1809710D02*
D03*
X1779610D02*
D03*
X2101390Y1744940D02*
D03*
X2092390D02*
D03*
X2092390Y1758910D02*
D03*
X2101390D02*
D03*
X2190340Y1822410D02*
D03*
X2199340D02*
D03*
X2190340Y1797010D02*
D03*
X2199340D02*
D03*
X2190340Y1758910D02*
D03*
X2199340D02*
D03*
X2190340Y1733510D02*
D03*
X2199340D02*
D03*
X2092390Y1730970D02*
D03*
X2101390D02*
D03*
X2101390Y1797010D02*
D03*
X2092390D02*
D03*
X2092390Y1784310D02*
D03*
X2101390D02*
D03*
X2092390Y1809710D02*
D03*
X2101390D02*
D03*
D11*
X351260Y273050D02*
D03*
Y285750D02*
D03*
Y298450D02*
D03*
Y311150D02*
D03*
X296760Y273050D02*
D03*
Y285750D02*
D03*
Y298450D02*
D03*
Y311150D02*
D03*
X240610Y273050D02*
D03*
Y285750D02*
D03*
Y298450D02*
D03*
Y311150D02*
D03*
X186110Y273050D02*
D03*
Y285750D02*
D03*
Y298450D02*
D03*
Y311150D02*
D03*
X351260Y336550D02*
D03*
Y349250D02*
D03*
Y361950D02*
D03*
Y374650D02*
D03*
X296760Y336550D02*
D03*
Y349250D02*
D03*
Y361950D02*
D03*
Y374650D02*
D03*
X240610Y336550D02*
D03*
Y349250D02*
D03*
Y361950D02*
D03*
Y374650D02*
D03*
X186110Y336550D02*
D03*
Y349250D02*
D03*
Y361950D02*
D03*
Y374650D02*
D03*
X673040Y273050D02*
D03*
Y285750D02*
D03*
Y298450D02*
D03*
Y311150D02*
D03*
X618540Y273050D02*
D03*
Y285750D02*
D03*
Y298450D02*
D03*
Y311150D02*
D03*
X562390Y273050D02*
D03*
Y285750D02*
D03*
Y298450D02*
D03*
Y311150D02*
D03*
X507890Y273050D02*
D03*
Y285750D02*
D03*
Y298450D02*
D03*
Y311150D02*
D03*
X673040Y336550D02*
D03*
Y349250D02*
D03*
Y361950D02*
D03*
Y374650D02*
D03*
X618540Y336550D02*
D03*
Y349250D02*
D03*
Y361950D02*
D03*
Y374650D02*
D03*
X562390Y336550D02*
D03*
Y349250D02*
D03*
Y361950D02*
D03*
Y374650D02*
D03*
X507890Y336550D02*
D03*
Y349250D02*
D03*
Y361950D02*
D03*
Y374650D02*
D03*
X994820Y273050D02*
D03*
Y285750D02*
D03*
Y298450D02*
D03*
Y311150D02*
D03*
X940320Y273050D02*
D03*
Y285750D02*
D03*
Y298450D02*
D03*
Y311150D02*
D03*
X884170Y273050D02*
D03*
Y285750D02*
D03*
Y298450D02*
D03*
Y311150D02*
D03*
X829670Y273050D02*
D03*
Y285750D02*
D03*
Y298450D02*
D03*
Y311150D02*
D03*
X994820Y336550D02*
D03*
Y349250D02*
D03*
Y361950D02*
D03*
Y374650D02*
D03*
X940320Y336550D02*
D03*
Y349250D02*
D03*
Y361950D02*
D03*
Y374650D02*
D03*
X884170Y336550D02*
D03*
Y349250D02*
D03*
Y361950D02*
D03*
Y374650D02*
D03*
X829670Y336550D02*
D03*
Y349250D02*
D03*
Y361950D02*
D03*
Y374650D02*
D03*
X1316600Y273050D02*
D03*
Y285750D02*
D03*
Y298450D02*
D03*
Y311150D02*
D03*
X1262100Y273050D02*
D03*
Y285750D02*
D03*
Y298450D02*
D03*
Y311150D02*
D03*
X1205950Y273050D02*
D03*
Y285750D02*
D03*
Y298450D02*
D03*
Y311150D02*
D03*
X1151450Y273050D02*
D03*
Y285750D02*
D03*
Y298450D02*
D03*
Y311150D02*
D03*
X1316600Y336550D02*
D03*
Y349250D02*
D03*
Y361950D02*
D03*
Y374650D02*
D03*
X1262100Y336550D02*
D03*
Y349250D02*
D03*
Y361950D02*
D03*
Y374650D02*
D03*
X1205950Y336550D02*
D03*
Y349250D02*
D03*
Y361950D02*
D03*
Y374650D02*
D03*
X1151450Y336550D02*
D03*
Y349250D02*
D03*
Y361950D02*
D03*
Y374650D02*
D03*
X1638380Y273050D02*
D03*
Y285750D02*
D03*
Y298450D02*
D03*
Y311150D02*
D03*
X1583880Y273050D02*
D03*
Y285750D02*
D03*
Y298450D02*
D03*
Y311150D02*
D03*
X1527730Y273050D02*
D03*
Y285750D02*
D03*
Y298450D02*
D03*
Y311150D02*
D03*
X1473230Y273050D02*
D03*
Y285750D02*
D03*
Y298450D02*
D03*
Y311150D02*
D03*
X1638380Y336550D02*
D03*
Y349250D02*
D03*
Y361950D02*
D03*
Y374650D02*
D03*
X1583880Y336550D02*
D03*
Y349250D02*
D03*
Y361950D02*
D03*
Y374650D02*
D03*
X1527730Y336550D02*
D03*
Y349250D02*
D03*
Y361950D02*
D03*
Y374650D02*
D03*
X1473230Y336550D02*
D03*
Y349250D02*
D03*
Y361950D02*
D03*
Y374650D02*
D03*
X1960160Y273050D02*
D03*
Y285750D02*
D03*
Y298450D02*
D03*
Y311150D02*
D03*
X1905660Y273050D02*
D03*
Y285750D02*
D03*
Y298450D02*
D03*
Y311150D02*
D03*
X1849510Y273050D02*
D03*
Y285750D02*
D03*
Y298450D02*
D03*
Y311150D02*
D03*
X1795010Y273050D02*
D03*
Y285750D02*
D03*
Y298450D02*
D03*
Y311150D02*
D03*
X1960160Y336550D02*
D03*
Y349250D02*
D03*
Y361950D02*
D03*
Y374650D02*
D03*
X1905660Y336550D02*
D03*
Y349250D02*
D03*
Y361950D02*
D03*
Y374650D02*
D03*
X1849510Y336550D02*
D03*
Y349250D02*
D03*
Y361950D02*
D03*
Y374650D02*
D03*
X1795010Y336550D02*
D03*
Y349250D02*
D03*
Y361950D02*
D03*
Y374650D02*
D03*
X2281940Y273050D02*
D03*
Y285750D02*
D03*
Y298450D02*
D03*
Y311150D02*
D03*
X2227440Y273050D02*
D03*
Y285750D02*
D03*
Y298450D02*
D03*
Y311150D02*
D03*
X2171290Y273050D02*
D03*
Y285750D02*
D03*
Y298450D02*
D03*
Y311150D02*
D03*
X2116790Y273050D02*
D03*
Y285750D02*
D03*
Y298450D02*
D03*
Y311150D02*
D03*
X2281940Y336550D02*
D03*
Y349250D02*
D03*
Y361950D02*
D03*
Y374650D02*
D03*
X2227440Y336550D02*
D03*
Y349250D02*
D03*
Y361950D02*
D03*
Y374650D02*
D03*
X2171290Y336550D02*
D03*
Y349250D02*
D03*
Y361950D02*
D03*
Y374650D02*
D03*
X2116790Y336550D02*
D03*
Y349250D02*
D03*
Y361950D02*
D03*
Y374650D02*
D03*
X351260Y454020D02*
D03*
Y466720D02*
D03*
Y479420D02*
D03*
Y492120D02*
D03*
X296760Y454020D02*
D03*
Y466720D02*
D03*
Y479420D02*
D03*
Y492120D02*
D03*
X240610Y454020D02*
D03*
Y466720D02*
D03*
Y479420D02*
D03*
Y492120D02*
D03*
X186110Y454020D02*
D03*
Y466720D02*
D03*
Y479420D02*
D03*
Y492120D02*
D03*
X351260Y517520D02*
D03*
Y530220D02*
D03*
Y542920D02*
D03*
Y555620D02*
D03*
X296760Y517520D02*
D03*
Y530220D02*
D03*
Y542920D02*
D03*
Y555620D02*
D03*
X240610Y517520D02*
D03*
Y530220D02*
D03*
Y542920D02*
D03*
Y555620D02*
D03*
X186110Y517520D02*
D03*
Y530220D02*
D03*
Y542920D02*
D03*
Y555620D02*
D03*
X673040Y454020D02*
D03*
Y466720D02*
D03*
Y479420D02*
D03*
Y492120D02*
D03*
X618540Y454020D02*
D03*
Y466720D02*
D03*
Y479420D02*
D03*
Y492120D02*
D03*
X562390Y454020D02*
D03*
Y466720D02*
D03*
Y479420D02*
D03*
Y492120D02*
D03*
X507890Y454020D02*
D03*
Y466720D02*
D03*
Y479420D02*
D03*
Y492120D02*
D03*
X673040Y517520D02*
D03*
Y530220D02*
D03*
Y542920D02*
D03*
Y555620D02*
D03*
X618540Y517520D02*
D03*
Y530220D02*
D03*
Y542920D02*
D03*
Y555620D02*
D03*
X562390Y517520D02*
D03*
Y530220D02*
D03*
Y542920D02*
D03*
Y555620D02*
D03*
X507890Y517520D02*
D03*
Y530220D02*
D03*
Y542920D02*
D03*
Y555620D02*
D03*
X994820Y454020D02*
D03*
Y466720D02*
D03*
Y479420D02*
D03*
Y492120D02*
D03*
X940320Y454020D02*
D03*
Y466720D02*
D03*
Y479420D02*
D03*
Y492120D02*
D03*
X884170Y454020D02*
D03*
Y466720D02*
D03*
Y479420D02*
D03*
Y492120D02*
D03*
X829670Y454020D02*
D03*
Y466720D02*
D03*
Y479420D02*
D03*
Y492120D02*
D03*
X994820Y517520D02*
D03*
Y530220D02*
D03*
Y542920D02*
D03*
Y555620D02*
D03*
X940320Y517520D02*
D03*
Y530220D02*
D03*
Y542920D02*
D03*
Y555620D02*
D03*
X884170Y517520D02*
D03*
Y530220D02*
D03*
Y542920D02*
D03*
Y555620D02*
D03*
X829670Y517520D02*
D03*
Y530220D02*
D03*
Y542920D02*
D03*
Y555620D02*
D03*
X1316600Y454020D02*
D03*
Y466720D02*
D03*
Y479420D02*
D03*
Y492120D02*
D03*
X1262100Y454020D02*
D03*
Y466720D02*
D03*
Y479420D02*
D03*
Y492120D02*
D03*
X1205950Y454020D02*
D03*
Y466720D02*
D03*
Y479420D02*
D03*
Y492120D02*
D03*
X1151450Y454020D02*
D03*
Y466720D02*
D03*
Y479420D02*
D03*
Y492120D02*
D03*
X1316600Y517520D02*
D03*
Y530220D02*
D03*
Y542920D02*
D03*
Y555620D02*
D03*
X1262100Y517520D02*
D03*
Y530220D02*
D03*
Y542920D02*
D03*
Y555620D02*
D03*
X1205950Y517520D02*
D03*
Y530220D02*
D03*
Y542920D02*
D03*
Y555620D02*
D03*
X1151450Y517520D02*
D03*
Y530220D02*
D03*
Y542920D02*
D03*
Y555620D02*
D03*
X1638380Y454020D02*
D03*
Y466720D02*
D03*
Y479420D02*
D03*
Y492120D02*
D03*
X1583880Y454020D02*
D03*
Y466720D02*
D03*
Y479420D02*
D03*
Y492120D02*
D03*
X1527730Y454020D02*
D03*
Y466720D02*
D03*
Y479420D02*
D03*
Y492120D02*
D03*
X1473230Y454020D02*
D03*
Y466720D02*
D03*
Y479420D02*
D03*
Y492120D02*
D03*
X1638380Y517520D02*
D03*
Y530220D02*
D03*
Y542920D02*
D03*
Y555620D02*
D03*
X1583880Y517520D02*
D03*
Y530220D02*
D03*
Y542920D02*
D03*
Y555620D02*
D03*
X1527730Y517520D02*
D03*
Y530220D02*
D03*
Y542920D02*
D03*
Y555620D02*
D03*
X1473230Y517520D02*
D03*
Y530220D02*
D03*
Y542920D02*
D03*
Y555620D02*
D03*
X1960160Y454020D02*
D03*
Y466720D02*
D03*
Y479420D02*
D03*
Y492120D02*
D03*
X1905660Y454020D02*
D03*
Y466720D02*
D03*
Y479420D02*
D03*
Y492120D02*
D03*
X1849510Y454020D02*
D03*
Y466720D02*
D03*
Y479420D02*
D03*
Y492120D02*
D03*
X1795010Y454020D02*
D03*
Y466720D02*
D03*
Y479420D02*
D03*
Y492120D02*
D03*
X1960160Y517520D02*
D03*
Y530220D02*
D03*
Y542920D02*
D03*
Y555620D02*
D03*
X1905660Y517520D02*
D03*
Y530220D02*
D03*
Y542920D02*
D03*
Y555620D02*
D03*
X1849510Y517520D02*
D03*
Y530220D02*
D03*
Y542920D02*
D03*
Y555620D02*
D03*
X1795010Y517520D02*
D03*
Y530220D02*
D03*
Y542920D02*
D03*
Y555620D02*
D03*
X2281940Y454020D02*
D03*
Y466720D02*
D03*
Y479420D02*
D03*
Y492120D02*
D03*
X2227440Y454020D02*
D03*
Y466720D02*
D03*
Y479420D02*
D03*
Y492120D02*
D03*
X2171290Y454020D02*
D03*
Y466720D02*
D03*
Y479420D02*
D03*
Y492120D02*
D03*
X2116790Y454020D02*
D03*
Y466720D02*
D03*
Y479420D02*
D03*
Y492120D02*
D03*
X2281940Y517520D02*
D03*
Y530220D02*
D03*
Y542920D02*
D03*
Y555620D02*
D03*
X2227440Y517520D02*
D03*
Y530220D02*
D03*
Y542920D02*
D03*
Y555620D02*
D03*
X2171290Y517520D02*
D03*
Y530220D02*
D03*
Y542920D02*
D03*
Y555620D02*
D03*
X2116790Y517520D02*
D03*
Y530220D02*
D03*
Y542920D02*
D03*
Y555620D02*
D03*
X351260Y634990D02*
D03*
Y647690D02*
D03*
Y660390D02*
D03*
Y673090D02*
D03*
X296760Y634990D02*
D03*
Y647690D02*
D03*
Y660390D02*
D03*
Y673090D02*
D03*
X240610Y634990D02*
D03*
Y647690D02*
D03*
Y660390D02*
D03*
Y673090D02*
D03*
X186110Y634990D02*
D03*
Y647690D02*
D03*
Y660390D02*
D03*
Y673090D02*
D03*
X351260Y698490D02*
D03*
Y711190D02*
D03*
Y723890D02*
D03*
Y736590D02*
D03*
X296760Y698490D02*
D03*
Y711190D02*
D03*
Y723890D02*
D03*
Y736590D02*
D03*
X240610Y698490D02*
D03*
Y711190D02*
D03*
Y723890D02*
D03*
Y736590D02*
D03*
X186110Y698490D02*
D03*
Y711190D02*
D03*
Y723890D02*
D03*
Y736590D02*
D03*
X673040Y634990D02*
D03*
Y647690D02*
D03*
Y660390D02*
D03*
Y673090D02*
D03*
X618540Y634990D02*
D03*
Y647690D02*
D03*
Y660390D02*
D03*
Y673090D02*
D03*
X562390Y634990D02*
D03*
Y647690D02*
D03*
Y660390D02*
D03*
Y673090D02*
D03*
X507890Y634990D02*
D03*
Y647690D02*
D03*
Y660390D02*
D03*
Y673090D02*
D03*
X673040Y698490D02*
D03*
Y711190D02*
D03*
Y723890D02*
D03*
Y736590D02*
D03*
X618540Y698490D02*
D03*
Y711190D02*
D03*
Y723890D02*
D03*
Y736590D02*
D03*
X562390Y698490D02*
D03*
Y711190D02*
D03*
Y723890D02*
D03*
Y736590D02*
D03*
X507890Y698490D02*
D03*
Y711190D02*
D03*
Y723890D02*
D03*
Y736590D02*
D03*
X994820Y634990D02*
D03*
Y647690D02*
D03*
Y660390D02*
D03*
Y673090D02*
D03*
X940320Y634990D02*
D03*
Y647690D02*
D03*
Y660390D02*
D03*
Y673090D02*
D03*
X884170Y634990D02*
D03*
Y647690D02*
D03*
Y660390D02*
D03*
Y673090D02*
D03*
X829670Y634990D02*
D03*
Y647690D02*
D03*
Y660390D02*
D03*
Y673090D02*
D03*
X994820Y698490D02*
D03*
Y711190D02*
D03*
Y723890D02*
D03*
Y736590D02*
D03*
X940320Y698490D02*
D03*
Y711190D02*
D03*
Y723890D02*
D03*
Y736590D02*
D03*
X884170Y698490D02*
D03*
Y711190D02*
D03*
Y723890D02*
D03*
Y736590D02*
D03*
X829670Y698490D02*
D03*
Y711190D02*
D03*
Y723890D02*
D03*
Y736590D02*
D03*
X1316600Y634990D02*
D03*
Y647690D02*
D03*
Y660390D02*
D03*
Y673090D02*
D03*
X1262100Y634990D02*
D03*
Y647690D02*
D03*
Y660390D02*
D03*
Y673090D02*
D03*
X1205950Y634990D02*
D03*
Y647690D02*
D03*
Y660390D02*
D03*
Y673090D02*
D03*
X1151450Y634990D02*
D03*
Y647690D02*
D03*
Y660390D02*
D03*
Y673090D02*
D03*
X1316600Y698490D02*
D03*
Y711190D02*
D03*
Y723890D02*
D03*
Y736590D02*
D03*
X1262100Y698490D02*
D03*
Y711190D02*
D03*
Y723890D02*
D03*
Y736590D02*
D03*
X1205950Y698490D02*
D03*
Y711190D02*
D03*
Y723890D02*
D03*
Y736590D02*
D03*
X1151450Y698490D02*
D03*
Y711190D02*
D03*
Y723890D02*
D03*
Y736590D02*
D03*
X1638380Y634990D02*
D03*
Y647690D02*
D03*
Y660390D02*
D03*
Y673090D02*
D03*
X1583880Y634990D02*
D03*
Y647690D02*
D03*
Y660390D02*
D03*
Y673090D02*
D03*
X1527730Y634990D02*
D03*
Y647690D02*
D03*
Y660390D02*
D03*
Y673090D02*
D03*
X1473230Y634990D02*
D03*
Y647690D02*
D03*
Y660390D02*
D03*
Y673090D02*
D03*
X1638380Y698490D02*
D03*
Y711190D02*
D03*
Y723890D02*
D03*
Y736590D02*
D03*
X1583880Y698490D02*
D03*
Y711190D02*
D03*
Y723890D02*
D03*
Y736590D02*
D03*
X1527730Y698490D02*
D03*
Y711190D02*
D03*
Y723890D02*
D03*
Y736590D02*
D03*
X1473230Y698490D02*
D03*
Y711190D02*
D03*
Y723890D02*
D03*
Y736590D02*
D03*
X1960160Y634990D02*
D03*
Y647690D02*
D03*
Y660390D02*
D03*
Y673090D02*
D03*
X1905660Y634990D02*
D03*
Y647690D02*
D03*
Y660390D02*
D03*
Y673090D02*
D03*
X1849510Y634990D02*
D03*
Y647690D02*
D03*
Y660390D02*
D03*
Y673090D02*
D03*
X1795010Y634990D02*
D03*
Y647690D02*
D03*
Y660390D02*
D03*
Y673090D02*
D03*
X1960160Y698490D02*
D03*
Y711190D02*
D03*
Y723890D02*
D03*
Y736590D02*
D03*
X1905660Y698490D02*
D03*
Y711190D02*
D03*
Y723890D02*
D03*
Y736590D02*
D03*
X1849510Y698490D02*
D03*
Y711190D02*
D03*
Y723890D02*
D03*
Y736590D02*
D03*
X1795010Y698490D02*
D03*
Y711190D02*
D03*
Y723890D02*
D03*
Y736590D02*
D03*
X2281940Y634990D02*
D03*
Y647690D02*
D03*
Y660390D02*
D03*
Y673090D02*
D03*
X2227440Y634990D02*
D03*
Y647690D02*
D03*
Y660390D02*
D03*
Y673090D02*
D03*
X2171290Y634990D02*
D03*
Y647690D02*
D03*
Y660390D02*
D03*
Y673090D02*
D03*
X2116790Y634990D02*
D03*
Y647690D02*
D03*
Y660390D02*
D03*
Y673090D02*
D03*
X2281940Y698490D02*
D03*
Y711190D02*
D03*
Y723890D02*
D03*
Y736590D02*
D03*
X2227440Y698490D02*
D03*
Y711190D02*
D03*
Y723890D02*
D03*
Y736590D02*
D03*
X2171290Y698490D02*
D03*
Y711190D02*
D03*
Y723890D02*
D03*
Y736590D02*
D03*
X2116790Y698490D02*
D03*
Y711190D02*
D03*
Y723890D02*
D03*
Y736590D02*
D03*
X351260Y815960D02*
D03*
Y828660D02*
D03*
Y841360D02*
D03*
Y854060D02*
D03*
X296760Y815960D02*
D03*
Y828660D02*
D03*
Y841360D02*
D03*
Y854060D02*
D03*
X240610Y815960D02*
D03*
Y828660D02*
D03*
Y841360D02*
D03*
Y854060D02*
D03*
X186110Y815960D02*
D03*
Y828660D02*
D03*
Y841360D02*
D03*
Y854060D02*
D03*
X351260Y879460D02*
D03*
Y892160D02*
D03*
Y904860D02*
D03*
Y917560D02*
D03*
X296760Y879460D02*
D03*
Y892160D02*
D03*
Y904860D02*
D03*
Y917560D02*
D03*
X240610Y879460D02*
D03*
Y892160D02*
D03*
Y904860D02*
D03*
Y917560D02*
D03*
X186110Y879460D02*
D03*
Y892160D02*
D03*
Y904860D02*
D03*
Y917560D02*
D03*
X673040Y815960D02*
D03*
Y828660D02*
D03*
Y841360D02*
D03*
Y854060D02*
D03*
X618540Y815960D02*
D03*
Y828660D02*
D03*
Y841360D02*
D03*
Y854060D02*
D03*
X562390Y815960D02*
D03*
Y828660D02*
D03*
Y841360D02*
D03*
Y854060D02*
D03*
X507890Y815960D02*
D03*
Y828660D02*
D03*
Y841360D02*
D03*
Y854060D02*
D03*
X673040Y879460D02*
D03*
Y892160D02*
D03*
Y904860D02*
D03*
Y917560D02*
D03*
X618540Y879460D02*
D03*
Y892160D02*
D03*
Y904860D02*
D03*
Y917560D02*
D03*
X562390Y879460D02*
D03*
Y892160D02*
D03*
Y904860D02*
D03*
Y917560D02*
D03*
X507890Y879460D02*
D03*
Y892160D02*
D03*
Y904860D02*
D03*
Y917560D02*
D03*
X994820Y815960D02*
D03*
Y828660D02*
D03*
Y841360D02*
D03*
Y854060D02*
D03*
X940320Y815960D02*
D03*
Y828660D02*
D03*
Y841360D02*
D03*
Y854060D02*
D03*
X884170Y815960D02*
D03*
Y828660D02*
D03*
Y841360D02*
D03*
Y854060D02*
D03*
X829670Y815960D02*
D03*
Y828660D02*
D03*
Y841360D02*
D03*
Y854060D02*
D03*
X994820Y879460D02*
D03*
Y892160D02*
D03*
Y904860D02*
D03*
Y917560D02*
D03*
X940320Y879460D02*
D03*
Y892160D02*
D03*
Y904860D02*
D03*
Y917560D02*
D03*
X884170Y879460D02*
D03*
Y892160D02*
D03*
Y904860D02*
D03*
Y917560D02*
D03*
X829670Y879460D02*
D03*
Y892160D02*
D03*
Y904860D02*
D03*
Y917560D02*
D03*
X1316600Y815960D02*
D03*
Y828660D02*
D03*
Y841360D02*
D03*
Y854060D02*
D03*
X1262100Y815960D02*
D03*
Y828660D02*
D03*
Y841360D02*
D03*
Y854060D02*
D03*
X1205950Y815960D02*
D03*
Y828660D02*
D03*
Y841360D02*
D03*
Y854060D02*
D03*
X1151450Y815960D02*
D03*
Y828660D02*
D03*
Y841360D02*
D03*
Y854060D02*
D03*
X1316600Y879460D02*
D03*
Y892160D02*
D03*
Y904860D02*
D03*
Y917560D02*
D03*
X1262100Y879460D02*
D03*
Y892160D02*
D03*
Y904860D02*
D03*
Y917560D02*
D03*
X1205950Y879460D02*
D03*
Y892160D02*
D03*
Y904860D02*
D03*
Y917560D02*
D03*
X1151450Y879460D02*
D03*
Y892160D02*
D03*
Y904860D02*
D03*
Y917560D02*
D03*
X1638380Y815960D02*
D03*
Y828660D02*
D03*
Y841360D02*
D03*
Y854060D02*
D03*
X1583880Y815960D02*
D03*
Y828660D02*
D03*
Y841360D02*
D03*
Y854060D02*
D03*
X1527730Y815960D02*
D03*
Y828660D02*
D03*
Y841360D02*
D03*
Y854060D02*
D03*
X1473230Y815960D02*
D03*
Y828660D02*
D03*
Y841360D02*
D03*
Y854060D02*
D03*
X1638380Y879460D02*
D03*
Y892160D02*
D03*
Y904860D02*
D03*
Y917560D02*
D03*
X1583880Y879460D02*
D03*
Y892160D02*
D03*
Y904860D02*
D03*
Y917560D02*
D03*
X1527730Y879460D02*
D03*
Y892160D02*
D03*
Y904860D02*
D03*
Y917560D02*
D03*
X1473230Y879460D02*
D03*
Y892160D02*
D03*
Y904860D02*
D03*
Y917560D02*
D03*
X1960160Y815960D02*
D03*
Y828660D02*
D03*
Y841360D02*
D03*
Y854060D02*
D03*
X1905660Y815960D02*
D03*
Y828660D02*
D03*
Y841360D02*
D03*
Y854060D02*
D03*
X1849510Y815960D02*
D03*
Y828660D02*
D03*
Y841360D02*
D03*
Y854060D02*
D03*
X1795010Y815960D02*
D03*
Y828660D02*
D03*
Y841360D02*
D03*
Y854060D02*
D03*
X1960160Y879460D02*
D03*
Y892160D02*
D03*
Y904860D02*
D03*
Y917560D02*
D03*
X1905660Y879460D02*
D03*
Y892160D02*
D03*
Y904860D02*
D03*
Y917560D02*
D03*
X1849510Y879460D02*
D03*
Y892160D02*
D03*
Y904860D02*
D03*
Y917560D02*
D03*
X1795010Y879460D02*
D03*
Y892160D02*
D03*
Y904860D02*
D03*
Y917560D02*
D03*
X2281940Y815960D02*
D03*
Y828660D02*
D03*
Y841360D02*
D03*
Y854060D02*
D03*
X2227440Y815960D02*
D03*
Y828660D02*
D03*
Y841360D02*
D03*
Y854060D02*
D03*
X2171290Y815960D02*
D03*
Y828660D02*
D03*
Y841360D02*
D03*
Y854060D02*
D03*
X2116790Y815960D02*
D03*
Y828660D02*
D03*
Y841360D02*
D03*
Y854060D02*
D03*
X2281940Y879460D02*
D03*
Y892160D02*
D03*
Y904860D02*
D03*
Y917560D02*
D03*
X2227440Y879460D02*
D03*
Y892160D02*
D03*
Y904860D02*
D03*
Y917560D02*
D03*
X2171290Y879460D02*
D03*
Y892160D02*
D03*
Y904860D02*
D03*
Y917560D02*
D03*
X2116790Y879460D02*
D03*
Y892160D02*
D03*
Y904860D02*
D03*
Y917560D02*
D03*
X351260Y996930D02*
D03*
Y1009630D02*
D03*
Y1022330D02*
D03*
Y1035030D02*
D03*
X296760Y996930D02*
D03*
Y1009630D02*
D03*
Y1022330D02*
D03*
Y1035030D02*
D03*
X240610Y996930D02*
D03*
Y1009630D02*
D03*
Y1022330D02*
D03*
Y1035030D02*
D03*
X186110Y996930D02*
D03*
Y1009630D02*
D03*
Y1022330D02*
D03*
Y1035030D02*
D03*
X351260Y1060430D02*
D03*
Y1073130D02*
D03*
Y1085830D02*
D03*
Y1098530D02*
D03*
X296760Y1060430D02*
D03*
Y1073130D02*
D03*
Y1085830D02*
D03*
Y1098530D02*
D03*
X240610Y1060430D02*
D03*
Y1073130D02*
D03*
Y1085830D02*
D03*
Y1098530D02*
D03*
X186110Y1060430D02*
D03*
Y1073130D02*
D03*
Y1085830D02*
D03*
Y1098530D02*
D03*
X673040Y996930D02*
D03*
Y1009630D02*
D03*
Y1022330D02*
D03*
Y1035030D02*
D03*
X618540Y996930D02*
D03*
Y1009630D02*
D03*
Y1022330D02*
D03*
Y1035030D02*
D03*
X562390Y996930D02*
D03*
Y1009630D02*
D03*
Y1022330D02*
D03*
Y1035030D02*
D03*
X507890Y996930D02*
D03*
Y1009630D02*
D03*
Y1022330D02*
D03*
Y1035030D02*
D03*
X673040Y1060430D02*
D03*
Y1073130D02*
D03*
Y1085830D02*
D03*
Y1098530D02*
D03*
X618540Y1060430D02*
D03*
Y1073130D02*
D03*
Y1085830D02*
D03*
Y1098530D02*
D03*
X562390Y1060430D02*
D03*
Y1073130D02*
D03*
Y1085830D02*
D03*
Y1098530D02*
D03*
X507890Y1060430D02*
D03*
Y1073130D02*
D03*
Y1085830D02*
D03*
Y1098530D02*
D03*
X994820Y996930D02*
D03*
Y1009630D02*
D03*
Y1022330D02*
D03*
Y1035030D02*
D03*
X940320Y996930D02*
D03*
Y1009630D02*
D03*
Y1022330D02*
D03*
Y1035030D02*
D03*
X884170Y996930D02*
D03*
Y1009630D02*
D03*
Y1022330D02*
D03*
Y1035030D02*
D03*
X829670Y996930D02*
D03*
Y1009630D02*
D03*
Y1022330D02*
D03*
Y1035030D02*
D03*
X994820Y1060430D02*
D03*
Y1073130D02*
D03*
Y1085830D02*
D03*
Y1098530D02*
D03*
X940320Y1060430D02*
D03*
Y1073130D02*
D03*
Y1085830D02*
D03*
Y1098530D02*
D03*
X884170Y1060430D02*
D03*
Y1073130D02*
D03*
Y1085830D02*
D03*
Y1098530D02*
D03*
X829670Y1060430D02*
D03*
Y1073130D02*
D03*
Y1085830D02*
D03*
Y1098530D02*
D03*
X1316600Y996930D02*
D03*
Y1009630D02*
D03*
Y1022330D02*
D03*
Y1035030D02*
D03*
X1262100Y996930D02*
D03*
Y1009630D02*
D03*
Y1022330D02*
D03*
Y1035030D02*
D03*
X1205950Y996930D02*
D03*
Y1009630D02*
D03*
Y1022330D02*
D03*
Y1035030D02*
D03*
X1151450Y996930D02*
D03*
Y1009630D02*
D03*
Y1022330D02*
D03*
Y1035030D02*
D03*
X1316600Y1060430D02*
D03*
Y1073130D02*
D03*
Y1085830D02*
D03*
Y1098530D02*
D03*
X1262100Y1060430D02*
D03*
Y1073130D02*
D03*
Y1085830D02*
D03*
Y1098530D02*
D03*
X1205950Y1060430D02*
D03*
Y1073130D02*
D03*
Y1085830D02*
D03*
Y1098530D02*
D03*
X1151450Y1060430D02*
D03*
Y1073130D02*
D03*
Y1085830D02*
D03*
Y1098530D02*
D03*
X1638380Y996930D02*
D03*
Y1009630D02*
D03*
Y1022330D02*
D03*
Y1035030D02*
D03*
X1583880Y996930D02*
D03*
Y1009630D02*
D03*
Y1022330D02*
D03*
Y1035030D02*
D03*
X1527730Y996930D02*
D03*
Y1009630D02*
D03*
Y1022330D02*
D03*
Y1035030D02*
D03*
X1473230Y996930D02*
D03*
Y1009630D02*
D03*
Y1022330D02*
D03*
Y1035030D02*
D03*
X1638380Y1060430D02*
D03*
Y1073130D02*
D03*
Y1085830D02*
D03*
Y1098530D02*
D03*
X1583880Y1060430D02*
D03*
Y1073130D02*
D03*
Y1085830D02*
D03*
Y1098530D02*
D03*
X1527730Y1060430D02*
D03*
Y1073130D02*
D03*
Y1085830D02*
D03*
Y1098530D02*
D03*
X1473230Y1060430D02*
D03*
Y1073130D02*
D03*
Y1085830D02*
D03*
Y1098530D02*
D03*
X1960160Y996930D02*
D03*
Y1009630D02*
D03*
Y1022330D02*
D03*
Y1035030D02*
D03*
X1905660Y996930D02*
D03*
Y1009630D02*
D03*
Y1022330D02*
D03*
Y1035030D02*
D03*
X1849510Y996930D02*
D03*
Y1009630D02*
D03*
Y1022330D02*
D03*
Y1035030D02*
D03*
X1795010Y996930D02*
D03*
Y1009630D02*
D03*
Y1022330D02*
D03*
Y1035030D02*
D03*
X1960160Y1060430D02*
D03*
Y1073130D02*
D03*
Y1085830D02*
D03*
Y1098530D02*
D03*
X1905660Y1060430D02*
D03*
Y1073130D02*
D03*
Y1085830D02*
D03*
Y1098530D02*
D03*
X1849510Y1060430D02*
D03*
Y1073130D02*
D03*
Y1085830D02*
D03*
Y1098530D02*
D03*
X1795010Y1060430D02*
D03*
Y1073130D02*
D03*
Y1085830D02*
D03*
Y1098530D02*
D03*
X2281940Y996930D02*
D03*
Y1009630D02*
D03*
Y1022330D02*
D03*
Y1035030D02*
D03*
X2227440Y996930D02*
D03*
Y1009630D02*
D03*
Y1022330D02*
D03*
Y1035030D02*
D03*
X2171290Y996930D02*
D03*
Y1009630D02*
D03*
Y1022330D02*
D03*
Y1035030D02*
D03*
X2116790Y996930D02*
D03*
Y1009630D02*
D03*
Y1022330D02*
D03*
Y1035030D02*
D03*
X2281940Y1060430D02*
D03*
Y1073130D02*
D03*
Y1085830D02*
D03*
Y1098530D02*
D03*
X2227440Y1060430D02*
D03*
Y1073130D02*
D03*
Y1085830D02*
D03*
Y1098530D02*
D03*
X2171290Y1060430D02*
D03*
Y1073130D02*
D03*
Y1085830D02*
D03*
Y1098530D02*
D03*
X2116790Y1060430D02*
D03*
Y1073130D02*
D03*
Y1085830D02*
D03*
Y1098530D02*
D03*
X351260Y1177900D02*
D03*
Y1190600D02*
D03*
Y1203300D02*
D03*
Y1216000D02*
D03*
X296760Y1177900D02*
D03*
Y1190600D02*
D03*
Y1203300D02*
D03*
Y1216000D02*
D03*
X240610Y1177900D02*
D03*
Y1190600D02*
D03*
Y1203300D02*
D03*
Y1216000D02*
D03*
X186110Y1177900D02*
D03*
Y1190600D02*
D03*
Y1203300D02*
D03*
Y1216000D02*
D03*
X351260Y1241400D02*
D03*
Y1254100D02*
D03*
Y1266800D02*
D03*
Y1279500D02*
D03*
X296760Y1241400D02*
D03*
Y1254100D02*
D03*
Y1266800D02*
D03*
Y1279500D02*
D03*
X240610Y1241400D02*
D03*
Y1254100D02*
D03*
Y1266800D02*
D03*
Y1279500D02*
D03*
X186110Y1241400D02*
D03*
Y1254100D02*
D03*
Y1266800D02*
D03*
Y1279500D02*
D03*
X673040Y1177900D02*
D03*
Y1190600D02*
D03*
Y1203300D02*
D03*
Y1216000D02*
D03*
X618540Y1177900D02*
D03*
Y1190600D02*
D03*
Y1203300D02*
D03*
Y1216000D02*
D03*
X562390Y1177900D02*
D03*
Y1190600D02*
D03*
Y1203300D02*
D03*
Y1216000D02*
D03*
X507890Y1177900D02*
D03*
Y1190600D02*
D03*
Y1203300D02*
D03*
Y1216000D02*
D03*
X673040Y1241400D02*
D03*
Y1254100D02*
D03*
Y1266800D02*
D03*
Y1279500D02*
D03*
X618540Y1241400D02*
D03*
Y1254100D02*
D03*
Y1266800D02*
D03*
Y1279500D02*
D03*
X562390Y1241400D02*
D03*
Y1254100D02*
D03*
Y1266800D02*
D03*
Y1279500D02*
D03*
X507890Y1241400D02*
D03*
Y1254100D02*
D03*
Y1266800D02*
D03*
Y1279500D02*
D03*
X994820Y1177900D02*
D03*
Y1190600D02*
D03*
Y1203300D02*
D03*
Y1216000D02*
D03*
X940320Y1177900D02*
D03*
Y1190600D02*
D03*
Y1203300D02*
D03*
Y1216000D02*
D03*
X884170Y1177900D02*
D03*
Y1190600D02*
D03*
Y1203300D02*
D03*
Y1216000D02*
D03*
X829670Y1177900D02*
D03*
Y1190600D02*
D03*
Y1203300D02*
D03*
Y1216000D02*
D03*
X994820Y1241400D02*
D03*
Y1254100D02*
D03*
Y1266800D02*
D03*
Y1279500D02*
D03*
X940320Y1241400D02*
D03*
Y1254100D02*
D03*
Y1266800D02*
D03*
Y1279500D02*
D03*
X884170Y1241400D02*
D03*
Y1254100D02*
D03*
Y1266800D02*
D03*
Y1279500D02*
D03*
X829670Y1241400D02*
D03*
Y1254100D02*
D03*
Y1266800D02*
D03*
Y1279500D02*
D03*
X1316600Y1177900D02*
D03*
Y1190600D02*
D03*
Y1203300D02*
D03*
Y1216000D02*
D03*
X1262100Y1177900D02*
D03*
Y1190600D02*
D03*
Y1203300D02*
D03*
Y1216000D02*
D03*
X1205950Y1177900D02*
D03*
Y1190600D02*
D03*
Y1203300D02*
D03*
Y1216000D02*
D03*
X1151450Y1177900D02*
D03*
Y1190600D02*
D03*
Y1203300D02*
D03*
Y1216000D02*
D03*
X1316600Y1241400D02*
D03*
Y1254100D02*
D03*
Y1266800D02*
D03*
Y1279500D02*
D03*
X1262100Y1241400D02*
D03*
Y1254100D02*
D03*
Y1266800D02*
D03*
Y1279500D02*
D03*
X1205950Y1241400D02*
D03*
Y1254100D02*
D03*
Y1266800D02*
D03*
Y1279500D02*
D03*
X1151450Y1241400D02*
D03*
Y1254100D02*
D03*
Y1266800D02*
D03*
Y1279500D02*
D03*
X1638380Y1177900D02*
D03*
Y1190600D02*
D03*
Y1203300D02*
D03*
Y1216000D02*
D03*
X1583880Y1177900D02*
D03*
Y1190600D02*
D03*
Y1203300D02*
D03*
Y1216000D02*
D03*
X1527730Y1177900D02*
D03*
Y1190600D02*
D03*
Y1203300D02*
D03*
Y1216000D02*
D03*
X1473230Y1177900D02*
D03*
Y1190600D02*
D03*
Y1203300D02*
D03*
Y1216000D02*
D03*
X1638380Y1241400D02*
D03*
Y1254100D02*
D03*
Y1266800D02*
D03*
Y1279500D02*
D03*
X1583880Y1241400D02*
D03*
Y1254100D02*
D03*
Y1266800D02*
D03*
Y1279500D02*
D03*
X1527730Y1241400D02*
D03*
Y1254100D02*
D03*
Y1266800D02*
D03*
Y1279500D02*
D03*
X1473230Y1241400D02*
D03*
Y1254100D02*
D03*
Y1266800D02*
D03*
Y1279500D02*
D03*
X1960160Y1177900D02*
D03*
Y1190600D02*
D03*
Y1203300D02*
D03*
Y1216000D02*
D03*
X1905660Y1177900D02*
D03*
Y1190600D02*
D03*
Y1203300D02*
D03*
Y1216000D02*
D03*
X1849510Y1177900D02*
D03*
Y1190600D02*
D03*
Y1203300D02*
D03*
Y1216000D02*
D03*
X1795010Y1177900D02*
D03*
Y1190600D02*
D03*
Y1203300D02*
D03*
Y1216000D02*
D03*
X1960160Y1241400D02*
D03*
Y1254100D02*
D03*
Y1266800D02*
D03*
Y1279500D02*
D03*
X1905660Y1241400D02*
D03*
Y1254100D02*
D03*
Y1266800D02*
D03*
Y1279500D02*
D03*
X1849510Y1241400D02*
D03*
Y1254100D02*
D03*
Y1266800D02*
D03*
Y1279500D02*
D03*
X1795010Y1241400D02*
D03*
Y1254100D02*
D03*
Y1266800D02*
D03*
Y1279500D02*
D03*
X2281940Y1177900D02*
D03*
Y1190600D02*
D03*
Y1203300D02*
D03*
Y1216000D02*
D03*
X2227440Y1177900D02*
D03*
Y1190600D02*
D03*
Y1203300D02*
D03*
Y1216000D02*
D03*
X2171290Y1177900D02*
D03*
Y1190600D02*
D03*
Y1203300D02*
D03*
Y1216000D02*
D03*
X2116790Y1177900D02*
D03*
Y1190600D02*
D03*
Y1203300D02*
D03*
Y1216000D02*
D03*
X2281940Y1241400D02*
D03*
Y1254100D02*
D03*
Y1266800D02*
D03*
Y1279500D02*
D03*
X2227440Y1241400D02*
D03*
Y1254100D02*
D03*
Y1266800D02*
D03*
Y1279500D02*
D03*
X2171290Y1241400D02*
D03*
Y1254100D02*
D03*
Y1266800D02*
D03*
Y1279500D02*
D03*
X2116790Y1241400D02*
D03*
Y1254100D02*
D03*
Y1266800D02*
D03*
Y1279500D02*
D03*
X351260Y1358870D02*
D03*
Y1371570D02*
D03*
Y1384270D02*
D03*
Y1396970D02*
D03*
X296760Y1358870D02*
D03*
Y1371570D02*
D03*
Y1384270D02*
D03*
Y1396970D02*
D03*
X240610Y1358870D02*
D03*
Y1371570D02*
D03*
Y1384270D02*
D03*
Y1396970D02*
D03*
X186110Y1358870D02*
D03*
Y1371570D02*
D03*
Y1384270D02*
D03*
Y1396970D02*
D03*
X351260Y1422370D02*
D03*
Y1435070D02*
D03*
Y1447770D02*
D03*
Y1460470D02*
D03*
X296760Y1422370D02*
D03*
Y1435070D02*
D03*
Y1447770D02*
D03*
Y1460470D02*
D03*
X240610Y1422370D02*
D03*
Y1435070D02*
D03*
Y1447770D02*
D03*
Y1460470D02*
D03*
X186110Y1422370D02*
D03*
Y1435070D02*
D03*
Y1447770D02*
D03*
Y1460470D02*
D03*
X673040Y1358870D02*
D03*
Y1371570D02*
D03*
Y1384270D02*
D03*
Y1396970D02*
D03*
X618540Y1358870D02*
D03*
Y1371570D02*
D03*
Y1384270D02*
D03*
Y1396970D02*
D03*
X562390Y1358870D02*
D03*
Y1371570D02*
D03*
Y1384270D02*
D03*
Y1396970D02*
D03*
X507890Y1358870D02*
D03*
Y1371570D02*
D03*
Y1384270D02*
D03*
Y1396970D02*
D03*
X673040Y1422370D02*
D03*
Y1435070D02*
D03*
Y1447770D02*
D03*
Y1460470D02*
D03*
X618540Y1422370D02*
D03*
Y1435070D02*
D03*
Y1447770D02*
D03*
Y1460470D02*
D03*
X562390Y1422370D02*
D03*
Y1435070D02*
D03*
Y1447770D02*
D03*
Y1460470D02*
D03*
X507890Y1422370D02*
D03*
Y1435070D02*
D03*
Y1447770D02*
D03*
Y1460470D02*
D03*
X994820Y1358870D02*
D03*
Y1371570D02*
D03*
Y1384270D02*
D03*
Y1396970D02*
D03*
X940320Y1358870D02*
D03*
Y1371570D02*
D03*
Y1384270D02*
D03*
Y1396970D02*
D03*
X884170Y1358870D02*
D03*
Y1371570D02*
D03*
Y1384270D02*
D03*
Y1396970D02*
D03*
X829670Y1358870D02*
D03*
Y1371570D02*
D03*
Y1384270D02*
D03*
Y1396970D02*
D03*
X994820Y1422370D02*
D03*
Y1435070D02*
D03*
Y1447770D02*
D03*
Y1460470D02*
D03*
X940320Y1422370D02*
D03*
Y1435070D02*
D03*
Y1447770D02*
D03*
Y1460470D02*
D03*
X884170Y1422370D02*
D03*
Y1435070D02*
D03*
Y1447770D02*
D03*
Y1460470D02*
D03*
X829670Y1422370D02*
D03*
Y1435070D02*
D03*
Y1447770D02*
D03*
Y1460470D02*
D03*
X1316600Y1358870D02*
D03*
Y1371570D02*
D03*
Y1384270D02*
D03*
Y1396970D02*
D03*
X1262100Y1358870D02*
D03*
Y1371570D02*
D03*
Y1384270D02*
D03*
Y1396970D02*
D03*
X1205950Y1358870D02*
D03*
Y1371570D02*
D03*
Y1384270D02*
D03*
Y1396970D02*
D03*
X1151450Y1358870D02*
D03*
Y1371570D02*
D03*
Y1384270D02*
D03*
Y1396970D02*
D03*
X1316600Y1422370D02*
D03*
Y1435070D02*
D03*
Y1447770D02*
D03*
Y1460470D02*
D03*
X1262100Y1422370D02*
D03*
Y1435070D02*
D03*
Y1447770D02*
D03*
Y1460470D02*
D03*
X1205950Y1422370D02*
D03*
Y1435070D02*
D03*
Y1447770D02*
D03*
Y1460470D02*
D03*
X1151450Y1422370D02*
D03*
Y1435070D02*
D03*
Y1447770D02*
D03*
Y1460470D02*
D03*
X1638380Y1358870D02*
D03*
Y1371570D02*
D03*
Y1384270D02*
D03*
Y1396970D02*
D03*
X1583880Y1358870D02*
D03*
Y1371570D02*
D03*
Y1384270D02*
D03*
Y1396970D02*
D03*
X1527730Y1358870D02*
D03*
Y1371570D02*
D03*
Y1384270D02*
D03*
Y1396970D02*
D03*
X1473230Y1358870D02*
D03*
Y1371570D02*
D03*
Y1384270D02*
D03*
Y1396970D02*
D03*
X1638380Y1422370D02*
D03*
Y1435070D02*
D03*
Y1447770D02*
D03*
Y1460470D02*
D03*
X1583880Y1422370D02*
D03*
Y1435070D02*
D03*
Y1447770D02*
D03*
Y1460470D02*
D03*
X1527730Y1422370D02*
D03*
Y1435070D02*
D03*
Y1447770D02*
D03*
Y1460470D02*
D03*
X1473230Y1422370D02*
D03*
Y1435070D02*
D03*
Y1447770D02*
D03*
Y1460470D02*
D03*
X1960160Y1358870D02*
D03*
Y1371570D02*
D03*
Y1384270D02*
D03*
Y1396970D02*
D03*
X1905660Y1358870D02*
D03*
Y1371570D02*
D03*
Y1384270D02*
D03*
Y1396970D02*
D03*
X1849510Y1358870D02*
D03*
Y1371570D02*
D03*
Y1384270D02*
D03*
Y1396970D02*
D03*
X1795010Y1358870D02*
D03*
Y1371570D02*
D03*
Y1384270D02*
D03*
Y1396970D02*
D03*
X1960160Y1422370D02*
D03*
Y1435070D02*
D03*
Y1447770D02*
D03*
Y1460470D02*
D03*
X1905660Y1422370D02*
D03*
Y1435070D02*
D03*
Y1447770D02*
D03*
Y1460470D02*
D03*
X1849510Y1422370D02*
D03*
Y1435070D02*
D03*
Y1447770D02*
D03*
Y1460470D02*
D03*
X1795010Y1422370D02*
D03*
Y1435070D02*
D03*
Y1447770D02*
D03*
Y1460470D02*
D03*
X2281940Y1358870D02*
D03*
Y1371570D02*
D03*
Y1384270D02*
D03*
Y1396970D02*
D03*
X2227440Y1358870D02*
D03*
Y1371570D02*
D03*
Y1384270D02*
D03*
Y1396970D02*
D03*
X2171290Y1358870D02*
D03*
Y1371570D02*
D03*
Y1384270D02*
D03*
Y1396970D02*
D03*
X2116790Y1358870D02*
D03*
Y1371570D02*
D03*
Y1384270D02*
D03*
Y1396970D02*
D03*
X2281940Y1422370D02*
D03*
Y1435070D02*
D03*
Y1447770D02*
D03*
Y1460470D02*
D03*
X2227440Y1422370D02*
D03*
Y1435070D02*
D03*
Y1447770D02*
D03*
Y1460470D02*
D03*
X2171290Y1422370D02*
D03*
Y1435070D02*
D03*
Y1447770D02*
D03*
Y1460470D02*
D03*
X2116790Y1422370D02*
D03*
Y1435070D02*
D03*
Y1447770D02*
D03*
Y1460470D02*
D03*
X351260Y1539840D02*
D03*
Y1552540D02*
D03*
Y1565240D02*
D03*
Y1577940D02*
D03*
X296760Y1539840D02*
D03*
Y1552540D02*
D03*
Y1565240D02*
D03*
Y1577940D02*
D03*
X240610Y1539840D02*
D03*
Y1552540D02*
D03*
Y1565240D02*
D03*
Y1577940D02*
D03*
X186110Y1539840D02*
D03*
Y1552540D02*
D03*
Y1565240D02*
D03*
Y1577940D02*
D03*
X351260Y1603340D02*
D03*
Y1616040D02*
D03*
Y1628740D02*
D03*
Y1641440D02*
D03*
X296760Y1603340D02*
D03*
Y1616040D02*
D03*
Y1628740D02*
D03*
Y1641440D02*
D03*
X240610Y1603340D02*
D03*
Y1616040D02*
D03*
Y1628740D02*
D03*
Y1641440D02*
D03*
X186110Y1603340D02*
D03*
Y1616040D02*
D03*
Y1628740D02*
D03*
Y1641440D02*
D03*
X673040Y1539840D02*
D03*
Y1552540D02*
D03*
Y1565240D02*
D03*
Y1577940D02*
D03*
X618540Y1539840D02*
D03*
Y1552540D02*
D03*
Y1565240D02*
D03*
Y1577940D02*
D03*
X562390Y1539840D02*
D03*
Y1552540D02*
D03*
Y1565240D02*
D03*
Y1577940D02*
D03*
X507890Y1539840D02*
D03*
Y1552540D02*
D03*
Y1565240D02*
D03*
Y1577940D02*
D03*
X673040Y1603340D02*
D03*
Y1616040D02*
D03*
Y1628740D02*
D03*
Y1641440D02*
D03*
X618540Y1603340D02*
D03*
Y1616040D02*
D03*
Y1628740D02*
D03*
Y1641440D02*
D03*
X562390Y1603340D02*
D03*
Y1616040D02*
D03*
Y1628740D02*
D03*
Y1641440D02*
D03*
X507890Y1603340D02*
D03*
Y1616040D02*
D03*
Y1628740D02*
D03*
Y1641440D02*
D03*
X994820Y1539840D02*
D03*
Y1552540D02*
D03*
Y1565240D02*
D03*
Y1577940D02*
D03*
X940320Y1539840D02*
D03*
Y1552540D02*
D03*
Y1565240D02*
D03*
Y1577940D02*
D03*
X884170Y1539840D02*
D03*
Y1552540D02*
D03*
Y1565240D02*
D03*
Y1577940D02*
D03*
X829670Y1539840D02*
D03*
Y1552540D02*
D03*
Y1565240D02*
D03*
Y1577940D02*
D03*
X994820Y1603340D02*
D03*
Y1616040D02*
D03*
Y1628740D02*
D03*
Y1641440D02*
D03*
X940320Y1603340D02*
D03*
Y1616040D02*
D03*
Y1628740D02*
D03*
Y1641440D02*
D03*
X884170Y1603340D02*
D03*
Y1616040D02*
D03*
Y1628740D02*
D03*
Y1641440D02*
D03*
X829670Y1603340D02*
D03*
Y1616040D02*
D03*
Y1628740D02*
D03*
Y1641440D02*
D03*
X1316600Y1539840D02*
D03*
Y1552540D02*
D03*
Y1565240D02*
D03*
Y1577940D02*
D03*
X1262100Y1539840D02*
D03*
Y1552540D02*
D03*
Y1565240D02*
D03*
Y1577940D02*
D03*
X1205950Y1539840D02*
D03*
Y1552540D02*
D03*
Y1565240D02*
D03*
Y1577940D02*
D03*
X1151450Y1539840D02*
D03*
Y1552540D02*
D03*
Y1565240D02*
D03*
Y1577940D02*
D03*
X1316600Y1603340D02*
D03*
Y1616040D02*
D03*
Y1628740D02*
D03*
Y1641440D02*
D03*
X1262100Y1603340D02*
D03*
Y1616040D02*
D03*
Y1628740D02*
D03*
Y1641440D02*
D03*
X1205950Y1603340D02*
D03*
Y1616040D02*
D03*
Y1628740D02*
D03*
Y1641440D02*
D03*
X1151450Y1603340D02*
D03*
Y1616040D02*
D03*
Y1628740D02*
D03*
Y1641440D02*
D03*
X1638380Y1539840D02*
D03*
Y1552540D02*
D03*
Y1565240D02*
D03*
Y1577940D02*
D03*
X1583880Y1539840D02*
D03*
Y1552540D02*
D03*
Y1565240D02*
D03*
Y1577940D02*
D03*
X1527730Y1539840D02*
D03*
Y1552540D02*
D03*
Y1565240D02*
D03*
Y1577940D02*
D03*
X1473230Y1539840D02*
D03*
Y1552540D02*
D03*
Y1565240D02*
D03*
Y1577940D02*
D03*
X1638380Y1603340D02*
D03*
Y1616040D02*
D03*
Y1628740D02*
D03*
Y1641440D02*
D03*
X1583880Y1603340D02*
D03*
Y1616040D02*
D03*
Y1628740D02*
D03*
Y1641440D02*
D03*
X1527730Y1603340D02*
D03*
Y1616040D02*
D03*
Y1628740D02*
D03*
Y1641440D02*
D03*
X1473230Y1603340D02*
D03*
Y1616040D02*
D03*
Y1628740D02*
D03*
Y1641440D02*
D03*
X1960160Y1539840D02*
D03*
Y1552540D02*
D03*
Y1565240D02*
D03*
Y1577940D02*
D03*
X1905660Y1539840D02*
D03*
Y1552540D02*
D03*
Y1565240D02*
D03*
Y1577940D02*
D03*
X1849510Y1539840D02*
D03*
Y1552540D02*
D03*
Y1565240D02*
D03*
Y1577940D02*
D03*
X1795010Y1539840D02*
D03*
Y1552540D02*
D03*
Y1565240D02*
D03*
Y1577940D02*
D03*
X1960160Y1603340D02*
D03*
Y1616040D02*
D03*
Y1628740D02*
D03*
Y1641440D02*
D03*
X1905660Y1603340D02*
D03*
Y1616040D02*
D03*
Y1628740D02*
D03*
Y1641440D02*
D03*
X1849510Y1603340D02*
D03*
Y1616040D02*
D03*
Y1628740D02*
D03*
Y1641440D02*
D03*
X1795010Y1603340D02*
D03*
Y1616040D02*
D03*
Y1628740D02*
D03*
Y1641440D02*
D03*
X2281940Y1539840D02*
D03*
Y1552540D02*
D03*
Y1565240D02*
D03*
Y1577940D02*
D03*
X2227440Y1539840D02*
D03*
Y1552540D02*
D03*
Y1565240D02*
D03*
Y1577940D02*
D03*
X2171290Y1539840D02*
D03*
Y1552540D02*
D03*
Y1565240D02*
D03*
Y1577940D02*
D03*
X2116790Y1539840D02*
D03*
Y1552540D02*
D03*
Y1565240D02*
D03*
Y1577940D02*
D03*
X2281940Y1603340D02*
D03*
Y1616040D02*
D03*
Y1628740D02*
D03*
Y1641440D02*
D03*
X2227440Y1603340D02*
D03*
Y1616040D02*
D03*
Y1628740D02*
D03*
Y1641440D02*
D03*
X2171290Y1603340D02*
D03*
Y1616040D02*
D03*
Y1628740D02*
D03*
Y1641440D02*
D03*
X2116790Y1603340D02*
D03*
Y1616040D02*
D03*
Y1628740D02*
D03*
Y1641440D02*
D03*
X351260Y1720810D02*
D03*
Y1733510D02*
D03*
Y1746210D02*
D03*
Y1758910D02*
D03*
X296760Y1720810D02*
D03*
Y1733510D02*
D03*
Y1746210D02*
D03*
Y1758910D02*
D03*
X240610Y1720810D02*
D03*
Y1733510D02*
D03*
Y1746210D02*
D03*
Y1758910D02*
D03*
X186110Y1720810D02*
D03*
Y1733510D02*
D03*
Y1746210D02*
D03*
Y1758910D02*
D03*
X351260Y1784310D02*
D03*
Y1797010D02*
D03*
Y1809710D02*
D03*
Y1822410D02*
D03*
X296760Y1784310D02*
D03*
Y1797010D02*
D03*
Y1809710D02*
D03*
Y1822410D02*
D03*
X240610Y1784310D02*
D03*
Y1797010D02*
D03*
Y1809710D02*
D03*
Y1822410D02*
D03*
X186110Y1784310D02*
D03*
Y1797010D02*
D03*
Y1809710D02*
D03*
Y1822410D02*
D03*
X673040Y1720810D02*
D03*
Y1733510D02*
D03*
Y1746210D02*
D03*
Y1758910D02*
D03*
X618540Y1720810D02*
D03*
Y1733510D02*
D03*
Y1746210D02*
D03*
Y1758910D02*
D03*
X562390Y1720810D02*
D03*
Y1733510D02*
D03*
Y1746210D02*
D03*
Y1758910D02*
D03*
X507890Y1720810D02*
D03*
Y1733510D02*
D03*
Y1746210D02*
D03*
Y1758910D02*
D03*
X673040Y1784310D02*
D03*
Y1797010D02*
D03*
Y1809710D02*
D03*
Y1822410D02*
D03*
X618540Y1784310D02*
D03*
Y1797010D02*
D03*
Y1809710D02*
D03*
Y1822410D02*
D03*
X562390Y1784310D02*
D03*
Y1797010D02*
D03*
Y1809710D02*
D03*
Y1822410D02*
D03*
X507890Y1784310D02*
D03*
Y1797010D02*
D03*
Y1809710D02*
D03*
Y1822410D02*
D03*
X994820Y1720810D02*
D03*
Y1733510D02*
D03*
Y1746210D02*
D03*
Y1758910D02*
D03*
X940320Y1720810D02*
D03*
Y1733510D02*
D03*
Y1746210D02*
D03*
Y1758910D02*
D03*
X884170Y1720810D02*
D03*
Y1733510D02*
D03*
Y1746210D02*
D03*
Y1758910D02*
D03*
X829670Y1720810D02*
D03*
Y1733510D02*
D03*
Y1746210D02*
D03*
Y1758910D02*
D03*
X994820Y1784310D02*
D03*
Y1797010D02*
D03*
Y1809710D02*
D03*
Y1822410D02*
D03*
X940320Y1784310D02*
D03*
Y1797010D02*
D03*
Y1809710D02*
D03*
Y1822410D02*
D03*
X884170Y1784310D02*
D03*
Y1797010D02*
D03*
Y1809710D02*
D03*
Y1822410D02*
D03*
X829670Y1784310D02*
D03*
Y1797010D02*
D03*
Y1809710D02*
D03*
Y1822410D02*
D03*
X1316600Y1720810D02*
D03*
Y1733510D02*
D03*
Y1746210D02*
D03*
Y1758910D02*
D03*
X1262100Y1720810D02*
D03*
Y1733510D02*
D03*
Y1746210D02*
D03*
Y1758910D02*
D03*
X1205950Y1720810D02*
D03*
Y1733510D02*
D03*
Y1746210D02*
D03*
Y1758910D02*
D03*
X1151450Y1720810D02*
D03*
Y1733510D02*
D03*
Y1746210D02*
D03*
Y1758910D02*
D03*
X1316600Y1784310D02*
D03*
Y1797010D02*
D03*
Y1809710D02*
D03*
Y1822410D02*
D03*
X1262100Y1784310D02*
D03*
Y1797010D02*
D03*
Y1809710D02*
D03*
Y1822410D02*
D03*
X1205950Y1784310D02*
D03*
Y1797010D02*
D03*
Y1809710D02*
D03*
Y1822410D02*
D03*
X1151450Y1784310D02*
D03*
Y1797010D02*
D03*
Y1809710D02*
D03*
Y1822410D02*
D03*
X1638380Y1720810D02*
D03*
Y1733510D02*
D03*
Y1746210D02*
D03*
Y1758910D02*
D03*
X1583880Y1720810D02*
D03*
Y1733510D02*
D03*
Y1746210D02*
D03*
Y1758910D02*
D03*
X1527730Y1720810D02*
D03*
Y1733510D02*
D03*
Y1746210D02*
D03*
Y1758910D02*
D03*
X1473230Y1720810D02*
D03*
Y1733510D02*
D03*
Y1746210D02*
D03*
Y1758910D02*
D03*
X1638380Y1784310D02*
D03*
Y1797010D02*
D03*
Y1809710D02*
D03*
Y1822410D02*
D03*
X1583880Y1784310D02*
D03*
Y1797010D02*
D03*
Y1809710D02*
D03*
Y1822410D02*
D03*
X1527730Y1784310D02*
D03*
Y1797010D02*
D03*
Y1809710D02*
D03*
Y1822410D02*
D03*
X1473230Y1784310D02*
D03*
Y1797010D02*
D03*
Y1809710D02*
D03*
Y1822410D02*
D03*
X1960160Y1720810D02*
D03*
Y1733510D02*
D03*
Y1746210D02*
D03*
Y1758910D02*
D03*
X1905660Y1720810D02*
D03*
Y1733510D02*
D03*
Y1746210D02*
D03*
Y1758910D02*
D03*
X1849510Y1720810D02*
D03*
Y1733510D02*
D03*
Y1746210D02*
D03*
Y1758910D02*
D03*
X1795010Y1720810D02*
D03*
Y1733510D02*
D03*
Y1746210D02*
D03*
Y1758910D02*
D03*
X1960160Y1784310D02*
D03*
Y1797010D02*
D03*
Y1809710D02*
D03*
Y1822410D02*
D03*
X1905660Y1784310D02*
D03*
Y1797010D02*
D03*
Y1809710D02*
D03*
Y1822410D02*
D03*
X1849510Y1784310D02*
D03*
Y1797010D02*
D03*
Y1809710D02*
D03*
Y1822410D02*
D03*
X1795010Y1784310D02*
D03*
Y1797010D02*
D03*
Y1809710D02*
D03*
Y1822410D02*
D03*
X2281940Y1720810D02*
D03*
Y1733510D02*
D03*
Y1746210D02*
D03*
Y1758910D02*
D03*
X2227440Y1720810D02*
D03*
Y1733510D02*
D03*
Y1746210D02*
D03*
Y1758910D02*
D03*
X2171290Y1720810D02*
D03*
Y1733510D02*
D03*
Y1746210D02*
D03*
Y1758910D02*
D03*
X2116790Y1720810D02*
D03*
Y1733510D02*
D03*
Y1746210D02*
D03*
Y1758910D02*
D03*
X2281940Y1784310D02*
D03*
Y1797010D02*
D03*
Y1809710D02*
D03*
Y1822410D02*
D03*
X2227440Y1784310D02*
D03*
Y1797010D02*
D03*
Y1809710D02*
D03*
Y1822410D02*
D03*
X2171290Y1784310D02*
D03*
Y1797010D02*
D03*
Y1809710D02*
D03*
Y1822410D02*
D03*
X2116790Y1784310D02*
D03*
Y1797010D02*
D03*
Y1809710D02*
D03*
Y1822410D02*
D03*
D12*
X268160Y298450D02*
D03*
X260160D02*
D03*
X268160Y361950D02*
D03*
X260160D02*
D03*
X589940Y298450D02*
D03*
X581940D02*
D03*
X589940Y361950D02*
D03*
X581940D02*
D03*
X911720Y298450D02*
D03*
X903720D02*
D03*
X911720Y361950D02*
D03*
X903720D02*
D03*
X1233500Y298450D02*
D03*
X1225500D02*
D03*
X1233500Y361950D02*
D03*
X1225500D02*
D03*
X1555280Y298450D02*
D03*
X1547280D02*
D03*
X1555280Y361950D02*
D03*
X1547280D02*
D03*
X1877060Y298450D02*
D03*
X1869060D02*
D03*
X1877060Y361950D02*
D03*
X1869060D02*
D03*
X2198840Y298450D02*
D03*
X2190840D02*
D03*
X2198840Y361950D02*
D03*
X2190840D02*
D03*
X268160Y479420D02*
D03*
X260160D02*
D03*
X268160Y542920D02*
D03*
X260160D02*
D03*
X589940Y479420D02*
D03*
X581940D02*
D03*
X589940Y542920D02*
D03*
X581940D02*
D03*
X911720Y479420D02*
D03*
X903720D02*
D03*
X911720Y542920D02*
D03*
X903720D02*
D03*
X1233500Y479420D02*
D03*
X1225500D02*
D03*
X1233500Y542920D02*
D03*
X1225500D02*
D03*
X1555280Y479420D02*
D03*
X1547280D02*
D03*
X1555280Y542920D02*
D03*
X1547280D02*
D03*
X1877060Y479420D02*
D03*
X1869060D02*
D03*
X1877060Y542920D02*
D03*
X1869060D02*
D03*
X2198840Y479420D02*
D03*
X2190840D02*
D03*
X2198840Y542920D02*
D03*
X2190840D02*
D03*
X268160Y660390D02*
D03*
X260160D02*
D03*
X268160Y723890D02*
D03*
X260160D02*
D03*
X589940Y660390D02*
D03*
X581940D02*
D03*
X589940Y723890D02*
D03*
X581940D02*
D03*
X911720Y660390D02*
D03*
X903720D02*
D03*
X911720Y723890D02*
D03*
X903720D02*
D03*
X1233500Y660390D02*
D03*
X1225500D02*
D03*
X1233500Y723890D02*
D03*
X1225500D02*
D03*
X1555280Y660390D02*
D03*
X1547280D02*
D03*
X1555280Y723890D02*
D03*
X1547280D02*
D03*
X1877060Y660390D02*
D03*
X1869060D02*
D03*
X1877060Y723890D02*
D03*
X1869060D02*
D03*
X2198840Y660390D02*
D03*
X2190840D02*
D03*
X2198840Y723890D02*
D03*
X2190840D02*
D03*
X268160Y841360D02*
D03*
X260160D02*
D03*
X268160Y904860D02*
D03*
X260160D02*
D03*
X589940Y841360D02*
D03*
X581940D02*
D03*
X589940Y904860D02*
D03*
X581940D02*
D03*
X911720Y841360D02*
D03*
X903720D02*
D03*
X911720Y904860D02*
D03*
X903720D02*
D03*
X1233500Y841360D02*
D03*
X1225500D02*
D03*
X1233500Y904860D02*
D03*
X1225500D02*
D03*
X1555280Y841360D02*
D03*
X1547280D02*
D03*
X1555280Y904860D02*
D03*
X1547280D02*
D03*
X1877060Y841360D02*
D03*
X1869060D02*
D03*
X1877060Y904860D02*
D03*
X1869060D02*
D03*
X2198840Y841360D02*
D03*
X2190840D02*
D03*
X2198840Y904860D02*
D03*
X2190840D02*
D03*
X268160Y1022330D02*
D03*
X260160D02*
D03*
X268160Y1085830D02*
D03*
X260160D02*
D03*
X589940Y1022330D02*
D03*
X581940D02*
D03*
X589940Y1085830D02*
D03*
X581940D02*
D03*
X911720Y1022330D02*
D03*
X903720D02*
D03*
X911720Y1085830D02*
D03*
X903720D02*
D03*
X1233500Y1022330D02*
D03*
X1225500D02*
D03*
X1233500Y1085830D02*
D03*
X1225500D02*
D03*
X1555280Y1022330D02*
D03*
X1547280D02*
D03*
X1555280Y1085830D02*
D03*
X1547280D02*
D03*
X1877060Y1022330D02*
D03*
X1869060D02*
D03*
X1877060Y1085830D02*
D03*
X1869060D02*
D03*
X2198840Y1022330D02*
D03*
X2190840D02*
D03*
X2198840Y1085830D02*
D03*
X2190840D02*
D03*
X268160Y1203300D02*
D03*
X260160D02*
D03*
X268160Y1266800D02*
D03*
X260160D02*
D03*
X589940Y1203300D02*
D03*
X581940D02*
D03*
X589940Y1266800D02*
D03*
X581940D02*
D03*
X911720Y1203300D02*
D03*
X903720D02*
D03*
X911720Y1266800D02*
D03*
X903720D02*
D03*
X1233500Y1203300D02*
D03*
X1225500D02*
D03*
X1233500Y1266800D02*
D03*
X1225500D02*
D03*
X1555280Y1203300D02*
D03*
X1547280D02*
D03*
X1555280Y1266800D02*
D03*
X1547280D02*
D03*
X1877060Y1203300D02*
D03*
X1869060D02*
D03*
X1877060Y1266800D02*
D03*
X1869060D02*
D03*
X2198840Y1203300D02*
D03*
X2190840D02*
D03*
X2198840Y1266800D02*
D03*
X2190840D02*
D03*
X268160Y1384270D02*
D03*
X260160D02*
D03*
X268160Y1447770D02*
D03*
X260160D02*
D03*
X589940Y1384270D02*
D03*
X581940D02*
D03*
X589940Y1447770D02*
D03*
X581940D02*
D03*
X911720Y1384270D02*
D03*
X903720D02*
D03*
X911720Y1447770D02*
D03*
X903720D02*
D03*
X1233500Y1384270D02*
D03*
X1225500D02*
D03*
X1233500Y1447770D02*
D03*
X1225500D02*
D03*
X1555280Y1384270D02*
D03*
X1547280D02*
D03*
X1555280Y1447770D02*
D03*
X1547280D02*
D03*
X1877060Y1384270D02*
D03*
X1869060D02*
D03*
X1877060Y1447770D02*
D03*
X1869060D02*
D03*
X2198840Y1384270D02*
D03*
X2190840D02*
D03*
X2198840Y1447770D02*
D03*
X2190840D02*
D03*
X268160Y1565240D02*
D03*
X260160D02*
D03*
X268160Y1628740D02*
D03*
X260160D02*
D03*
X589940Y1565240D02*
D03*
X581940D02*
D03*
X589940Y1628740D02*
D03*
X581940D02*
D03*
X911720Y1565240D02*
D03*
X903720D02*
D03*
X911720Y1628740D02*
D03*
X903720D02*
D03*
X1233500Y1565240D02*
D03*
X1225500D02*
D03*
X1233500Y1628740D02*
D03*
X1225500D02*
D03*
X1555280Y1565240D02*
D03*
X1547280D02*
D03*
X1555280Y1628740D02*
D03*
X1547280D02*
D03*
X1877060Y1565240D02*
D03*
X1869060D02*
D03*
X1877060Y1628740D02*
D03*
X1869060D02*
D03*
X2198840Y1565240D02*
D03*
X2190840D02*
D03*
X2198840Y1628740D02*
D03*
X2190840D02*
D03*
X268160Y1746210D02*
D03*
X260160D02*
D03*
X268160Y1809710D02*
D03*
X260160D02*
D03*
X589940Y1746210D02*
D03*
X581940D02*
D03*
X589940Y1809710D02*
D03*
X581940D02*
D03*
X911720Y1746210D02*
D03*
X903720D02*
D03*
X911720Y1809710D02*
D03*
X903720D02*
D03*
X1233500Y1746210D02*
D03*
X1225500D02*
D03*
X1233500Y1809710D02*
D03*
X1225500D02*
D03*
X1555280Y1746210D02*
D03*
X1547280D02*
D03*
X1555280Y1809710D02*
D03*
X1547280D02*
D03*
X1877060Y1746210D02*
D03*
X1869060D02*
D03*
X1877060Y1809710D02*
D03*
X1869060D02*
D03*
X2198840Y1746210D02*
D03*
X2190840D02*
D03*
X2198840Y1809710D02*
D03*
X2190840D02*
D03*
D13*
X388270Y361950D02*
D03*
Y336550D02*
D03*
Y311150D02*
D03*
X138270Y361950D02*
D03*
Y336550D02*
D03*
Y311150D02*
D03*
X710050Y361950D02*
D03*
Y336550D02*
D03*
Y311150D02*
D03*
X460050Y361950D02*
D03*
Y336550D02*
D03*
Y311150D02*
D03*
X1031830Y361950D02*
D03*
Y336550D02*
D03*
Y311150D02*
D03*
X781830Y361950D02*
D03*
Y336550D02*
D03*
Y311150D02*
D03*
X1353610Y361950D02*
D03*
Y336550D02*
D03*
Y311150D02*
D03*
X1103610Y361950D02*
D03*
Y336550D02*
D03*
Y311150D02*
D03*
X1675390Y361950D02*
D03*
Y336550D02*
D03*
Y311150D02*
D03*
X1425390Y361950D02*
D03*
Y336550D02*
D03*
Y311150D02*
D03*
X1997170Y361950D02*
D03*
Y336550D02*
D03*
Y311150D02*
D03*
X1747170Y361950D02*
D03*
Y336550D02*
D03*
Y311150D02*
D03*
X2318950Y361950D02*
D03*
Y336550D02*
D03*
Y311150D02*
D03*
X2068950Y361950D02*
D03*
Y336550D02*
D03*
Y311150D02*
D03*
X388270Y542920D02*
D03*
Y517520D02*
D03*
Y492120D02*
D03*
X138270Y542920D02*
D03*
Y517520D02*
D03*
Y492120D02*
D03*
X710050Y542920D02*
D03*
Y517520D02*
D03*
Y492120D02*
D03*
X460050Y542920D02*
D03*
Y517520D02*
D03*
Y492120D02*
D03*
X1031830Y542920D02*
D03*
Y517520D02*
D03*
Y492120D02*
D03*
X781830Y542920D02*
D03*
Y517520D02*
D03*
Y492120D02*
D03*
X1353610Y542920D02*
D03*
Y517520D02*
D03*
Y492120D02*
D03*
X1103610Y542920D02*
D03*
Y517520D02*
D03*
Y492120D02*
D03*
X1675390Y542920D02*
D03*
Y517520D02*
D03*
Y492120D02*
D03*
X1425390Y542920D02*
D03*
Y517520D02*
D03*
Y492120D02*
D03*
X1997170Y542920D02*
D03*
Y517520D02*
D03*
Y492120D02*
D03*
X1747170Y542920D02*
D03*
Y517520D02*
D03*
Y492120D02*
D03*
X2318950Y542920D02*
D03*
Y517520D02*
D03*
Y492120D02*
D03*
X2068950Y542920D02*
D03*
Y517520D02*
D03*
Y492120D02*
D03*
X388270Y723890D02*
D03*
Y698490D02*
D03*
Y673090D02*
D03*
X138270Y723890D02*
D03*
Y698490D02*
D03*
Y673090D02*
D03*
X710050Y723890D02*
D03*
Y698490D02*
D03*
Y673090D02*
D03*
X460050Y723890D02*
D03*
Y698490D02*
D03*
Y673090D02*
D03*
X1031830Y723890D02*
D03*
Y698490D02*
D03*
Y673090D02*
D03*
X781830Y723890D02*
D03*
Y698490D02*
D03*
Y673090D02*
D03*
X1353610Y723890D02*
D03*
Y698490D02*
D03*
Y673090D02*
D03*
X1103610Y723890D02*
D03*
Y698490D02*
D03*
Y673090D02*
D03*
X1675390Y723890D02*
D03*
Y698490D02*
D03*
Y673090D02*
D03*
X1425390Y723890D02*
D03*
Y698490D02*
D03*
Y673090D02*
D03*
X1997170Y723890D02*
D03*
Y698490D02*
D03*
Y673090D02*
D03*
X1747170Y723890D02*
D03*
Y698490D02*
D03*
Y673090D02*
D03*
X2318950Y723890D02*
D03*
Y698490D02*
D03*
Y673090D02*
D03*
X2068950Y723890D02*
D03*
Y698490D02*
D03*
Y673090D02*
D03*
X388270Y904860D02*
D03*
Y879460D02*
D03*
Y854060D02*
D03*
X138270Y904860D02*
D03*
Y879460D02*
D03*
Y854060D02*
D03*
X710050Y904860D02*
D03*
Y879460D02*
D03*
Y854060D02*
D03*
X460050Y904860D02*
D03*
Y879460D02*
D03*
Y854060D02*
D03*
X1031830Y904860D02*
D03*
Y879460D02*
D03*
Y854060D02*
D03*
X781830Y904860D02*
D03*
Y879460D02*
D03*
Y854060D02*
D03*
X1353610Y904860D02*
D03*
Y879460D02*
D03*
Y854060D02*
D03*
X1103610Y904860D02*
D03*
Y879460D02*
D03*
Y854060D02*
D03*
X1675390Y904860D02*
D03*
Y879460D02*
D03*
Y854060D02*
D03*
X1425390Y904860D02*
D03*
Y879460D02*
D03*
Y854060D02*
D03*
X1997170Y904860D02*
D03*
Y879460D02*
D03*
Y854060D02*
D03*
X1747170Y904860D02*
D03*
Y879460D02*
D03*
Y854060D02*
D03*
X2318950Y904860D02*
D03*
Y879460D02*
D03*
Y854060D02*
D03*
X2068950Y904860D02*
D03*
Y879460D02*
D03*
Y854060D02*
D03*
X388270Y1085830D02*
D03*
Y1060430D02*
D03*
Y1035030D02*
D03*
X138270Y1085830D02*
D03*
Y1060430D02*
D03*
Y1035030D02*
D03*
X710050Y1085830D02*
D03*
Y1060430D02*
D03*
Y1035030D02*
D03*
X460050Y1085830D02*
D03*
Y1060430D02*
D03*
Y1035030D02*
D03*
X1031830Y1085830D02*
D03*
Y1060430D02*
D03*
Y1035030D02*
D03*
X781830Y1085830D02*
D03*
Y1060430D02*
D03*
Y1035030D02*
D03*
X1353610Y1085830D02*
D03*
Y1060430D02*
D03*
Y1035030D02*
D03*
X1103610Y1085830D02*
D03*
Y1060430D02*
D03*
Y1035030D02*
D03*
X1675390Y1085830D02*
D03*
Y1060430D02*
D03*
Y1035030D02*
D03*
X1425390Y1085830D02*
D03*
Y1060430D02*
D03*
Y1035030D02*
D03*
X1997170Y1085830D02*
D03*
Y1060430D02*
D03*
Y1035030D02*
D03*
X1747170Y1085830D02*
D03*
Y1060430D02*
D03*
Y1035030D02*
D03*
X2318950Y1085830D02*
D03*
Y1060430D02*
D03*
Y1035030D02*
D03*
X2068950Y1085830D02*
D03*
Y1060430D02*
D03*
Y1035030D02*
D03*
X388270Y1266800D02*
D03*
Y1241400D02*
D03*
Y1216000D02*
D03*
X138270Y1266800D02*
D03*
Y1241400D02*
D03*
Y1216000D02*
D03*
X710050Y1266800D02*
D03*
Y1241400D02*
D03*
Y1216000D02*
D03*
X460050Y1266800D02*
D03*
Y1241400D02*
D03*
Y1216000D02*
D03*
X1031830Y1266800D02*
D03*
Y1241400D02*
D03*
Y1216000D02*
D03*
X781830Y1266800D02*
D03*
Y1241400D02*
D03*
Y1216000D02*
D03*
X1353610Y1266800D02*
D03*
Y1241400D02*
D03*
Y1216000D02*
D03*
X1103610Y1266800D02*
D03*
Y1241400D02*
D03*
Y1216000D02*
D03*
X1675390Y1266800D02*
D03*
Y1241400D02*
D03*
Y1216000D02*
D03*
X1425390Y1266800D02*
D03*
Y1241400D02*
D03*
Y1216000D02*
D03*
X1997170Y1266800D02*
D03*
Y1241400D02*
D03*
Y1216000D02*
D03*
X1747170Y1266800D02*
D03*
Y1241400D02*
D03*
Y1216000D02*
D03*
X2318950Y1266800D02*
D03*
Y1241400D02*
D03*
Y1216000D02*
D03*
X2068950Y1266800D02*
D03*
Y1241400D02*
D03*
Y1216000D02*
D03*
X388270Y1447770D02*
D03*
Y1422370D02*
D03*
Y1396970D02*
D03*
X138270Y1447770D02*
D03*
Y1422370D02*
D03*
Y1396970D02*
D03*
X710050Y1447770D02*
D03*
Y1422370D02*
D03*
Y1396970D02*
D03*
X460050Y1447770D02*
D03*
Y1422370D02*
D03*
Y1396970D02*
D03*
X1031830Y1447770D02*
D03*
Y1422370D02*
D03*
Y1396970D02*
D03*
X781830Y1447770D02*
D03*
Y1422370D02*
D03*
Y1396970D02*
D03*
X1353610Y1447770D02*
D03*
Y1422370D02*
D03*
Y1396970D02*
D03*
X1103610Y1447770D02*
D03*
Y1422370D02*
D03*
Y1396970D02*
D03*
X1675390Y1447770D02*
D03*
Y1422370D02*
D03*
Y1396970D02*
D03*
X1425390Y1447770D02*
D03*
Y1422370D02*
D03*
Y1396970D02*
D03*
X1997170Y1447770D02*
D03*
Y1422370D02*
D03*
Y1396970D02*
D03*
X1747170Y1447770D02*
D03*
Y1422370D02*
D03*
Y1396970D02*
D03*
X2318950Y1447770D02*
D03*
Y1422370D02*
D03*
Y1396970D02*
D03*
X2068950Y1447770D02*
D03*
Y1422370D02*
D03*
Y1396970D02*
D03*
X388270Y1628740D02*
D03*
Y1603340D02*
D03*
Y1577940D02*
D03*
X138270Y1628740D02*
D03*
Y1603340D02*
D03*
Y1577940D02*
D03*
X710050Y1628740D02*
D03*
Y1603340D02*
D03*
Y1577940D02*
D03*
X460050Y1628740D02*
D03*
Y1603340D02*
D03*
Y1577940D02*
D03*
X1031830Y1628740D02*
D03*
Y1603340D02*
D03*
Y1577940D02*
D03*
X781830Y1628740D02*
D03*
Y1603340D02*
D03*
Y1577940D02*
D03*
X1353610Y1628740D02*
D03*
Y1603340D02*
D03*
Y1577940D02*
D03*
X1103610Y1628740D02*
D03*
Y1603340D02*
D03*
Y1577940D02*
D03*
X1675390Y1628740D02*
D03*
Y1603340D02*
D03*
Y1577940D02*
D03*
X1425390Y1628740D02*
D03*
Y1603340D02*
D03*
Y1577940D02*
D03*
X1997170Y1628740D02*
D03*
Y1603340D02*
D03*
Y1577940D02*
D03*
X1747170Y1628740D02*
D03*
Y1603340D02*
D03*
Y1577940D02*
D03*
X2318950Y1628740D02*
D03*
Y1603340D02*
D03*
Y1577940D02*
D03*
X2068950Y1628740D02*
D03*
Y1603340D02*
D03*
Y1577940D02*
D03*
X388270Y1809710D02*
D03*
Y1784310D02*
D03*
Y1758910D02*
D03*
X138270Y1809710D02*
D03*
Y1784310D02*
D03*
Y1758910D02*
D03*
X710050Y1809710D02*
D03*
Y1784310D02*
D03*
Y1758910D02*
D03*
X460050Y1809710D02*
D03*
Y1784310D02*
D03*
Y1758910D02*
D03*
X1031830Y1809710D02*
D03*
Y1784310D02*
D03*
Y1758910D02*
D03*
X781830Y1809710D02*
D03*
Y1784310D02*
D03*
Y1758910D02*
D03*
X1353610Y1809710D02*
D03*
Y1784310D02*
D03*
Y1758910D02*
D03*
X1103610Y1809710D02*
D03*
Y1784310D02*
D03*
Y1758910D02*
D03*
X1675390Y1809710D02*
D03*
Y1784310D02*
D03*
Y1758910D02*
D03*
X1425390Y1809710D02*
D03*
Y1784310D02*
D03*
Y1758910D02*
D03*
X1997170Y1809710D02*
D03*
Y1784310D02*
D03*
Y1758910D02*
D03*
X1747170Y1809710D02*
D03*
Y1784310D02*
D03*
Y1758910D02*
D03*
X2318950Y1809710D02*
D03*
Y1784310D02*
D03*
Y1758910D02*
D03*
X2068950Y1809710D02*
D03*
Y1784310D02*
D03*
Y1758910D02*
D03*
D14*
X388270Y285750D02*
D03*
X138270D02*
D03*
X710050D02*
D03*
X460050D02*
D03*
X1031830D02*
D03*
X781830D02*
D03*
X1353610D02*
D03*
X1103610D02*
D03*
X1675390D02*
D03*
X1425390D02*
D03*
X1997170D02*
D03*
X1747170D02*
D03*
X2318950D02*
D03*
X2068950D02*
D03*
X388270Y466720D02*
D03*
X138270D02*
D03*
X710050D02*
D03*
X460050D02*
D03*
X1031830D02*
D03*
X781830D02*
D03*
X1353610D02*
D03*
X1103610D02*
D03*
X1675390D02*
D03*
X1425390D02*
D03*
X1997170D02*
D03*
X1747170D02*
D03*
X2318950D02*
D03*
X2068950D02*
D03*
X388270Y647690D02*
D03*
X138270D02*
D03*
X710050D02*
D03*
X460050D02*
D03*
X1031830D02*
D03*
X781830D02*
D03*
X1353610D02*
D03*
X1103610D02*
D03*
X1675390D02*
D03*
X1425390D02*
D03*
X1997170D02*
D03*
X1747170D02*
D03*
X2318950D02*
D03*
X2068950D02*
D03*
X388270Y828660D02*
D03*
X138270D02*
D03*
X710050D02*
D03*
X460050D02*
D03*
X1031830D02*
D03*
X781830D02*
D03*
X1353610D02*
D03*
X1103610D02*
D03*
X1675390D02*
D03*
X1425390D02*
D03*
X1997170D02*
D03*
X1747170D02*
D03*
X2318950D02*
D03*
X2068950D02*
D03*
X388270Y1009630D02*
D03*
X138270D02*
D03*
X710050D02*
D03*
X460050D02*
D03*
X1031830D02*
D03*
X781830D02*
D03*
X1353610D02*
D03*
X1103610D02*
D03*
X1675390D02*
D03*
X1425390D02*
D03*
X1997170D02*
D03*
X1747170D02*
D03*
X2318950D02*
D03*
X2068950D02*
D03*
X388270Y1190600D02*
D03*
X138270D02*
D03*
X710050D02*
D03*
X460050D02*
D03*
X1031830D02*
D03*
X781830D02*
D03*
X1353610D02*
D03*
X1103610D02*
D03*
X1675390D02*
D03*
X1425390D02*
D03*
X1997170D02*
D03*
X1747170D02*
D03*
X2318950D02*
D03*
X2068950D02*
D03*
X388270Y1371570D02*
D03*
X138270D02*
D03*
X710050D02*
D03*
X460050D02*
D03*
X1031830D02*
D03*
X781830D02*
D03*
X1353610D02*
D03*
X1103610D02*
D03*
X1675390D02*
D03*
X1425390D02*
D03*
X1997170D02*
D03*
X1747170D02*
D03*
X2318950D02*
D03*
X2068950D02*
D03*
X388270Y1552540D02*
D03*
X138270D02*
D03*
X710050D02*
D03*
X460050D02*
D03*
X1031830D02*
D03*
X781830D02*
D03*
X1353610D02*
D03*
X1103610D02*
D03*
X1675390D02*
D03*
X1425390D02*
D03*
X1997170D02*
D03*
X1747170D02*
D03*
X2318950D02*
D03*
X2068950D02*
D03*
X388270Y1733510D02*
D03*
X138270D02*
D03*
X710050D02*
D03*
X460050D02*
D03*
X1031830D02*
D03*
X781830D02*
D03*
X1353610D02*
D03*
X1103610D02*
D03*
X1675390D02*
D03*
X1425390D02*
D03*
X1997170D02*
D03*
X1747170D02*
D03*
X2318950D02*
D03*
X2068950D02*
D03*
M02*
