M48
;Layer_Color=9474304
;FILE_FORMAT=4:4
METRIC,LZ
;TYPE=PLATED
T1F00S00C0.3000
T2F00S00C0.9000
%
T01
X0028464Y0027305
X0027432Y0031115
X0028464Y0033655
X0027416Y0037338
X0031004Y0037211
Y0037719
X0031512
Y0037211
Y0031369
Y0030861
X0031004
Y0031369
X005961Y0031115
X0060642Y0033655
X0059594Y0037338
X0063182Y0037211
Y0037719
X006369
Y0037211
Y0031369
Y0030861
X0063182
Y0031369
X0060642Y0027305
X009282
X0091788Y0031115
X009282Y0033655
X0091772Y0037338
X009536Y0037211
Y0037719
X0095868
Y0037211
Y0031369
Y0030861
X009536
Y0031369
X0123966Y0031115
X0124998Y0033655
X012395Y0037338
X0127538Y0037211
Y0037719
X0128046
Y0037211
Y0031369
Y0030861
X0127538
Y0031369
X0124998Y0027305
X0157176
X0156144Y0031115
X0157176Y0033655
X0156128Y0037338
X0159716Y0037211
Y0037719
X0160224
Y0037211
Y0031369
Y0030861
X0159716
Y0031369
X0188322Y0031115
X0189354Y0033655
X0188306Y0037338
X0191894Y0037211
Y0037719
X0192402
Y0037211
Y0031369
Y0030861
X0191894
Y0031369
X0189354Y0027305
X0221532
X02205Y0031115
X0221532Y0033655
X0220484Y0037338
X0224072Y0037211
Y0037719
X022458
Y0037211
Y0031369
Y0030861
X0224072
Y0031369
X0221532Y0045402
X02205Y0049212
X0221532Y0051752
X0220484Y0055435
X0224072Y0055308
Y0055816
X022458
Y0055308
Y0049466
Y0048958
X0224072
Y0049466
X0221532Y0063499
X02205Y0067309
X0221532Y0069849
X0220484Y0073532
X0224072Y0073405
Y0073913
X022458
Y0073405
Y0067563
Y0067055
X0224072
Y0067563
X0192402
Y0067055
X0191894
Y0067563
X0188322Y0067309
X0189354Y0069849
X0188306Y0073532
X0191894Y0073405
Y0073913
X0192402
Y0073405
X0189354Y0063499
X0188306Y0055435
X0191894Y0055308
Y0055816
X0192402
Y0055308
Y0049466
Y0048958
X0191894
Y0049466
X0188322Y0049212
X0189354Y0051752
Y0045402
X0160224Y0048958
X0159716
Y0049466
X0160224
Y0055308
X0159716
Y0055816
X0160224
Y0067055
X0159716
Y0067563
X0160224
Y0073405
X0159716
Y0073913
X0160224
X0156128Y0073532
X0157176Y0069849
X0156144Y0067309
X0157176Y0063499
X0156128Y0055435
X0157176Y0051752
X0156144Y0049212
X0157176Y0045402
X0124998
X0123966Y0049212
X0124998Y0051752
X012395Y0055435
X0127538Y0055308
Y0055816
X0128046
Y0055308
Y0049466
Y0048958
X0127538
Y0049466
X0124998Y0063499
X0123966Y0067309
X0124998Y0069849
X012395Y0073532
X0127538Y0073405
Y0073913
X0128046
Y0073405
Y0067563
Y0067055
X0127538
Y0067563
X0095868
Y0067055
X009536
Y0067563
X0091788Y0067309
X009282Y0069849
X0091772Y0073532
X009536Y0073405
Y0073913
X0095868
Y0073405
X009282Y0063499
X0091772Y0055435
X009536Y0055308
Y0055816
X0095868
Y0055308
Y0049466
Y0048958
X009536
Y0049466
X0091788Y0049212
X009282Y0051752
Y0045402
X0060642
X005961Y0049212
X0060642Y0051752
X0059594Y0055435
X0063182Y0055308
Y0055816
X006369
Y0055308
Y0049466
Y0048958
X0063182
Y0049466
X0060642Y0063499
X005961Y0067309
X0060642Y0069849
X0059594Y0073532
X0063182Y0073405
Y0073913
X006369
Y0073405
Y0067563
Y0067055
X0063182
Y0067563
X0031512
Y0067055
X0031004
Y0067563
X0027432Y0067309
X0028464Y0069849
X0027416Y0073532
X0031004Y0073405
Y0073913
X0031512
Y0073405
X0028464Y0063499
X0027416Y0055435
X0031004Y0055308
Y0055816
X0031512
Y0055308
Y0049466
Y0048958
X0031004
Y0049466
X0027432Y0049212
X0028464Y0051752
Y0045402
Y0081596
X0027432Y0085406
X0028464Y0087946
X0027416Y0091629
X0031004Y0091502
Y009201
X0031512
Y0091502
Y008566
Y0085152
X0031004
Y008566
X0028464Y0099693
X0027432Y0103503
X0028464Y0106043
X0027416Y0109726
X0031004Y0109599
Y0110107
X0031512
Y0109599
Y0103757
Y0103249
X0031004
Y0103757
X0028464Y011779
X0060642
X0059594Y0109726
X0063182Y0109599
Y0110107
X006369
Y0109599
Y0103757
Y0103249
X0063182
Y0103757
X005961Y0103503
X0060642Y0106043
Y0099693
X0059594Y0091629
X0063182Y0091502
Y009201
X006369
Y0091502
Y008566
Y0085152
X0063182
Y008566
X005961Y0085406
X0060642Y0087946
Y0081596
X009282
X0091788Y0085406
X009282Y0087946
X0091772Y0091629
X009536Y0091502
Y009201
X0095868
Y0091502
Y008566
Y0085152
X009536
Y008566
X009282Y0099693
X0091788Y0103503
X009282Y0106043
X0091772Y0109726
X009536Y0109599
Y0110107
X0095868
Y0109599
Y0103757
Y0103249
X009536
Y0103757
X009282Y011779
X0124998
X012395Y0109726
X0127538Y0109599
Y0110107
X0128046
Y0109599
Y0103757
Y0103249
X0127538
Y0103757
X0123966Y0103503
X0124998Y0106043
Y0099693
X012395Y0091629
X0127538Y0091502
Y009201
X0128046
Y0091502
Y008566
Y0085152
X0127538
Y008566
X0123966Y0085406
X0124998Y0087946
Y0081596
X0157176
X0156144Y0085406
X0157176Y0087946
X0156128Y0091629
X0157176Y0099693
X0156144Y0103503
X0157176Y0106043
X0156128Y0109726
X0157176Y011779
X0159716Y0110107
Y0109599
X0160224
Y0110107
Y0103757
Y0103249
X0159716
Y0103757
Y009201
Y0091502
X0160224
Y009201
Y008566
Y0085152
X0159716
Y008566
X0188322Y0085406
X0189354Y0087946
X0188306Y0091629
X0191894Y0091502
Y009201
X0192402
Y0091502
Y008566
Y0085152
X0191894
Y008566
X0189354Y0081596
Y0099693
X0188322Y0103503
X0189354Y0106043
X0188306Y0109726
X0191894Y0109599
Y0110107
X0192402
Y0109599
Y0103757
Y0103249
X0191894
Y0103757
X0189354Y011779
X0221532
X0220484Y0109726
X0224072Y0109599
Y0110107
X022458
Y0109599
Y0103757
Y0103249
X0224072
Y0103757
X02205Y0103503
X0221532Y0106043
Y0099693
X0220484Y0091629
X0224072Y0091502
Y009201
X022458
Y0091502
Y008566
Y0085152
X0224072
Y008566
X02205Y0085406
X0221532Y0087946
Y0081596
X02205Y01216
X0221532Y012414
X0220484Y0127823
X0224072Y0127696
Y0128204
X022458
Y0127696
Y0121854
Y0121346
X0224072
Y0121854
X0221532Y0135887
X02205Y0139697
X0221532Y0142237
X0220484Y014592
X0224072Y0145793
Y0146301
X022458
Y0145793
Y0139951
Y0139443
X0224072
Y0139951
X0221532Y0153984
X02205Y0157794
X0224072Y015754
X022458
Y0158048
X0224072
X0192402
Y015754
X0191894
Y0158048
X0188322Y0157794
X0189354Y0153984
X0188306Y014592
X0191894Y0145793
Y0146301
X0192402
Y0145793
Y0139951
Y0139443
X0191894
Y0139951
X0188322Y0139697
X0189354Y0142237
Y0135887
X0188306Y0127823
X0191894Y0127696
Y0128204
X0192402
Y0127696
Y0121854
Y0121346
X0191894
Y0121854
X0188322Y01216
X0189354Y012414
X0160224Y0121854
Y0121346
X0159716
Y0121854
Y0127696
Y0128204
X0160224
Y0127696
Y0139443
X0159716
Y0139951
X0160224
Y0145793
X0159716
Y0146301
X0160224
Y015754
X0159716
Y0158048
X0160224
X0156144Y0157794
X0157176Y0153984
X0156128Y014592
X0157176Y0142237
X0156144Y0139697
X0157176Y0135887
X0156128Y0127823
X0157176Y012414
X0156144Y01216
X0128046Y0121854
Y0121346
X0127538
Y0121854
X0123966Y01216
X0124998Y012414
X012395Y0127823
X0127538Y0127696
Y0128204
X0128046
Y0127696
X0124998Y0135887
X0123966Y0139697
X0124998Y0142237
X012395Y014592
X0127538Y0145793
Y0146301
X0128046
Y0145793
Y0139951
Y0139443
X0127538
Y0139951
X0124998Y0153984
X0123966Y0157794
X0127538Y015754
X0128046
Y0158048
X0127538
X0095868
Y015754
X009536
Y0158048
X0091788Y0157794
X009282Y0153984
X0091772Y014592
X009536Y0145793
Y0146301
X0095868
Y0145793
Y0139951
Y0139443
X009536
Y0139951
X0091788Y0139697
X009282Y0142237
Y0135887
X0091772Y0127823
X009536Y0127696
Y0128204
X0095868
Y0127696
Y0121854
Y0121346
X009536
Y0121854
X0091788Y01216
X009282Y012414
X006369Y0121854
Y0121346
X0063182
Y0121854
X005961Y01216
X0060642Y012414
X0059594Y0127823
X0063182Y0127696
Y0128204
X006369
Y0127696
X0060642Y0135887
X005961Y0139697
X0060642Y0142237
X0059594Y014592
X0063182Y0145793
Y0146301
X006369
Y0145793
Y0139951
Y0139443
X0063182
Y0139951
X0060642Y0153984
X005961Y0157794
X0063182Y015754
X006369
Y0158048
X0063182
X0031512
Y015754
X0031004
Y0158048
X0027432Y0157794
X0028464Y0153984
X0027416Y014592
X0031004Y0145793
Y0146301
X0031512
Y0145793
Y0139951
Y0139443
X0031004
Y0139951
X0027432Y0139697
X0028464Y0142237
Y0135887
X0027416Y0127823
X0031004Y0127696
Y0128204
X0031512
Y0127696
Y0121854
Y0121346
X0031004
Y0121854
X0027432Y01216
X0028464Y012414
Y0160334
X0027416Y0164017
X0031004Y016389
Y0164398
X0031512
Y016389
X0028464Y0172081
X0027432Y0175891
X0028464Y0178431
X0027416Y0182114
X0031004Y0181987
Y0182495
X0031512
Y0181987
Y0176145
Y0175637
X0031004
Y0176145
X005961Y0175891
X0060642Y0178431
X0059594Y0182114
X0063182Y0181987
Y0182495
X006369
Y0181987
Y0176145
Y0175637
X0063182
Y0176145
X0060642Y0172081
X0059594Y0164017
X0063182Y016389
Y0164398
X006369
Y016389
X0060642Y0160334
X009282
X0091772Y0164017
X009536Y016389
Y0164398
X0095868
Y016389
X009282Y0172081
X0091788Y0175891
X009282Y0178431
X0091772Y0182114
X009536Y0181987
Y0182495
X0095868
Y0181987
Y0176145
Y0175637
X009536
Y0176145
X0123966Y0175891
X0124998Y0178431
X012395Y0182114
X0127538Y0181987
Y0182495
X0128046
Y0181987
Y0176145
Y0175637
X0127538
Y0176145
X0124998Y0172081
X012395Y0164017
X0127538Y016389
Y0164398
X0128046
Y016389
X0124998Y0160334
X0157176
X0156128Y0164017
X0157176Y0172081
X0156144Y0175891
X0157176Y0178431
X0156128Y0182114
X0159716Y0181987
Y0182495
X0160224
Y0181987
Y0176145
Y0175637
X0159716
Y0176145
Y0164398
Y016389
X0160224
Y0164398
X0188306Y0164017
X0191894Y016389
Y0164398
X0192402
Y016389
X0189354Y0160334
Y0172081
X0188322Y0175891
X0189354Y0178431
X0188306Y0182114
X0191894Y0181987
Y0182495
X0192402
Y0181987
Y0176145
Y0175637
X0191894
Y0176145
X02205Y0175891
X0221532Y0178431
X0220484Y0182114
X0224072Y0181987
Y0182495
X022458
Y0181987
Y0176145
Y0175637
X0224072
Y0176145
X0221532Y0172081
X0220484Y0164017
X0224072Y016389
Y0164398
X022458
Y016389
X0221532Y0160334
T02
X0013827Y0028575
Y0031115
Y0033655
Y0036195
X0038827
Y0033655
Y0031115
Y0028575
X0046005
Y0031115
Y0033655
Y0036195
X0071005
Y0033655
Y0031115
Y0028575
X0078183
Y0031115
Y0033655
Y0036195
X0103183
Y0033655
Y0031115
Y0028575
X0110361
Y0031115
Y0033655
Y0036195
X0135361
Y0033655
Y0031115
Y0028575
X0142539
Y0031115
Y0033655
Y0036195
X0167539
Y0033655
Y0031115
Y0028575
X0174717
Y0031115
Y0033655
Y0036195
X0199717
Y0033655
Y0031115
Y0028575
X0206895
Y0031115
Y0033655
Y0036195
X0231895
Y0033655
Y0031115
Y0028575
Y0046672
Y0049212
Y0051752
Y0054292
Y0064769
Y0067309
Y0069849
Y0072389
X0206895
Y0069849
Y0067309
Y0064769
X0199717
Y0067309
Y0069849
Y0072389
Y0054292
Y0051752
Y0049212
Y0046672
X0206895
Y0049212
Y0051752
Y0054292
X0174717
Y0051752
Y0049212
Y0046672
X0167539
Y0049212
Y0051752
Y0054292
Y0064769
Y0067309
Y0069849
Y0072389
X0174717
Y0069849
Y0067309
Y0064769
X0142539
Y0067309
Y0069849
Y0072389
X0135361
Y0069849
Y0067309
Y0064769
Y0054292
Y0051752
Y0049212
Y0046672
X0142539
Y0049212
Y0051752
Y0054292
X0110361
Y0051752
Y0049212
Y0046672
X0103183
Y0049212
Y0051752
Y0054292
Y0064769
Y0067309
Y0069849
Y0072389
X0110361
Y0069849
Y0067309
Y0064769
X0078183
Y0067309
Y0069849
Y0072389
X0071005
Y0069849
Y0067309
Y0064769
Y0054292
Y0051752
Y0049212
Y0046672
X0078183
Y0049212
Y0051752
Y0054292
X0046005
Y0051752
Y0049212
Y0046672
Y0064769
Y0067309
Y0069849
Y0072389
X0038827
Y0069849
Y0067309
Y0064769
Y0054292
Y0051752
Y0049212
Y0046672
X0013827
Y0049212
Y0051752
Y0054292
Y0064769
Y0067309
Y0069849
Y0072389
Y0082866
Y0085406
Y0087946
Y0090486
Y0100963
Y0103503
Y0106043
Y0108583
Y011906
X0038827
Y0108583
Y0106043
Y0103503
Y0100963
Y0090486
Y0087946
Y0085406
Y0082866
X0046005
Y0085406
Y0087946
Y0090486
Y0100963
Y0103503
Y0106043
Y0108583
Y011906
X0071005
X0078183
Y0108583
Y0106043
Y0103503
Y0100963
X0071005
Y0103503
Y0106043
Y0108583
Y0090486
Y0087946
Y0085406
Y0082866
X0078183
Y0085406
Y0087946
Y0090486
X0103183
Y0087946
Y0085406
Y0082866
X0110361
Y0085406
Y0087946
Y0090486
Y0100963
Y0103503
Y0106043
Y0108583
X0103183
Y0106043
Y0103503
Y0100963
Y011906
X0110361
X0135361
X0142539
Y0108583
Y0106043
Y0103503
Y0100963
X0135361
Y0103503
Y0106043
Y0108583
Y0090486
Y0087946
Y0085406
Y0082866
X0142539
Y0085406
Y0087946
Y0090486
X0167539
Y0087946
Y0085406
Y0082866
X0174717
Y0085406
Y0087946
Y0090486
Y0100963
Y0103503
Y0106043
Y0108583
X0167539
Y0106043
Y0103503
Y0100963
Y011906
X0174717
X0199717
X0206895
Y0108583
Y0106043
Y0103503
Y0100963
X0199717
Y0103503
Y0106043
Y0108583
Y0090486
Y0087946
Y0085406
Y0082866
X0206895
Y0085406
Y0087946
Y0090486
X0231895
Y0087946
Y0085406
Y0082866
Y0100963
Y0103503
Y0106043
Y0108583
Y011906
Y01216
Y012414
Y012668
Y0137157
Y0139697
Y0142237
Y0144777
Y0155254
Y0157794
X0206895
Y0155254
X0199717
Y0157794
Y0144777
Y0142237
Y0139697
Y0137157
X0206895
Y0139697
Y0142237
Y0144777
Y012668
Y012414
Y01216
X0199717
Y012414
Y012668
X0174717
Y012414
Y01216
X0167539
Y012414
Y012668
Y0137157
Y0139697
Y0142237
Y0144777
X0174717
Y0142237
Y0139697
Y0137157
Y0155254
Y0157794
X0167539
Y0155254
X0142539
Y0157794
X0135361
Y0155254
Y0144777
Y0142237
Y0139697
Y0137157
X0142539
Y0139697
Y0142237
Y0144777
Y012668
Y012414
Y01216
X0135361
Y012414
Y012668
X0110361
Y012414
Y01216
X0103183
Y012414
Y012668
Y0137157
Y0139697
Y0142237
Y0144777
X0110361
Y0142237
Y0139697
Y0137157
Y0155254
Y0157794
X0103183
Y0155254
X0078183
Y0157794
X0071005
Y0155254
Y0144777
Y0142237
Y0139697
Y0137157
X0078183
Y0139697
Y0142237
Y0144777
Y012668
Y012414
Y01216
X0071005
Y012414
Y012668
X0046005
Y012414
Y01216
Y0137157
Y0139697
Y0142237
Y0144777
Y0155254
Y0157794
X0038827
Y0155254
Y0144777
Y0142237
Y0139697
Y0137157
Y012668
Y012414
Y01216
X0013827
Y012414
Y012668
Y0137157
Y0139697
Y0142237
Y0144777
Y0155254
Y0157794
Y0160334
Y0162874
Y0173351
Y0175891
Y0178431
Y0180971
X0038827
Y0178431
Y0175891
Y0173351
Y0162874
Y0160334
X0046005
Y0162874
Y0173351
Y0175891
Y0178431
Y0180971
X0071005
Y0178431
Y0175891
Y0173351
X0078183
Y0175891
Y0178431
Y0180971
Y0162874
Y0160334
X0071005
Y0162874
X0103183
Y0160334
X0110361
Y0162874
Y0173351
Y0175891
Y0178431
Y0180971
X0103183
Y0178431
Y0175891
Y0173351
X0135361
Y0175891
Y0178431
Y0180971
X0142539
Y0178431
Y0175891
Y0173351
Y0162874
Y0160334
X0135361
Y0162874
X0167539
Y0160334
X0174717
Y0162874
Y0173351
Y0175891
Y0178431
Y0180971
X0167539
Y0178431
Y0175891
Y0173351
X0199717
Y0175891
Y0178431
Y0180971
X0206895
Y0178431
Y0175891
Y0173351
Y0162874
Y0160334
X0199717
Y0162874
X0231895
Y0160334
Y0173351
Y0175891
Y0178431
Y0180971
M30
